<svg xmlns="http://www.w3.org/2000/svg" width="17.756" height="18" viewBox="0 0 17.756 18">
  <g id="组_16" data-name="组 16" transform="translate(-1424.333 136.463)">
    <g id="shopping_bag-black-18dp" transform="translate(1424 -136)">
      <rect id="矩形_31" data-name="矩形 31" width="17" height="18" transform="translate(0.333 -0.463)" fill="none"/>
      <path id="路径_4" data-name="路径 4" d="M14.23,4.923H12.768a2.923,2.923,0,0,0-5.846,0H5.461A1.466,1.466,0,0,0,4,6.384v8.768a1.466,1.466,0,0,0,1.461,1.461H14.23a1.466,1.466,0,0,0,1.461-1.461V6.384A1.466,1.466,0,0,0,14.23,4.923ZM9.846,3.461a1.466,1.466,0,0,1,1.461,1.461H8.384A1.466,1.466,0,0,1,9.846,3.461ZM14.23,15.153H5.461V6.384H6.923V7.846a.731.731,0,0,0,1.461,0V6.384h2.923V7.846a.731.731,0,0,0,1.461,0V6.384H14.23Z" transform="translate(-1.077 -0.539)" fill="#d0011b"/>
    </g>
    <g id="组_15" data-name="组 15" transform="translate(1433.499 -127.962)">
      <rect id="矩形_32" data-name="矩形 32" width="5" height="6" transform="translate(1.834 0.499)" fill="#fff"/>
      <path id="clock-solid" d="M12.3,8a4.3,4.3,0,1,0,4.3,4.3A4.294,4.294,0,0,0,12.3,8Zm1.6,5.421h0l-.346.433a.277.277,0,0,1-.389.043h0L12,13.036a.693.693,0,0,1-.26-.541V9.8a.277.277,0,0,1,.277-.277h.554a.277.277,0,0,1,.277.277V12.3l1,.736A.277.277,0,0,1,13.9,13.421Z" transform="translate(-8 -8)" fill="#d0011b"/>
    </g>
  </g>
</svg>
