<?xml version="1.0" encoding="utf-8"?>
<!-- Generator: Adobe Illustrator 23.0.2, SVG Export Plug-In . SVG Version: 6.00 Build 0)  -->
<svg version="1.1" id="圖層_1" xmlns="http://www.w3.org/2000/svg" xmlns:xlink="http://www.w3.org/1999/xlink" x="0px" y="0px"
	 viewBox="0 0 2150.3 893.3" style="enable-background:new 0 0 2150.3 893.3;" xml:space="preserve">
<style type="text/css">
	.st0{fill:#001E60;}
</style>
<path class="st0" d="M98.5,118.4c0,0,98.4-68.4,194.1-60.2s27.3,8.2,194.1,19.1s196.9-13.7,259.7-13.7s106.6,13.7,218.7,24.6
	s185.9-49.2,281.6-38.3c95.7,10.9,267.9,16.4,300.8,16.4c32.8,0,24.6-24.6,185.9-24.6s287.1,30.1,314.4,51.9
	c27.3,21.9,73.8,21.9,84.8,128.5c10.9,106.6-41,185.9-19.1,262.5s41,164.1,13.7,235.1s-60.2,106.6-350,82S639.9,870.3,527.8,815.6
	s-533.2,93-500.4-112.1S-51.9,298.8,98.5,118.4z"/>
</svg>
