<?xml version="1.0" encoding="utf-8"?>
<!-- Generator: Adobe Illustrator 23.0.3, SVG Export Plug-In . SVG Version: 6.00 Build 0)  -->
<svg version="1.1" id="圖層_1" xmlns="http://www.w3.org/2000/svg" xmlns:xlink="http://www.w3.org/1999/xlink" x="0px" y="0px"
	 viewBox="0 0 200 200" style="enable-background:new 0 0 200 200;" xml:space="preserve">
<style type="text/css">
	.st0{fill:#EE5984;stroke:#EE5984;stroke-width:2;stroke-miterlimit:10;}
	.st1{fill:#EE5984;}
</style>
<title>event_icon</title>
<path class="st0" d="M100,197.4c-53.8,0-97.4-43.6-97.4-97.4c0-53.8,43.6-97.4,97.4-97.4c16.8,0,33.3,4.3,47.9,12.6l-2.3,4
	C101-6.1,44.3,9.6,19.1,54.3S9.5,155.6,54.2,180.8s101.3,9.6,126.6-35.1c19.8-34.9,14.9-78.6-12.2-108.3l3.4-3.1
	c36.2,39.8,33.3,101.4-6.4,137.6C147.6,188.3,124.3,197.4,100,197.4L100,197.4z"/>
<path class="st1" d="M122,33.2c0,0,2,16.6,0,30.1c-2,12.9-12.1,23.4-25,23.4S75.9,76.2,77.9,63.3l0.5-2.3
	c-15,15-25.6,34.5-28.8,55.7c-4.3,27.7,14.7,50.1,42.4,50.1s53.6-22.4,57.8-50.1C155,82.9,143.4,52.8,122,33.2z M93,148
	c-11.2,0-18.8-8.8-17.1-19.7c1.6-10.2,9.2-17.3,20.6-19.5s23.7-7.6,31.4-16.2c1.2,8.4,1.1,16.9-0.2,25.3
	C125.2,134.5,109.6,148,93,148z"/>
</svg>
