<svg id="圖層_1" data-name="圖層 1" xmlns="http://www.w3.org/2000/svg" xmlns:xlink="http://www.w3.org/1999/xlink" viewBox="0 0 200 200"><defs><style>.cls-1{fill:url(#未命名漸層_8);}.cls-2{fill:url(#未命名漸層_8-2);}</style><linearGradient id="未命名漸層_8" x1="218.98" y1="2.52" x2="91.83" y2="106.69" gradientUnits="userSpaceOnUse"><stop offset="0" stop-color="#ebad00"/><stop offset="0.08" stop-color="#ebae04"/><stop offset="0.16" stop-color="#ecb30f"/><stop offset="0.24" stop-color="#eeb922"/><stop offset="0.32" stop-color="#f0c33d"/><stop offset="0.4" stop-color="#f3d060"/><stop offset="0.47" stop-color="#f6df89"/><stop offset="0.5" stop-color="#f8e69c"/><stop offset="0.55" stop-color="#f0da92"/><stop offset="0.65" stop-color="#dcb878"/><stop offset="0.78" stop-color="#bb834f"/><stop offset="0.94" stop-color="#8f3915"/><stop offset="1" stop-color="#7e1e00"/></linearGradient><linearGradient id="未命名漸層_8-2" x1="223.82" y1="8.43" x2="96.68" y2="112.6" xlink:href="#未命名漸層_8"/></defs><title>event_icon</title><path class="cls-1" d="M100,197.41A97.41,97.41,0,1,1,147.93,15.18l-2.29,4a92.87,92.87,0,1,0,22.92,18.29L172,34.38a97.41,97.41,0,0,1-72,163Z"/><path class="cls-2" d="M122,33.21S124,49.8,122,63.27c-2,12.9-12.06,23.36-25,23.36S75.87,76.17,77.86,63.27L78.4,61c-15,15-25.56,34.51-28.82,55.68-4.27,27.68,14.69,50.1,42.37,50.1s53.56-22.42,57.83-50.1C155,82.93,143.42,52.81,122,33.21ZM93,148c-11.15,0-18.81-8.77-17.13-19.67,1.57-10.15,9.24-17.29,20.61-19.54s23.72-7.58,31.43-16.16a84.3,84.3,0,0,1-.21,25.3C125.17,134.54,109.63,148,93,148Z"/></svg>