<svg id="圖層_1" data-name="圖層 1" xmlns="http://www.w3.org/2000/svg" xmlns:xlink="http://www.w3.org/1999/xlink" viewBox="0 0 200 200"><defs><style>.cls-1{fill:url(#未命名漸層_14);}.cls-2{fill:url(#未命名漸層_14-2);}.cls-3{fill:url(#未命名漸層_14-3);}.cls-4{fill:url(#未命名漸層_14-4);}.cls-5{fill:url(#未命名漸層_14-5);}</style><linearGradient id="未命名漸層_14" x1="82.22" y1="295.22" x2="126.64" y2="2.62" gradientUnits="userSpaceOnUse"><stop offset="0" stop-color="#ebad00"/><stop offset="0.09" stop-color="#e8a900"/><stop offset="0.18" stop-color="#df9e00"/><stop offset="0.26" stop-color="#d18b00"/><stop offset="0.35" stop-color="#bd7000"/><stop offset="0.43" stop-color="#a24e00"/><stop offset="0.51" stop-color="#822400"/><stop offset="0.52" stop-color="#7e1e00"/><stop offset="1" stop-color="#f8e69c"/></linearGradient><linearGradient id="未命名漸層_14-2" x1="84.76" y1="295.6" x2="129.19" y2="3.01" xlink:href="#未命名漸層_14"/><linearGradient id="未命名漸層_14-3" x1="14.5" y1="284.93" x2="58.93" y2="-7.66" xlink:href="#未命名漸層_14"/><linearGradient id="未命名漸層_14-4" x1="70.63" y1="293.46" x2="115.05" y2="0.86" xlink:href="#未命名漸層_14"/><linearGradient id="未命名漸層_14-5" x1="49.21" y1="290.2" x2="93.63" y2="-2.39" xlink:href="#未命名漸層_14"/></defs><title>event_icon</title><path class="cls-1" d="M65,113.47a8.9,8.9,0,0,0,2.68,6.41l31.85,31.85a8.93,8.93,0,0,0,6.42,2.69,9.1,9.1,0,0,0,6.42-2.64l40.95-40.95a9.1,9.1,0,0,0,2.68-6.46V72.52a9.13,9.13,0,0,0-9.1-9.1H115.05a9.09,9.09,0,0,0-6.42,2.63L67.68,107A9.23,9.23,0,0,0,65,113.47Zm68.25-34.13a6.83,6.83,0,1,1,6.82,6.83A6.81,6.81,0,0,1,133.25,79.34Z"/><path class="cls-2" d="M112.37,160.36A9.05,9.05,0,0,1,106,163a8.92,8.92,0,0,1-6.42-2.68L67.68,128.47a9.15,9.15,0,0,1-1.58-2.17,9.25,9.25,0,0,0-1.1,4.33,8.91,8.91,0,0,0,2.68,6.42L99.53,168.9a8.92,8.92,0,0,0,6.42,2.68,9.09,9.09,0,0,0,6.42-2.63L153.32,128a9.11,9.11,0,0,0,2.68-6.47V113a9.09,9.09,0,0,1-2.68,6.46Z"/><polygon class="cls-3" points="44.19 80.05 48.17 88.11 57.07 89.4 50.63 95.68 52.15 104.54 44.19 100.36 36.23 104.54 37.75 95.68 31.31 89.4 40.21 88.11 44.19 80.05"/><path class="cls-4" d="M100,197.41A97.41,97.41,0,1,1,147.93,15.18l-2.29,4a92.87,92.87,0,1,0,22.92,18.29L172,34.38a97.41,97.41,0,0,1-72,163Z"/><polygon class="cls-5" points="86.86 29.23 92.38 40.41 104.72 42.21 95.79 50.91 97.9 63.2 86.86 57.4 75.82 63.2 77.93 50.91 69 42.21 81.34 40.41 86.86 29.23"/></svg>