<?xml version="1.0" encoding="utf-8"?>
<!-- Generator: Adobe Illustrator 23.0.3, SVG Export Plug-In . SVG Version: 6.00 Build 0)  -->
<svg version="1.1" id="圖層_1" xmlns="http://www.w3.org/2000/svg" xmlns:xlink="http://www.w3.org/1999/xlink" x="0px" y="0px"
	 viewBox="0 0 200 200" style="enable-background:new 0 0 200 200;" xml:space="preserve">
<style type="text/css">
	.st0{fill:#EE5984;}
	.st1{fill:#EE5984;stroke:#EE5984;stroke-width:2;stroke-miterlimit:10;}
</style>
<title>event_icon</title>
<path class="st0" d="M65,113.5c0,2.4,1,4.7,2.7,6.4l31.8,31.9c1.7,1.7,4,2.7,6.4,2.7c2.4,0,4.7-0.9,6.4-2.6l40.9-40.9
	c1.7-1.7,2.7-4,2.7-6.5V72.5c0-5-4.1-9.1-9.1-9.1h-31.8c-2.4,0-4.7,0.9-6.4,2.6l-41,41C66,108.7,65,111,65,113.5z M133.3,79.3
	c0-3.8,3.1-6.8,6.8-6.8c3.8,0,6.8,3.1,6.8,6.8c0,3.8-3.1,6.8-6.8,6.8c0,0,0,0,0,0C136.3,86.2,133.3,83.1,133.3,79.3
	C133.2,79.4,133.2,79.4,133.3,79.3z"/>
<path class="st0" d="M112.4,160.4c-1.7,1.7-4,2.6-6.4,2.6c-2.4,0-4.7-1-6.4-2.7l-31.9-31.9c-0.6-0.6-1.2-1.4-1.6-2.2
	c-0.7,1.3-1.1,2.8-1.1,4.3c0,2.4,1,4.7,2.7,6.4l31.8,31.8c1.7,1.7,4,2.7,6.4,2.7c2.4,0,4.7-0.9,6.4-2.6l41-40.9
	c1.7-1.7,2.7-4,2.7-6.5V113c0,2.4-1,4.8-2.7,6.5L112.4,160.4z"/>
<polygon class="st0" points="44.2,80.1 48.2,88.1 57.1,89.4 50.6,95.7 52.2,104.5 44.2,100.4 36.2,104.5 37.8,95.7 31.3,89.4 
	40.2,88.1 "/>
<path class="st1" d="M100,197.4c-53.8,0-97.4-43.6-97.4-97.4c0-53.8,43.6-97.4,97.4-97.4c16.8,0,33.3,4.3,47.9,12.6l-2.3,4
	C101-6.1,44.3,9.6,19.1,54.3S9.5,155.6,54.2,180.8s101.3,9.6,126.6-35.1c19.8-34.9,14.9-78.6-12.2-108.3l3.4-3.1
	c36.2,39.8,33.3,101.4-6.4,137.6C147.6,188.3,124.3,197.4,100,197.4L100,197.4z"/>
<polygon class="st0" points="86.9,29.2 92.4,40.4 104.7,42.2 95.8,50.9 97.9,63.2 86.9,57.4 75.8,63.2 77.9,50.9 69,42.2 81.3,40.4 
	"/>
</svg>
