<?xml version="1.0" encoding="utf-8"?>
<!-- Generator: Adobe Illustrator 23.0.3, SVG Export Plug-In . SVG Version: 6.00 Build 0)  -->
<svg version="1.1" id="圖層_1" xmlns="http://www.w3.org/2000/svg" xmlns:xlink="http://www.w3.org/1999/xlink" x="0px" y="0px"
	 viewBox="0 0 200 200" style="enable-background:new 0 0 200 200;" xml:space="preserve">
<style type="text/css">
	.st0{fill:#EE5984;}
	.st1{fill:#EE5984;stroke:#EE5984;stroke-width:2;stroke-miterlimit:10;}
</style>
<title>event_icon</title>
<path class="st0" d="M59.9,72.6h11l-3.3,21.6h20.8l3.3-21.6h10.9L94,127.4H83.1l3.7-23.7H66l-3.7,23.7h-11L59.9,72.6z"/>
<path class="st0" d="M135.4,113.3h-17.8l-6,14.1h-11.1l26-54.9h12.9l9.2,54.9h-11.4L135.4,113.3z M134.4,104.8l-0.7-6
	c-0.8-5.7-1.3-12-2-17.9h-0.3c-2.3,6-4.9,12.2-7.4,17.9l-2.6,6H134.4z"/>
<path class="st0" d="M100,197.4c-53.8,0-97.4-43.6-97.4-97.4c0-53.8,43.6-97.4,97.4-97.4c16.8,0,33.3,4.3,47.9,12.6l-2.3,4
	C101-6.1,44.3,9.6,19.1,54.3S9.5,155.6,54.2,180.8s101.3,9.6,126.6-35.1c19.8-34.9,14.9-78.6-12.2-108.3l3.4-3.1
	c36.2,39.8,33.3,101.4-6.4,137.6C147.6,188.3,124.3,197.4,100,197.4L100,197.4z"/>
<path class="st1" d="M100,197.4c-53.8,0-97.4-43.6-97.4-97.4c0-53.8,43.6-97.4,97.4-97.4c16.8,0,33.3,4.3,47.9,12.6l-2.3,4
	C101-6.1,44.3,9.6,19.1,54.3S9.5,155.6,54.2,180.8s101.3,9.6,126.6-35.1c19.8-34.9,14.9-78.6-12.2-108.3l3.4-3.1
	c36.2,39.8,33.3,101.4-6.4,137.6C147.6,188.3,124.3,197.4,100,197.4L100,197.4z"/>
<path class="st0" d="M100,181.1c-44.8,0-81.1-36.3-81.1-81.1S55.2,18.9,100,18.9s81.1,36.3,81.1,81.1l0,0
	C181,144.8,144.8,181,100,181.1z M100,23.6c-42.2,0-76.5,34.2-76.5,76.4c0,42.2,34.2,76.5,76.4,76.5s76.5-34.2,76.5-76.4
	c0,0,0,0,0,0C176.4,57.8,142.2,23.6,100,23.6z"/>
</svg>
