<svg id="圖層_1" data-name="圖層 1" xmlns="http://www.w3.org/2000/svg" xmlns:xlink="http://www.w3.org/1999/xlink" viewBox="0 0 200 200"><defs><style>.cls-1{fill:url(#未命名漸層_14);}.cls-2{fill:url(#未命名漸層_14-2);}.cls-3{fill:url(#未命名漸層_14-3);}.cls-4{fill:url(#未命名漸層_14-5);}</style><linearGradient id="未命名漸層_14" x1="-4.19" y1="285.33" x2="119.89" y2="1.92" gradientUnits="userSpaceOnUse"><stop offset="0" stop-color="#ebad00"/><stop offset="0.09" stop-color="#e8a900"/><stop offset="0.18" stop-color="#df9e00"/><stop offset="0.26" stop-color="#d18b00"/><stop offset="0.35" stop-color="#bd7000"/><stop offset="0.43" stop-color="#a24e00"/><stop offset="0.51" stop-color="#822400"/><stop offset="0.52" stop-color="#7e1e00"/><stop offset="1" stop-color="#f8e69c"/></linearGradient><linearGradient id="未命名漸層_14-2" x1="45.82" y1="307.22" x2="169.91" y2="23.82" xlink:href="#未命名漸層_14"/><linearGradient id="未命名漸層_14-3" x1="15.15" y1="293.8" x2="139.23" y2="10.39" xlink:href="#未命名漸層_14"/><linearGradient id="未命名漸層_14-5" x1="15.15" y1="293.8" x2="139.23" y2="10.39" xlink:href="#未命名漸層_14"/></defs><title>event_icon</title><path class="cls-1" d="M59.86,72.56h11L67.51,94.14H88.27L91.6,72.56h10.9L94,127.44H83.13l3.66-23.73H66l-3.66,23.73h-11Z"/><path class="cls-2" d="M135.43,113.35h-17.8l-6,14.09H100.48l26-54.88h12.9l9.18,54.88H137.11Zm-1.06-8.53-.71-6c-.82-5.71-1.33-12-2-17.94h-.29c-2.34,6-4.93,12.23-7.44,17.94l-2.56,6Z"/><path class="cls-3" d="M100,197.41A97.41,97.41,0,1,1,147.93,15.18l-2.29,4a92.87,92.87,0,1,0,22.92,18.29L172,34.38a97.41,97.41,0,0,1-72,163Z"/><path class="cls-3" d="M100,197.41A97.41,97.41,0,1,1,147.93,15.18l-2.29,4a92.87,92.87,0,1,0,22.92,18.29L172,34.38a97.41,97.41,0,0,1-72,163Z"/><path class="cls-4" d="M100,181.08A81.08,81.08,0,1,1,181.08,100,81.17,81.17,0,0,1,100,181.08Zm0-157.52A76.45,76.45,0,1,0,176.44,100,76.53,76.53,0,0,0,100,23.56Z"/></svg>