<?xml version="1.0" encoding="utf-8"?>
<!-- Generator: Adobe Illustrator 23.0.2, SVG Export Plug-In . SVG Version: 6.00 Build 0)  -->
<svg version="1.1" xmlns="http://www.w3.org/2000/svg" xmlns:xlink="http://www.w3.org/1999/xlink" x="0px" y="0px"
	 viewBox="0 0 1920 1080" style="enable-background:new 0 0 1920 1080;" xml:space="preserve">
<style type="text/css">
	.st0{fill:#C4CCCC;}
	.st1{fill:#545454;}
	.st2{fill:#737878;}
	.st3{fill:#9B9C9C;}
	.st4{fill:#C7C7C7;}
	.st5{fill:#E9E9E7;}
	.st6{fill:#050304;}
	.st7{fill:#2A2B30;}
	.st8{fill:#FFBA4C;}
	.st9{fill:#3B3D40;}
	.st10{opacity:0.2;fill:#FFFFFF;enable-background:new    ;}
	.st11{fill:#FFD76A;}
	.st12{fill:#383536;}
	.st13{fill:#6D6D3E;}
	.st14{fill:#605F36;}
	.st15{fill:#514E2A;}
	.st16{fill:#EB5B58;}
	.st17{fill:#FB6962;}
	.st18{fill:#BCBDBD;}
	.st19{fill:#EF851B;}
	.st20{fill:#E27518;}
	.st21{fill:#C96211;}
	.st22{fill:#F9F9F5;}
	.st23{fill:#FAF6F2;}
	.st24{fill:#FFD1C0;}
	.st25{fill:#898759;}
	.st26{fill:#163D48;}
	.st27{fill:#204B5B;}
	.st28{fill:#56542A;}
	.st29{fill:#A3402F;}
	.st30{fill:#E48672;}
	.st31{fill:#F9B6A4;}
	.st32{fill:#815021;}
	.st33{fill:#F7B134;}
	.st34{fill:#FFCA65;}
	.st35{fill:#FFC343;}
	.st36{fill:#D35C41;}
	.st37{fill:#2D6678;}
	.st38{fill:#FFFFFF;}
	.st39{fill:#E99E8F;}
	.st40{fill:#F2B3A4;}
	.st41{fill:#F9BEAE;}
	.st42{fill:#DCDCDC;}
	.st43{fill:#CDCDC9;}
	.st44{fill:#5B5B5B;}
	.st45{fill:#828283;}
	.st46{fill:#6B6B6B;}
	.st47{fill:#C99063;}
	.st48{fill:#838282;}
	.st49{fill:#9B9999;}
	.st50{fill:#477B98;}
	.st51{fill:#5593B2;}
	.st52{fill:#AFAFAF;}
	.st53{fill:#D4D4D4;}
	.st54{fill:#FDEDDC;}
	.st55{fill:#376E89;}
	.st56{opacity:0.6;}
	.st57{opacity:0.6;fill:#FFFFFF;enable-background:new    ;}
	.st58{fill:#DEDEDE;}
	.st59{fill:#BFB96B;}
	.st60{fill:#F6D5CD;}
	.st61{fill:#FF7171;}
	.st62{fill:#B3774F;}
	.st63{font-family:'SourceHanSansTW-Bold-B5pc-H';}
	.st64{font-size:57.8736px;}
	.st65{font-size:77.5149px;}
</style>
<g id="圖層_1">
	<rect x="0" y="0" class="st0" width="1920.2" height="844"/>
	<g>
		<rect y="686" class="st1" width="1920" height="394"/>
		<g>
			<path class="st2" d="M1470.5,552.7c0,241.4-207,428.6-477.2,427.7s-514.2-183.6-514.2-425s205.7-444.9,475.9-444
				S1470.5,311.2,1470.5,552.7z"/>
			<g>
				<g>
					<path class="st2" d="M313.9,65c-0.4,0-0.9,0-1.3-0.1c-0.5,0-1-0.1-1.3,0.4c-0.3,0.4-0.3,0.8,0,1.2c0.4,0.4,0.8,0.4,1.3,0.4
						c0.4,0,0.9,0,1.3-0.1C315,66.7,315,65,313.9,65L313.9,65z"/>
				</g>
			</g>
			<g>
				<g>
					<path class="st2" d="M344.8,133.4c-0.6,0-1.3-0.1-1.9,0c-1.5,0.1-1.5,2.2,0,2.4c0.6,0.1,1.2,0,1.9,0
						C346.3,135.7,346.3,133.4,344.8,133.4L344.8,133.4z"/>
				</g>
			</g>
			<g>
				<g>
					<path class="st2" d="M390.2,107.2c1.4,0,1.5-2.3,0-2.3C388.8,104.9,388.8,107.2,390.2,107.2L390.2,107.2z"/>
				</g>
			</g>
			<g>
				<g>
					<path class="st2" d="M359.3,78.5c1.2,0,1.2-1.8,0-1.8C358.1,76.7,358.1,78.5,359.3,78.5L359.3,78.5z"/>
				</g>
			</g>
			<g>
				<g>
					<path class="st2" d="M474.9,170.9c0.6,0,1.3,0.1,1.9,0.1c1.5-0.1,1.5-2.3,0-2.4c-0.6,0-1.3,0-1.9,0.1
						C473.4,168.7,473.4,170.8,474.9,170.9L474.9,170.9z"/>
				</g>
			</g>
			<g>
				<g>
					<path class="st2" d="M384,264.8c1.6,0,1.6-2.4,0-2.4C382.5,262.3,382.5,264.8,384,264.8L384,264.8z"/>
				</g>
			</g>
			<g>
				<g>
					<path class="st2" d="M1432.7,63c-1.3-0.1-2.5-0.1-3.8-0.2c-0.4,0-1,0.3-1.2,0.7c-0.2,0.5-0.2,0.8,0,1.4
						c0.2,0.4,0.7,0.7,1.2,0.7c1.3-0.1,2.5-0.1,3.8-0.2C1434.2,65.3,1434.2,63.1,1432.7,63L1432.7,63z"/>
				</g>
			</g>
			<g>
				<g>
					<path class="st2" d="M1495.7,104.4c0,0.5,0,1,0,1.5c0,0.3,0.2,0.7,0.5,0.9c0.4,0.2,0.7,0.2,1,0s0.5-0.5,0.5-0.9
						c0-0.5,0-1,0-1.5C1497.8,103,1495.7,103,1495.7,104.4L1495.7,104.4z"/>
				</g>
			</g>
			<g>
				<g>
					<path class="st2" d="M1550.4,53.9c0.6,0,1.3,0.1,1.9,0c0.8-0.1,1.4-0.6,1.4-1.4c0-0.8-0.7-1.4-1.4-1.4c-0.6-0.1-1.2,0-1.9,0
						c-0.8,0-1.4,0.6-1.4,1.4C1549,53.2,1549.6,53.9,1550.4,53.9L1550.4,53.9z"/>
				</g>
			</g>
			<g>
				<g>
					<path class="st2" d="M1583.4,92.1c1.4,0,1.4-2.2,0-2.2S1582,92.1,1583.4,92.1L1583.4,92.1z"/>
				</g>
			</g>
			<g>
				<g>
					<path class="st2" d="M1533.9,195.4c-1.4-0.1-2.7,0-4.1,0.1s-1.4,2,0,2.1s2.7,0.2,4.1,0.1
						C1535.4,197.6,1535.4,195.5,1533.9,195.4L1533.9,195.4z"/>
				</g>
			</g>
			<g>
				<g>
					<path class="st2" d="M1374.9,133.5c0.8,0,0.8-1.2,0-1.2C1374.2,132.3,1374.2,133.5,1374.9,133.5L1374.9,133.5z"/>
				</g>
			</g>
			<g>
				<g>
					<path class="st2" d="M1585.5,408.7c1.4,0,2.7,0,4.1-0.1c1.1-0.1,1.1-1.6,0-1.8c-1.4-0.2-2.7-0.2-4.1-0.1
						C1584.2,406.6,1584.2,408.6,1585.5,408.7L1585.5,408.7z"/>
				</g>
			</g>
			<g>
				<g>
					<path class="st2" d="M1552.5,415.2c1.1,0,1.1-1.6,0-1.6C1551.4,413.5,1551.4,415.2,1552.5,415.2L1552.5,415.2z"/>
				</g>
			</g>
			<g>
				<g>
					<path class="st2" d="M1608.2,492.3c0.7-0.1,1.4-0.1,2.1-0.2c1-0.1,1-1.4,0-1.5c-0.7-0.1-1.4-0.1-2.1-0.2
						C1607,490.4,1607,492.4,1608.2,492.3L1608.2,492.3z"/>
				</g>
			</g>
			<g>
				<g>
					<path class="st2" d="M1597.3,579.1c0.5,0.4,1,0.8,1.5,1.2c0.4,0.3,1,0.9,1.6,0.4c0.5-0.5,0-1.1-0.4-1.4c-0.5-0.4-1-0.9-1.5-1.3
						c-0.3-0.3-0.8-0.3-1.1,0C1597,578.2,1597,578.8,1597.3,579.1L1597.3,579.1z"/>
				</g>
			</g>
			<g>
				<g>
					<path class="st2" d="M325.2,692.4c0-0.3,0-0.6,0.1-0.9c0.1-1.6-2.7-1.3-2.2,0.3c0.1,0.3,0.2,0.6,0.3,0.9c0.3,0.8,1.4,0.8,1.7,0
						c0.1-0.3,0.2-0.6,0.3-0.9c0.5-1.6-2.4-1.9-2.2-0.3c0,0.3,0,0.6,0.1,0.9C323.2,693.8,325.1,693.8,325.2,692.4L325.2,692.4z"/>
				</g>
			</g>
			<g>
				<g>
					<path class="st2" d="M402.6,725.1c1.1,0,1.1-1.7,0-1.7C401.5,723.4,401.5,725.1,402.6,725.1L402.6,725.1z"/>
				</g>
			</g>
			<g>
				<g>
					<path class="st2" d="M367.5,674.8c1,0,1-1.5,0-1.5C366.5,673.2,366.5,674.8,367.5,674.8L367.5,674.8z"/>
				</g>
			</g>
			<g>
				<g>
					<path class="st2" d="M309.7,628c1.1,0,1.1-1.8,0-1.8S308.6,628,309.7,628L309.7,628z"/>
				</g>
			</g>
			<g>
				<g>
					<path class="st3" d="M714.3,735.5c0.8,0,1.6,0.1,2.4,0c0.7-0.1,1.5-0.1,2.1-0.5c0.5-0.3,0.5-1,0-1.4c-0.6-0.4-1.4-0.4-2.1-0.5
						c-0.8-0.1-1.6,0-2.4,0C712.9,733.2,712.9,735.4,714.3,735.5L714.3,735.5z"/>
				</g>
			</g>
			<g>
				<g>
					<path class="st3" d="M747.4,755.4c0.9,0,1.8,0.1,2.6-0.5c0.3-0.2,0.3-0.8,0-1c-0.7-0.6-1.7-0.5-2.6-0.5
						C746.1,753.4,746.1,755.5,747.4,755.4L747.4,755.4z"/>
				</g>
			</g>
			<g>
				<g>
					<path class="st3" d="M757.7,727c0.8-0.1,1.7,0,2.5-0.4c0.5-0.2,0.5-1.1,0-1.4c-0.4-0.2-0.8-0.3-1.2-0.3s-0.8-0.1-1.2-0.1
						C756.3,724.8,756.3,727.1,757.7,727L757.7,727z"/>
				</g>
			</g>
			<g>
				<g>
					<path class="st3" d="M877.4,197.5c1.2,0,1.2-1.9,0-1.9S876.2,197.5,877.4,197.5L877.4,197.5z"/>
				</g>
			</g>
			<g>
				<g>
					<path class="st3" d="M867.1,234.4c1.3,0,1.3-1.9,0-1.9C865.9,232.4,865.9,234.4,867.1,234.4L867.1,234.4z"/>
				</g>
			</g>
			<g>
				<g>
					<path class="st3" d="M922.8,224.5c1.5,0,1.5-2.3,0-2.3C921.4,222.2,921.4,224.5,922.8,224.5L922.8,224.5z"/>
				</g>
			</g>
			<g>
				<g>
					<path class="st3" d="M902.2,202.6c1.4,0,1.4-2.2,0-2.2C900.8,200.5,900.8,202.6,902.2,202.6L902.2,202.6z"/>
				</g>
			</g>
			<g>
				<g>
					<path class="st3" d="M557.5,343.2c1.2,0,1.2-1.8,0-1.8C556.3,341.4,556.3,343.2,557.5,343.2L557.5,343.2z"/>
				</g>
			</g>
			<g>
				<g>
					<path class="st3" d="M572.6,360.7c0,0.5-0.1,1-0.1,1.5c0.1,0.8,0.6,1.5,1.5,1.5c0.8,0,1.4-0.7,1.5-1.5c0-0.5,0-1-0.1-1.5
						C575.3,358.9,572.7,358.9,572.6,360.7L572.6,360.7z"/>
				</g>
			</g>
			<g>
				<g>
					<path class="st3" d="M1383.2,556.3c1.6,0,1.6-2.4,0-2.4C1381.6,553.9,1381.6,556.3,1383.2,556.3L1383.2,556.3z"/>
				</g>
			</g>
			<g>
				<g>
					<path class="st3" d="M1374.9,583.2c1.8,0,1.8-2.7,0-2.7C1373.2,580.5,1373.2,583.2,1374.9,583.2L1374.9,583.2z"/>
				</g>
			</g>
			<g>
				<g>
					<path class="st3" d="M1065.3,726.9c1.2,0,1.2-1.9,0-1.9C1064.1,725,1064.1,726.9,1065.3,726.9L1065.3,726.9z"/>
				</g>
			</g>
			<g>
				<g>
					<path class="st3" d="M1174.7,748.4c-0.6,0-1.3,0-1.9,0c-1.3,0-1.3,2.1,0,2.1c0.6,0,1.3,0,1.9,0
						C1176,750.4,1176,748.4,1174.7,748.4L1174.7,748.4z"/>
				</g>
			</g>
			<g>
				<g>
					<path class="st3" d="M1194.2,761.1c0,0.6,0,1.2,0.1,1.8c0.3,1.1,1.9,1.1,2.2,0c0.1-0.6,0.1-1.2,0.1-1.8
						C1196.5,759.6,1194.1,759.6,1194.2,761.1L1194.2,761.1z"/>
				</g>
			</g>
			<g>
				<g>
					<path class="st2" d="M886.4,46.5c0.6-0.5,1.4-1,1.9-1.6c0.8-0.8-0.2-2.2-1.2-1.6c-0.8,0.5-1.4,1.1-2.1,1.7
						c-0.4,0.4-0.4,1.1,0,1.5C885.4,46.9,886,46.8,886.4,46.5L886.4,46.5z"/>
				</g>
			</g>
			<g>
				<g>
					<path class="st2" d="M913.6,57.5c0,0.7-0.1,1.7,0.4,2.2c0.3,0.3,0.7,0.3,1,0c0.6-0.5,0.4-1.5,0.4-2.2
						C915.6,56.3,913.6,56.3,913.6,57.5L913.6,57.5z"/>
				</g>
			</g>
			<g>
				<g>
					<path class="st2" d="M951.7,39.8c1,0,1-1.5,0-1.5C950.8,38.3,950.8,39.8,951.7,39.8L951.7,39.8z"/>
				</g>
			</g>
		</g>
		<g>
			<g>
				<g>
					<path class="st4" d="M906.2,780.6c0,0,38.8,131.6-78.7,124.2v17.6h303.2l-9.4-16.4c0,0-66.5-23.2-66.5-125.4L906.2,780.6
						L906.2,780.6z"/>
					<path class="st5" d="M1215.2,937.8H743.1c0,0,11.6-31.6,20.1-31.7c107.9-2,329.7-7.2,435.7,0
						C1207.4,906.6,1215.2,937.8,1215.2,937.8z"/>
					<path class="st6" d="M1396.1,180.9H566.3c-19.5,0-35.3,15.8-35.3,35.3V712h662.5H1345c-0.2,0,84.6,0,84.6,0V556.6v-95.3V425
						l3.3-207.4C1432.9,198.2,1415.5,180.9,1396.1,180.9z"/>
					<path class="st7" d="M1376.4,710.1"/>
					<path class="st8" d="M1392.8,646.7c0,16.4,0,29.7,0,29.7H565.5c0,0,0-13.3,0-29.7v-428h830.6L1392.8,646.7z"/>
					<path class="st5" d="M565.5,810.9h827.3c19.5,0,35.3-15.8,35.3-35.3v-64.7H530.2v64.7C530.2,795.1,546,810.9,565.5,810.9z"/>
				</g>
			</g>
			<path class="st9" d="M1004.7,761c0,11-8.9,18.2-19.9,18.2s-19.9-7.2-19.9-18.2s6.7-18.4,17.7-18.4S1004.7,750,1004.7,761z"/>
			<path class="st10" d="M1396.1,180.9h-487L1242.9,712H1345c-0.2,0,84.6,0,84.6,0V556.6v-95.3V425l3.3-207.4
				C1432.9,198.2,1415.5,180.9,1396.1,180.9z"/>
		</g>
		<polygon class="st11" points="529.2,339.2 662.3,180.9 737.8,180.9 529.2,424.6 		"/>
		<polygon class="st12" points="656.7,187.5 698.3,227 676.3,252.8 633.5,215.1 		"/>
		<polygon class="st12" points="604.4,249.7 644.6,289.8 618.6,320.2 579.6,279.2 		"/>
		<polygon class="st12" points="548.8,316 587.9,356.1 566.5,383.3 529.2,339.2 		"/>
		<g>
			<g>
				<path class="st13" d="M150.2,829.9c0,0-34.7-191.2-5.4-228.3c6.1-7.7,13.6-13.2,21.2-14.9c29.1-6.3,60.3,43.7,22.8,243.2H150.2z
					"/>
				<path class="st14" d="M150.2,829.9c0,0-34.7-191.2-5.4-228.3c6.1-7.7,13.6-13.2,21.2-14.9c-22.8,56.8-1.3,237.5,5.6,242.8
					L150.2,829.9z"/>
				<g>
					<g>
						<path class="st15" d="M153,793.8c1.3,0,1.3-2,0-2S151.7,793.8,153,793.8L153,793.8z"/>
					</g>
				</g>
				<g>
					<g>
						<path class="st15" d="M152.2,774.5c0.6,0.1,1,0,1.5-0.5c0.2-0.2,0.2-0.6,0-0.8c-0.4-0.6-0.8-0.6-1.5-0.5
							C151,772.8,151,774.4,152.2,774.5L152.2,774.5z"/>
					</g>
				</g>
				<g>
					<g>
						<path class="st15" d="M147.8,762.8c1.4,0,1.4-2.1,0-2.1C146.4,760.7,146.4,762.8,147.8,762.8L147.8,762.8z"/>
					</g>
				</g>
				<g>
					<g>
						<path class="st15" d="M150,740.1c1.6,0,1.6-2.4,0-2.4C148.4,737.6,148.4,740.1,150,740.1L150,740.1z"/>
					</g>
				</g>
				<g>
					<g>
						<path class="st15" d="M145.2,723.4c-0.1-0.1-0.2-0.3-0.2-0.4c-0.4-0.6-1.3-0.6-1.7,0c-0.1,0.1-0.2,0.3-0.2,0.4
							c-0.5,0.8,0.1,1.9,1.1,1.9C145.1,725.3,145.7,724.3,145.2,723.4L145.2,723.4z"/>
					</g>
				</g>
				<g>
					<g>
						<path class="st15" d="M147,701c1.8,0,1.8-2.7,0-2.7C145.3,698.3,145.3,701,147,701L147,701z"/>
					</g>
				</g>
				<g>
					<g>
						<path class="st15" d="M137,685.6c0,0.2,0,0.4,0,0.6c0.1,1.4,2.1,1.4,2.2,0c0-0.2,0-0.4,0-0.6
							C139.4,684.1,136.9,684.1,137,685.6L137,685.6z"/>
					</g>
				</g>
				<g>
					<g>
						<path class="st15" d="M144.1,667.5c1.5,0,1.5-2.3,0-2.3C142.6,665.3,142.6,667.5,144.1,667.5L144.1,667.5z"/>
					</g>
				</g>
				<g>
					<g>
						<path class="st15" d="M141.9,643.9c-0.2,0-0.4,0-0.6-0.1c-1.4-0.1-1.4,2.3,0,2.2c0.2,0,0.4,0,0.6-0.1
							C143.2,645.9,143.2,644,141.9,643.9L141.9,643.9z"/>
					</g>
				</g>
				<g>
					<g>
						<path class="st15" d="M147.8,626.7c1.3,0,1.3-2,0-2S146.5,626.7,147.8,626.7L147.8,626.7z"/>
					</g>
				</g>
				<g>
					<g>
						<path class="st15" d="M145.6,613.4c1.2,0,1.2-1.9,0-1.9C144.3,611.5,144.3,613.4,145.6,613.4L145.6,613.4z"/>
					</g>
				</g>
				<g>
					<g>
						<path class="st15" d="M155.2,603.9c1.4,0,1.4-2.2,0-2.2S153.8,603.9,155.2,603.9L155.2,603.9z"/>
					</g>
				</g>
				<g>
					<g>
						<path class="st15" d="M171.7,600.5c-0.2,0-0.4,0-0.5-0.1c-0.6-0.1-1.2,0.2-1.2,0.9s0.6,1,1.2,0.9c0.2,0,0.4,0,0.5-0.1
							C172.5,602,172.5,600.6,171.7,600.5L171.7,600.5z"/>
					</g>
				</g>
				<g>
					<g>
						<path class="st15" d="M166.3,617.8c1.2,0,1.2-1.9,0-1.9C165.1,615.9,165.1,617.8,166.3,617.8L166.3,617.8z"/>
					</g>
				</g>
				<g>
					<g>
						<path class="st15" d="M184.8,608.5c-0.2,0-0.4,0-0.6,0c-1.2,0.1-1.2,1.8,0,1.9c0.2,0,0.4,0,0.6,0
							C186,610.5,186,608.4,184.8,608.5L184.8,608.5z"/>
					</g>
				</g>
				<g>
					<g>
						<path class="st15" d="M161.8,638.7c1.5,0,1.5-2.3,0-2.3S160.3,638.7,161.8,638.7L161.8,638.7z"/>
					</g>
				</g>
				<g>
					<g>
						<path class="st15" d="M184,629.8c-0.2,0-0.4,0-0.6,0c-1.4-0.1-1.4,2.3,0,2.2c0.2,0,0.4,0,0.6,0
							C185.4,631.8,185.4,629.9,184,629.8L184,629.8z"/>
					</g>
				</g>
				<g>
					<g>
						<path class="st15" d="M184,650.2c-0.3-0.4-0.6-0.6-1-0.8c-0.8-0.4-1.6,0.4-1.2,1.2c0.2,0.4,0.4,0.7,0.8,1
							C183.5,652.4,184.8,651.1,184,650.2L184,650.2z"/>
					</g>
				</g>
				<g>
					<g>
						<path class="st15" d="M173.7,638.4c1.1,0,1.1-1.8,0-1.8C172.5,636.7,172.5,638.4,173.7,638.4L173.7,638.4z"/>
					</g>
				</g>
				<g>
					<g>
						<path class="st15" d="M170,663c1.4,0,1.4-2.1,0-2.1S168.6,663,170,663L170,663z"/>
					</g>
				</g>
				<g>
					<g>
						<path class="st15" d="M160.4,653.9c0.6,0,1.5,0.2,1.9-0.3c0.2-0.3,0.2-0.6,0-0.9c-0.4-0.5-1.3-0.3-1.9-0.3
							C159.3,652.3,159.3,653.9,160.4,653.9L160.4,653.9z"/>
					</g>
				</g>
				<g>
					<g>
						<path class="st15" d="M167,676.3c1.3,0,1.3-2,0-2S165.7,676.3,167,676.3L167,676.3z"/>
					</g>
				</g>
				<g>
					<g>
						<path class="st15" d="M162.6,691.8c1.3,0,1.3-2,0-2S161.3,691.8,162.6,691.8L162.6,691.8z"/>
					</g>
				</g>
				<g>
					<g>
						<path class="st15" d="M178.1,694.9c1.5,0,1.5-2.3,0-2.3C176.6,692.6,176.6,694.9,178.1,694.9L178.1,694.9z"/>
					</g>
				</g>
				<g>
					<g>
						<path class="st15" d="M178.3,666.4c0-0.2,0-0.4,0-0.6c0-0.3-0.2-0.7-0.5-0.8c0,0-0.1,0-0.1-0.1c-0.2-0.2-0.6-0.2-0.8,0
							c0,0-0.1,0-0.1,0.1c-0.3,0.2-0.5,0.5-0.5,0.8c0,0.2,0,0.4,0,0.6C176.5,667.6,178.2,667.6,178.3,666.4L178.3,666.4z"/>
					</g>
				</g>
				<g>
					<g>
						<path class="st15" d="M193.6,677.8c1.3,0,1.3-2.1,0-2.1S192.3,677.8,193.6,677.8L193.6,677.8z"/>
					</g>
				</g>
				<g>
					<g>
						<path class="st15" d="M181.1,678.9c0.8,0,0.8-1.3,0-1.3C180.2,677.6,180.2,678.9,181.1,678.9L181.1,678.9z"/>
					</g>
				</g>
				<g>
					<g>
						<path class="st15" d="M195.7,661.4c0.2-0.1,0.4-0.1,0.6-0.1c0.2,0.1,0.4,0.1,0.6,0.1c0.2,0-0.2-0.1,0,0
							c0.1,0.1,0.2,0.1,0.3,0.1c0.4,0.2,0.9,0,0.9-0.5c-0.1-1.7-2.1-2.1-3.4-1.4C193.5,660.3,194.6,662.1,195.7,661.4L195.7,661.4z"
							/>
					</g>
				</g>
				<g>
					<g>
						<path class="st15" d="M195.1,700.5c1.1,0,1.1-1.7,0-1.7S194,700.5,195.1,700.5L195.1,700.5z"/>
					</g>
				</g>
				<g>
					<g>
						<path class="st15" d="M182.5,721.4c1.3,0,1.3-2,0-2S181.2,721.4,182.5,721.4L182.5,721.4z"/>
					</g>
				</g>
				<g>
					<g>
						<path class="st15" d="M164,709.4c1.1,0,1.1-1.7,0-1.7C163,707.7,163,709.4,164,709.4L164,709.4z"/>
					</g>
				</g>
				<g>
					<g>
						<path class="st15" d="M168.5,723.8c1.6,0,1.6-2.5,0-2.5S166.9,723.8,168.5,723.8L168.5,723.8z"/>
					</g>
				</g>
				<g>
					<g>
						<path class="st15" d="M148.5,712.3c1.1,0,1.1-1.7,0-1.7S147.4,712.3,148.5,712.3L148.5,712.3z"/>
					</g>
				</g>
				<g>
					<g>
						<path class="st15" d="M175.1,739.9c1.4,0,1.4-2.2,0-2.2C173.8,737.8,173.7,739.9,175.1,739.9L175.1,739.9z"/>
					</g>
				</g>
				<g>
					<g>
						<path class="st15" d="M196.8,715.4c0.1-0.4,0.2-0.8,0-1.3c-0.4-0.9-1.5-0.9-1.9,0c-0.2,0.4,0,0.8,0,1.3
							C195,716.4,196.7,716.4,196.8,715.4L196.8,715.4z"/>
					</g>
				</g>
				<g>
					<g>
						<path class="st15" d="M195.8,742c1.2,0,1.2-1.8,0-1.8C194.7,740.2,194.7,742,195.8,742L195.8,742z"/>
					</g>
				</g>
				<g>
					<g>
						<path class="st15" d="M177.4,706.7c0.1,0.2,0.2,0.4,0.4,0.5c0.2,0.3,0.5,0.3,0.7,0c0.1-0.2,0.2-0.4,0.4-0.5
							c0.4-0.5-0.1-1.2-0.7-1.2S177,706.2,177.4,706.7L177.4,706.7z"/>
					</g>
				</g>
				<g>
					<g>
						<path class="st15" d="M183.1,749.7c-0.1,0.5-0.2,0.8-0.1,1.3c0.2,1,1.9,1,2.1,0c0.1-0.5,0-0.8-0.1-1.3
							C184.7,748.8,183.3,748.8,183.1,749.7L183.1,749.7z"/>
					</g>
				</g>
				<g>
					<g>
						<path class="st15" d="M165.2,749.9c0.1,0.6,0.1,1.1,0.6,1.4c0.2,0.1,0.6,0.1,0.8,0c0.6-0.3,0.6-0.9,0.6-1.4c0.1-0.6-0.5-1-1-1
							C165.8,748.9,165.2,749.4,165.2,749.9L165.2,749.9z"/>
					</g>
				</g>
				<g>
					<g>
						<path class="st15" d="M173.7,766.1c-0.2,0-0.4,0-0.6-0.1c-1.2-0.1-1.2,2,0,1.9c0.2,0,0.4,0,0.6-0.1
							C174.8,767.7,174.8,766.2,173.7,766.1L173.7,766.1z"/>
					</g>
				</g>
				<g>
					<g>
						<path class="st15" d="M190.7,766.4c1.2,0,1.2-1.9,0-1.9S189.5,766.4,190.7,766.4L190.7,766.4z"/>
					</g>
				</g>
				<g>
					<g>
						<path class="st15" d="M189.9,780.1c-0.4,0-0.8,0-1.1,0.2c-0.5,0.4-0.5,1,0,1.3c0.3,0.3,0.7,0.3,1.1,0.2
							C191.1,781.8,191.1,780.2,189.9,780.1L189.9,780.1z"/>
					</g>
				</g>
				<g>
					<g>
						<path class="st15" d="M178.1,780.6c1.4,0,1.4-2.1,0-2.1C176.7,778.5,176.7,780.6,178.1,780.6L178.1,780.6z"/>
					</g>
				</g>
				<g>
					<g>
						<path class="st15" d="M186.3,796.6c-0.2,0.2-0.4,0.4-0.6,0.6c-0.9,0.9,0.5,2.3,1.4,1.4c0.2-0.2,0.4-0.4,0.6-0.6
							C188.5,797,187.2,795.8,186.3,796.6L186.3,796.6z"/>
					</g>
				</g>
				<g>
					<g>
						<path class="st15" d="M174.4,797.6c1.4,0,1.4-2.1,0-2.1S173,797.6,174.4,797.6L174.4,797.6z"/>
					</g>
				</g>
				<g>
					<g>
						<path class="st15" d="M167.6,783.8c0.2-0.2,0.5-0.4,0.7-0.5c1-0.8-0.6-2.4-1.4-1.4c-0.2,0.2-0.4,0.5-0.5,0.7
							C165.7,783.5,166.7,784.6,167.6,783.8L167.6,783.8z"/>
					</g>
				</g>
				<g>
					<g>
						<path class="st15" d="M153,783.3c1.1,0,1.1-1.7,0-1.7S151.9,783.3,153,783.3L153,783.3z"/>
					</g>
				</g>
				<g>
					<g>
						<path class="st15" d="M170.5,755.9c0,0.3,0,0.5,0,0.8c0.2,0.9,1.7,0.9,1.9,0c0.1-0.3,0.1-0.5,0-0.8
							C172.3,754.6,170.6,754.6,170.5,755.9L170.5,755.9z"/>
					</g>
				</g>
			</g>
			<g>
				<path class="st16" d="M119.5,804.5l105.8,7.3c0,0,2.1,79.2-21.1,107.3h-69.9C134.3,919.1,105.7,868.7,119.5,804.5z"/>
				<g>
					<path class="st17" d="M167.4,887.7c18.6,0,39.2-28.2,39.2-61c0-5.7-0.6-11.2-1.8-16.3l-70-4.8c-0.8,4.7-1.2,9.8-1.2,15.3
						C133.7,853.7,148.8,887.7,167.4,887.7z"/>
				</g>
			</g>
		</g>
		<g>
			<g>
				<path class="st18" d="M1559.2,964.4c0,0,16.5-10.2,20.5-10.6c4-0.4,22.6,6.4,27,6.2c0.9,1.9,1.9,5.2-0.2,7.6
					c-4.5,5.4-13.5,12.8-17.6,13.7c-5.3,1.1-26.5-5.1-29.9-11.4C1558.5,969.1,1558.2,965.9,1559.2,964.4z"/>
				<g>
					<g>
						<path class="st19" d="M1558.6,963.2c0,0,16-11.7,20-12.1s23.5,8,28,7.8c0.9,1.9,0.9,3.7-1.1,6.1c-4.5,5.4-13.5,12.8-17.6,13.7
							c-5.3,1.1-26.2-4.5-29.6-10.8C1557.8,967,1557.6,964.7,1558.6,963.2z"/>
						<path class="st20" d="M1558.6,963.2c0,0,16.1-13.3,20.1-13.8c4-0.4,25.7,7,27.8,9.5c1.4,1.7-5.3,8.5-11.3,13.3
							c-2.9,2.3-5.3,4.4-7.2,4.8C1581.5,978.3,1554.9,969.3,1558.6,963.2z"/>
					</g>
					<path class="st19" d="M1567.5,962.4c0,0,17.4,12.7,29.7-1.4l-11.2-40.1h-11.5L1567.5,962.4z"/>
					<path class="st21" d="M1586.1,920.8c0,1.3-2.7,2.5-5.9,2.5c-3.1,0-5.7-1-5.7-2.3s2.5-2.3,5.7-2.3
						C1584.1,918.8,1586.1,919.6,1586.1,920.8z"/>
					<g>
						<path class="st21" d="M1580.2,918.8c-2.9,0-5.3,0.9-5.6,2h11.5C1586.1,919.6,1584.1,918.8,1580.2,918.8z"/>
						<path class="st21" d="M1580.2,923.4c3.1,0,5.9-1.3,5.9-2.5h-11.5c0,0.1-0.1,0.2-0.1,0.3
							C1574.5,922.3,1577.1,923.4,1580.2,923.4z"/>
						<path class="st22" d="M1590.4,936.5l-2-7.1c-3.7,2.1-9.6,4.1-15.4,0.4l-1.2,7.3C1576.1,939.5,1583.2,941.7,1590.4,936.5z"/>
						<path class="st22" d="M1570.7,943.7l-1.5,8.6c4.2,3.1,14.7,8.9,25.6-0.3l-2.2-7.9C1588,946.9,1578.5,950.8,1570.7,943.7z"/>
					</g>
				</g>
			</g>
			<path class="st18" d="M1515.3,951.7c0,5.6-17.3,10.2-38.7,10.2c-21.4,0-38.7-4.6-38.7-10.2c0-5.6,17.3-10.2,38.7-10.2
				S1515.3,946,1515.3,951.7z"/>
			<g>
				<path class="st6" d="M1354.5,832.9c0,0-7.3,3.8-7.6,4.7c-0.3,0.9,0,2,0.5,2.1c0.9,0.2,8.5-0.7,8.5-0.7l6.1-2.7l-0.9-3.4
					L1354.5,832.9L1354.5,832.9z"/>
				<path class="st23" d="M1382.1,811l-27.6,21.9c0,0,3.4,2.3,1.5,6.1h33.2l11.4-5.9l-1.3-12.5l-3.1-8.8L1382.1,811z"/>
				<g>
					<path class="st24" d="M1403.5,723.7c0,0-8.1-0.5-10.9-5.9l12.2-3.1l3.7,3.5v7.8L1403.5,723.7z"/>
					<path class="st24" d="M1445.5,759.6c0,0-28.5,4-35.2-37.8l-6.7,1.9c0,0,6.7,51.6,47.1,50.6L1445.5,759.6z"/>
					<g>
						<path class="st13" d="M1527.9,767.1c0,0-1.1,18.2-4.5,33.3l-49.3-8.3l-16.6-8.3l8.6-20.1l17.5,1.9l19-7.1l9.4-15.6l14.1,6.2
							L1527.9,767.1z"/>
						<polygon class="st6" points="1477.8,766.2 1479.5,770 1474.4,783.3 1479.5,783.3 1480.8,770 1483.8,766.8 1480.8,765.3 						
							"/>
						<path class="st13" d="M1466.1,754.3c0,0-12.7,4.4-20.6,5.3l5.4,15.6c0,0,12.1-0.3,20-3.6l0.8-13L1466.1,754.3z"/>
						<path class="st25" d="M1447.5,777.7c0,0-3.5-12-4-19c0,0,2.6-1.9,5.9-1.4l4.8,20.2C1454.2,777.6,1449.7,779.3,1447.5,777.7z"
							/>
						<path class="st6" d="M1424.1,887.2c0,0,3.6,4.5,3.2,5.4c-1,2.6-15.3,12.6-17.5,11.7c-3.5-1.4,3.7-9.5,9.2-14L1424.1,887.2z"/>
						<path class="st26" d="M1490.9,850.3l-13-4.4l-4.8-2c0,0-34.8-1.6-51.6,3.2c-16.8,4.8-19.9,29.8,2.5,40l-6.6,4.3
							c-5.6-2.7-17.4-9-19.9-24.8c-3.3-20.4,12-43,56-41.4c0,0,0.8-17.9,19.3-26.8L1490.9,850.3z"/>
						<path class="st6" d="M1524.3,883.6c0,0,2.9-4.6,3.9-4.6c2.7,0.1,16,9.9,15.9,12.2c-0.2,3.6-9.7-0.5-15.5-4L1524.3,883.6z"/>
						<path class="st13" d="M1521.4,808.5c0,0-0.8,18.1-9.4,28.7l-22.5-10.7l6.5-22.5L1521.4,808.5z"/>
						<path class="st27" d="M1500.8,814.6l-6.2,11.5l21.4,11.3c0,0-31.1,25.3-29.2,41.8c1.8,16.5,24.8,23.3,37.9,3.9l5.5,5.1
							c0,0-8.2,16.9-29,16.6c-19.7-0.2-34.7-22-25.8-58.7c0,0-20.8-4.2-26.2-23L1500.8,814.6z"/>
						<path class="st17" d="M1610.5,773.2c0,0,25.1-5.2,27.1-3.2c2,2.1,7.9,11.7,3.6,22.4c0,0,2.5,1.5-25.8,4.6l-1.3-0.1
							L1610.5,773.2z"/>
						<path class="st22" d="M1605.8,775.2c0,0-0.5-5.2,3.6-5.9s9.8,4.7,12,13.8c2.4,9.7-1.2,16.8-4.3,17.5c-2.3,0.6-5.1,0.7-8.3-4.2
							L1605.8,775.2z"/>
						<g>
							<path class="st28" d="M1524.7,777.7c0,0-2.5-5.3-9.9-12.1l17.2,7.2L1524.7,777.7z"/>
							<path class="st13" d="M1521.1,734.8c0,0,14.1,17.3,19,28.9l-12.2,11.9l-18.7-14.2L1521.1,734.8z"/>
							<path class="st27" d="M1521.1,734.8l-14.2,58.1l19,3.8l-6,13.6l-70.8-3.7c0,0,7.9-28.8,17-52.3l6.5,2.1
								c0,0-6.1,14.5-8.6,24.2l35.4,1.7l16.9-50.5C1516.3,731.8,1519,732.5,1521.1,734.8z"/>
							<g>
								<path class="st25" d="M1467.9,758.4c0,0,0,9.7,0,17c0,0,9.2-5.5,12.9-8.5c0,0,12.1,7.6,15.4,9.7c0,0,16.2-28.6,21.9-44.9
									L1489,733L1467.9,758.4z"/>
								<path class="st24" d="M1515.9,728.6c-3.5,19.2-23.3,37.8-39.9,34.8s-30.9-18.7-25.8-41c4.3-19.1,18.1-36.6,34.7-33.6
									C1501.5,691.7,1519.3,709.3,1515.9,728.6z"/>
								<path class="st29" d="M1465.8,750.6c-1.3-1.1-2.3-2.9-1.5-4.4c0.7-1.2,2.3-1.5,3.6-1.3c1.4,0.1,2.7,0.6,4.1,0.3
									c2.7-0.5,4.2-3.2,6.1-5.1c1.9-1.8,4.6-3,7.1-2.5c2.6,0.4,4.9,2.7,4.9,5.3c0,1.8-1.1,3.5-2.4,4.7c-1.4,1.2-3,2-4.7,2.7
									C1477.9,752.7,1470.8,754.5,1465.8,750.6z"/>
								<g>
									<g>
										<path class="st30" d="M1473.7,716.5c-5.1,6.8-7.1,15.4-5.9,23.8c0,0.3,0.5,0.4,0.7,0.2c1.8-1.6,3.7-3.1,5.7-4.5
											c0.3-0.2,0-0.6-0.3-0.5c-1.2,0.7-3,2.7-4.3,2.9c-1.5,0.3-0.9,0.1-1.2-1.4c-0.2-1.2,0-2.7,0.1-3.9c0.5-6,2.7-11.2,5.7-16.3
											C1474.5,716.5,1474,716.2,1473.7,716.5L1473.7,716.5z"/>
									</g>
								</g>
								<path class="st31" d="M1504.3,733.4c0,2.5-2.2,4.5-4.9,4.5s-4.9-2-4.9-4.5s1.4-4.4,4.1-4.4
									C1501.4,729,1504.3,730.9,1504.3,733.4z"/>
								<path class="st31" d="M1451,735.6c-0.4-2.4,1.5-4.8,4.1-5.2c2.7-0.4,5.1,1.2,5.5,3.6c0.4,2.4-0.7,4.6-3.4,5
									C1454.6,739.5,1451.4,738.1,1451,735.6z"/>
								<g>
									<g>
										<path class="st30" d="M1475.3,754.9c2.8,0.7,5.9,0.2,8.3-1.1c0.1,0,0-0.2-0.1-0.2c-2.8,0.7-5.4,0.9-8.2,0.9
											C1475.2,754.6,1475.1,754.9,1475.3,754.9L1475.3,754.9z"/>
									</g>
								</g>
								<path class="st32" d="M1441,708.9c-0.5,0.4-0.9,0.9-0.9,1.5c0.1,0.9,1.4,1.1,2.3,1c4.6-0.4,9.1-1.6,13.3-3.5
									c-2,1.4-4.2,3.3-4,5.7c0,0.3,0.1,0.6,0.4,0.8s0.6,0.2,1,0.2c4.1-0.1,8.2-1.8,11.2-4.6c-1.3,1.2-0.1,3.7,1.6,4.1
									c1.8,0.4,3.5-0.7,4.8-2c0.9-0.9,1.6-1.9,2.4-2.9c0.6-0.8,1.2-1.8,0.9-2.8c-0.3-0.9-1.3-1.4-2.2-1.8c-2.9-1.2-5.8-2.1-8.8-3
									c-2.5-0.7-4.7-0.1-7.3,0.5C1450.4,703.4,1445.1,705.3,1441,708.9z"/>
								<g>
									<path class="st33" d="M1458.6,695.9c0,0,10.3-27.9,32.2-26.7c22,1.2,31.6,18.9,34.3,25.8c2.9,7.4-0.4,26.6-3.8,33.5
										l-2.8-5.4l-63.2-25.4L1458.6,695.9z"/>
									<path class="st34" d="M1516.3,726.2c0,0-68.7-26.4-76.1-29.9s2.5-6.6,18.1-2.3s57.4,26.9,63.1,30.6L1516.3,726.2z"/>
									<path class="st35" d="M1471.7,699.2c0,0,7.8-29.6,27.9-28.4c0,0,5.8,1.6,9.5,4.4c0,0-15.5,2.4-26.4,29.1L1471.7,699.2z"/>
									<path class="st24" d="M1511.8,727.9c0,0,18.6-9.3,20.1-0.3c1.1,6.5-14,6-21.2,4.4L1511.8,727.9z"/>
									<g>
										<g>
											<path class="st30" d="M1516,730c3.9-0.9,8-1.2,12-1.8c0.2,0,0.1-0.3,0-0.3c-3.9-0.5-8.3,0.7-12,1.7
												C1515.6,729.7,1515.7,730.1,1516,730L1516,730z"/>
										</g>
									</g>
								</g>
								<g>
									<path class="st36" d="M1483.1,750.3c1.7-0.8,3.3-1.5,4.7-2.7c0.4-0.4,0.8-0.8,1.2-1.3c-2.3-1.2-7.4-1.8-11.1,0.4
										c-2.9,1.7-4.8,4.4-5.2,6.2C1476.3,752.9,1480,751.7,1483.1,750.3z"/>
								</g>
							</g>
							<polygon class="st37" points="1493,797.2 1493,788.5 1460.7,785.4 1455.8,800.4 							"/>
							<g>
								<path class="st34" d="M1382.1,811l226.4-38.3c0,0,5,2.7,7.8,11.4c2.7,8.7-2.3,15.1-2.3,15.1L1389.2,839
									c0,0-3.7-5.5,3.2-10.5c0,0-12.5-2.4-4.6-11.4C1387.8,817.1,1379.4,817.4,1382.1,811z"/>
								<path class="st33" d="M1617.1,790.2c-0.3,5.5-3.1,9.1-3.1,9.1L1389.2,839c0,0-3.7-5.5,3.2-10.5L1617.1,790.2z"/>
								<path class="st33" d="M1382.1,811l226.4-38.3c0,0,3.5,2.3,5.3,5.8L1387.9,817C1387.8,817.1,1379.4,817.4,1382.1,811z"/>
							</g>
							<path class="st24" d="M1540.1,765.6c2.1,1.3,17.2,59.1-28.9,51.9c0,0,33.9-4.7,17.2-42.4L1540.1,765.6z"/>
							<path class="st25" d="M1522.9,775.4c0,0,11.3-11.1,18.2-15.2c0,0,3.2,1.7,4.3,5.5l-18.3,15.3
								C1527.1,781,1523.3,779.9,1522.9,775.4z"/>
						</g>
						<g>
							<g>
								<path class="st30" d="M1531.7,888.3C1531.8,888.3,1531.8,888.2,1531.7,888.3L1531.7,888.3L1531.7,888.3z"/>
							</g>
						</g>
					</g>
					<g>
						<path class="st31" d="M1544.1,785.4c-0.1,0-0.2,0-0.2,0c-3.2,0-5.8,2.6-5.8,5.8c0,3,2.4,5.5,5.3,5.8
							C1544.1,793.1,1544.3,789.2,1544.1,785.4z"/>
					</g>
					<g>
						<path class="st31" d="M1429,768.7c0.7-1,1.2-2.2,1.2-3.5c0-3.2-2.6-5.8-5.8-5.8c-1.7,0-3.2,0.7-4.2,1.9
							C1422.7,764,1425.6,766.6,1429,768.7z"/>
					</g>
					<path class="st34" d="M1506.8,837.3c0,0.7-0.6,1.2-1.2,1.2s-1.2-0.6-1.2-1.2c0-0.7,0.4-1.2,1.1-1.2
						C1506.1,836,1506.8,836.6,1506.8,837.3z"/>
					<path class="st34" d="M1501.6,842.5c0,0.7-0.6,1.2-1.2,1.2c-0.7,0-1.2-0.6-1.2-1.2c0-0.7,0.8-1.2,1.4-1.2
						C1501.2,841.3,1501.6,841.8,1501.6,842.5z"/>
					<path class="st5" d="M1351.9,734.8l-3.1-5c0,0-1.3,2-0.4,8.1c0.7,5,3.5,8.2,3.5,8.2s40.7-23.2,53.5-26.7
						c12.7-3.5,25.8-1.6,25.8-1.6v-6.5l-49.6,9.2L1351.9,734.8z"/>
					<path class="st38" d="M1403.5,709.1c0,0-37,13.5-52.5,17l4,13.7c0,0,37.3-18.6,53.6-21.5c16.4-2.9,24.7-3.5,24.7-3.5
						s3.7-10.2-3.1-13.4L1403.5,709.1z"/>
					<path class="st39" d="M1401.7,708.6c0,0-0.7-5.4,3.1-5.3c3.8,0.1,8.3,5.9,6.4,7.6c-1.9,1.7-6.1-3.5-6.1-3.5L1401.7,708.6z"/>
					<path class="st40" d="M1398.1,710.6c0,0-0.7-5.4,3.1-5.3c3.8,0.1,8.3,5.9,6.4,7.6c-1.9,1.7-6.1-3.5-6.1-3.5L1398.1,710.6z"/>
					<path class="st41" d="M1394.7,712c0,0-0.7-5.4,3.1-5.3c3.8,0.1,8.3,5.9,6.4,7.6c-1.9,1.7-6.1-3.5-6.1-3.5L1394.7,712z"/>
					<path class="st24" d="M1391.6,713.3c0,0-0.7-5.4,3.1-5.3c3.8,0.1,8.3,5.9,6.4,7.6c-1.9,1.7-6.1-3.5-6.1-3.5L1391.6,713.3z"/>
					<path class="st24" d="M1410.2,721.8c0,0,7-7.5,2.9-12.8c-4-5.3-8.9-2-9.7-1.1c-0.8,0.9-2.5,5.4,5.5,3.3c0,0,1,2.3-0.4,4
						l-3.2,4.1l1.6,4.4L1410.2,721.8z"/>
					<path class="st42" d="M1351,726c0,0,7.5,5.4,5.6,11.9C1354.8,744.3,1344.2,732,1351,726z"/>
					<g>
						<path class="st42" d="M1353,727.8c-1.1-1.1-1.9-1.7-1.9-1.7c-6.8,6,3.8,18.3,5.6,11.9c0.1-0.3,0.1-0.6,0.2-0.9
							C1353.9,735.9,1350.6,731.2,1353,727.8z"/>
						<path class="st43" d="M1353,727.8c-2.4,3.4,0.9,8.1,3.9,9.3C1357.5,733.2,1354.9,729.7,1353,727.8z"/>
					</g>
				</g>
				<g>
					<g>
						<path class="st6" d="M1480.8,720.4c-0.2,2.1-1.6,10.1,2.3,10.1c0.8,0,1.6-0.4,2.2-0.9c0.7-0.7,1.1-1.7,1.4-2.5
							c0.6-1.6,1.3-3.1,1.8-4.7c0.1-0.3-0.3-0.4-0.5-0.2c-0.9,1.8-1.4,3.9-2.4,5.7c-0.5,1-1.1,1.8-2.2,2c-3.6,0.7-2.4-7.5-2.3-9.4
							C1481.2,720.1,1480.8,720.1,1480.8,720.4L1480.8,720.4z"/>
					</g>
				</g>
				<g>
					<g>
						<path class="st6" d="M1456.8,720.7c0.7,2,2.6,10.4,6.3,8.3c0.9-0.5,1.4-1.4,1.6-2.4c0.5-2.3,0.3-4.9-0.1-7.1
							c0-0.3-0.5-0.2-0.5,0.1c-0.2,2.6,1.3,6.6-0.9,8.6c-3,2.9-5.5-5.8-6.1-7.5C1457.1,720.3,1456.7,720.4,1456.8,720.7
							L1456.8,720.7z"/>
					</g>
				</g>
			</g>
		</g>
		<g>
			<path class="st18" d="M1262.6,987.8c0,0,23.1-14.3,28.8-14.9s31.7,9,37.9,8.7c1.3,2.6,2.6,7.3-0.2,10.7
				c-6.4,7.6-18.9,18-24.7,19.3c-7.4,1.6-37.3-7.1-42-16C1261.7,994.4,1261.3,989.9,1262.6,987.8z"/>
			<g>
				<g>
					<path class="st19" d="M1263.4,984.8c0,0,22.4-16.4,28.1-17s33.1,11.2,39.3,10.9c1.3,2.6,1.3,5.1-1.6,8.5
						c-6.4,7.6-18.9,18-24.7,19.3c-7.4,1.6-36.8-6.3-41.6-15.1C1262.3,990.2,1262.1,986.9,1263.4,984.8z"/>
					<path class="st20" d="M1263.4,984.8c0,0,22.6-18.7,28.3-19.4c5.7-0.6,36.1,9.8,39.1,13.3c2,2.4-7.4,11.9-15.9,18.7
						c-4,3.2-7.5,6.2-10.2,6.8C1295.6,1006.1,1258.2,993.5,1263.4,984.8z"/>
				</g>
				<path class="st19" d="M1276,983.7c0,0,24.5,17.8,41.7-2l-15.7-56.4h-16.2L1276,983.7z"/>
				<path class="st21" d="M1302,925.3c0,1.8-3.8,3.6-8.2,3.6c-4.4,0-8-1.4-8-3.2s3.6-3.2,8-3.2C1299.2,922.5,1302,923.6,1302,925.3z
					"/>
				<g>
					<path class="st21" d="M1293.8,922.5c-4.1,0-7.4,1.2-7.9,2.8h16.1C1302,923.6,1299.2,922.5,1293.8,922.5z"/>
					<path class="st21" d="M1293.8,928.9c4.4,0,8.2-1.8,8.2-3.6h-16.1c0,0.1-0.1,0.2-0.1,0.4
						C1285.8,927.5,1289.4,928.9,1293.8,928.9z"/>
					<path class="st22" d="M1308.1,947.3l-2.8-10c-5.2,3-13.5,5.8-21.7,0.6l-1.7,10.2C1288.1,951.6,1298,954.7,1308.1,947.3z"/>
					<path class="st22" d="M1280.4,957.5l-2.1,12.2c5.9,4.4,20.6,12.6,35.9-0.4l-3.1-11.1C1304.8,961.9,1291.4,967.5,1280.4,957.5z"
						/>
				</g>
			</g>
		</g>
		<g>
			<g>
				<polygon class="st9" points="691.3,969.1 721.4,936.6 747.7,939.8 790.7,922.1 844.5,965.3 830.1,998.2 780.7,1002 
					755.2,1009.8 731.1,994 700,987.2 				"/>
				<polygon class="st44" points="691.3,969.1 721.4,936.6 747.7,939.8 790.7,922.1 844.5,965.3 836.3,984 788.5,943.7 747.7,961.1 
					724,957.6 697,981.1 				"/>
				<polyline class="st45" points="724,957.6 721.4,936.6 747.7,939.8 747.7,961.1 724,957.6 724,957.6 				"/>
				<polygon class="st46" points="788.5,943.7 790.7,922.1 747.7,939.8 747.7,961.1 				"/>
			</g>
			<g>
				<g>
					<path class="st47" d="M747.4,848c-0.2,0-0.4,0.1-0.5,0.1c-1.9,0.5-1.9,3.4,0,3.9c0.2,0,0.4,0.1,0.5,0.1
						c1.4,0.4,2.8-0.7,2.8-2.1C750.2,848.7,748.8,847.6,747.4,848L747.4,848z"/>
				</g>
			</g>
			<g>
				<path class="st47" d="M797.5,877.5c2.5,0,5.1-0.5,5.7-2.4c0.8-2.9-1.8-7.5-5.7-7.5c-3.6,0-7.3,3-6.8,5.8
					C791,875.5,792.4,877.5,797.5,877.5L797.5,877.5z"/>
			</g>
			<g>
				<path class="st47" d="M592.4,906.8c6.3,0,5.5-6.8-0.8-6.8C585.3,900.1,586.1,906.8,592.4,906.8L592.4,906.8z"/>
			</g>
			<g>
				<path class="st47" d="M656.4,985.4c1.1-2.3,1.1-4.6-0.5-6.7c-2.2-2.8-6.4-3.2-9-0.6c-2.4,2.4-4.9,5.8-2.7,8.2
					C646.7,989,654.8,988.9,656.4,985.4L656.4,985.4z"/>
			</g>
			<g>
				<path class="st47" d="M881.1,986.6c3.2,0,6.3-1.5,6.3-4s-3.1-5.9-6.3-5.9c-3.5,0-8.2,4.6-7.8,7.3
					C873.6,986.2,878.3,986.6,881.1,986.6L881.1,986.6z"/>
			</g>
			<g>
				<g>
					<path class="st18" d="M538.7,995.5c0,7.9-35.2,14.4-78.7,14.4s-78.7-6.4-78.7-14.4c0-7.9,35.2-14.4,78.7-14.4
						S538.7,987.5,538.7,995.5z"/>
					<g>
						<g>
							<path class="st47" d="M592.6,844.7c-1-1.2-2.1-2.5-2.6-4s-0.4-3.4,0.7-4.6c0.6-0.7,1.4-1.1,2.3-1.4c3.1-1.3,6.5-2,9.8-2.1
								c-2.6-0.2-4.3-3.2-3.6-5.7c0.6-2.5,3-4.3,5.5-4.9c2.5-0.6,5.1-0.3,7.6,0.2c-2.2-2.4-4.5-4.8-5.8-7.8s-1.5-6.6,0.3-9.3
								c1-1.4,2.4-2.4,3.9-3.2c3.6-1.9,7.8-2.6,11.7-1.9c-3.1-3.1-2.8-8.8,0.3-12c3.1-3.1,8.4-3.6,12.3-1.5c3.9,2.1,6.3,6.5,6.4,11
								c2.1-3.3,6.8-4.3,10.3-2.7s5.8,5.3,6.2,9.2s-0.9,7.7-2.9,11c7-3.4,15.6-0.5,21.5,4.6c2,1.8,3.9,3.8,5.1,6.2
								c3.6,7,0.6,16.7-6.3,20.5c-3.1,1.7-6.6,2.3-10,2.9c-12.3,2.1-24.5,4.1-37,4.6c-12.4,0.5-25-0.6-36.7-4.8"/>
						</g>
						<path class="st48" d="M588.7,857.7c0,0-3.8,10.3,5.8,11.6s60.9,3.5,90.3-20l-61.2,4.5L588.7,857.7z"/>
						<path class="st49" d="M579.6,845.8c0,0-1-4.3,2.9-4.8c1.9-0.3,33.5,4,57.8,3.6c26.8-0.5,46.3-5.5,47.9-3.6
							c3.1,3.6,4.2,8.4,1.7,10s-84.3,26.9-110.3,5.3l-3.3-7L579.6,845.8z"/>
						<polygon class="st32" points="539.4,842.2 579.6,845.8 579.6,856.3 539.6,853.4 						"/>
						<path class="st24" d="M534.5,858.2c-2.4-2.5-3.7-12-3.7-12l5-8.9l3.5-0.4l2.7,0.9l9.6,5.1l1.1,5l-5.2,7.7l-8.7,2.6
							C538.9,858.2,535.4,859.1,534.5,858.2z"/>
						<path class="st41" d="M536.2,850.4c0,0,0.3,5.5,1.9,6.8l1.3-0.2l0.3-3.6L536.2,850.4z"/>
						<g>
							<path class="st32" d="M504.2,972c0,0,5.7,5.7,7.1,5.3c3.8-1,19.8-19.5,18.9-22.7c-1.4-5.1-13.8,3.8-21,10.7L504.2,972z"/>
							<path class="st32" d="M403.5,988.7c0,0-0.5,8,0.7,8.8c3.3,2.2,27.7,2.1,29.5-0.7c2.9-4.4-12-7.9-21.9-8.7L403.5,988.7z"/>
							<path class="st9" d="M455.6,872.2c0,0,25.1,65.2,57.6,89.7l-7.7,11.3c0,0-45.9-38.2-63.8-81.8c0,0-11.7,4.2-20.4,3.5
								c0,0-7.2,70.8-4.1,93.9h-13.7c0,0-4.5-69.8-6.7-112.1l9.1-21.2l45.3,1.1L455.6,872.2z"/>
							<path class="st50" d="M492.5,776.4c0,0,21.7,43.3,47.2,60.1l-7.8,13.6c0,0-41-34.3-60.1-60.8l0,0l1-17.1L492.5,776.4z"/>
							<path class="st50" d="M420.1,748.1c0,0-53.9-5.9-71.2,27.8c-13.6,26.4,2.7,47.1,2.7,47.1l8.3-6.1c0,0-11.4-37.8,20.3-44.1
								c6.6-1.3,16.6-0.8,26.9,2.1l-4.3,37.7l-7.9,51.4c0,0,25.9,5.4,41.8,7.2c14.2,1.6,23.3-3.1,23.3-3.1l10.1-73.6l-17.5-41.1
								L420.1,748.1z"/>
							<g>
								<g>
									<path class="st6" d="M531.5,722.9c0.5,6.7-5.2,11.5-6.2,18.1c-0.4,2.8,8,15.2,8.9,17.9c1.3,3.6,0.4,8-2.4,10.5
										c-2.9,2.5-7.7,2.6-10.4-0.2c0.9,3,1.7,6.6-0.1,9.2c-1.6,2.3-4.7,3-7.4,2.5s-5.1-2.1-7.3-3.6c-0.5,2.9-1,6-2.4,8.6
										s-4,4.8-7,5s-5.7-1.7-7.4-4.2c-1.7-2.4-2.5-5.4-3.3-8.2c-1.2-4.5-2.5-9.2-1.7-13.8c0.5-3,2-5.8,3.3-8.6
										c2.7-5.3,5.5-10.8,9.7-15.1c4.7-4.8,10.9-7.9,17.1-10.5c5.5-2.4,11.1-4.5,16.7-6.6"/>
								</g>
								<g>
									<path class="st6" d="M433,700.7c-4.3-1-8.9-1.2-13.3-0.4c-3,0.5-6.2,1.7-7.5,4.4s1,6.8,3.9,6c-3.6,0.5-7,1.8-10.1,3.8
										c-2.9,1.9-5.5,5.5-3.9,8.5c1.3,2.4,4.5,2.9,7.2,2.7c4-0.2,7.9-1.2,11.5-2.8c-5.2,1.6-6.7,8.9-3.8,13.5
										c2.9,4.6,8.7,6.5,14.1,6.7c10.6,0.2,20.8-5.5,27.4-13.8c3.3-4.2,6-9.8,4.3-14.9c-1.7-5.1-7-8-12.1-9.6
										c-5-1.6-10.2-2.4-15.5-2.4"/>
								</g>
								<path class="st19" d="M476.3,777.3l-10.6,105.2c0,0-16.8,12.1-22.5,0c-4.1-8.6,11.8-91.6,14.5-113.1L476.3,777.3z"/>
								<path class="st19" d="M399.7,807.8c0,0,26.9-10.3,15.3-65.3l20.8-5c0,0,6.3,140.2-15.7,148c-22,7.7-35.8-9.7-35.8-9.7
									L399.7,807.8z"/>
								<path class="st51" d="M476.3,777.3c0,0-8.1,11.8-14.2,20.8c0,0-7.1-14.1-9.1-20.8c0,0-21.6-0.6-27.4-0.7
									c0,0,7.8-35,14.3-59.5l31.3,12.1L476.3,777.3z"/>
								<path class="st24" d="M440.9,702c-11.7,26.3-2.3,65,21.2,74.8c23.4,9.8,54.6,2.1,66.8-29.1c10.5-26.7,7.8-59.3-15.6-69.2
									C489.9,668.6,452.6,675.7,440.9,702z"/>
								<path class="st29" d="M485.5,769.4c2.5-0.2,5.4-1.7,5.5-4.1c0.1-2-1.6-3.6-3.5-4.6c-1.8-0.9-3.9-1.5-5.4-2.9
									c-3-2.7-2.6-7.3-3.4-11.2c-0.8-3.8-3.2-7.3-6.9-8.9c-3.6-1.6-8.4-0.6-10.6,2.6c-1.5,2.2-1.6,5.1-0.9,7.7
									c0.7,2.6,2.2,4.9,3.6,7.1C468.5,762.1,476,770.2,485.5,769.4z"/>
								<path class="st31" d="M449.8,719.9c-2.1,3-1,7.2,2.4,9.4s7.8,1.5,9.9-1.5s1.9-6.5-1.5-8.7
									C457.2,716.9,451.9,716.9,449.8,719.9z"/>
								<path class="st31" d="M519,758.2c2.5-2.7,2.2-7-0.8-9.7s-7.5-2.7-10,0s-2.9,6.2,0.1,8.8C511.2,760,516.4,760.9,519,758.2z"
									/>
								<g>
									<g>
										<path class="st30" d="M470.1,766.6c-3.7-2.2-6.7-4.7-9.6-7.8c-0.1-0.1-0.2,0-0.1,0.1c2.1,3.6,5.7,6.6,9.6,8.1
											C470.2,767,470.3,766.7,470.1,766.6L470.1,766.6z"/>
									</g>
								</g>
								<g>
									<g>
										<path class="st6" d="M478.1,724.1c1.2-2.6,6.1-15.3,10-9.4c0.6,1,0.7,2.1,0.7,3.3c0.1,2.8-0.5,5.6-0.8,8.4
											c0,0.3,0.4,0.5,0.5,0.1c0.7-3.1,1.2-6.4,0.9-9.6c-0.1-1.3-0.5-2.5-1.5-3.4c-4.8-4.6-9,7.7-10.1,10.4
											C477.6,724.1,478,724.3,478.1,724.1L478.1,724.1z"/>
									</g>
								</g>
								<g>
									<g>
										<path class="st6" d="M506.2,735.5c1.8-2.3,9-12.5,11.8-7.1c1,1.9,0.1,3.9-0.6,5.7c-1,2.9-2.3,5.1-4.5,7.3
											c-0.2,0.2,0.1,0.6,0.4,0.4c2.7-2.4,4.1-5.5,5.2-8.9c0.6-1.9,0.9-3.7-0.3-5.4c-3.7-5.1-10.5,5.4-12.3,7.7
											C505.7,735.4,506,735.7,506.2,735.5L506.2,735.5z"/>
									</g>
								</g>
								<path class="st6" d="M483.5,739.6c0,0-7-9.6-14.8-8.8c-7.9,0.9,4.3,9.5,4.3,9.5s-8.7,9.6,2.5,8.4c0,0-6.3,10.3,5.7,7.9
									c0,0-1.7,10.5,6.4,4c0,0,0.3,2.9,1.5,4.9c1.9,3,5.2,4.7,6.2-1.9c0.4-2.3-1.7-8.6-2.8-9.1l-1.9,2.2l-4.4-14.7L483.5,739.6z"
									/>
								<g>
									<g>
										<path class="st30" d="M503.3,717.1c-0.1,10.9-1.7,21.1-7,30.8c-0.8,1.5-3.4,7.1-5,7.5c-0.9,0.2-0.2,0.3-0.9-1.3
											c-0.4-1.1-0.7-2.3-1-3.4c-1.1-3.6-2.1-7.4-3.8-10.8c-0.1-0.3-0.6-0.1-0.5,0.2c2.2,5.4,3.8,11.1,5.2,16.8
											c0.1,0.3,0.5,0.5,0.8,0.2c9.8-11.2,13.5-25.5,12.9-40.1C503.9,716.7,503.3,716.7,503.3,717.1L503.3,717.1z"/>
									</g>
								</g>
								<g>
									<path class="st48" d="M390.7,847.4l-1.6,7.2c10.7,3.5,32.9,6.5,42.2,7.6c0.4-2.1,0.8-4.4,1.2-6.7
										C418.5,854.9,398,849.5,390.7,847.4z"/>
									<path class="st48" d="M385.6,870c9.9,3.9,30.3,7.7,40.3,9.4c1-1.8,1.8-4,2.6-6.4c-14.2-1.4-34.7-7.9-41.3-10.1L385.6,870z"
										/>
								</g>
								<g>
									<path class="st48" d="M468.8,851.5c-9.2,2.3-18.8,4-24.6,4.8c-0.3,2.7-0.6,5.2-0.9,7.6c6.4-0.7,16-3,24.7-5.4L468.8,851.5z
										"/>
									<path class="st48" d="M466.3,876.4l0.7-7.1c-11.4,2-22.1,3-24.4,3.2c-0.2,2.9-0.2,5.3-0.1,7.1
										C447.6,879.9,457,878.3,466.3,876.4z"/>
								</g>
								<g>
									<path class="st33" d="M540.3,708.5c0,0,10.4-42.4-18.3-58.6c-28.7-16.3-55.6-2.5-64.8,3.8c-9.8,6.7-21.7,32.8-23.2,43.9
										l8-4.3l100.9,20.2L540.3,708.5z"/>
									<path class="st35" d="M521.1,701.9c0,0,14.9-42.5-11.4-57.4c0,0-8.7-2.7-15.6-2.3c0,0,17.5,15.5,8.9,57L521.1,701.9z"/>
									<path class="st24" d="M446.5,704.5c0,0-15.7-26.5-25-16.7c-6.8,7.1,12.6,18.6,23.1,22.5L446.5,704.5z"/>
									<g>
										<g>
											<path class="st30" d="M440,703.3c-4-4.3-8.5-9-13.7-11.8c-0.1-0.1-0.3,0.1-0.2,0.2c4.7,3.8,9.4,7.6,13.6,11.9
												C439.9,703.8,440.2,703.5,440,703.3L440,703.3z"/>
										</g>
									</g>
								</g>
								<path class="st6" d="M445.7,696.8l-5.1,19.1c0,0,0.9,3.8,5.1,2c0,0,3.2-14.2,11.2-19.3L445.7,696.8z"/>
								<path class="st34" d="M442.8,698.7c0,0,108.7,23.5,120.9,25.2s2.4-10-20.9-17.4c-23.2-7.4-94.9-13.7-105-13.8L442.8,698.7z"
									/>
							</g>
						</g>
						<polygon class="st32" points="335.4,821.2 546.8,843 552.6,844.6 550.8,850.8 542.1,853.8 333.7,828.7 						"/>
						<g>
							<path class="st39" d="M546.3,854.3c0,0,3.8,5.2,7,2c3.2-3.1,2.3-11.9-0.7-11.8c-3.1,0.1-2.4,8-2.4,8L546.3,854.3z"/>
							<path class="st40" d="M541.6,855.6c0,0,3.8,5.2,7,2c3.2-3.1,2.3-11.9-0.7-11.8c-3.1,0.1-2.4,8-2.4,8L541.6,855.6z"/>
							<path class="st41" d="M537.6,857.1c0,0,3.8,5.2,7,2c3.2-3.1,2.3-11.9-0.7-11.8c-3.1,0.1-2.4,8-2.4,8L537.6,857.1z"/>
							<path class="st24" d="M534.5,858.2c0,0,3.2,5.5,6.3,2.3c3.2-3.1,2.3-11.9-0.7-11.8c-3.1,0.1-2.4,8-2.4,8L534.5,858.2z"/>
							<path class="st24" d="M539.4,836.9c0,0,15.6-0.2,16.4,7.6c0.9,7.8-6,8.9-7.4,8.8c-1.4-0.1-6.6-2.6,2-7.3c0,0-1.1-2.8-3.5-3.1
								l-6.1-0.9L539.4,836.9L539.4,836.9z"/>
						</g>
						<path class="st24" d="M365,818.8c9.3,4.3,13.3,3.3,12.9,6.5c-0.5,4.7-12.9-1-12.9-1s5,10.5,1.2,12c-3.2,1.3-3.5-3.1-4.8-9.3
							c0,0,1.2,8.3-1.1,8.9c-2.2,0.6-4.3-1.4-3-8.6c0,0-0.9,8.7-3.1,9c-2.3,0.3-2.9-2.1-0.8-8.9c0,0-2.2,7.4-4.1,6.5
							c-2.5-1.2-1.6-4.3,3.8-13.8l5.5-3.7C358.7,816.3,363.5,818,365,818.8z"/>
						<polygon class="st50" points="359.9,816.8 351.6,822.9 349.4,816.3 355.8,812.5 						"/>
						<path class="st32" d="M343.5,817.7c0,0-6.5,21.8-13.1,22.3s-11.1-1.8-8.4-7.9c2.6-6.1,11.1-20.2,14-21S345.5,812,343.5,817.7z
							"/>
					</g>
				</g>
				<g>
					<path class="st18" d="M362,1016.9c0,0,23.1-14.3,28.8-14.9c5.7-0.6,31.7,9,37.9,8.7c1.3,2.6,2.6,7.3-0.2,10.7
						c-6.4,7.6-18.9,18-24.7,19.3c-7.4,1.6-37.3-7.1-42-16C361.2,1023.5,360.7,1019,362,1016.9z"/>
					<g>
						<g>
							<path class="st19" d="M362.9,1014c0,0,22.4-16.4,28.1-17s33.1,11.2,39.3,10.9c1.3,2.6,1.3,5.1-1.6,8.5
								c-6.4,7.6-18.9,18-24.7,19.3c-7.4,1.6-36.8-6.3-41.6-15.1C361.7,1019.3,361.5,1016,362.9,1014z"/>
							<path class="st20" d="M362.9,1014c0,0,22.6-18.7,28.3-19.4c5.7-0.6,36.1,9.8,39.1,13.3c2,2.4-7.4,11.9-15.9,18.7
								c-4,3.2-7.5,6.2-10.2,6.8C395.1,1035.3,357.6,1022.6,362.9,1014z"/>
						</g>
						<path class="st19" d="M375.4,1012.8c0,0,24.5,17.8,41.7-2l-15.7-56.4h-16.2L375.4,1012.8z"/>
						<path class="st21" d="M401.4,954.5c0,1.8-3.8,3.6-8.2,3.6c-4.4,0-8-1.4-8-3.2s3.6-3.2,8-3.2
							C398.7,951.6,401.4,952.7,401.4,954.5z"/>
						<g>
							<path class="st21" d="M393.2,951.6c-4.1,0-7.4,1.2-7.9,2.8h16.1C401.4,952.7,398.7,951.6,393.2,951.6z"/>
							<path class="st21" d="M393.2,958c4.4,0,8.2-1.8,8.2-3.6h-16.1c0,0.1-0.1,0.2-0.1,0.4C385.2,956.6,388.8,958,393.2,958z"/>
							<path class="st22" d="M407.6,976.5l-2.8-10c-5.2,3-13.5,5.8-21.7,0.6l-1.7,10.2C387.5,980.7,397.5,983.8,407.6,976.5z"/>
							<path class="st22" d="M379.8,986.7l-2.1,12.2c5.9,4.4,20.6,12.6,35.9-0.4l-3.1-11.1C404.2,991.1,390.9,996.7,379.8,986.7z"/>
						</g>
					</g>
				</g>
			</g>
		</g>
		<g>
			<g>
				<g>
					<polygon class="st52" points="1710.6,504.5 1539.7,378.5 1532.1,387.7 1699.5,513.2 					"/>
					<polygon class="st52" points="1727.2,909.7 1701.7,518.8 1711.1,518.8 1737.4,912.7 					"/>
					<polygon class="st52" points="1744.6,912.7 1718.5,518.8 1727.2,518.8 1756.1,913.7 					"/>
					<path class="st53" d="M1736.9,519.7c0,9-9.9,19.3-22.1,19.3s-22.1-10.3-22.1-19.3s8.1-19.8,20.3-19.8
						S1736.9,510.7,1736.9,519.7z"/>
					<path class="st12" d="M1721.3,520.1c0,2.6-2.9,7-6.5,7s-6.5-4.3-6.5-7s1.4-6.9,4.9-6.9C1716.9,513.2,1721.3,517.5,1721.3,520.1
						z"/>
				</g>
				<path class="st46" d="M1501.4,368.4c0,0,5.9-23.6,24.6-20.4s35.3,25.5,6.1,43.3L1501.4,368.4z"/>
				<path class="st38" d="M1554.6,496.9c0,0,14.6-111.7-25.1-137.4c-39.8-25.7-139.9,64.3-139.9,64.3S1458,478.1,1554.6,496.9z"/>
				<polygon class="st46" points="1526,351.4 1532.1,343.4 1549,356 1543.1,363.4 				"/>
				<polygon class="st46" points="1535.9,352.4 1542.9,343.4 1546.8,346.1 1540.8,354.9 				"/>
			</g>
			<g>
				<path class="st6" d="M1705.9,677.9c0,0-2-5.5-2.6-5.8c-0.6-0.2-1.3,0-1.4,0.3c-0.2,0.6-0.3,6.2-0.3,6.2l1.6,4.3l2.4-0.5
					L1705.9,677.9z"/>
				<path class="st54" d="M1717,697.8l-11.5-20.9c0,0-1.3,2.2-3.9,0.7l-4.2,23.9l3.6,8.1l8.7-0.4l6.2-1.7L1717,697.8z"/>
				<g>
					<g>
						<path class="st17" d="M1733.3,857.3c0,0,2.5,17.6,1,18.9c-1.5,1.3-8.4,4.9-15.6,1.5c0,0-1.2,1.6-2-18l0.1-0.9L1733.3,857.3z"
							/>
						<path class="st22" d="M1732.1,853.9c0,0,3.6-0.1,3.9,2.7s-3.7,6.5-10.1,7.7c-6.8,1.2-11.5-1.6-11.9-3.8
							c-0.3-1.6-0.2-3.5,3.3-5.5L1732.1,853.9z"/>
						<g>
							<g>
								<path class="st34" d="M1717,697.8l16.6,158.1c0,0-2.1,3.4-8.2,4.9s-10.3-2.2-10.3-2.2l-17.7-157.1c0,0,3.9-2.3,7.1,2.7
									c0,0,2.2-8.5,8.1-2.7C1712.6,701.5,1712.7,695.6,1717,697.8z"/>
								<path class="st33" d="M1721.2,861.1c-3.8-0.4-6.1-2.5-6.1-2.5l-17.7-157.1c0,0,3.9-2.3,7.1,2.7L1721.2,861.1z"/>
								<path class="st33" d="M1717,697.8l16.6,158.1c0,0-1.7,2.3-4.2,3.4l-16.8-157.8C1712.6,701.5,1712.7,695.6,1717,697.8z"/>
							</g>
						</g>
					</g>
				</g>
			</g>
			<g>
				<path class="st6" d="M1748,654.6c0,0-1.1-6.4-1.6-6.7s-1.1-0.1-1.2,0.2c-0.2,0.5-0.9,6.8-0.9,6.8l1,3.8l2.1-0.2L1748,654.6z"/>
				<path class="st54" d="M1754.3,672.5l-6.6-18.7c0,0-1.3,1.7-3.4,0.3l-5.7,20.1l2.4,7.3l7.5,0.4l3.8,0.4L1754.3,672.5z"/>
				<g>
					<g>
						<g>
							<g>
								<path class="st6" d="M1754.3,672.5l0.6,138.4c0,0-2.1,2.7-7.5,3.5s-8.7-2.8-8.7-2.8l-0.1-137.5
									C1738.6,674.1,1747.4,678.5,1754.3,672.5z"/>
							</g>
						</g>
					</g>
				</g>
			</g>
			<g>
				<g>
					<path class="st55" d="M1770.2,836.8c0,0-1.7,20,3.5,19.9c3.9-0.1,8.1-18.3,8.1-18.3L1770.2,836.8z"/>
				</g>
				<g class="st56">
					<g>
						<polygon class="st38" points="1787.9,703.3 1785.6,720.5 1770.2,836.8 1781.8,838.4 1797.3,722 1799.5,704.8 						"/>
					</g>
				</g>
				<g>
					
						<rect x="1725.4" y="779" transform="matrix(0.1316 -0.9913 0.9913 0.1316 775.7421 2445.3591)" class="st38" width="116.4" height="1.8"/>
				</g>
				<g>
					<path class="st16" d="M1792.4,753.9c4.6,1.6,9-31.5,9-31.5s8-49.1-2.4-49.6c-5.9-0.3-9.3,10.8-15.5,49.6l12.8,1.7L1792.4,753.9
						z"/>
				</g>
			</g>
			<polygon class="st5" points="1687.9,772 1796.6,772 1793.2,922.6 1696,923.9 			"/>
			<path class="st57" d="M1717,772c0,0-17.2,101.3,33.2,108.4c34.6,4.8,31.5-108.4,31.5-108.4H1717z"/>
		</g>
		<polygon class="st58" points="592.6,921.7 592.6,907.7 635.1,908.8 635.1,923.4 		"/>
		<g>
			<path class="st33" d="M651,76.7c0.7,0.8,6.6,5.2,6.6,5.2l6.8-9.2L651,76.7z"/>
			<polygon class="st33" points="663.1,51 665.5,45 679.3,47.2 			"/>
			<path class="st16" d="M646.4,60.7c0,0,2.2-8.7,11.2-6.2L646.4,60.7z"/>
			<path class="st16" d="M684.4,67.4c0,0,6.6,5.7,10.4-0.1l-3-3.7l-6.8-0.5L684.4,67.4z"/>
			<path class="st16" d="M678.1,46.4c0,0,6.9-7.3,15.7-1.1l-9.3,4.4l-7.1-3.4L678.1,46.4L678.1,46.4z"/>
			<g>
				<path class="st59" d="M645.2,76c1,1.8,2.6,4,4.6,3.7c1.3-0.2,2.3-1.3,3.5-1.7c2.8-0.9,5.4,2,8.2,2.1c0.4,0,0.9,0,1.3-0.3
					c1.2-0.7,1.3-2.8,2.7-3.1c1.1-0.2,2.2,1,3.3,0.6c1.2-0.4,1.1-2,1.4-3.2c0.6-2.4,3.3-3.7,5.8-3.8c2.5-0.1,4.9,0.5,7.4,0.4
					c0.4,0,0.9-0.1,1.2-0.3c0.3-0.2,0.5-0.6,0.8-1c1.2-1.6,3.5-1.9,5.6-1.8c2,0.1,4.2,0.3,6-0.7c2.3-1.3,3.2-4.1,5.3-5.7
					c1-0.7,2.2-1.2,2.5-2.4c0.3-1.5-1.2-3.1-0.4-4.4c0.3-0.5,0.9-0.7,1.3-1.1c1.1-1.1,0.4-3.1-0.7-4.2c-1.2-1.1-2.7-1.7-3.7-2.9
					c-0.4-0.5-0.7-1-1.2-1.5c-0.9-0.9-2.3-1.2-3.5-1.2c-4.4-0.1-8.6,2.6-13,2.3c-2.1-0.1-4.2-1-6.2-0.3c-1.2,0.4-2.1,1.2-3.2,1.8
					c-3.8,2-8.5,0.9-12.5,2.5c-0.6,0.2-1.1,0.5-1.5,0.9c-0.4,0.5-0.6,1.2-1,1.7c-1.5,2-4.9,0.8-7.1,2.1c-1.3,0.8-1.9,2.5-3.1,3.5
					c-1.9,1.6-5.4,1.5-6.4,3.8c-0.8,1.8,0.4,4-0.4,5.8c-0.3,0.7-0.9,1.2-1.2,1.9c-0.4,1.1,0.1,2.4,1,3.2c0.9,0.8,2,1.3,3.2,1.7"/>
			</g>
			<path class="st47" d="M702.4,49.8c2.1,5.6-11.6,15.9-27.7,22c-16.1,6.1-28.4,5.6-30.5,0S649.9,58.1,666,52S700.3,44.2,702.4,49.8
				z"/>
			<g>
				<path class="st6" d="M656.7,222.8c0,0-2.7,5.1-2.1,5.9c1.5,2.4,17.4,9.5,19.4,8.2c3.2-2-5.5-8.6-11.6-12L656.7,222.8z"/>
				<path class="st6" d="M583.6,238.3c0,0,2.7,5.1,2.1,5.9c-1.5,2.4-17.4,9.5-19.4,8.2c-3.2-2,5.5-8.6,11.6-12L583.6,238.3z"/>
				<path class="st60" d="M554.6,77.6c0.8-0.8,7.5-9.4,6.6-10.7c-1.2-1.6-4.7,4.3-5.5,5.2c0.2-1.3,0.2-2.2-0.1-4.3
					c-0.2-1.3-0.5-5.9-1.7-5.9s-1.1,3.2-1.1,5.7c0,0.8,0,2.5,0,3.2c-0.3-2.6-1.3-9-2.9-8.4c-1.6,0.6,0.1,7.7,0.7,9.6
					c-1-2.5-2.7-9.8-4.5-8.9c-1,0.5,1.5,7.1,1.9,8.7c-0.8-0.9-3.2-6.1-4.8-5.1c-2.1,1.4,3.6,7.6,4.5,8.8
					C548.6,76.6,552.4,80.1,554.6,77.6"/>
				<path class="st16" d="M609,129c0,0-47.9,16.4-53.6-52.3h-6.7c0,0-3.8,59.2,47.7,70.5l1.5,31.4l38.2-5.3l-1.5-32.9
					c0,0,47.5-20.1,43.4-61.1h-8.6c0,0,4.4,32.4-40.1,50.7L609,129z"/>
				<polygon class="st61" points="605.8,126.2 606.4,140.5 615,136.1 626.3,140.5 622.4,126.6 				"/>
				<g>
					<path class="st6" d="M617.7,73.8c3.5,0.7,5.2,4.3,8.5,5.8c1.4,0.6,9-1.9,10.5-2c2-0.2,4.2,0.9,5.1,2.8c0.9,1.8,0.2,4.4-1.6,5.3
						c1.7,0,3.7,0.1,4.7,1.4c0.9,1.1,0.9,2.9,0.2,4.2c-0.7,1.3-1.8,2.3-2.9,3.3c1.5,0.7,2.9,1.4,4.1,2.5c1.2,1.1,1.9,2.8,1.6,4.3
						c-0.3,1.6-1.7,2.7-3.2,3.2s-3.1,0.5-4.7,0.5c-2.5,0-5.1,0-7.4-1.1c-1.5-0.7-2.7-1.8-4-3c-2.4-2.2-4.8-4.4-6.4-7.2
						c-1.8-3.1-2.5-6.8-3-10.4c-0.4-3.2-0.7-6.4-1-9.6"/>
					<path class="st6" d="M590,105.6c-2.2,1-4.1,2.5-5.7,4.3c-1.1,1.2-2,2.8-1.6,4.4s2.7,2.5,3.7,1.2c-1.3,1.4-2.3,3.1-2.9,5
						c-0.6,1.8-0.4,4.2,1.3,4.9c1.3,0.6,2.8-0.3,3.9-1.3c1.6-1.4,2.9-3.2,3.8-5.1c-1.6,2.4,0.2,6,3,6.9s5.8-0.2,8.1-2
						c4.5-3.5,6.8-9.3,6.8-15c0-2.9-0.8-6.1-3.3-7.6c-2.4-1.6-5.6-1-8.3,0.1c-2.6,1-5.1,2.5-7.3,4.2"/>
					<path class="st24" d="M588.2,109.2c4,14.9,21,27.9,34.1,24c13.1-3.8,23.5-17.6,18-34.8c-4.7-14.7-16.8-27.4-29.9-23.6
						C597.3,78.7,584.2,94.2,588.2,109.2z"/>
					<path class="st29" d="M629.6,122.2c1-0.9,1.7-2.5,0.9-3.6c-0.6-0.9-1.9-1-3-0.7c-1.1,0.2-2.1,0.7-3.2,0.6
						c-2.2-0.1-3.6-2.2-5.2-3.5c-1.6-1.3-3.8-2-5.9-1.4c-2,0.6-3.7,2.6-3.6,4.7c0.1,1.4,1.1,2.7,2.2,3.5c1.2,0.8,2.6,1.3,3.9,1.7
						C620.1,124.9,625.9,125.7,629.6,122.2z"/>
					<path class="st31" d="M598,113.7c0.2,2,2,3.4,4.2,3.1c2.2-0.2,3.8-2,3.6-4s-1.4-3.4-3.6-3.1C600.1,109.9,597.8,111.7,598,113.7
						z"/>
					<path class="st31" d="M639.8,106.2c0.2-2-1.5-3.7-3.6-3.8c-2.2-0.1-4,1.4-4.2,3.4s0.9,3.6,3,3.7
						C637.2,109.6,639.6,108.2,639.8,106.2z"/>
					<g>
						<path class="st30" d="M622.3,126.1c-2.2,0-4.4,0.1-6.7,0c-0.1,0-0.2,0.2-0.1,0.2c2,1,4.8,1.2,6.8,0.2
							C622.6,126.5,622.5,126.1,622.3,126.1L622.3,126.1z"/>
					</g>
					<g>
						<path class="st6" d="M611.4,105.7c-0.3-1.3-2.5-7.9,0.7-7.1c1.9,0.5,2.9,3.4,3.9,4.8c0.2,0.3,0.7,0.1,0.6-0.3
							c-0.8-1.9-2.5-5.4-4.9-5.4c-3.8-0.1-1.3,6.4-0.8,8.1C610.9,106.2,611.4,106.1,611.4,105.7L611.4,105.7z"/>
					</g>
					<g>
						<path class="st6" d="M626.9,101c0-1.3-0.4-8.1,2.3-6.7c0.9,0.5,1.2,1.6,1.5,2.5c0.5,1.5,0.6,2.8,0.6,4.4
							c0,0.4,0.6,0.4,0.6,0.1c0.5-2-0.1-3.9-0.8-5.7c-0.4-1-0.9-1.8-2-2.2c-3.6-1.2-2.9,5.9-2.9,7.6
							C626.4,101.4,626.9,101.4,626.9,101L626.9,101z"/>
					</g>
					<g>
						<path class="st30" d="M619.1,94.5c4.6,6.3,7.9,12.7,7.8,20.8c0.3-0.2,0.6-0.4,0.9-0.5c-2.5-1.8-5.3-3.9-8.1-5
							c-0.4-0.2-0.6,0.4-0.3,0.6c2.6,1.7,5.2,3.4,7.7,5.3c0.4,0.3,1,0.1,1.1-0.4c0.3-8.1-2.9-15.5-8.4-21.3
							C619.4,93.6,618.8,94.1,619.1,94.5L619.1,94.5z"/>
					</g>
					<g>
						<path class="st33" d="M631.9,78.2c0,0-10-21.2-27.5-18.3s-24,17.8-25.8,23.5c-1.8,6.1,2,21,5.2,26.2l1.9-4.5l48.9-25.7
							L631.9,78.2z"/>
						<path class="st35" d="M621.6,82c0,0-8.2-22.8-24.2-20.1c0,0-4.5,1.8-7.3,4.3c0,0,12.5,0.5,23,20.8L621.6,82z"/>
						<path class="st24" d="M591.4,108.3c0,0-15.5-5.7-16.1,1.5c-0.4,5.3,11.6,3.5,17.3,1.6L591.4,108.3z"/>
						<g>
							<path class="st30" d="M588.3,109.9c-3.1-0.5-6.8-1.2-9.8-0.2c-0.2,0.1-0.2,0.4,0.1,0.4c3.2,0.4,6.5,0.1,9.7,0.4
								C588.6,110.5,588.6,109.9,588.3,109.9L588.3,109.9z"/>
						</g>
					</g>
					<path class="st6" d="M587.9,104.8l3,6.6c0,0,1.7,1.3,2.8-0.9c0,0-3.9-3.2-2.3-8L587.9,104.8z"/>
					<path class="st34" d="M587.9,107.2c0,0,53.3-27,59-30.4s-2.4-5-14.6-0.2c-12.2,4.8-44.2,26.4-48.5,29.8L587.9,107.2z"/>
				</g>
				<path class="st27" d="M577.9,240.9c0,0-21.9-59.9,19.8-68.4s77.5-1.2,65,52.6l-6.1-2.2c0,0,7.7-38.3-27.4-36.1
					c-35.1,2.2-49.8-10-45.5,51.5L577.9,240.9z"/>
			</g>
			<path class="st24" d="M669.3,79.4c0,0-3.1-15.1-1.1-16.6c1.9-1.5,3.5,6.4,3.4,9.9l5.5-1.9c0,0,1.2,4,0.8,8.6l0,0H669.3z"/>
			<path class="st62" d="M684.3,53.5c0.8,3,1.1,6.9,0.1,7.2s-2.4-2-3.2-4.9c-0.8-3-0.7-5.6,0.3-5.9
				C682.4,49.5,683.5,50.5,684.3,53.5z"/>
			<path class="st62" d="M671.4,61.6c-1-2.9-1.5-6.8-0.5-7.1c0.9-0.3,2.5,1.8,3.5,4.8c1,2.9,1,5.6,0.1,5.9
				C673.5,65.4,672.4,64.5,671.4,61.6z"/>
			<path class="st62" d="M660.7,65.3c-1-2.9-1.5-6.8-0.5-7.1c0.9-0.3,2.5,1.8,3.5,4.8c1,2.9,1,5.6,0.1,5.9
				C662.8,69.1,661.7,68.2,660.7,65.3z"/>
		</g>
	</g>
</g>
<g id="圖層_2">
	<text transform="matrix(1 0 0 1 632.2668 380.3687)" class="st63 st64">03/30 19:00~03/31 12:00</text>
	<g>
		<text transform="matrix(1 0 0 1 742.4047 502.6523)" class="st63 st65">系統維護通知</text>
	</g>
</g>
</svg>
