<svg id="圖層_1" data-name="圖層 1" xmlns="http://www.w3.org/2000/svg" viewBox="0 0 64 19"><defs><style>.cls-1{fill:#fcfcfc;}</style></defs><title>out_of_stock_txtleft</title><path class="cls-1" d="M3.25,5.16a.69.69,0,0,0,.53-.22A.81.81,0,0,0,4,4.39c0-.16-.14-.33-.41-.49l-.49-.31A.21.21,0,0,1,3,3.42a.4.4,0,0,1,.15-.3A.61.61,0,0,1,3.47,3a.33.33,0,0,1,.19.06.46.46,0,0,0,.16.06c.11,0,.11-.16.11-.21s-.05-.12-.15-.17a.68.68,0,0,0-.26-.07.89.89,0,0,0-.61.24.69.69,0,0,0-.25.5.45.45,0,0,0,.22.39c.2.14.39.27.56.37s.24.18.24.25a.39.39,0,0,1-.13.32.41.41,0,0,1-.32.12.89.89,0,0,1-.43-.14l0,0h0a.09.09,0,0,0-.1.1.13.13,0,0,0,0,.07A.72.72,0,0,0,3.25,5.16Z"/><path class="cls-1" d="M6.53,5.16a.75.75,0,0,0,.63-.43A1.47,1.47,0,0,0,7.38,4a1.76,1.76,0,0,0-.22-.87.76.76,0,0,0-.65-.46.6.6,0,0,0-.35.1l-.11.05S6,2.81,6,2.8H6s0,0,0,0a1.61,1.61,0,0,0-.27,1,1.79,1.79,0,0,0,.22,1A.73.73,0,0,0,6.53,5.16ZM6,3.88c0-.59.15-.89.48-.89a.51.51,0,0,1,.43.27,1.09,1.09,0,0,1,.19.66,1.21,1.21,0,0,1-.15.62.45.45,0,0,1-.4.24C6.15,4.78,6,4.49,6,3.88Z"/><path class="cls-1" d="M9.09,3.85v.28c0,.18,0,.32,0,.41,0,.42.06.62.2.62s.16,0,.16-.28c0,0,0-.16,0-.29s0-.26,0-.31a1,1,0,0,1,.2-.61,1.38,1.38,0,0,1,.73-.46c.06,0,.25,0,.25-.18s0-.13-.19-.13a1.42,1.42,0,0,0-1,.54,4.22,4.22,0,0,0-.05-.6c0-.15-.12-.18-.17-.18A.13.13,0,0,0,9,2.81s0,.3,0,.44S9.09,3.7,9.09,3.85Z"/><path class="cls-1" d="M13.61,2.9a1.4,1.4,0,0,0-1,.54c0-.25,0-.45,0-.6s-.12-.18-.18-.18a.13.13,0,0,0-.13.15s0,.3,0,.44,0,.45,0,.6,0,.1,0,.28,0,.32,0,.41c0,.42.06.62.19.62s.16,0,.16-.28c0,0,0-.16,0-.29s0-.26,0-.31a1,1,0,0,1,.19-.61,1.37,1.37,0,0,1,.74-.46c.06,0,.25,0,.25-.18S13.77,2.9,13.61,2.9Z"/><path class="cls-1" d="M15.19,6.05c.05,0,.13,0,.29-.26A29.63,29.63,0,0,0,17.2,3.16a.84.84,0,0,0,.13-.33c0-.1,0-.16-.14-.16a.21.21,0,0,0-.16.11c-.28.47-.5.83-.64,1.09a7.82,7.82,0,0,0-.64-1.05q-.12-.15-.21-.15c-.15,0-.17.09-.17.15a.29.29,0,0,0,.06.15,13.91,13.91,0,0,1,.75,1.23c-.27.45-.62,1-1.06,1.6a.32.32,0,0,0-.06.16S15.07,6.05,15.19,6.05Z"/><path class="cls-1" d="M22.63,3.38a.38.38,0,0,0,.26-.13A.45.45,0,0,0,23,3c0-.25-.15-.31-.27-.31a.43.43,0,0,0-.28.12c-.1.08-.14.15-.14.21a.4.4,0,0,0,.07.24A.29.29,0,0,0,22.63,3.38Z"/><path class="cls-1" d="M22.64,5.16A.34.34,0,0,0,23,4.82c0-.23-.11-.36-.32-.36a.32.32,0,0,0-.26.12.33.33,0,0,0-.11.22A.32.32,0,0,0,22.64,5.16Z"/><path class="cls-1" d="M26.15,3a3.83,3.83,0,0,1,.26-1.51,2.55,2.55,0,0,1,.67-.89.24.24,0,0,0,.1-.18.13.13,0,0,0-.13-.15s-.05,0-.11.06a3.25,3.25,0,0,0-.87,1.18,4.25,4.25,0,0,0-.22,1.45,4.51,4.51,0,0,0,.29,1.68,5.14,5.14,0,0,0,.51,1c.17.24.3.36.41.36s.14-.08.14-.11a.25.25,0,0,0-.07-.15A4.39,4.39,0,0,1,26.15,3Z"/><path class="cls-1" d="M5.08,12.81c-1.49,0-2.46,1.16-2.46,3s1,3,2.46,3,2.45-1.21,2.45-3S6.57,12.81,5.08,12.81Zm1.65,3c0,1.39-.65,2.29-1.65,2.29s-1.66-.9-1.66-2.29.64-2.27,1.66-2.27S6.73,14.39,6.73,15.77Z"/><path class="cls-1" d="M13.15,12.92h-.69a0,0,0,0,0,0,0V16.3c0,1.17-.44,1.76-1.32,1.76s-1.28-.59-1.28-1.76V13a0,0,0,0,0,0,0H9.08s0,0,0,0v3.33c0,1.62.72,2.48,2.07,2.48s2.08-.84,2.08-2.48V13S13.17,12.92,13.15,12.92Z"/><path class="cls-1" d="M18.68,12.92H14.52a0,0,0,0,0,0,0v.61l0,0h1.69v5s0,0,0,0H17s0,0,0,0v-5h1.69a0,0,0,0,0,0,0V13A0,0,0,0,0,18.68,12.92Z"/><path class="cls-1" d="M24.29,12.81c-1.5,0-2.46,1.16-2.46,3s1,3,2.46,3,2.45-1.21,2.45-3S25.78,12.81,24.29,12.81Zm0,5.25c-1,0-1.66-.9-1.66-2.29s.64-2.27,1.66-2.27,1.65.89,1.65,2.27S25.29,18.06,24.29,18.06Z"/><path class="cls-1" d="M31.58,12.92H28.31s0,0,0,0v5.67a0,0,0,0,0,0,0H29s0,0,0,0V16.11h2.13s0,0,0,0v-.61a0,0,0,0,0,0,0H29.06V13.59h2.52a0,0,0,0,0,0,0V13A0,0,0,0,0,31.58,12.92Z"/><path class="cls-1" d="M37.43,15.57l-.82-.35c-.43-.18-.91-.39-.91-.91s.4-.81,1-.81A1.8,1.8,0,0,1,38,14h0l.38-.46a0,0,0,0,0,0-.05,2.37,2.37,0,0,0-1.7-.71,1.65,1.65,0,0,0-1.82,1.54,1.61,1.61,0,0,0,1.18,1.49l.82.35c.53.24.92.42.92,1s-.44.89-1.16.89a2.17,2.17,0,0,1-1.54-.69h0s0,0,0,0l-.43.49a0,0,0,0,0,0,0,2.77,2.77,0,0,0,2,.86,1.74,1.74,0,0,0,2-1.65A1.62,1.62,0,0,0,37.43,15.57Z"/><path class="cls-1" d="M43.53,12.92H39.37a0,0,0,0,0,0,0v.61a0,0,0,0,0,0,0h1.69v5s0,0,0,0h.72s0,0,0,0v-5h1.69a0,0,0,0,0,0,0V13A0,0,0,0,0,43.53,12.92Z"/><path class="cls-1" d="M46.81,12.81c-1.49,0-2.46,1.16-2.46,3s1,3,2.46,3,2.45-1.21,2.45-3S48.3,12.81,46.81,12.81Zm1.65,3c0,1.39-.65,2.29-1.65,2.29s-1.65-.9-1.65-2.29.63-2.27,1.65-2.27S48.46,14.39,48.46,15.77Z"/><path class="cls-1" d="M54.35,17.44h0s0,0,0,0a1.73,1.73,0,0,1-1.29.62c-1.07,0-1.73-.88-1.73-2.29S52,13.5,53,13.5a1.47,1.47,0,0,1,1.13.54h0a0,0,0,0,0,0,0l.39-.46a0,0,0,0,0,0,0A2.12,2.12,0,0,0,53,12.81c-1.52,0-2.55,1.2-2.55,3s1,3,2.5,3a2.22,2.22,0,0,0,1.77-.83,0,0,0,0,0,0,0Z"/><path class="cls-1" d="M60.09,13a0,0,0,0,0,0,0s0,0,0,0h-.83l-2.33,2.8V13a0,0,0,0,0,0,0h-.72s0,0,0,0v5.67a0,0,0,0,0,0,0h.72s0,0,0,0V16.84l.94-1.11,1.67,2.91s0,0,0,0h.8l0,0a0,0,0,0,0,0,0l-2-3.49Z"/><path class="cls-1" d="M62,17.61a.58.58,0,0,0,0,1.15.54.54,0,0,0,.54-.57A.55.55,0,0,0,62,17.61Z"/><path class="cls-1" d="M61.72,16.91s0,0,0,0h.49a0,0,0,0,0,0,0l.11-4.08a0,0,0,0,0,0,0h-.77s0,0,0,0l0,.8Z"/></svg>