<?xml version="1.0" encoding="utf-8"?>
<!-- Generator: Adobe Illustrator 23.0.2, SVG Export Plug-In . SVG Version: 6.00 Build 0)  -->
<svg version="1.1" id="圖層_1" xmlns="http://www.w3.org/2000/svg" xmlns:xlink="http://www.w3.org/1999/xlink" x="0px" y="0px"
	 viewBox="0 0 176.3 176.9" style="enable-background:new 0 0 176.3 176.9;" xml:space="preserve">
<style type="text/css">
	.st0{fill:#FFD600;}
	.st1{fill:none;stroke:#FFFFFF;stroke-width:2.2173;stroke-miterlimit:10;}
	.st2{enable-background:new    ;}
	.st3{fill:#FF0086;}
	.st4{fill-rule:evenodd;clip-rule:evenodd;fill:#FF0C95;}
</style>
<g>
	
		<image style="overflow:visible;opacity:0.4;enable-background:new    ;" width="140" height="144" xlink:href="BDF82946.png"  transform="matrix(0.993 0 0 0.993 6.341 35.255)">
	</image>
	<g>
		<polygon class="st0" points="87.2,39.4 103.6,77.1 137.7,100.1 106.9,127.4 95.5,166.9 60.1,146 19,147.4 27.9,107.3 13.9,68.6 
			54.8,64.7 		"/>
	</g>
</g>
<polygon class="st1" points="62.1,138.2 28.7,139.4 35.9,106.7 24.5,75.3 57.8,72.1 84.1,51.6 97.5,82.2 125.1,100.9 100.1,123.1 
	90.9,155.2 "/>
<g>
	<g class="st2">
		<path class="st3" d="M45.7,115.5c-2.1-0.4-3.7-1-5.1-1.9c-1.3-0.9-2.3-2-3.1-3.3l3.4-3.4c0.6,0.9,1.4,1.7,2.2,2.4
			c0.8,0.7,1.8,1.1,2.9,1.3c1.2,0.2,2.3,0.1,3.1-0.3s1.3-1.1,1.5-2.1c0.1-0.6,0.1-1.1,0-1.6c-0.1-0.5-0.4-1-0.8-1.4
			c-0.4-0.4-1.1-0.8-1.9-1.1c-0.8-0.3-2-0.6-3.3-0.9l0.8-4.3c1.1,0.2,2.1,0.3,2.9,0.2c0.8,0,1.4-0.2,2-0.4c0.5-0.2,0.9-0.6,1.2-1
			c0.3-0.4,0.5-0.9,0.5-1.4c0.2-0.9,0-1.7-0.4-2.3c-0.4-0.6-1.2-1-2.2-1.2c-0.9-0.2-1.7-0.1-2.5,0.2c-0.8,0.3-1.7,0.7-2.6,1.3
			L41.8,90c1.3-0.9,2.7-1.5,4.1-1.8c1.4-0.4,2.9-0.4,4.4-0.2c1.3,0.2,2.5,0.6,3.5,1.1c1,0.5,1.8,1.1,2.5,1.9
			c0.6,0.8,1.1,1.6,1.4,2.6c0.3,1,0.3,2,0.1,3.2c-0.2,1.4-0.8,2.5-1.7,3.3c-0.9,0.8-2.1,1.4-3.5,1.8l0,0.2c1.4,0.7,2.4,1.7,3.2,2.9
			c0.8,1.2,1,2.7,0.7,4.4c-0.2,1.2-0.7,2.3-1.3,3.1c-0.7,0.9-1.5,1.6-2.4,2.1c-1,0.5-2,0.8-3.2,1C48.2,115.8,47,115.7,45.7,115.5z"
			/>
		<path class="st3" d="M67.5,119.3c-1.3-0.2-2.5-0.7-3.5-1.5c-1-0.8-1.8-1.8-2.4-3.1c-0.6-1.3-0.9-2.9-1.1-4.7
			c-0.1-1.8,0-3.8,0.4-6.1s1-4.2,1.7-5.8c0.7-1.6,1.6-2.9,2.6-4c1-1,2.1-1.7,3.3-2.1c1.2-0.4,2.5-0.4,3.8-0.2s2.5,0.7,3.5,1.5
			c1,0.8,1.8,1.8,2.4,3.1c0.6,1.3,0.9,2.8,1.1,4.6c0.1,1.8,0,3.8-0.4,6c-0.4,2.3-1,4.2-1.7,5.9c-0.7,1.6-1.6,3-2.6,4
			c-1,1-2.1,1.8-3.3,2.2C70.1,119.5,68.8,119.5,67.5,119.3z M68.3,114.5c0.5,0.1,1,0,1.5-0.2c0.5-0.2,0.9-0.6,1.4-1.2
			c0.4-0.6,0.8-1.5,1.2-2.7c0.4-1.1,0.7-2.6,1-4.4c0.3-1.8,0.5-3.3,0.5-4.5c0-1.2-0.1-2.1-0.3-2.8c-0.2-0.7-0.5-1.2-0.9-1.5
			c-0.4-0.3-0.8-0.5-1.3-0.6c-0.5-0.1-0.9,0-1.4,0.1c-0.5,0.2-0.9,0.6-1.3,1.2c-0.4,0.6-0.8,1.5-1.2,2.6c-0.4,1.1-0.7,2.6-1,4.4
			c-0.3,1.8-0.5,3.3-0.5,4.5c0,1.2,0.1,2.2,0.3,2.9c0.2,0.8,0.5,1.3,0.9,1.6C67.4,114.3,67.8,114.5,68.3,114.5z"/>
	</g>
	<g class="st2">
		<path class="st3" d="M86.9,102.2c-0.4-0.1-0.8-0.2-1.1-0.5c-0.3-0.2-0.6-0.5-0.8-0.9c-0.2-0.4-0.3-0.8-0.4-1.3
			c-0.1-0.5,0-1,0.1-1.6c0.1-0.6,0.3-1.1,0.5-1.5c0.2-0.4,0.5-0.8,0.8-1.1c0.3-0.3,0.6-0.5,1-0.6c0.4-0.1,0.8-0.1,1.2-0.1
			c0.4,0.1,0.8,0.2,1.1,0.5c0.3,0.2,0.6,0.5,0.8,0.9s0.3,0.8,0.4,1.3c0.1,0.5,0,1-0.1,1.6c-0.1,0.6-0.3,1.1-0.5,1.6
			c-0.2,0.4-0.5,0.8-0.8,1.1s-0.6,0.5-1,0.6C87.7,102.2,87.3,102.3,86.9,102.2z M87.1,100.7c0.3,0,0.6-0.1,0.8-0.4
			c0.3-0.3,0.5-0.9,0.6-1.7c0.1-0.9,0.1-1.5,0-1.8c-0.1-0.4-0.4-0.6-0.7-0.6c-0.3-0.1-0.6,0.1-0.8,0.4c-0.3,0.3-0.5,0.9-0.6,1.7
			c-0.1,0.9-0.2,1.5,0,1.8C86.6,100.4,86.8,100.6,87.1,100.7z M94.7,95.8l1.5,0.3l-8.2,11.3l-1.5-0.3L94.7,95.8z M94.4,108.4
			c-0.4-0.1-0.8-0.2-1.1-0.5s-0.6-0.5-0.8-0.9s-0.3-0.8-0.4-1.3c-0.1-0.5,0-1,0.1-1.6c0.1-0.6,0.3-1.1,0.5-1.6
			c0.2-0.4,0.5-0.8,0.8-1.1c0.3-0.3,0.6-0.5,1-0.6c0.4-0.1,0.8-0.1,1.2-0.1c0.4,0.1,0.8,0.2,1.1,0.5c0.3,0.2,0.6,0.5,0.8,0.9
			c0.2,0.4,0.3,0.8,0.4,1.3c0.1,0.5,0,1-0.1,1.6s-0.3,1.1-0.5,1.6c-0.2,0.4-0.5,0.8-0.8,1.1c-0.3,0.3-0.6,0.5-1,0.6
			C95.2,108.5,94.8,108.5,94.4,108.4z M94.6,106.9c0.3,0,0.6-0.1,0.8-0.4c0.3-0.3,0.5-0.9,0.6-1.7c0.1-0.9,0.1-1.5,0-1.8
			c-0.1-0.4-0.4-0.6-0.7-0.6c-0.3-0.1-0.6,0.1-0.8,0.4c-0.3,0.3-0.5,0.9-0.6,1.7c-0.1,0.9-0.2,1.5,0,1.8
			C94.1,106.7,94.4,106.9,94.6,106.9z"/>
	</g>
	<g class="st2">
		<path class="st3" d="M81.6,123.6c-0.5-0.1-1.1-0.3-1.5-0.6c-0.5-0.3-0.9-0.7-1.2-1.2c-0.3-0.5-0.5-1-0.7-1.6
			c-0.1-0.6-0.1-1.3,0-2.1s0.4-1.4,0.7-2c0.3-0.5,0.7-1,1.2-1.3c0.5-0.3,1-0.6,1.5-0.7s1.1-0.1,1.6,0c0.5,0.1,1,0.3,1.5,0.6
			s0.9,0.7,1.2,1.2c0.3,0.5,0.5,1,0.7,1.6c0.1,0.6,0.1,1.3,0,2.1s-0.4,1.4-0.7,2c-0.3,0.5-0.7,1-1.2,1.3c-0.5,0.3-1,0.6-1.5,0.7
			C82.7,123.7,82.1,123.7,81.6,123.6z M81.9,121.5c0.5,0.1,1-0.1,1.3-0.5c0.3-0.4,0.6-1,0.7-1.8c0.1-0.8,0.1-1.4-0.1-1.9
			c-0.2-0.5-0.5-0.8-1.1-0.9c-0.5-0.1-1,0.1-1.3,0.5c-0.3,0.4-0.6,1-0.7,1.8c-0.1,0.8-0.1,1.4,0.1,1.9
			C81.1,121.1,81.4,121.4,81.9,121.5z"/>
		<path class="st3" d="M99.7,115.5c-0.3-0.2-0.6-0.3-0.9-0.3c-0.3-0.1-0.6,0-0.8,0.2c-0.2,0.2-0.4,0.5-0.4,0.9l-0.1,0.5l1.5,0.3
			l-0.4,2.1l-1.5-0.3l-1.2,6.9l-2.5-0.4l1.2-6.9l-2.9-0.5l-1.2,6.9l-2.5-0.4l1.2-6.9l-1.1-0.2l0.3-2l1.2,0.1l0.1-0.4
			c0.1-0.5,0.2-0.9,0.4-1.3c0.2-0.4,0.4-0.7,0.8-1c0.3-0.3,0.7-0.4,1.1-0.5s1-0.1,1.5,0c0.4,0.1,0.7,0.2,1,0.3
			c0.3,0.1,0.5,0.2,0.7,0.4l-0.8,1.9c-0.1-0.1-0.3-0.2-0.4-0.2c-0.1-0.1-0.3-0.1-0.6-0.2c-0.3-0.1-0.6,0-0.8,0.2
			c-0.2,0.2-0.4,0.5-0.4,0.9l-0.1,0.4l2.9,0.5l0.1-0.5c0.1-0.5,0.2-0.9,0.4-1.3c0.2-0.4,0.4-0.7,0.7-1c0.3-0.3,0.7-0.5,1.1-0.6
			c0.4-0.1,0.9-0.1,1.5,0c0.4,0.1,0.7,0.2,1,0.3c0.3,0.1,0.5,0.2,0.7,0.3L99.7,115.5z"/>
	</g>
</g>
<polygon class="st4" points="122.9,7.4 106.5,53.1 140.7,13.3 "/>
<polygon class="st4" points="164,29.5 119.4,55.3 164,49.5 "/>
<polygon class="st4" points="123.4,66.1 154.8,64.1 151.9,74.6 "/>
</svg>
