<?xml version="1.0" encoding="utf-8"?>
<!-- Generator: Adobe Illustrator 23.0.2, SVG Export Plug-In . SVG Version: 6.00 Build 0)  -->
<svg version="1.1" id="圖層_1" xmlns="http://www.w3.org/2000/svg" xmlns:xlink="http://www.w3.org/1999/xlink" x="0px" y="0px"
	 viewBox="0 0 176.3 176.9" style="enable-background:new 0 0 176.3 176.9;" xml:space="preserve">
<style type="text/css">
	.st0{fill:#FF2CB4;}
	.st1{fill:none;stroke:#FFFFFF;stroke-width:2.2173;stroke-miterlimit:10;}
	.st2{enable-background:new    ;}
	.st3{fill:#FFFF00;}
</style>
<g>
	<g>
		<g>
			<polygon class="st0" points="108.1,21.4 127,64.9 166.3,91.4 130.8,122.9 117.7,168.4 76.8,144.3 29.5,146 39.7,99.7 23.6,55.1 
				70.7,50.6 			"/>
		</g>
	</g>
	<polygon class="st1" points="79.1,135.3 40.6,136.7 48.9,99 35.8,62.8 74.2,59.1 104.5,35.5 120,70.8 151.8,92.3 123,117.9 
		112.4,154.9 	"/>
	<g>
		<g>
			<g class="st2">
				<path class="st3" d="M60.2,109.2c-2.4-0.5-4.3-1.2-5.9-2.2c-1.5-1-2.7-2.3-3.6-3.8l3.9-3.9c0.7,1,1.6,2,2.5,2.8s2.1,1.3,3.3,1.5
					c1.4,0.2,2.7,0.1,3.6-0.3c0.9-0.5,1.5-1.3,1.7-2.4c0.1-0.7,0.1-1.3,0-1.8c-0.1-0.6-0.5-1.2-0.9-1.6c-0.5-0.5-1.3-0.9-2.2-1.3
					c-0.9-0.3-2.3-0.7-3.8-1l0.9-5c1.3,0.2,2.4,0.3,3.3,0.2c0.9,0,1.6-0.2,2.3-0.5c0.6-0.2,1-0.7,1.4-1.2c0.3-0.5,0.6-1,0.6-1.6
					c0.2-1,0-2-0.5-2.7s-1.4-1.2-2.5-1.4c-1-0.2-2-0.1-2.9,0.2c-0.9,0.3-2,0.8-3,1.5l-2.9-5c1.5-1,3.1-1.7,4.7-2.1
					c1.6-0.5,3.3-0.5,5.1-0.2c1.5,0.2,2.9,0.7,4,1.3c1.2,0.6,2.1,1.3,2.9,2.2c0.7,0.9,1.3,1.8,1.6,3c0.3,1.2,0.3,2.3,0.1,3.7
					c-0.2,1.6-0.9,2.9-2,3.8s-2.4,1.6-4,2.1v0.2c1.6,0.8,2.8,2,3.7,3.3c0.9,1.4,1.2,3.1,0.8,5.1c-0.2,1.4-0.8,2.7-1.5,3.6
					c-0.8,1-1.7,1.8-2.8,2.4c-1.2,0.6-2.3,0.9-3.7,1.2C63.1,109.5,61.7,109.4,60.2,109.2z"/>
				<path class="st3" d="M85.4,113.5c-1.5-0.2-2.9-0.8-4-1.7c-1.2-0.9-2.1-2.1-2.8-3.6c-0.7-1.5-1-3.3-1.3-5.4c-0.1-2.1,0-4.4,0.5-7
					c0.5-2.7,1.2-4.8,2-6.7s1.8-3.3,3-4.6c1.2-1.2,2.4-2,3.8-2.4c1.4-0.5,2.9-0.5,4.4-0.2c1.5,0.2,2.9,0.8,4,1.7
					c1.2,0.9,2.1,2.1,2.8,3.6c0.7,1.5,1,3.2,1.3,5.3c0.1,2.1,0,4.4-0.5,6.9c-0.5,2.7-1.2,4.8-2,6.8c-0.8,1.8-1.8,3.5-3,4.6
					c-1.2,1.2-2.4,2.1-3.8,2.5S86.9,113.8,85.4,113.5z M86.3,108c0.6,0.1,1.2,0,1.7-0.2c0.6-0.2,1-0.7,1.6-1.4
					c0.5-0.7,0.9-1.7,1.4-3.1c0.5-1.3,0.8-3,1.2-5.1c0.3-2.1,0.6-3.8,0.6-5.2s-0.1-2.4-0.3-3.2c-0.2-0.8-0.6-1.4-1-1.7
					c-0.5-0.3-0.9-0.6-1.5-0.7s-1,0-1.6,0.1c-0.6,0.2-1,0.7-1.5,1.4c-0.5,0.7-0.9,1.7-1.4,3s-0.8,3-1.2,5.1
					c-0.3,2.1-0.6,3.8-0.6,5.2s0.1,2.5,0.3,3.3c0.2,0.9,0.6,1.5,1,1.8C85.3,107.8,85.7,108,86.3,108z"/>
			</g>
			<g class="st2">
				<path class="st3" d="M107.7,93.8c-0.5-0.1-0.9-0.2-1.3-0.6c-0.3-0.2-0.7-0.6-0.9-1c-0.2-0.5-0.3-0.9-0.5-1.5
					c-0.1-0.6,0-1.2,0.1-1.8c0.1-0.7,0.3-1.3,0.6-1.7c0.2-0.5,0.6-0.9,0.9-1.3c0.3-0.3,0.7-0.6,1.2-0.7s0.9-0.1,1.4-0.1
					c0.5,0.1,0.9,0.2,1.3,0.6c0.3,0.2,0.7,0.6,0.9,1c0.2,0.5,0.3,0.9,0.5,1.5c0.1,0.6,0,1.2-0.1,1.8c-0.1,0.7-0.3,1.3-0.6,1.8
					c-0.2,0.5-0.6,0.9-0.9,1.3s-0.7,0.6-1.2,0.7C108.7,93.8,108.2,93.9,107.7,93.8z M108,92.1c0.3,0,0.7-0.1,0.9-0.5
					c0.3-0.3,0.6-1,0.7-2s0.1-1.7,0-2.1c-0.1-0.5-0.5-0.7-0.8-0.7c-0.3-0.1-0.7,0.1-0.9,0.5c-0.3,0.3-0.6,1-0.7,2s-0.2,1.7,0,2.1
					C107.4,91.8,107.6,92,108,92.1z M116.7,86.5l1.7,0.3l-9.5,13l-1.7-0.3L116.7,86.5z M116.4,101c-0.5-0.1-0.9-0.2-1.3-0.6
					s-0.7-0.6-0.9-1c-0.2-0.5-0.3-0.9-0.5-1.5c-0.1-0.6,0-1.2,0.1-1.8c0.1-0.7,0.3-1.3,0.6-1.8c0.2-0.5,0.6-0.9,0.9-1.3
					c0.3-0.3,0.7-0.6,1.2-0.7s0.9-0.1,1.4-0.1c0.5,0.1,0.9,0.2,1.3,0.6c0.3,0.2,0.7,0.6,0.9,1c0.2,0.5,0.3,0.9,0.5,1.5
					c0.1,0.6,0,1.2-0.1,1.8c-0.1,0.7-0.3,1.3-0.6,1.8c-0.2,0.5-0.6,0.9-0.9,1.3c-0.3,0.3-0.7,0.6-1.2,0.7
					C117.3,101.1,116.9,101.1,116.4,101z M116.6,99.3c0.3,0,0.7-0.1,0.9-0.5c0.3-0.3,0.6-1,0.7-2s0.1-1.7,0-2.1
					c-0.1-0.5-0.5-0.7-0.8-0.7c-0.3-0.1-0.7,0.1-0.9,0.5c-0.3,0.3-0.6,1-0.7,2s-0.2,1.7,0,2.1C116,99,116.4,99.3,116.6,99.3z"/>
			</g>
			<g class="st2">
				<path class="st3" d="M101.6,118.5c-0.6-0.1-1.3-0.3-1.7-0.7c-0.6-0.3-1-0.8-1.4-1.4c-0.3-0.6-0.6-1.2-0.8-1.8
					c-0.1-0.7-0.1-1.5,0-2.4s0.5-1.6,0.8-2.3c0.3-0.6,0.8-1.2,1.4-1.5s1.2-0.7,1.7-0.8c0.6-0.1,1.3-0.1,1.8,0
					c0.6,0.1,1.2,0.3,1.7,0.7c0.6,0.3,1,0.8,1.4,1.4c0.3,0.6,0.6,1.2,0.8,1.8c0.1,0.7,0.1,1.5,0,2.4s-0.5,1.6-0.8,2.3
					c-0.3,0.6-0.8,1.2-1.4,1.5s-1.2,0.7-1.7,0.8C102.9,118.6,102.2,118.6,101.6,118.5z M102,116.1c0.6,0.1,1.2-0.1,1.5-0.6
					s0.7-1.2,0.8-2.1s0.1-1.6-0.1-2.2s-0.6-0.9-1.3-1c-0.6-0.1-1.2,0.1-1.5,0.6s-0.7,1.2-0.8,2.1c-0.1,0.9-0.1,1.6,0.1,2.2
					C101.1,115.6,101.4,116,102,116.1z"/>
				<path class="st3" d="M122.5,109.2c-0.3-0.2-0.7-0.3-1-0.3c-0.3-0.1-0.7,0-0.9,0.2c-0.2,0.2-0.5,0.6-0.5,1l-0.1,0.6l1.7,0.3
					l-0.5,2.4l-1.7-0.3l-1.4,8l-2.9-0.5l1.4-8l-3.3-0.6l-1.4,8l-2.9-0.5l1.4-8l-1.3-0.2l0.3-2.3l1.4,0.1l0.1-0.5
					c0.1-0.6,0.2-1,0.5-1.5c0.2-0.5,0.5-0.8,0.9-1.2c0.3-0.3,0.8-0.5,1.3-0.6s1.2-0.1,1.7,0s0.8,0.2,1.2,0.3
					c0.3,0.1,0.6,0.2,0.8,0.5l-0.9,2.2c-0.1-0.1-0.3-0.2-0.5-0.2c-0.1-0.1-0.3-0.1-0.7-0.2c-0.3-0.1-0.7,0-0.9,0.2
					c-0.2,0.2-0.5,0.6-0.5,1l-0.1,0.5l3.3,0.6l0.1-0.6c0.1-0.6,0.2-1,0.5-1.5c0.2-0.5,0.5-0.8,0.8-1.2c0.3-0.3,0.8-0.6,1.3-0.7
					s1-0.1,1.7,0c0.5,0.1,0.8,0.2,1.2,0.3s0.6,0.2,0.8,0.3L122.5,109.2z"/>
			</g>
		</g>
	</g>
</g>
</svg>
