<?xml version="1.0" encoding="UTF-8" standalone="no"?>
<svg width="505px" height="388px" viewBox="0 0 505 388" version="1.1" xmlns="http://www.w3.org/2000/svg" xmlns:xlink="http://www.w3.org/1999/xlink">
    <!-- Generator: Sketch 3.6.1 (26313) - http://www.bohemiancoding.com/sketch -->
    <title>topnav_sprite</title>
    <desc>Created with Sketch.</desc>
    <defs>
        <linearGradient x1="0%" y1="0%" x2="100%" y2="100%" id="linearGradient-1">
            <stop stop-color="#F8F8F8" offset="0%"></stop>
            <stop stop-color="#D5D5D5" offset="100%"></stop>
        </linearGradient>
        <radialGradient cx="50%" cy="100%" fx="50%" fy="100%" r="105.828081%" id="radialGradient-2">
            <stop stop-color="#F76C67" offset="0%"></stop>
            <stop stop-color="#F53D47" offset="100%"></stop>
        </radialGradient>
        <radialGradient cx="50%" cy="0%" fx="50%" fy="0%" r="105.262199%" id="radialGradient-3">
            <stop stop-color="#F76C67" offset="0%"></stop>
            <stop stop-color="#F53D47" offset="100%"></stop>
        </radialGradient>
        <linearGradient x1="50%" y1="0%" x2="50%" y2="100%" id="linearGradient-4">
            <stop stop-color="#F1E1D0" offset="0%"></stop>
            <stop stop-color="#FEF3E8" offset="87.9495%"></stop>
            <stop stop-color="#663333" offset="88.3705897%"></stop>
            <stop stop-color="#663333" offset="100%"></stop>
        </linearGradient>
        <linearGradient x1="50%" y1="0%" x2="50%" y2="100%" id="linearGradient-5">
            <stop stop-color="#422D19" stop-opacity="0.395465353" offset="0%"></stop>
            <stop stop-color="#8E847A" stop-opacity="0.362025306" offset="24.0363412%"></stop>
            <stop stop-color="#BBB8B5" stop-opacity="0.341900477" offset="24.6064507%"></stop>
            <stop stop-color="#644C32" stop-opacity="0.378962862" offset="100%"></stop>
        </linearGradient>
        <filter x="-50%" y="-50%" width="200%" height="200%" filterUnits="objectBoundingBox" id="filter-6">
            <feOffset dx="0" dy="2" in="SourceAlpha" result="shadowOffsetInner1"></feOffset>
            <feGaussianBlur stdDeviation="0" in="shadowOffsetInner1" result="shadowBlurInner1"></feGaussianBlur>
            <feComposite in="shadowBlurInner1" in2="SourceAlpha" operator="arithmetic" k2="-1" k3="1" result="shadowInnerInner1"></feComposite>
            <feColorMatrix values="0 0 0 0 0   0 0 0 0 0   0 0 0 0 0  0 0 0 0.110920516 0" in="shadowInnerInner1" type="matrix" result="shadowMatrixInner1"></feColorMatrix>
            <feMerge>
                <feMergeNode in="SourceGraphic"></feMergeNode>
                <feMergeNode in="shadowMatrixInner1"></feMergeNode>
            </feMerge>
        </filter>
        <linearGradient x1="50%" y1="0%" x2="50%" y2="100%" id="linearGradient-7">
            <stop stop-color="#EAEAEA" offset="0%"></stop>
            <stop stop-color="#C0C0C0" offset="100%"></stop>
        </linearGradient>
        <linearGradient x1="50%" y1="0%" x2="50%" y2="88.554429%" id="linearGradient-8">
            <stop stop-color="#FF7878" offset="0%"></stop>
            <stop stop-color="#FF7A7A" offset="49.9560347%"></stop>
            <stop stop-color="#F76D6D" offset="50.3141352%"></stop>
            <stop stop-color="#F26969" offset="62.5132014%"></stop>
            <stop stop-color="#FE9E9B" offset="63.0944595%"></stop>
            <stop stop-color="#FE9E9B" offset="75.2595789%"></stop>
            <stop stop-color="#FFC9C0" offset="75.6473513%"></stop>
            <stop stop-color="#FFC9C0" offset="88.0071427%"></stop>
            <stop stop-color="#F89D98" offset="88.387667%"></stop>
            <stop stop-color="#F89D98" offset="100%"></stop>
        </linearGradient>
        <linearGradient x1="50%" y1="0%" x2="50%" y2="100%" id="linearGradient-9">
            <stop stop-color="#ED5454" offset="0%"></stop>
            <stop stop-color="#C02C2C" offset="100%"></stop>
        </linearGradient>
        <linearGradient x1="50%" y1="0%" x2="50%" y2="100%" id="linearGradient-10">
            <stop stop-color="#BABACB" offset="0%"></stop>
            <stop stop-color="#B4B4C5" offset="11.2165119%"></stop>
            <stop stop-color="#CDCDDE" offset="11.4814103%"></stop>
            <stop stop-color="#D5D5E8" offset="44.1123362%"></stop>
            <stop stop-color="#CCCCDD" offset="45.1190841%"></stop>
            <stop stop-color="#D5D5E8" offset="55.294325%"></stop>
            <stop stop-color="#F3F3FA" offset="55.294325%"></stop>
            <stop stop-color="#F3F3FA" offset="65.6285343%"></stop>
            <stop stop-color="#F3F3FA" offset="66.3982319%"></stop>
            <stop stop-color="#FAFAFB" offset="77.9226447%"></stop>
            <stop stop-color="#DFDFE9" offset="78.3435192%"></stop>
            <stop stop-color="#DFDFE9" offset="88.6948854%"></stop>
            <stop stop-color="#7E7E8F" offset="89.1372209%"></stop>
            <stop stop-color="#7E7E8F" offset="100%"></stop>
        </linearGradient>
        <linearGradient x1="20.5333473%" y1="0%" x2="77.5766573%" y2="81.9352099%" id="linearGradient-11">
            <stop stop-color="#C7D2E8" offset="0%"></stop>
            <stop stop-color="#DDE3F1" offset="16.769533%"></stop>
            <stop stop-color="#ABBCDD" offset="27.638922%"></stop>
            <stop stop-color="#9AB4D5" offset="34.7778141%"></stop>
            <stop stop-color="#AABBDD" offset="48.1208438%"></stop>
            <stop stop-color="#D2DBED" offset="58.2393239%"></stop>
            <stop stop-color="#ABBCDD" offset="71.5925572%"></stop>
            <stop stop-color="#CDE6F2" offset="100%"></stop>
        </linearGradient>
        <filter x="-50%" y="-50%" width="200%" height="200%" filterUnits="objectBoundingBox" id="filter-12">
            <feOffset dx="0" dy="-2" in="SourceAlpha" result="shadowOffsetInner1"></feOffset>
            <feGaussianBlur stdDeviation="1" in="shadowOffsetInner1" result="shadowBlurInner1"></feGaussianBlur>
            <feComposite in="shadowBlurInner1" in2="SourceAlpha" operator="arithmetic" k2="-1" k3="1" result="shadowInnerInner1"></feComposite>
            <feColorMatrix values="0 0 0 0 0.803921569   0 0 0 0 0.901960784   0 0 0 0 0.949019608  0 0 0 0.606357563 0" in="shadowInnerInner1" type="matrix" result="shadowMatrixInner1"></feColorMatrix>
            <feOffset dx="0" dy="-1" in="SourceAlpha" result="shadowOffsetInner2"></feOffset>
            <feGaussianBlur stdDeviation="0" in="shadowOffsetInner2" result="shadowBlurInner2"></feGaussianBlur>
            <feComposite in="shadowBlurInner2" in2="SourceAlpha" operator="arithmetic" k2="-1" k3="1" result="shadowInnerInner2"></feComposite>
            <feColorMatrix values="0 0 0 0 0.4   0 0 0 0 0.533333333   0 0 0 0 0.666666667  0 0 0 0.7 0" in="shadowInnerInner2" type="matrix" result="shadowMatrixInner2"></feColorMatrix>
            <feMerge>
                <feMergeNode in="SourceGraphic"></feMergeNode>
                <feMergeNode in="shadowMatrixInner1"></feMergeNode>
                <feMergeNode in="shadowMatrixInner2"></feMergeNode>
            </feMerge>
        </filter>
        <linearGradient x1="50%" y1="0%" x2="50%" y2="100%" id="linearGradient-13">
            <stop stop-color="#6082A4" offset="0%"></stop>
            <stop stop-color="#94B6D8" offset="100%"></stop>
        </linearGradient>
    </defs>
    <g id="Page-1" stroke="none" stroke-width="1" fill="none" fill-rule="evenodd">
        <g id="topnav_sprite">
            <g id="top-nav-gradient" transform="translate(0.000000, 101.000000)" fill="url(#linearGradient-1)">
                <rect id="gradient" x="0" y="0" width="101" height="101"></rect>
            </g>
            <g id="Top-Nav-:-Browse-:-Active" transform="translate(33.000000, 45.000000)">
                <path d="M2,16.002347 C2,11.9824181 6.02092795,9 11.0081258,9 L23.9918742,9 C28.9669247,9 33,13.0011463 33,16.0023472 L33,25.9976528 C33,30.9695119 28.9790721,35 23.9918742,35 L11.0081258,35 C6.03307531,35 2,30.9660272 2,25.9976528 L2,16.002347 Z M11.039288,2.39473684 C13.2611751,2.39473684 16.7682026,7.63807733 16.1666667,7.63807743 C14.6257334,7.52208755 11.3109326,6.46275302 9.15090862,5.29389433 C6.99123019,4.12575406 8.8170553,2.39473684 11.039288,2.39473684 L11.039288,2.39473684 Z M24.2781036,2.39473684 C26.4097875,2.39473684 27.6104113,4.73186846 25.4387608,5.93004944 C23.2671102,7.12823043 18.8022304,8.03201001 19.3596491,7.63807743 C19.3596491,7.63807743 22.1464197,2.39473684 24.2781036,2.39473684 L24.2781036,2.39473684 Z" id="Rectangle-115" fill="#FFFFFF"></path>
                <path d="M4,35 L12,35 L12,20 L2,20 L2,32.8151084 C2,33.9960718 2,34.9999998 4,35 L4,35 Z M15,20 L20,20 L20,35 L15,35 L15,20 L15,20 Z M24,9 C25.8650672,8.62154421 27.6100098,7.5220828 28.6206019,6.21157976 C29.6311939,4.90107672 29.8450297,1.15323064 24.7252992,0.0932115901 C19.72934,-0.941303782 17.7631579,6.99552792 17.7631579,6.11039422 C17.7631579,6.99552807 15.8927762,0.134520364 10.7730457,0.134520364 C5.65366479,0.134520364 4.73481948,4.84228372 6.21308355,6.21157976 C7.61198008,7.50759763 9.86438753,8.54714189 11,9 L2,9 C0,9 0,10.0176411 0,11 L0,15 C0,16.0042591 0,17 2,17 L11,17 L11,9 C12.8735436,9.62550873 14,9.16789765 14,9.16789765 L14,17 L21,17 L21,9.16789765 C21,9.16789765 22.5919825,9.56705516 24.0263158,9 L24,17 L33,17 C35.1578941,17 35,15.971839 35,15 L35,11 C35,10.0360413 35,9 33,9 L24,9 L24,9 Z M11.039288,2.39473684 C13.2611751,2.39473684 16.7682026,7.63807733 16.1666667,7.63807743 C14.6257334,7.52208755 11.3109326,6.46275302 9.15090862,5.29389433 C6.99123019,4.12575406 8.8170553,2.39473684 11.039288,2.39473684 L11.039288,2.39473684 Z M24.2781036,2.39473684 C26.4097875,2.39473684 27.6104113,4.73186846 25.4387608,5.93004944 C23.2671102,7.12823043 18.8022304,8.03201001 19.3596491,7.63807743 C19.3596491,7.63807743 22.1464197,2.39473684 24.2781036,2.39473684 L24.2781036,2.39473684 Z M31,35 C33.0000004,35.0000004 33.0000004,34.0445455 33,32.8151083 L33,20 L23,20 L23,35 L31,35 L31,35 Z" id="icon_topnav_browse" fill="#444444"></path>
            </g>
            <g id="Top-Nav-:-Wall-:-Active" transform="translate(132.000000, 47.000000)" fill="#444444">
                <path d="M0,16.9925398 C0,15.3398057 1.34881592,14 3.00579834,14 L7.99420166,14 C9.65425824,14 11,15.3529255 11,16.9925398 L11,29.0074602 C11,30.6601943 9.65118408,32 7.99420166,32 L3.00579834,32 C1.34574176,32 0,30.6470745 0,29.0074602 L0,16.9925398 L0,16.9925398 Z M0,3.00579834 C0,1.34574176 1.34881592,0 3.00579834,0 L7.99420166,0 C9.65425824,0 11,1.34881592 11,3.00579834 L11,7.99420166 C11,9.65425824 9.65118408,11 7.99420166,11 L3.00579834,11 C1.34574176,11 0,9.65118408 0,7.99420166 L0,3.00579834 L0,3.00579834 Z M14,2.99878564 C14,1.34260206 15.3488159,0 17.0057983,0 L21.9942017,0 C23.6542582,0 25,1.34226429 25,2.99878564 L25,10.0012144 C25,11.6573979 23.6511841,13 21.9942017,13 L17.0057983,13 C15.3457418,13 14,11.6577357 14,10.0012144 L14,2.99878564 L14,2.99878564 Z M14,18.997152 C14,17.3418707 15.3488159,16 17.0057983,16 L21.9942017,16 C23.6542582,16 25,17.3416228 25,18.997152 L25,25.002848 C25,26.6581293 23.6511841,28 21.9942017,28 L17.0057983,28 C15.3457418,28 14,26.6583772 14,25.002848 L14,18.997152 L14,18.997152 Z M28,3.00335124 C28,1.34464615 29.3488159,0 31.0057983,0 L35.9942017,0 C37.6542582,0 39,1.34237885 39,3.00335124 L39,10.9966488 C39,12.6553538 37.6511841,14 35.9942017,14 L31.0057983,14 C29.3457418,14 28,12.6576211 28,10.9966488 L28,3.00335124 L28,3.00335124 Z M28,20.0001221 C28,18.3432004 29.3488159,17 31.0057983,17 L35.9942017,17 C37.6542582,17 39,18.3360431 39,20.0001221 L39,32.9998779 C39,34.6567996 37.6511841,36 35.9942017,36 L31.0057983,36 C29.3457418,36 28,34.6639569 28,32.9998779 L28,20.0001221 L28,20.0001221 Z" id="icon_topnav_wall"></path>
            </g>
            <g id="Top-Nav-:-Window-:-Active" transform="translate(230.000000, 48.000000)">
                <rect id="Rectangle-114" fill="#FFFFFF" x="6" y="0" width="33" height="30"></rect>
                <path d="M41.5,14.9733031 L41.5,29.9931517 C41.5,31.6537881 40.1475599,33 38.5023401,33 L6.49765987,33 C4.84209804,33 3.5,31.6640085 3.5,29.9931517 L3.5,14.9733031 C3.28661709,14.9466808 3.07104606,14.8998814 2.85542602,14.8317145 L2.31545852,14.6610073 C0.427127243,14.0640238 -0.491969652,12.13269 0.265425222,10.3405632 L4.61220085,0.055343243 L10,0.00340971943 L7.07375426,12.499718 C6.96419513,12.9675818 6.76559587,13.3836802 6.5,13.7357462 L6.5,28.4909058 C6.5,29.3364592 7.17179939,30 8.00050592,30 L22.6684275,30 L38.5,16.7157333 L38.5,13.7357462 C38.2344041,13.3836802 38.0358049,12.9675818 37.9262457,12.499718 L35,0.00340971943 L40.3877992,0.055343243 L44.7345748,10.3405632 C45.4919697,12.13269 44.5728728,14.0640238 42.6845415,14.6610073 L42.144574,14.8317145 C41.9289539,14.8998814 41.7133829,14.9466808 41.5,14.9733031 L41.5,14.9733031 Z M38.5,22.2508178 L38.5,20.6319552 L27.3355989,30 L29.2648843,30 L38.5,22.2508178 L38.5,22.2508178 Z M38.5,24.8616324 L38.5,28.4909058 C38.5,29.3243555 37.8316345,30 36.9994941,30 L32.376332,30 L38.5,24.8616324 L38.5,24.8616324 Z M14.7014845,0 L20,0 L19.2341811,13.0051589 C19.1694163,14.1049961 18.2143423,14.9965903 17.1140076,14.9965903 L16.3269591,14.9965903 C14.4895303,14.9965903 13.1678014,13.5176174 13.3755044,11.6869597 L14.7014845,0 L14.7014845,0 Z M30.2985155,0 L25,0 L25.7658189,13.0051589 C25.8305837,14.1049961 26.7856577,14.9965903 27.8859924,14.9965903 L28.6730409,14.9965903 C30.5104697,14.9965903 31.8321986,13.5176174 31.6244956,11.6869597 L30.2985155,0 L30.2985155,0 Z" id="icon_topnav_window" fill="#444444"></path>
            </g>
            <g id="Top-Nav-:-Pinkoi-Zine-:-Active" transform="translate(331.000000, 48.000000)">
                <rect id="Rectangle-115" fill="#FFFFFF" x="2" y="2" width="41" height="29"></rect>
                <path d="M0,3.00135749 C0,1.34375352 1.34676062,0 3.0049167,0 L41.9950833,0 C43.654653,0 45,1.33451092 45,3.00135749 L45,29.9986425 C45,31.6562465 43.6532394,33 41.9950833,33 L3.0049167,33 C1.34534703,33 0,31.6654891 0,29.9986425 L0,3.00135749 L0,3.00135749 Z M3,4.49009652 C3,3.66713894 3.67691803,3 4.50494945,3 L40.4950505,3 C41.3262112,3 42,3.66741943 42,4.49009652 L42,28.5099035 C42,29.3328611 41.323082,30 40.4950505,30 L4.50494945,30 C3.67378882,30 3,29.3325806 3,28.5099035 L3,4.49009652 L3,4.49009652 Z M24,15 L39,15 L39,27 L24,27 L24,15 L24,15 Z M33,6 L39,6 L39,8 L33,8 L33,6 L33,6 Z M33,9 L39,9 L39,10 L33,10 L33,9 L33,9 Z M33,11 L39,11 L39,13 L33,13 L33,11 L33,11 Z M6,6 L21,6 L21,17 L6,17 L6,6 L6,6 Z M24,6 L31,6 L31,13 L24,13 L24,6 L24,6 Z M8,19 L19,19 L19,21 L8,21 L8,19 L8,19 Z M8,25 L19,25 L19,27 L8,27 L8,25 L8,25 Z M6,22 L21,22 L21,24 L6,24 L6,22 L6,22 Z" id="icon_topnav_pinkoizine" fill="#444444"></path>
            </g>
            <g id="Top-Nav-:-My-:-Active" transform="translate(436.000000, 46.000000)">
                <circle id="Oval-18" fill="#FFFFFF" cx="22" cy="16" r="13"></circle>
                <path d="M21.9160094,24.5554272 C20.4733066,24.5554272 19.1100187,24.2227272 17.8887148,23.6427582 L17.9001457,23.6577989 C17.1420951,23.2859931 16.2895889,23.0766267 15.3907574,23.0766267 C13.9077455,23.0766267 12.558295,23.6445631 11.5463575,24.5728744 L11.5451543,24.5644516 C12.681027,23.5242376 13.3951589,22.0285916 13.3951589,20.3668964 C13.3951589,19.6473499 13.2621992,18.9614945 13.0209466,18.3273791 L13.0522312,18.3622735 C12.6774172,17.3443197 12.4608313,16.248756 12.4608313,15.0996475 C12.4608313,9.87872386 16.6926793,5.64567264 21.9160094,5.64567264 C27.1393395,5.64567264 31.3723908,9.87872386 31.3723908,15.0996475 C31.3723908,20.322376 27.1393395,24.5554272 21.9160094,24.5554272 M21.6621226,0 C13.1839876,0 6.30738508,6.87419603 6.30738508,15.3547375 C6.30738508,18.4446965 7.22968006,21.3168663 8.79992789,23.7257828 C7.02632996,23.5278474 5.22445554,23.4743025 3.41716647,23.5831971 L3.28841819,23.5970346 C2.5628554,23.6547908 1.84210563,23.9423687 1.25010415,24.450744 C-0.249151626,25.7340155 -0.424826862,27.9865089 0.858444636,29.4863663 C1.65921086,30.423702 2.84321382,30.8406299 3.9796882,30.71128 L4.53017738,30.6390847 C4.82798301,30.5969707 5.12879677,30.551247 5.42780564,30.5007103 L5.40975682,30.5049217 C5.24370762,30.9862237 5.08969098,31.4729404 4.94830851,31.9614619 L4.8670888,32.4018533 C4.73713725,33.3764899 5.00546312,34.4016632 5.69613152,35.2090473 C6.98180952,36.7107096 9.24092086,36.8845799 10.7401766,35.5995036 C11.3466172,35.0833071 11.7485044,34.4046713 11.9169601,33.6827183 L11.9313991,33.6081165 C12.3380993,31.7292337 12.5781487,29.8076354 12.6383115,27.8691916 C12.640718,27.8324923 12.640718,27.795793 12.6413196,27.7596954 C15.1753747,29.6060902 18.2887971,30.7082718 21.6621226,30.7082718 C30.1426641,30.7082718 37.0162585,23.835279 37.0162585,15.3547375 C37.0162585,6.87419603 30.1426641,0 21.6621226,0 L21.6621226,0 Z M23.7713685,11.9563843 L23.563807,12.2824665 C23.4513027,12.4611498 23.3418065,12.6416381 23.23592,12.8233296 C23.0584399,12.5074751 22.8659191,12.2078646 22.6703902,11.9112623 L22.4742596,11.6718145 C22.0134129,11.1616344 21.3474113,10.8457799 20.6056045,10.8517962 C19.2278775,10.860219 18.1202812,11.9846608 18.1305089,13.3629895 C18.1323138,13.91769 18.3146069,14.4356913 18.6232419,14.8502127 L18.6557297,14.8929283 C19.9630663,16.587713 21.52068,18.1026111 23.2942779,19.37385 L23.4398718,19.2691668 C25.085323,18.0243995 26.5653267,16.5449974 27.8233299,14.8592371 L27.8762731,14.7846353 C28.1692657,14.3731221 28.3389247,13.8599338 28.3341116,13.3166642 C28.3244856,11.9413436 27.2030519,10.8355523 25.8301379,10.8457799 C24.9692089,10.8517962 24.2165729,11.2927892 23.7713685,11.9563843 L23.7713685,11.9563843 Z" id="icon_topnav_my" fill="#444444"></path>
            </g>
            <g id="Pinkoi-Logo" transform="translate(0.100000, 224.800003)">
                <ellipse id="Oval" fill="#C3C4C4" cx="54.2793455" cy="18.8952756" rx="3.85123037" ry="3.90472441"></ellipse>
                <path d="M125.642421,48.5303003 C124.612534,48.5303003 123.301768,49.215538 122.225067,49.215538 C118.199143,49.215538 116.747938,43.3681762 115.624425,40.5815428 C119.36947,39.0283374 122.740011,36.4701166 122.740011,32.4043728 C122.740011,29.6177395 120.446171,25.0038055 113.845528,25.0038055 C108.040708,25.0038055 105.231924,28.247264 102.329514,32.8155154 L102.329514,3.35029388 C102.329514,1.7970884 100.925122,0.97480315 99.4739168,0.97480315 C97.9290856,0.97480315 96.4310675,1.84277092 96.4310675,3.57870645 L96.4310675,49.3525855 L96.056563,49.3525855 C95.0266755,49.3525855 94.5117318,49.8550932 93.5754704,49.8550932 C90.438995,49.8550932 89.8304251,47.2055074 89.8304251,44.0077314 C89.8304251,40.947003 90.2517427,38.8456073 90.2517427,35.2366887 C90.2517427,29.7091045 88.6132854,25.0951706 81.9658299,25.0951706 C76.1610097,25.0951706 73.3522257,27.8361214 70.4498155,32.4043728 L70.4498155,27.6533914 C70.4498155,26.1001859 69.0454235,25.2779006 67.5942185,25.2779006 C66.0493873,25.2779006 64.5513691,26.1458684 64.5513691,27.8818039 L64.5513691,49.3982681 C64.3173038,49.3525855 64.1300515,49.3525855 63.8959862,49.3525855 C63.1469771,49.3525855 62.351155,49.8550932 61.4148937,49.8550932 C58.2784182,49.8550932 57.4825961,47.2055074 57.4825961,44.0077314 L57.4825961,27.6990739 C57.4825961,26.1458684 56.0782041,25.3235831 54.626999,25.3235831 C53.0821678,25.3235831 51.4905236,26.1915509 51.4905236,27.9274864 L51.4905236,45.3782068 C51.4905236,50.2205533 54.5333729,54.5603921 59.7764363,54.5603921 C61.1340153,54.5603921 63.4746686,54.1492495 64.9258737,53.1442342 C65.4876305,53.8751544 66.7047702,54.2406145 67.6410315,54.2406145 C69.2794889,54.2406145 70.4966286,53.2355992 70.4966286,52.0021714 L70.4966286,46.7943648 C70.4966286,38.6628772 75.6460659,30.6684373 80.3741857,30.6684373 C83.6979134,30.6684373 84.4001094,33.9118958 84.4001094,36.6528466 C84.4001094,39.62221 83.6979134,41.8149707 83.6979134,45.4238893 C83.6979134,50.2662358 86.7407627,54.6060747 91.9838262,54.6060747 C93.247779,54.6060747 95.354367,54.2406145 96.758759,53.4183293 C97.3205158,54.2406145 98.5844686,54.6060747 99.5207299,54.6060747 C101.159187,54.6060747 102.376327,53.6010593 102.376327,52.3676315 L102.376327,44.6472866 C102.376327,38.9826548 108.087521,29.6177395 113.330585,29.6177395 C115.437173,29.6177395 117.169256,30.9425324 117.169256,32.7241504 C117.169256,34.9169111 114.547724,36.7442117 112.909267,36.7442117 C111.083557,36.7442117 108.83653,35.5107838 107.61939,35.5107838 C106.964007,35.5107838 105.700055,35.7391963 105.700055,37.2010368 C105.700055,38.7085598 106.121372,40.0790352 108.883343,40.8556379 C109.585539,42.0433833 112.441136,47.5709675 113.143332,48.6673478 C114.875416,51.5910287 117.169256,54.194932 120.914301,54.194932 C123.535833,54.194932 127,53.5096943 127,50.2662358 C126.953187,48.8957604 126.438243,48.5303003 125.642421,48.5303003 L125.642421,48.5303003 Z" id="Shape" fill="#C3C4C4"></path>
                <path d="M172.896885,54.6661417 C167.983246,54.6661417 165.061623,50.4023622 165.061623,45.6448819 L165.061623,28.5 C165.061623,26.7944882 166.566702,25.9417323 168.027513,25.9417323 C169.399791,25.9417323 170.727801,26.7496063 170.727801,28.2755906 L170.727801,44.2984252 C170.727801,47.3952756 171.524607,50.0433071 174.44623,50.0433071 C175.331571,50.0433071 176.08411,49.5496063 176.792382,49.5496063 C177.766257,49.5496063 178.961466,49.8637795 178.961466,51.2551181 C179.005733,53.7685039 174.888901,54.6661417 172.896885,54.6661417 M171.790209,18.8952756 C171.790209,21.0496063 170.063796,22.8 167.938979,22.8 C165.814162,22.8 164.087749,21.0496063 164.087749,18.8952756 C164.087749,16.7409449 165.814162,14.9905512 167.938979,14.9905512 C170.063796,14.9905512 171.790209,16.7409449 171.790209,18.8952756" id="Shape" fill="#C3C4C4"></path>
                <path d="M144.891754,21.3188976 C136.967958,21.3188976 130.549241,27.8267717 130.549241,35.8606299 C130.549241,38.6433071 131.346047,41.2913386 132.674058,43.4905512 C131.523115,43.4456693 130.239372,43.4456693 128.999895,43.4007874 C128.999895,43.4007874 125.148665,43.0866142 124.617461,46.5874016 C124.617461,46.5874016 124.307592,51.3 129.752435,50.0433071 C127.760419,55.3393701 132.452723,55.6535433 132.452723,55.6535433 C136.038351,55.4740157 136.126885,51.6590551 136.126885,51.6590551 C136.259686,50.3125984 136.392487,48.9212598 136.525288,47.7094488 C138.87144,49.4149606 141.748796,50.4472441 144.891754,50.4472441 C152.81555,50.4472441 159.234267,43.9393701 159.234267,35.9055118 C159.234267,27.8716535 152.771283,21.3188976 144.891754,21.3188976 L144.891754,21.3188976 Z M145.113089,44.5677165 C143.740812,44.5677165 142.412801,44.2535433 141.261859,43.6700787 C140.597853,43.3559055 139.845314,43.176378 139.048508,43.176378 C137.67623,43.176378 136.392487,43.7149606 135.46288,44.6125984 L135.46288,44.6125984 C136.525288,43.6251969 137.189293,42.2338583 137.189293,40.6181102 C137.189293,39.9448819 137.056492,39.2716535 136.835157,38.688189 L136.835157,38.688189 C136.481021,37.7456693 136.303953,36.7133858 136.303953,35.6362205 C136.303953,30.6992126 140.243717,26.7047244 145.113089,26.7047244 C149.982461,26.7047244 153.922225,30.6992126 153.922225,35.6362205 C153.922225,40.5283465 149.982461,44.5677165 145.113089,44.5677165 L145.113089,44.5677165 Z" id="Shape" fill="#EA5E8C"></path>
                <path d="M146.352565,33.4818898 C144.581885,29.9362205 142.368534,32.3149606 142.368534,32.3149606 C140.819188,34.2 142.72267,36.1748031 142.72267,36.1748031 C144.449084,38.1944882 146.308298,39.5858268 146.308298,39.6307087 L146.308298,39.6307087 C146.308298,39.6307087 148.167513,38.1944882 149.893927,36.1748031 C149.893927,36.1748031 151.797408,34.2 150.248063,32.3149606 C150.336597,32.3149606 148.078979,29.9362205 146.352565,33.4818898 L146.352565,33.4818898 Z" id="Shape" fill="#EA5E8C"></path>
                <path d="M8.41073298,16.0228346 C4.33816754,8.66220472 0.177068063,7.0015748 0.0442670157,6.01417323 C-0.265602094,3.36614173 1.19520942,2.06456693 2.70028796,1.88503937 C6.37445026,1.43622047 8.94193717,4.57795276 11.6422251,8.61732283 C14.5638482,4.30866142 18.5036126,1.25669291 23.9041885,0.583464567 C34.2626702,-0.673228346 43.7800785,6.28346457 45.063822,16.6511811 C46.4360995,27.5574803 37.9368325,36.9826772 27.3570157,38.284252 C25.0551309,38.5535433 22.2663089,38.2393701 21.9121728,35.6362205 C21.7351047,34.2 22.443377,32.8984252 23.9927225,32.7188976 C24.3025916,32.6740157 25.232199,32.8086614 26.9586126,32.584252 C33.0231937,31.8661417 40.1501832,26.0314961 39.1320419,17.6834646 C38.2909686,10.8165354 31.5623822,5.65511811 24.7452618,6.50787402 C20.0529581,7.09133858 16.998534,10.6370079 14.7409162,14.7212598 C18.2822775,23.1141732 20.4956283,32.7637795 21.3367016,39.6755906 C22.1335079,46.1385827 21.9564398,56.4614173 15.1835864,56.8653543 C9.47314136,57.2244094 6.59578534,52.3771654 5.48910995,43.7149606 C5.48910995,43.7149606 3.71842932,29.5322835 8.23366492,16.3370079 L8.41073298,16.0228346 L8.41073298,16.0228346 Z M11.8635602,22.0370079 C9.51740838,34.5141732 10.4470157,39.4511811 11.199555,45.4653543 C11.5536911,48.3377953 12.3504974,51.3 14.2539791,51.0755906 C16.1574607,50.8511811 16.6886649,48.3826772 15.9361257,40.4385827 C15.3606545,34.2897638 13.1915707,26.076378 11.8635602,22.0370079 L11.8635602,22.0370079 Z" id="Shape" fill="#EA5E8C"></path>
            </g>
            <path d="M4.57646254,313.980003 C3.54506629,312.778106 1.91391957,309.876897 4.03515027,307.549109 C4.05431345,307.527924 4.0694922,307.503308 4.08827591,307.482122 C4.13779659,307.426031 5.26576766,306.345972 6.91304181,306.518684 C8.08882595,306.642166 9.13331387,307.389915 10.0121637,308.5 C10.8921519,307.400608 11.9373987,306.66315 13.110906,306.535229 C14.8473554,306.345972 15.8736288,307.424821 15.9225803,307.479903 C15.9398461,307.499273 15.9546454,307.52066 15.9715318,307.540231 C18.0760658,309.97778 16.4619952,312.735937 15.4438804,313.970001 C14.0713416,315.543729 12.335082,317.276707 10.5532862,318.752835 L10.5071807,318.791171 C10.3684849,318.924741 10.1031866,319 9.99869252,319 C9.89419843,319 9.59588637,318.89387 9.48944536,318.792382 C8.66846457,318.115856 6.5589974,316.292688 4.57646254,313.980003 Z" id="heart-outline" stroke="#FFFFFF" stroke-width="4" fill="#FFFFFF"></path>
            <path d="M4.57646254,330.019997 C3.54506629,331.221894 1.91391957,334.123103 4.03515027,336.450891 C4.05431345,336.472076 4.0694922,336.496692 4.08827591,336.517878 C4.13779659,336.573969 5.26576766,337.654028 6.91304181,337.481316 C8.08882595,337.357834 9.13331387,336.610085 10.0121637,335.5 C10.8921519,336.599392 11.9373987,337.33685 13.110906,337.464771 C14.8473554,337.654028 15.8736288,336.575179 15.9225803,336.520097 C15.9398461,336.500727 15.9546454,336.47934 15.9715318,336.459769 C18.0760658,334.02222 16.4619952,331.264063 15.4438804,330.029999 C14.0713416,328.456271 12.335082,326.723293 10.5532862,325.247165 L10.5071807,325.208829 C10.3684849,325.075259 10.1031866,325 9.99869252,325 C9.89419843,325 9.59588637,325.10613 9.48944536,325.207618 C8.66846457,325.884144 6.5589974,327.707312 4.57646254,330.019997 Z" id="heart-outline" stroke="#FFFFFF" stroke-width="4" fill="#FFFFFF"></path>
            <path d="M4.57646254,313.980003 C3.54506629,312.778106 1.91391957,309.876897 4.03515027,307.549109 C4.05431345,307.527924 4.0694922,307.503308 4.08827591,307.482122 C4.13779659,307.426031 5.26576766,306.345972 6.91304181,306.518684 C8.08882595,306.642166 9.13331387,307.389915 10.0121637,308.5 C10.8921519,307.400608 11.9373987,306.66315 13.110906,306.535229 C14.8473554,306.345972 15.8736288,307.424821 15.9225803,307.479903 C15.9398461,307.499273 15.9546454,307.52066 15.9715318,307.540231 C18.0760658,309.97778 16.4619952,312.735937 15.4438804,313.970001 C14.0713416,315.543729 12.335082,317.276707 10.5532862,318.752835 L10.5071807,318.791171 C10.3684849,318.924741 10.1031866,319 9.99869252,319 C9.89419843,319 9.59588637,318.89387 9.48944536,318.792382 C8.66846457,318.115856 6.5589974,316.292688 4.57646254,313.980003 Z" id="Imported-Layers" fill="url(#radialGradient-2)"></path>
            <path d="M4.57646254,330.019997 C3.54506629,331.221894 1.91391957,334.123103 4.03515027,336.450891 C4.05431345,336.472076 4.0694922,336.496692 4.08827591,336.517878 C4.13779659,336.573969 5.26576766,337.654028 6.91304181,337.481316 C8.08882595,337.357834 9.13331387,336.610085 10.0121637,335.5 C10.8921519,336.599392 11.9373987,337.33685 13.110906,337.464771 C14.8473554,337.654028 15.8736288,336.575179 15.9225803,336.520097 C15.9398461,336.500727 15.9546454,336.47934 15.9715318,336.459769 C18.0760658,334.02222 16.4619952,331.264063 15.4438804,330.029999 C14.0713416,328.456271 12.335082,326.723293 10.5532862,325.247165 L10.5071807,325.208829 C10.3684849,325.075259 10.1031866,325 9.99869252,325 C9.89419843,325 9.59588637,325.10613 9.48944536,325.207618 C8.66846457,325.884144 6.5589974,327.707312 4.57646254,330.019997 Z" id="Imported-Layers" fill="url(#radialGradient-3)"></path>
            <path d="M5.04637815,343 L15.9555686,343 L10.5043797,347.815884 L5.04637815,343 L5.04637815,343 Z M18,343.58085 L18,353 L3,353 L3,343.58085 L9.9080235,349.676165 C10.246254,349.974604 10.753746,349.974604 11.0919765,349.676165 L18,343.58085 L18,343.58085 Z M0,341.99406 C0,340.892771 0.90234375,340 1.99456145,340 L19.0054385,340 C20.1070044,340 21,340.894514 21,341.99406 L21,354.00594 C21,355.107229 20.0976562,356 19.0054385,356 L1.99456145,356 C0.892995579,356 0,355.105486 0,354.00594 L0,341.99406 L0,341.99406 Z" id="ic_message" fill="#444444"></path>
            <path d="M5.04637815,359 L15.9555686,359 L10.5043797,363.815884 L5.04637815,359 L5.04637815,359 Z M18,359.58085 L18,369 L3,369 L3,359.58085 L9.9080235,365.676165 C10.246254,365.974604 10.753746,365.974604 11.0919765,365.676165 L18,359.58085 L18,359.58085 Z M0,357.99406 C0,356.892771 0.90234375,356 1.99456145,356 L19.0054385,356 C20.1070044,356 21,356.894514 21,357.99406 L21,370.00594 C21,371.107229 20.0976562,372 19.0054385,372 L1.99456145,372 C0.892995579,372 0,371.105486 0,370.00594 L0,357.99406 L0,357.99406 Z" id="ic_message" fill="#3D89C8"></path>
            <g id="SHOP" transform="translate(0.000000, 372.000000)">
                <rect id="Rectangle-167" stroke="url(#linearGradient-5)" fill="url(#linearGradient-4)" filter="url(#filter-6)" x="1" y="8" width="14" height="8"></rect>
                <rect id="Rectangle-168" fill="url(#linearGradient-7)" x="15" y="14" width="1" height="2"></rect>
                <rect id="Rectangle-168" fill="url(#linearGradient-7)" x="0" y="14" width="1" height="2"></rect>
                <rect id="Rectangle-162" stroke="url(#linearGradient-9)" fill="url(#linearGradient-8)" x="6" y="0" width="4" height="9"></rect>
                <path d="M12,0 L13.9950828,0 C13.9950828,0 15.9943113,2.92660299 16,8 C15.7737913,8.7861377 13.0724487,9 12,9 L12,0 Z" id="Rectangle-162" stroke="url(#linearGradient-9)" fill="url(#linearGradient-8)"></path>
                <path d="M0,0 L1.99508282,0 C1.99508282,0 3.99431133,2.92660299 4,8 C3.77379131,8.7861377 1.07244873,9 0,9 L0,0 Z" id="Rectangle-162" stroke="url(#linearGradient-9)" fill="url(#linearGradient-8)" transform="translate(2.000000, 4.500000) scale(-1, 1) translate(-2.000000, -4.500000) "></path>
                <rect id="Rectangle-165" fill="url(#linearGradient-10)" x="10" y="0" width="2" height="9"></rect>
                <rect id="Rectangle-165" fill="url(#linearGradient-10)" x="4" y="0" width="2" height="9"></rect>
                <rect id="Rectangle-170" fill="url(#linearGradient-11)" filter="url(#filter-12)" x="3" y="9" width="10" height="7"></rect>
                <rect id="Rectangle-171" fill="url(#linearGradient-13)" x="12" y="9" width="1" height="6"></rect>
                <rect id="Rectangle-171" fill="url(#linearGradient-13)" x="3" y="9" width="1" height="6"></rect>
            </g>
        </g>
    </g>
</svg>