<svg xmlns="http://www.w3.org/2000/svg" viewBox="0 0 200 200"><defs><style>.cls-1{fill:none;}.cls-2{fill:#fff;stroke:#fff;stroke-miterlimit:10;stroke-width:0.5px;}</style></defs><title>Artboard 51 copy 16</title><g id="Layer_5" data-name="Layer 5"><rect class="cls-1" x="-0.26" y="3.13" width="199.47" height="199.48"/><g id="VCWwKG"><path class="cls-2" d="M97.7,15.06h7.18a11.4,11.4,0,0,0,1.2.29,37.74,37.74,0,0,1,10,2.46,28.21,28.21,0,0,1,13.27,11.42c4.52,7.17,6.54,15.23,7.88,23.5.5,3,.88,6,1.31,9l5.67.33c7.9.41,13.52,4.36,17.11,11.25,5.77,11.09,10,22.81,13.62,34.74a238.12,238.12,0,0,1,8,36.61,203,203,0,0,1,2,32.62,10.79,10.79,0,0,1-1.35,4.81c-1.6,2.92-4.41,3.72-7.64,3.72-27.33,0-54.67,0-82,.26-19.89.21-39.75,1-59.62,1.49-1.79.06-3.57.28-5.35.42H23.68a5.41,5.41,0,0,0-.7-.38c-3.31-1.24-5.35-3.47-5.55-7.12-.06-.78-.09-1.57-.17-2.35a139.34,139.34,0,0,1,1.66-40.4c1.44-7.95,3.36-15.82,5.54-23.61,2-7.07,4.34-14,7-20.91,3.07-8.12,6.71-16,9.87-24.1,1.57-4,4.37-5.7,8.45-5.77l11-.2c.49,0,1-.06,1.58-.09V59.91A72.37,72.37,0,0,1,64,43.06c1.76-7.55,4.87-14.32,10.86-19.52a32.32,32.32,0,0,1,14.59-7.08C92.16,15.85,94.94,15.52,97.7,15.06ZM32.58,171.55c45.44-2.07,90.79-1.9,136.16-1.84a4.7,4.7,0,0,0,.09-.73c-.55-7.65-.84-15.35-1.74-23a199.17,199.17,0,0,0-5.47-28.57c-3.62-13.37-8.48-26.24-15.53-38.2-.19-.32-.55-.77-.85-.79-1.67-.07-3.35,0-5.16,0,.28,3.3.54,6.31.79,9.34a6.13,6.13,0,0,1-3.21,6c-5.06,2.67-11.71-.47-12.68-6.1a54.07,54.07,0,0,1-.62-7.42c0-1.29-.39-1.7-1.75-1.68-13.8.23-27.6.39-41.41.56-.45,0-.9.06-1.48.09.23,1.6.39,3.1.65,4.57a8.68,8.68,0,0,1-6.7,9.83c-4,1-7.83-.69-8.6-5-.47-2.67-.85-5.36-1.21-8-.12-.89-.45-1.26-1.4-1.24-2.4.09-4.8.1-7.19.08a1.43,1.43,0,0,0-1.52,1.09c-.62,1.58-1.37,3.11-2,4.7-3.4,8.88-7,17.7-10.1,26.69a176.88,176.88,0,0,0-8.22,34.15A122.76,122.76,0,0,0,32.58,171.55ZM123.41,61.32c-.49-3-.91-5.84-1.41-8.69a37.28,37.28,0,0,0-4.84-13.82c-3.06-4.9-7.49-7.65-13.34-7.72A37.59,37.59,0,0,0,90.7,33.24c-6.61,2.33-11,6.75-12.27,13.63-.7,3.57-.55,7.31-.74,11-.08,1.54,0,3.09,0,4.64Z"/></g></g></svg>