<?xml version="1.0" encoding="utf-8"?>
<!-- Generator: Adobe Illustrator 23.0.2, SVG Export Plug-In . SVG Version: 6.00 Build 0)  -->
<svg version="1.1" id="圖層_1" focusable="false" xmlns="http://www.w3.org/2000/svg" xmlns:xlink="http://www.w3.org/1999/xlink"
	 x="0px" y="0px" viewBox="0 0 640 512" style="enable-background:new 0 0 640 512;" xml:space="preserve">
<style type="text/css">
	.st0{fill:#FFFFFF;}
	.st1{fill:url(#SVGID_1_);}
	.st2{fill:url(#SVGID_2_);}
</style>
<path class="st0" d="M565.3,133.3c-31.6,0-57.2,25.7-57.2,57.2c0,4.1,0.4,7.9,1.2,11.7l-55.9,33.5c-3.5,2.1-7.5,2.7-11.4,1.6
	c-4-1.1-7.1-3.5-9.2-7.1l-68.4-119.7c8.2-10.2,12.7-22.7,12.7-35.7c0-31.6-25.7-57.2-57.2-57.2s-57.2,25.7-57.2,57.2
	c0,13,4.5,25.5,12.7,35.7l-68.4,119.7c-2,3.5-5.3,6-9.2,7.1c-4,1-8.1,0.4-11.4-1.6l-55.8-33.5c0.8-3.8,1.2-7.6,1.2-11.6
	c0-31.6-25.7-57.2-57.2-57.2c-31.6,0-57.3,25.7-57.3,57.2c0,30.8,24.4,56,54.8,57.3l61.7,164.4c0.8,2.2,2.1,4,3.8,5.5v6h-2.8
	c-15.5,0-28,12.6-28,28v28.5c0,15.5,12.6,28,28,28h371.1c7.5,0,14.6-2.9,19.9-8.3c5.3-5.3,8.1-12.3,8.1-19.7v-28.5
	c0-15.5-12.6-28-28-28H501v-4.6c2.5-1.6,4.4-3.9,5.5-6.7l61.7-164.5c30.4-1.3,54.8-26.5,54.8-57.3C623,159,597.1,133.3,565.3,133.3z
	"/>
<radialGradient id="SVGID_1_" cx="320" cy="46.85" r="139.5482" gradientTransform="matrix(1 0 0 -1 0 514)" gradientUnits="userSpaceOnUse">
	<stop  offset="0" style="stop-color:#FFEEA7"/>
	<stop  offset="0" style="stop-color:#FFEC9B"/>
	<stop  offset="0" style="stop-color:#FEE577"/>
	<stop  offset="0" style="stop-color:#FEE057"/>
	<stop  offset="0" style="stop-color:#FEDB3B"/>
	<stop  offset="0" style="stop-color:#FDD725"/>
	<stop  offset="0" style="stop-color:#FDD414"/>
	<stop  offset="0" style="stop-color:#FDD209"/>
	<stop  offset="0" style="stop-color:#FDD002"/>
	<stop  offset="0" style="stop-color:#FDD000"/>
	<stop  offset="0.446" style="stop-color:#FAC000"/>
	<stop  offset="1" style="stop-color:#F8B300"/>
</radialGradient>
<path class="st1" d="M128.2,447.8c-2.5,0-4.6,2.1-4.6,4.6v29.5c0,2.5,2.1,4.6,4.6,4.6h383.6c2.5,0,4.6-2.1,4.6-4.6v-29.5
	c0-2.5-2.1-4.6-4.6-4.6H128.2z"/>
<radialGradient id="SVGID_2_" cx="319.95" cy="297.35" r="236.6929" gradientTransform="matrix(1 0 0 -1 0 514)" gradientUnits="userSpaceOnUse">
	<stop  offset="0" style="stop-color:#FFEEA7"/>
	<stop  offset="0" style="stop-color:#FFEC9B"/>
	<stop  offset="0" style="stop-color:#FEE577"/>
	<stop  offset="0" style="stop-color:#FEE057"/>
	<stop  offset="0" style="stop-color:#FEDB3B"/>
	<stop  offset="0" style="stop-color:#FDD725"/>
	<stop  offset="0" style="stop-color:#FDD414"/>
	<stop  offset="0" style="stop-color:#FDD209"/>
	<stop  offset="0" style="stop-color:#FDD002"/>
	<stop  offset="0" style="stop-color:#FDD000"/>
	<stop  offset="0.446" style="stop-color:#FAC000"/>
	<stop  offset="1" style="stop-color:#F8B300"/>
</radialGradient>
<path class="st2" d="M151.6,396.6h336.9L552,227c1.7-4.5,6.3-7.1,11-6.4c2.1,0.3,3.9,0.6,5.4,0.6c18.6,0,33.8-15.2,33.8-33.8
	s-15.2-33.8-33.8-33.8s-33.8,15.2-33.8,33.8c0,4.7,1,9.4,3.1,13.9c2.1,4.6,0.4,10.1-4,12.8l-66.1,39.6c-9.2,5.5-19.8,7-30.1,4.3
	c-10.3-2.7-18.8-9.3-24.1-18.5L339,109.3c-2.4-4.2-1.4-9.6,2.3-12.7c8-6.5,12.5-16,12.5-26.1c0-18.6-15.2-33.8-33.8-33.8
	s-33.8,15.2-33.8,33.8c0,10,4.6,19.5,12.5,26.1c3.8,3.1,4.8,8.5,2.3,12.7l-74.4,130.3c-5.3,9.2-13.9,15.8-24.2,18.5
	c-10.3,2.7-21,1.2-30.1-4.3l-66-39.6c-4.4-2.6-6.1-8.1-4-12.7c2.1-4.6,3.1-9.3,3.1-14c0-18.6-15.2-33.8-33.8-33.8
	c-18.7,0-33.9,15.2-33.9,33.8s15.2,33.8,33.8,33.8c1.5,0,3.3-0.3,5.4-0.6c4.7-0.8,9.3,1.9,11,6.4L151.6,396.6z"/>
<path class="st0" d="M364.2,370.2h-71.3v-15.7h9.3c7.8,0,11.7-4.2,11.7-12.6v-84.1c0-8.4-3.9-12.6-11.7-12.6h-9V230
	c17.8,0,29.3-4.3,34.4-13h15.7v124.9c0,8.4,3.9,12.6,11.7,12.6h9.3v15.7H364.2z"/>
</svg>
