<svg xmlns="http://www.w3.org/2000/svg" viewBox="0 0 200 200"><defs><style>.cls-1{fill:none;}.cls-2,.cls-3{fill:#fff;fill-rule:evenodd;}.cls-3{stroke:#fff;stroke-miterlimit:10;stroke-width:0.5px;}</style></defs><title>Artboard 51 copy 17</title><g id="Layer_5" data-name="Layer 5"><rect class="cls-1" x="0.52" y="-2.73" width="199.48" height="199.48"/><path class="cls-2" d="M151.42,132.69c0,10.9.07,21.81,0,32.73-.1,14-8.2,22.26-22,22.35q-26.13.19-52.27,0c-13.44-.11-22-8.51-22.07-21.89q-.24-33.31,0-66.61c.11-13.71,8.77-22,22.5-22.07q25.85-.09,51.7,0c13.84.06,22.07,8.29,22.2,22.16C151.5,110.46,151.42,121.57,151.42,132.69ZM67.34,149.93c5.3,0,10.23-.06,15.16,0,5.67.08,9,2.67,8.56,6.93-.5,5.07-4,6.44-8.55,6.37-5.06-.09-10.13,0-15.1,0-.49,9.05,2.54,12.65,10.29,12.7q25.86.17,51.71,0c6.55,0,10.13-3.48,10.16-9.9q.19-33.62,0-67.22c0-6.16-3.54-9.68-9.73-9.73-17.61-.17-35.23-.24-52.85,0-7.49.09-10.67,4.71-9.07,12.4,1.24.08,2.56.2,3.87.22,9.77,0,19.54,0,29.31.06,4.25,0,7.12,2.24,7.1,6.59s-2.79,6.51-7.1,6.6c-3.06,0-6.13,0-9.19,0H67.45v10.87c5.16,0,9.92.06,14.67,0s8.53,1.09,8.94,6.57c.31,4.28-2.93,6.68-8.72,6.73-4.9,0-9.82,0-15,0Z"/><path class="cls-3" d="M92.86,28.74c-6.44-10.31-6.23-18,.3-23.68a15.45,15.45,0,0,1,19.55-.57c7,5.45,7.45,13,1.14,24.5,2.05.14,3.87.17,5.67.4,6.9.81,11.58,5.54,11.88,12.48.13,3.1.73,5.1,3.68,6.92,4.63,2.88,6.46,15.1,3,19.36a9.28,9.28,0,0,1-6.27,3c-18.93.24-37.86.16-56.79.14-5.13,0-7.79-2.53-7.81-7.76,0-6.29-1-12.87,6.42-16.33.84-.39,1.27-2.19,1.42-3.41,1.35-11,4.4-13.87,15.77-14.59A14.41,14.41,0,0,0,92.86,28.74ZM82.4,46h41.87c.41-7.68-1.2-9-8.15-9.9-3.19-.43-7.4-2.12-8.77-4.57-1.18-2.07.39-6.44,1.93-9.13,2.66-4.66,3-8.86-.42-11.91S101.6,7.32,98,10.34s-4.05,7.5-.71,11.72c2.44,3,4.74,6.52,2,9.71-2,2.35-5.8,3.95-9,4.38C83.5,37,81.82,38.55,82.4,46Z"/></g></svg>