<?xml version="1.0" encoding="utf-8"?>
<!-- Generator: Adobe Illustrator 22.0.1, SVG Export Plug-In . SVG Version: 6.00 Build 0)  -->
<svg version="1.1" xmlns="http://www.w3.org/2000/svg" xmlns:xlink="http://www.w3.org/1999/xlink" x="0px" y="0px"
	 viewBox="0 0 150 150" style="enable-background:new 0 0 150 150;" xml:space="preserve">
<style type="text/css">
	.st0{fill:none;}
	.st1{fill:#FFFFFF;}
	.st2{clip-path:url(#SVGID_2_);}
	.st3{fill:#BCBEC0;}
	.st4{fill:#BA3B67;}
	.st5{fill:#F1EA3D;}
	.st6{fill:#ECDB2C;}
	.st7{opacity:0.5;fill:#EEE2E2;}
	.st8{fill:#F3A1C2;}
	.st9{fill:#976F35;}
	.st10{fill:#C5C7C6;}
	.st11{fill:#23AFB4;}
	.st12{fill:#F47A49;}
	.st13{clip-path:url(#SVGID_12_);}
	.st14{fill:#DADDDD;}
	.st15{fill:#D5D7D7;}
	.st16{fill:#3A4959;}
	.st17{fill:#393C3F;}
	.st18{fill:#ECECEB;}
	.st19{fill:#4A4E51;}
	.st20{clip-path:url(#SVGID_18_);}
	.st21{clip-path:url(#SVGID_22_);fill:#F1F0EF;}
	.st22{fill:none;stroke:#9C9B91;stroke-width:0.25;stroke-miterlimit:10;}
	.st23{fill:#77CEDA;}
	.st24{clip-path:url(#SVGID_24_);}
	.st25{clip-path:url(#SVGID_28_);fill:#F1F0EF;}
	.st26{clip-path:url(#SVGID_30_);}
	.st27{clip-path:url(#SVGID_34_);fill:#F1F0EF;}
	.st28{clip-path:url(#SVGID_36_);}
	.st29{clip-path:url(#SVGID_40_);fill:#F1F0EF;}
	.st30{clip-path:url(#SVGID_42_);}
	.st31{clip-path:url(#SVGID_46_);fill:#F1F0EF;}
	.st32{clip-path:url(#SVGID_48_);}
	.st33{clip-path:url(#SVGID_52_);fill:#F1F0EF;}
	.st34{clip-path:url(#SVGID_54_);}
	.st35{clip-path:url(#SVGID_58_);fill:#F1F0EF;}
	.st36{clip-path:url(#SVGID_60_);}
	.st37{clip-path:url(#SVGID_64_);fill:#F1F0EF;}
	.st38{clip-path:url(#SVGID_66_);fill:#F8BCCB;}
	.st39{clip-path:url(#SVGID_68_);fill:#9EC5C5;}
	.st40{clip-path:url(#SVGID_70_);}
	.st41{clip-path:url(#SVGID_74_);fill:#F1F0EF;}
	.st42{clip-path:url(#SVGID_76_);}
	.st43{clip-path:url(#SVGID_80_);fill:#F1F0EF;}
	.st44{clip-path:url(#SVGID_82_);}
	.st45{clip-path:url(#SVGID_86_);fill:#F1F0EF;}
	.st46{clip-path:url(#SVGID_88_);}
	.st47{clip-path:url(#SVGID_92_);fill:#F1F0EF;}
	.st48{clip-path:url(#SVGID_94_);}
	.st49{clip-path:url(#SVGID_98_);fill:#F1F0EF;}
	.st50{clip-path:url(#SVGID_100_);}
	.st51{clip-path:url(#SVGID_104_);fill:#F1F0EF;}
	.st52{clip-path:url(#SVGID_106_);}
	.st53{clip-path:url(#SVGID_110_);fill:#F1F0EF;}
	.st54{clip-path:url(#SVGID_112_);}
	.st55{clip-path:url(#SVGID_116_);fill:#F1F0EF;}
	.st56{clip-path:url(#SVGID_122_);}
	.st57{clip-path:url(#SVGID_126_);fill:#F1F0EF;}
	.st58{clip-path:url(#SVGID_128_);}
	.st59{clip-path:url(#SVGID_132_);fill:#F1F0EF;}
	.st60{clip-path:url(#SVGID_134_);}
	.st61{clip-path:url(#SVGID_138_);fill:#F1F0EF;}
	.st62{clip-path:url(#SVGID_140_);}
	.st63{clip-path:url(#SVGID_144_);fill:#F1F0EF;}
	.st64{clip-path:url(#SVGID_146_);}
	.st65{clip-path:url(#SVGID_150_);fill:#F1F0EF;}
	.st66{clip-path:url(#SVGID_152_);}
	.st67{clip-path:url(#SVGID_156_);fill:#F1F0EF;}
	.st68{clip-path:url(#SVGID_158_);}
	.st69{clip-path:url(#SVGID_162_);fill:#F1F0EF;}
	.st70{clip-path:url(#SVGID_164_);}
	.st71{clip-path:url(#SVGID_168_);fill:#F1F0EF;}
	.st72{display:none;}
	.st73{display:inline;}
	.st74{fill:#86898A;}
	.st75{fill:#F4868D;}
	.st76{clip-path:url(#SVGID_172_);}
	.st77{clip-path:url(#SVGID_176_);fill:#F1F0EF;}
	.st78{clip-path:url(#SVGID_178_);}
	.st79{clip-path:url(#SVGID_182_);fill:#F1F0EF;}
	.st80{clip-path:url(#SVGID_184_);}
	.st81{clip-path:url(#SVGID_188_);fill:#F1F0EF;}
	.st82{clip-path:url(#SVGID_190_);}
	.st83{clip-path:url(#SVGID_194_);fill:#F1F0EF;}
	.st84{clip-path:url(#SVGID_196_);}
	.st85{clip-path:url(#SVGID_200_);fill:#F1F0EF;}
	.st86{fill:#A7A9AC;}
	.st87{fill:none;stroke:#E6E7E8;stroke-width:7;stroke-miterlimit:10;}
	.st88{clip-path:url(#SVGID_202_);}
	.st89{clip-path:url(#SVGID_206_);fill:#F1F0EF;}
	.st90{clip-path:url(#SVGID_208_);}
	.st91{clip-path:url(#SVGID_212_);fill:#F1F0EF;}
	.st92{clip-path:url(#SVGID_214_);}
	.st93{clip-path:url(#SVGID_218_);fill:#F1F0EF;}
	.st94{clip-path:url(#SVGID_220_);}
	.st95{clip-path:url(#SVGID_224_);fill:#F1F0EF;}
	.st96{clip-path:url(#SVGID_226_);}
	.st97{clip-path:url(#SVGID_230_);fill:#F1F0EF;}
	.st98{clip-path:url(#SVGID_232_);}
	.st99{clip-path:url(#SVGID_236_);fill:#F1F0EF;}
	.st100{clip-path:url(#SVGID_238_);}
	.st101{clip-path:url(#SVGID_242_);fill:#F1F0EF;}
	.st102{clip-path:url(#SVGID_244_);}
	.st103{clip-path:url(#SVGID_248_);fill:#F1F0EF;}
	.st104{clip-path:url(#SVGID_250_);}
	.st105{clip-path:url(#SVGID_254_);fill:#F1F0EF;}
	.st106{clip-path:url(#SVGID_256_);}
	.st107{clip-path:url(#SVGID_260_);fill:#F1F0EF;}
	.st108{opacity:0.6;}
	.st109{opacity:0.9;fill:#F4868D;}
	.st110{fill:#7E8691;}
	.st111{fill:#EE2A7B;}
	.st112{opacity:0.9;fill:#FFFFFF;}
	.st113{fill:none;stroke:#A49970;stroke-miterlimit:10;}
	.st114{fill:none;stroke:#A49970;stroke-width:0.75;stroke-miterlimit:10;}
	.st115{fill:#A49970;}
	.st116{fill:#F05575;}
	.st117{fill-rule:evenodd;clip-rule:evenodd;fill:#A7A9AC;}
	.st118{fill:#FBC926;}
	.st119{opacity:0.4;}
	.st120{fill:#EFBABA;}
	.st121{fill:#19161C;}
	.st122{fill:#A4DBDF;}
	.st123{fill:#EFBBB9;}
	.st124{fill:#FBC7B5;}
	.st125{fill:#2C3D42;}
	.st126{fill:#CBE9E4;}
	.st127{fill-rule:evenodd;clip-rule:evenodd;fill:#2C3D42;}
	.st128{fill:#E6E7E8;}
	.st129{fill:#FFDE17;}
	.st130{fill:#15557C;}
	.st131{fill:#C4C6C6;}
	.st132{fill:#3595D2;}
	.st133{fill:#2E82B4;}
	.st134{fill-rule:evenodd;clip-rule:evenodd;fill:#FFFFFF;}
	.st135{fill-rule:evenodd;clip-rule:evenodd;fill:#26C3EA;}
	.st136{fill-rule:evenodd;clip-rule:evenodd;fill:#22B789;}
	.st137{fill-rule:evenodd;clip-rule:evenodd;fill:#4D6FA2;}
	.st138{fill-rule:evenodd;clip-rule:evenodd;fill:#F4868D;}
	.st139{fill:none;stroke:#C3C3C3;stroke-width:0.5;stroke-miterlimit:10;}
	.st140{fill:#FFFFFF;stroke:#C3C3C3;stroke-width:0.5;stroke-miterlimit:10;}
	.st141{fill:none;stroke:#6D6E71;stroke-miterlimit:10;}
	.st142{fill:#EEC22D;}
	.st143{fill:#F69C2A;}
	.st144{fill:#E78130;}
	.st145{fill-rule:evenodd;clip-rule:evenodd;fill:#F0512E;}
	.st146{fill:#FFD429;}
	.st147{fill:#FBAC31;}
	.st148{clip-path:url(#SVGID_270_);}
	.st149{fill-rule:evenodd;clip-rule:evenodd;}
	.st150{fill:#2A7F77;}
	.st151{fill-rule:evenodd;clip-rule:evenodd;fill:#2A7F77;}
	.st152{fill-rule:evenodd;clip-rule:evenodd;fill:#7ACCCD;}
	.st153{fill:none;stroke:#2A7F77;stroke-miterlimit:10;}
	.st154{clip-path:url(#SVGID_272_);}
	.st155{fill-rule:evenodd;clip-rule:evenodd;fill:#BE1E2D;}
	.st156{fill:none;stroke:#BE1E2D;stroke-miterlimit:10;}
	.st157{fill-rule:evenodd;clip-rule:evenodd;fill:#FFD429;}
	.st158{clip-path:url(#SVGID_274_);}
	.st159{fill-rule:evenodd;clip-rule:evenodd;fill:#54632A;}
	.st160{fill-rule:evenodd;clip-rule:evenodd;fill:#CFDD35;}
	.st161{fill:none;stroke:#54632A;stroke-miterlimit:10;}
	.st162{clip-path:url(#SVGID_276_);}
	.st163{fill:#FDE0D6;}
	.st164{fill:#FBD6DF;}
	.st165{fill-rule:evenodd;clip-rule:evenodd;fill:#F06D8A;}
	.st166{fill:#DEF0E2;}
	.st167{fill:#F26636;}
	.st168{fill:#6BC5AB;}
	.st169{fill:#FEBE2E;}
	.st170{fill:#F89A32;}
	.st171{fill:#EF413F;}
	.st172{fill:#B42B2F;}
	.st173{fill:none;stroke:#EF413F;stroke-width:6;stroke-linecap:round;stroke-linejoin:round;stroke-miterlimit:10;}
	.st174{fill-rule:evenodd;clip-rule:evenodd;fill:#F3A1C2;}
	.st175{fill:#70B9C4;}
	.st176{clip-path:url(#SVGID_278_);}
	.st177{clip-path:url(#SVGID_280_);}
	.st178{fill:#C7465A;}
	.st179{fill:url(#SVGID_281_);}
	.st180{fill:url(#SVGID_282_);}
	.st181{fill:url(#SVGID_283_);}
	.st182{fill:url(#SVGID_284_);}
	.st183{fill:url(#SVGID_285_);}
	.st184{fill:url(#SVGID_286_);}
	.st185{fill:url(#SVGID_287_);}
	.st186{fill:url(#SVGID_288_);}
	.st187{fill:url(#SVGID_289_);}
	.st188{fill:#E5629E;}
	.st189{fill:#555859;}
	.st190{fill-rule:evenodd;clip-rule:evenodd;fill:#E5629E;}
	.st191{clip-path:url(#SVGID_291_);}
	.st192{fill:#FFFFFF;stroke:#000000;stroke-miterlimit:10;}
	.st193{fill:#2EBFEF;}
	.st194{fill-rule:evenodd;clip-rule:evenodd;fill:#2EBFEF;}
	.st195{fill:#F58224;}
	.st196{fill-rule:evenodd;clip-rule:evenodd;fill:#F58224;}
	.st197{clip-path:url(#SVGID_293_);}
	.st198{clip-path:url(#SVGID_295_);}
	.st199{fill:#F0506E;}
	.st200{fill:#563347;}
	.st201{fill:#121638;}
	.st202{fill:#434763;}
	.st203{fill:#ED678F;}
	.st204{fill:#DBD2D0;}
	.st205{fill:#BDB0B2;}
	.st206{fill:#EEE2DE;}
	.st207{fill:#A5DCE0;}
	.st208{fill-rule:evenodd;clip-rule:evenodd;fill:#ABAEAD;}
	.st209{fill-rule:evenodd;clip-rule:evenodd;fill:#ABAEAD;stroke:#FFFFFF;stroke-width:0.25;stroke-miterlimit:10;}
	.st210{fill:#ABAEAD;stroke:#FFFFFF;stroke-width:0.5;stroke-miterlimit:10;}
	.st211{fill-rule:evenodd;clip-rule:evenodd;fill:#ABAEAD;stroke:#ABAEAD;stroke-width:0.5;stroke-miterlimit:10;}
	.st212{fill:#29A3D8;}
	.st213{fill:#ABAEAD;stroke:#ABAEAD;stroke-width:0.5;stroke-miterlimit:10;}
	.st214{fill:#6A6E70;}
	.st215{fill:#73B0A9;}
	.st216{fill:none;stroke:#E5547B;stroke-width:4;stroke-miterlimit:10;}
	.st217{fill:none;stroke:#ABAEAD;stroke-width:1.5;stroke-miterlimit:10;}
	.st218{fill:#ABAEAD;}
	.st219{fill:#F38BAE;}
	.st220{fill:#FFD03A;}
</style>
<g id="Layer_1">
</g>
<g id="Layer_2">
</g>
<g id="Layer_4">
</g>
<g id="Layer_5">
	<g>
		<circle class="st219" cx="75" cy="75" r="75.2"/>
		<g>
			<rect x="30.4" y="31.4" class="st0" width="90.9" height="90.9"/>
			<g>
				<path class="st134" d="M99.2,93.1c0,5,0,9.9,0,14.9c0,6.4-3.7,10.1-10,10.2c-7.9,0.1-15.9,0.1-23.8,0c-6.1-0.1-10-3.9-10.1-10
					c-0.1-10.1-0.1-20.2,0-30.3c0.1-6.2,4-10,10.3-10.1c7.9,0,15.7,0,23.6,0c6.3,0,10.1,3.8,10.1,10.1C99.2,83,99.2,88,99.2,93.1z
					 M60.9,100.9c2.4,0,4.7,0,6.9,0c2.6,0,4.1,1.2,3.9,3.2c-0.2,2.3-1.8,2.9-3.9,2.9c-2.3,0-4.6,0-6.9,0c-0.2,4.1,1.2,5.8,4.7,5.8
					c7.9,0.1,15.7,0.1,23.6,0c3,0,4.6-1.6,4.6-4.5c0.1-10.2,0.1-20.4,0-30.6c0-2.8-1.6-4.4-4.4-4.4c-8-0.1-16.1-0.1-24.1,0
					c-3.4,0-4.9,2.1-4.1,5.6c0.6,0,1.2,0.1,1.8,0.1c4.5,0,8.9,0,13.4,0c1.9,0,3.2,1,3.2,3c0,2-1.3,3-3.2,3c-1.4,0-2.8,0-4.2,0
					c-3.7,0-7.4,0-11.1,0c0,1.9,0,3.3,0,5c2.3,0,4.5,0,6.7,0c2.1,0,3.9,0.5,4.1,3c0.1,2-1.3,3-4,3.1c-2.2,0-4.5,0-6.8,0
					C60.9,97.7,60.9,99.1,60.9,100.9z"/>
				<path class="st134" d="M72.5,45.7c-2.9-4.7-2.8-8.2,0.1-10.8c2.5-2.2,6.3-2.3,8.9-0.3c3.2,2.5,3.4,5.9,0.5,11.2
					c0.9,0.1,1.8,0.1,2.6,0.2c3.1,0.4,5.3,2.5,5.4,5.7c0.1,1.4,0.3,2.3,1.7,3.2c2.1,1.3,2.9,6.9,1.4,8.8c-0.6,0.8-1.9,1.4-2.9,1.4
					c-8.6,0.1-17.3,0.1-25.9,0.1c-2.3,0-3.6-1.2-3.6-3.5c0-2.9-0.4-5.9,2.9-7.4c0.4-0.2,0.6-1,0.6-1.6c0.6-5,2-6.3,7.2-6.6
					C71.8,45.9,72.1,45.8,72.5,45.7z M67.8,53.6c6.5,0,12.8,0,19.1,0c0.2-3.5-0.5-4.1-3.7-4.5c-1.5-0.2-3.4-1-4-2.1
					c-0.5-0.9,0.2-2.9,0.9-4.2c1.2-2.1,1.4-4-0.2-5.4c-1.6-1.4-3.3-1.5-5-0.1c-1.7,1.4-1.8,3.4-0.3,5.3c1.1,1.4,2.2,3,0.9,4.4
					c-0.9,1.1-2.6,1.8-4.1,2C68.3,49.5,67.5,50.2,67.8,53.6z"/>
			</g>
		</g>
	</g>
</g>
<g id="Layer_3" class="st72">
</g>
</svg>
