<svg id="圖層_1" data-name="圖層 1" xmlns="http://www.w3.org/2000/svg" viewBox="0 0 64 19"><defs><style>.cls-1{fill:#fff;}.cls-2{fill:#fcfcfc;}</style></defs><title>out_of_stock</title><path class="cls-1" d="M21.29,4.68a.8.8,0,0,1-.2.54.67.67,0,0,1-.52.22A.69.69,0,0,1,20,5.13l0,0S20,5,20,5l.07,0a1,1,0,0,0,.46.15.5.5,0,0,0,.51-.5c0-.1-.09-.19-.27-.3A6.3,6.3,0,0,1,20.21,4,.42.42,0,0,1,20,3.65a.71.71,0,0,1,.25-.5.93.93,0,0,1,.61-.23A.57.57,0,0,1,21.1,3c.09,0,.13.1.13.15s0,.18-.07.18L21,3.25a.43.43,0,0,0-.22-.06.59.59,0,0,0-.4.14.45.45,0,0,0-.17.34.25.25,0,0,0,.15.21l.51.32C21.15,4.36,21.29,4.52,21.29,4.68Z"/><path class="cls-2" d="M20.57,5.56a.84.84,0,0,1-.69-.35.21.21,0,0,1-.05-.12.18.18,0,0,1,.19-.2h.06l.06,0c.36.19.56.16.68,0a.33.33,0,0,0,.11-.27s0-.07-.2-.19-.38-.24-.6-.38a.57.57,0,0,1-.27-.48.83.83,0,0,1,.3-.59,1,1,0,0,1,.69-.27.75.75,0,0,1,.31.08c.13.08.2.16.2.26,0,.27-.12.31-.2.31a.48.48,0,0,1-.2-.08.37.37,0,0,0-.16,0,.49.49,0,0,0-.32.12.31.31,0,0,0-.12.24s0,.07.09.11l.5.31c.31.19.46.38.46.59a1,1,0,0,1-.23.63A.81.81,0,0,1,20.57,5.56Zm.23-2.5a.49.49,0,0,1,.28.09h0v0l-.07,0a.56.56,0,0,0-.52,0A.67.67,0,0,1,20.8,3.06Z"/><path class="cls-1" d="M24.82,4.26A1.39,1.39,0,0,1,24.6,5a.73.73,0,0,1-.62.43.72.72,0,0,1-.63-.35,1.87,1.87,0,0,1-.23-1,1.63,1.63,0,0,1,.27-1l.09,0L23.62,3A.62.62,0,0,1,24,2.92a.74.74,0,0,1,.65.46A1.87,1.87,0,0,1,24.82,4.26Zm-.24-.07a1.24,1.24,0,0,0-.2-.71.59.59,0,0,0-.49-.29q-.54,0-.54,1c0,.65.21,1,.61,1a.53.53,0,0,0,.46-.27A1.41,1.41,0,0,0,24.58,4.19Z"/><path class="cls-2" d="M24,5.56a.83.83,0,0,1-.74-.41A2,2,0,0,1,23,4.09,1.75,1.75,0,0,1,23.3,3a.11.11,0,0,1,.09,0s.05,0,.07,0a.2.2,0,0,0,.09-.05A.78.78,0,0,1,24,2.79a.88.88,0,0,1,.76.53,2,2,0,0,1,.23.94,1.52,1.52,0,0,1-.24.81A.85.85,0,0,1,24,5.56ZM23.46,5a.59.59,0,0,0,.52.28.53.53,0,0,0,.44-.26.65.65,0,0,1-1,0Zm.43-1.72c-.1,0-.41,0-.41.84S23.84,5,24,5a.4.4,0,0,0,.35-.21,1.11,1.11,0,0,0,.14-.6,1,1,0,0,0-.18-.64A.44.44,0,0,0,23.89,3.31Zm-.45-.11a1.44,1.44,0,0,0-.15.39.82.82,0,0,1,.22-.39Zm.45-.14a.69.69,0,0,1,.59.35v0A.62.62,0,0,0,24,3a.48.48,0,0,0-.18,0ZM23.48,3Zm0,0h0Z"/><path class="cls-1" d="M28.15,3.26c0,.07-.07.12-.22.15a1.45,1.45,0,0,0-.79.5,1,1,0,0,0-.21.65c0,.06,0,.17,0,.32s0,.26,0,.3-.05.26-.13.26-.17-.2-.17-.6c0-.11,0-.25,0-.44V4.11c0-.15,0-.36,0-.62s0-.43,0-.46,0-.11.1-.11.13.05.15.16,0,.4.05.7A1.48,1.48,0,0,1,28,3.17C28.1,3.17,28.15,3.2,28.15,3.26Z"/><path class="cls-2" d="M26.83,5.56c-.26,0-.29-.36-.29-.72,0-.11,0-.26,0-.44s0-.28,0-.29a5.52,5.52,0,0,0,0-.61c0-.27,0-.43,0-.47a.22.22,0,0,1,.23-.24c.06,0,.23,0,.27.27a3.73,3.73,0,0,1,0,.43A1.44,1.44,0,0,1,28,3c.27,0,.29.17.29.22s-.11.23-.33.27a1.24,1.24,0,0,0-.71.46.83.83,0,0,0-.18.57c0,.06,0,.16,0,.32s0,.25,0,.3C27.08,5.52,26.92,5.56,26.83,5.56Zm0-1.72c0,.1,0,.19,0,.27s0,.11,0,.3,0,.32,0,.43a1.55,1.55,0,0,0,0,.43V5.18s0-.14,0-.29,0-.27,0-.33A1.18,1.18,0,0,1,27,3.83l.11-.12L27,3.87a.12.12,0,0,1-.13,0A.11.11,0,0,1,26.8,3.84Zm1-.52a1.27,1.27,0,0,0-.41.22A1.49,1.49,0,0,1,27.76,3.32Zm-1-.15c0,.06,0,.15,0,.27C26.76,3.34,26.75,3.25,26.75,3.17Zm1.3.13h0Z"/><path class="cls-1" d="M31.51,3.26c0,.07-.08.12-.23.15a1.45,1.45,0,0,0-.79.5,1,1,0,0,0-.21.65c0,.06,0,.17,0,.32s0,.26,0,.3,0,.26-.13.26-.17-.2-.17-.6c0-.11,0-.25,0-.44V4.11c0-.15,0-.36,0-.62s0-.43,0-.46a.1.1,0,0,1,.11-.11c.08,0,.12.05.14.16a5.37,5.37,0,0,1,.05.7,1.52,1.52,0,0,1,1.08-.61C31.45,3.17,31.51,3.2,31.51,3.26Z"/><path class="cls-2" d="M30.18,5.56c-.26,0-.29-.36-.29-.72,0-.11,0-.26,0-.44s0-.28,0-.29,0-.35,0-.61,0-.43,0-.47a.22.22,0,0,1,.23-.24c.05,0,.23,0,.26.27a3.42,3.42,0,0,1,.05.43,1.42,1.42,0,0,1,1-.45c.27,0,.29.17.29.22s-.11.23-.33.27a1.28,1.28,0,0,0-.71.46.88.88,0,0,0-.18.57c0,.06,0,.16,0,.32s0,.25,0,.3C30.43,5.52,30.27,5.56,30.18,5.56Zm0-1.72a2.62,2.62,0,0,1,0,.27s0,.11,0,.3,0,.32,0,.43a1.55,1.55,0,0,0,0,.43V5.18s0-.14,0-.29,0-.27,0-.33a1.13,1.13,0,0,1,.24-.73l.11-.12-.15.16a.14.14,0,0,1-.14,0A.11.11,0,0,1,30.15,3.84Zm1-.52a1.22,1.22,0,0,0-.42.22A1.41,1.41,0,0,1,31.12,3.32Zm-1-.15c0,.06,0,.15,0,.27A2.13,2.13,0,0,0,30.1,3.17Zm1.31.13Z"/><path class="cls-1" d="M35.17,3.06a.87.87,0,0,1-.13.32,31.29,31.29,0,0,1-1.78,2.73c-.13.17-.22.26-.27.26s-.11,0-.11-.06a.24.24,0,0,1,.06-.14c.46-.65.83-1.22,1.12-1.69-.25-.46-.52-.89-.79-1.3A.27.27,0,0,1,33.21,3c0-.08,0-.12.14-.12s.11.05.19.15a7.76,7.76,0,0,1,.69,1.14c.15-.27.38-.66.7-1.19a.19.19,0,0,1,.13-.1C35.14,2.92,35.17,3,35.17,3.06Z"/><path class="cls-2" d="M33,6.49c-.23,0-.23-.16-.23-.18a.31.31,0,0,1,.08-.21c.44-.64.79-1.17,1.08-1.63-.24-.42-.49-.83-.75-1.22A.37.37,0,0,1,33.08,3a.25.25,0,0,1,.27-.24c.09,0,.18.06.28.19a6.43,6.43,0,0,1,.6,1c.15-.25.34-.59.59-1a.29.29,0,0,1,.24-.16.23.23,0,0,1,.24.26.87.87,0,0,1-.15.38c-.66,1.12-1.27,2-1.79,2.75C33.2,6.41,33.09,6.49,33,6.49Zm0-.25Zm.38-3.19,0,.06c.28.42.55.86.8,1.31a.13.13,0,0,1,0,.12l-.41.65c.36-.54.75-1.17,1.17-1.87a1.8,1.8,0,0,0,.12-.25s0,0,0,0c-.31.52-.54.92-.69,1.18a.12.12,0,0,1-.11.07h0a.12.12,0,0,1-.11-.07,7.45,7.45,0,0,0-.68-1.12Zm1.83,0h0Z"/><path class="cls-1" d="M41.05,5.12a.29.29,0,0,1-.09.22.3.3,0,0,1-.23.1.29.29,0,0,1-.32-.33.29.29,0,0,1,.1-.21.3.3,0,0,1,.24-.11Q41.05,4.79,41.05,5.12Zm0-1.89a.36.36,0,0,1-.1.23.36.36,0,0,1-.24.13.27.27,0,0,1-.23-.11.37.37,0,0,1-.07-.23s0-.11.14-.19A.45.45,0,0,1,40.83,3C41,3,41.06,3,41.06,3.23Z"/><path class="cls-2" d="M40.73,5.56a.41.41,0,0,1-.45-.45.42.42,0,0,1,.14-.3.44.44,0,0,1,.33-.14.39.39,0,0,1,.42.45.44.44,0,0,1-.44.44Zm0-.64A.2.2,0,0,0,40.6,5a.19.19,0,0,0-.07.13c0,.15,0,.2.2.2a.2.2,0,0,0,.14-.06.14.14,0,0,0,.05-.13C40.92,5,40.86,4.92,40.75,4.92Zm0-1.21a.4.4,0,0,1-.33-.15.59.59,0,0,1-.09-.31c0-.09.05-.17.18-.28a.51.51,0,0,1,.35-.14.35.35,0,0,1,.36.4.48.48,0,0,1-.14.31A.42.42,0,0,1,40.72,3.71Zm.11-.63a.26.26,0,0,0-.19.08l-.1.1a.44.44,0,0,0,.05.15.16.16,0,0,0,.13,0s.07,0,.14-.08a.28.28,0,0,0,.08-.15C40.94,3.08,40.88,3.08,40.83,3.08Z"/><path class="cls-1" d="M45.43,6.18c0,.05,0,.08-.11.08s-.22-.12-.39-.36a5.49,5.49,0,0,1-.52-1,4.59,4.59,0,0,1-.3-1.74,4,4,0,0,1,.23-1.49,3.08,3.08,0,0,1,.89-1.2s.06-.06.08-.06.1,0,.1.12a.18.18,0,0,1-.09.15,2.75,2.75,0,0,0-.71,1,4,4,0,0,0-.27,1.58,4.62,4.62,0,0,0,1,2.85A.28.28,0,0,1,45.43,6.18Z"/><path class="cls-2" d="M45.32,6.38c-.14,0-.29-.12-.49-.4a6.17,6.17,0,0,1-.54-1A4.82,4.82,0,0,1,44,3.15a4.2,4.2,0,0,1,.24-1.53A3.46,3.46,0,0,1,45.14.36a.26.26,0,0,1,.17-.08.21.21,0,0,1,.22.24.3.3,0,0,1-.13.25,2.58,2.58,0,0,0-.67.9,3.72,3.72,0,0,0-.26,1.53,4.48,4.48,0,0,0,1,2.78.32.32,0,0,1,.08.2A.2.2,0,0,1,45.32,6.38Zm-1-2.19a4.11,4.11,0,0,0,.19.65,5.23,5.23,0,0,0,.52,1,1.3,1.3,0,0,0,.17.22A5,5,0,0,1,44.33,4.19Z"/><path class="cls-1" d="M.88,15.53c0-1.89,1-3,2.52-3s2.52,1.15,2.52,3-1,3.08-2.52,3.08S.88,17.42.88,15.53Zm4.27,0c0-1.48-.7-2.38-1.75-2.38s-1.75.9-1.75,2.38S2.34,18,3.4,18,5.15,17,5.15,15.53Z"/><path class="cls-2" d="M3.4,18.72c-1.57,0-2.63-1.28-2.63-3.19s1-3.15,2.63-3.15S6,13.62,6,15.53,5,18.72,3.4,18.72Zm0-6.11c-1.46,0-2.4,1.15-2.4,2.92s.94,3,2.4,3,2.4-1.16,2.4-3S4.86,12.61,3.4,12.61Zm0,5.46c-1.14,0-1.87-1-1.87-2.54S2.26,13,3.4,13s1.87,1,1.87,2.5S4.53,18.07,3.4,18.07Zm0-4.81c-1,0-1.64.87-1.64,2.27s.64,2.31,1.64,2.31S5,16.93,5,15.53,4.41,13.26,3.4,13.26Z"/><path class="cls-1" d="M7.56,16.06V12.61h.75v3.48c0,1.42.6,1.86,1.36,1.86s1.41-.44,1.41-1.86V12.61h.72v3.45c0,1.9-.92,2.55-2.13,2.55S7.56,18,7.56,16.06Z"/><path class="cls-2" d="M9.67,18.72c-1,0-2.23-.46-2.23-2.66V12.61a.12.12,0,0,1,.12-.12h.75a.11.11,0,0,1,.11.12v3.48c0,1.18.41,1.75,1.25,1.75s1.3-.57,1.3-1.75V12.61a.11.11,0,0,1,.11-.12h.72a.11.11,0,0,1,.11.12v3.45C11.91,18.26,10.7,18.72,9.67,18.72Zm-2-6v3.34c0,1.61.68,2.43,2,2.43s2-.82,2-2.43V12.72H11.2v3.37c0,1.31-.51,2-1.53,2-.67,0-1.48-.34-1.48-2V12.72Z"/><path class="cls-1" d="M15,13.23H13.22v-.62h4.32v.62H15.76V18.5H15Z"/><path class="cls-2" d="M15.76,18.62H15a.13.13,0,0,1-.12-.12V13.35H13.22a.11.11,0,0,1-.11-.12v-.62a.11.11,0,0,1,.11-.12h4.32a.12.12,0,0,1,.12.12v.62a.12.12,0,0,1-.12.12H15.87V18.5A.12.12,0,0,1,15.76,18.62Zm-.64-.23h.52V13.23a.11.11,0,0,1,.12-.11h1.67v-.4H13.34v.4H15a.11.11,0,0,1,.11.11Z"/><path class="cls-1" d="M20.86,15.53c0-1.89,1-3,2.51-3s2.52,1.15,2.52,3-1,3.08-2.52,3.08S20.86,17.42,20.86,15.53Zm4.27,0c0-1.48-.7-2.38-1.76-2.38s-1.75.9-1.75,2.38S22.31,18,23.37,18,25.13,17,25.13,15.53Z"/><path class="cls-2" d="M23.37,18.72c-1.57,0-2.63-1.28-2.63-3.19s1-3.15,2.63-3.15S26,13.62,26,15.53,25,18.72,23.37,18.72Zm0-6.11c-1.46,0-2.4,1.15-2.4,2.92s.94,3,2.4,3,2.4-1.16,2.4-3S24.83,12.61,23.37,12.61Zm0,5.46c-1.13,0-1.87-1-1.87-2.54s.74-2.5,1.87-2.5,1.87,1,1.87,2.5S24.49,18.07,23.37,18.07Zm0-4.81c-1,0-1.63.87-1.63,2.27s.64,2.31,1.63,2.31S25,16.93,25,15.53,24.38,13.26,23.37,13.26Z"/><path class="cls-1" d="M27.56,12.61H31v.62H28.3v2h2.26v.63H28.3V18.5h-.74Z"/><path class="cls-2" d="M28.3,18.62h-.74a.12.12,0,0,1-.12-.12V12.61a.12.12,0,0,1,.12-.12H31a.11.11,0,0,1,.11.12v.62a.11.11,0,0,1-.11.12H28.42v1.76h2.14a.12.12,0,0,1,.11.12v.63a.11.11,0,0,1-.11.11H28.42V18.5A.12.12,0,0,1,28.3,18.62Zm-.63-.23h.52V15.86a.11.11,0,0,1,.11-.12h2.14v-.4H28.3a.11.11,0,0,1-.11-.11v-2a.11.11,0,0,1,.11-.11h2.54v-.4H27.67Z"/><path class="cls-1" d="M34.17,17.73l.44-.51a2.29,2.29,0,0,0,1.63.73c.78,0,1.24-.38,1.24-1s-.42-.8-1-1l-.85-.37a1.66,1.66,0,0,1-1.2-1.51,1.68,1.68,0,0,1,1.86-1.57,2.37,2.37,0,0,1,1.73.74l-.39.47a1.9,1.9,0,0,0-1.34-.55c-.67,0-1.1.33-1.1.86s.51.79,1,1l.84.36a1.63,1.63,0,0,1,1.22,1.57,1.78,1.78,0,0,1-2,1.68A2.81,2.81,0,0,1,34.17,17.73Z"/><path class="cls-2" d="M36.24,18.72a2.92,2.92,0,0,1-2.15-.91.11.11,0,0,1,0-.16l.44-.5s0,0,.09,0a.11.11,0,0,1,.08,0,2.18,2.18,0,0,0,1.55.7c.7,0,1.13-.33,1.13-.85s-.32-.67-.92-.94l-.85-.37a1.73,1.73,0,0,1-1.27-1.62,1.79,1.79,0,0,1,2-1.68,2.52,2.52,0,0,1,1.82.77.11.11,0,0,1,0,.15l-.39.47a.14.14,0,0,1-.08.05.18.18,0,0,1-.09,0,1.8,1.8,0,0,0-1.26-.52c-.61,0-1,.29-1,.75s.46.69.9.88l.85.36a1.77,1.77,0,0,1,1.28,1.68A1.88,1.88,0,0,1,36.24,18.72Zm-1.91-1a2.69,2.69,0,0,0,1.91.77c1.11,0,1.88-.64,1.88-1.56A1.55,1.55,0,0,0,37,15.46l-.85-.36c-.46-.19-1-.44-1-1.09s.48-1,1.22-1a2,2,0,0,1,1.33.51l.25-.31a2.34,2.34,0,0,0-1.58-.62,1.56,1.56,0,0,0-1.74,1.45,1.51,1.51,0,0,0,1.12,1.41l.86.37c.56.25,1.05.47,1.05,1.15s-.53,1.08-1.36,1.08a2.4,2.4,0,0,1-1.62-.68Z"/><path class="cls-1" d="M40.85,13.23H39.06v-.62h4.32v.62H41.59V18.5h-.74Z"/><path class="cls-2" d="M41.59,18.62h-.74a.12.12,0,0,1-.12-.12V13.35H39.06a.11.11,0,0,1-.11-.12v-.62a.11.11,0,0,1,.11-.12h4.32a.12.12,0,0,1,.12.12v.62a.12.12,0,0,1-.12.12H41.71V18.5A.12.12,0,0,1,41.59,18.62ZM41,18.39h.52V13.23a.11.11,0,0,1,.11-.11h1.67v-.4H39.18v.4h1.67a.11.11,0,0,1,.11.11Z"/><path class="cls-1" d="M44.28,15.53c0-1.89,1-3,2.51-3s2.52,1.15,2.52,3-1,3.08-2.52,3.08S44.28,17.42,44.28,15.53Zm4.27,0c0-1.48-.7-2.38-1.76-2.38S45,14.05,45,15.53,45.73,18,46.79,18,48.55,17,48.55,15.53Z"/><path class="cls-2" d="M46.79,18.72c-1.57,0-2.63-1.28-2.63-3.19s1-3.15,2.63-3.15,2.63,1.24,2.63,3.15S48.37,18.72,46.79,18.72Zm0-6.11c-1.46,0-2.4,1.15-2.4,2.92s.94,3,2.4,3,2.4-1.16,2.4-3S48.25,12.61,46.79,12.61Zm0,5.46c-1.13,0-1.87-1-1.87-2.54s.74-2.5,1.87-2.5,1.87,1,1.87,2.5S47.91,18.07,46.79,18.07Zm0-4.81c-1,0-1.63.87-1.63,2.27s.64,2.31,1.63,2.31,1.64-.91,1.64-2.31S47.8,13.26,46.79,13.26Z"/><path class="cls-1" d="M50.64,15.56c0-1.91,1.12-3.07,2.61-3.07a2.18,2.18,0,0,1,1.62.74l-.4.48a1.62,1.62,0,0,0-1.21-.56c-1.12,0-1.86.91-1.86,2.38S52.11,18,53.24,18a1.76,1.76,0,0,0,1.36-.65l.41.46a2.26,2.26,0,0,1-1.81.85C51.74,18.61,50.64,17.47,50.64,15.56Z"/><path class="cls-2" d="M53.2,18.72c-1.6,0-2.68-1.27-2.68-3.16s1.1-3.18,2.73-3.18a2.33,2.33,0,0,1,1.71.77.14.14,0,0,1,0,.15l-.4.48s-.06.05-.09,0a.12.12,0,0,1-.09,0,1.49,1.49,0,0,0-1.12-.53c-1.06,0-1.74.89-1.74,2.27s.66,2.31,1.72,2.31a1.69,1.69,0,0,0,1.28-.62.09.09,0,0,1,.08,0,.11.11,0,0,1,.09,0l.41.47a.11.11,0,0,1,0,.15A2.42,2.42,0,0,1,53.2,18.72Zm0-6.11c-1.49,0-2.5,1.18-2.5,3s1,2.93,2.45,2.93a2.17,2.17,0,0,0,1.66-.73l-.26-.29a1.85,1.85,0,0,1-1.36.6c-1.19,0-2-1-2-2.54s.77-2.5,2-2.5a1.68,1.68,0,0,1,1.2.51l.26-.31A2.08,2.08,0,0,0,53.25,12.61Z"/><path class="cls-1" d="M56.5,12.61h.75v3h0l2.46-3h.83l-1.84,2.24,2.13,3.65H60l-1.76-3.07-1,1.21V18.5H56.5Z"/><path class="cls-2" d="M60.86,18.62H60a.13.13,0,0,1-.1-.06l-1.68-2.93-.88,1V18.5a.12.12,0,0,1-.12.12H56.5a.12.12,0,0,1-.11-.12V12.61a.11.11,0,0,1,.11-.12h.75a.12.12,0,0,1,.12.12v2.67l2.28-2.75a.13.13,0,0,1,.09,0h.83a.12.12,0,0,1,.11.07.11.11,0,0,1,0,.12l-1.79,2.18L61,18.44a.13.13,0,0,1,0,.12A.13.13,0,0,1,60.86,18.62Zm-.77-.23h.57l-2-3.48a.12.12,0,0,1,0-.13l1.69-2.06h-.54l-2.43,2.92a.13.13,0,0,1-.22-.07V12.72h-.52v5.67h.52V16.64a.19.19,0,0,1,0-.08l1-1.2a.16.16,0,0,1,.1,0,.18.18,0,0,1,.09.06Z"/><path class="cls-1" d="M62.06,18.05a.53.53,0,1,1,1.06,0,.53.53,0,1,1-1.06,0Zm.18-4.74,0-.83H63l0,.83-.1,3.41h-.5Z"/><path class="cls-2" d="M62.59,18.72a.65.65,0,0,1-.65-.67.66.66,0,0,1,.65-.69.66.66,0,0,1,.64.69A.65.65,0,0,1,62.59,18.72Zm0-1.12a.43.43,0,0,0-.42.45.42.42,0,0,0,.42.44.41.41,0,0,0,.41-.44A.42.42,0,0,0,62.59,17.6Zm.25-.76h-.5a.11.11,0,0,1-.12-.11l-.09-3.41h0l0-.84a.11.11,0,0,1,0-.08.18.18,0,0,1,.09,0H63a.15.15,0,0,1,.09,0,.11.11,0,0,1,0,.08L63,16.73A.11.11,0,0,1,62.84,16.84Zm-.39-.23h.28l.12-4h-.52Z"/></svg>