<svg xmlns="http://www.w3.org/2000/svg" viewBox="0 0 200 200"><defs><style>.cls-1{fill:none;}.cls-2{fill:#fff;stroke:#fff;stroke-miterlimit:10;stroke-width:0.25px;fill-rule:evenodd;}</style></defs><title>Artboard 51 copy 9</title><g id="Layer_5" data-name="Layer 5"><rect class="cls-1" x="0.26" y="4.86" width="199.48" height="199.48"/><g id="_0gVXng" data-name="0gVXng"><path class="cls-2" d="M157.82,110.36c-3.9,4.3-7.76,8.29-11.35,12.52-9.06,10.69-16.63,22.26-21,35.7a62.91,62.91,0,0,0-3,16.65c-.17,3.85-3.19,6.54-7.46,6.55-10.81,0-21.64,0-32.46,0H26c-5.37,0-10.42-3-12-7.61A41.22,41.22,0,0,1,12,164.81,34.73,34.73,0,0,1,38.22,128a33.48,33.48,0,0,1,19.17.71c8.32,2.76,14.78.28,20.27-6.14,7.68-9,15.48-17.84,23.23-26.75q28-32.15,56-64.31c3.77-4.34,9.59-3.87,12.4,1.11,7,12.34,12.69,25.2,16.07,39a69.72,69.72,0,0,1,2.3,19.07c-.3,9.27-2.73,17.73-9.53,24.51a3.36,3.36,0,0,0-.59,2.22q0,28.16,0,56.32a7.83,7.83,0,0,1-5.51,7.69,7.49,7.49,0,0,1-9.54-7.2c0-10.24,0-20.47,0-30.71,0-8.36,0-16.72.06-25.08a6.7,6.7,0,0,0-1.89-5.21C159.64,112.29,158.73,111.3,157.82,110.36Zm3.58-61.49c-.73.79-1.17,1.26-1.59,1.74q-35.74,41.08-71.52,82.14c-8.1,9.27-18.24,13.32-30.6,10.8-3.36-.7-6.67-2-10-2.12-14.89-.74-23.54,13.65-20.15,25.67h79.4c.88,0,1.67.15,1.86-1.19a76.49,76.49,0,0,1,5.42-18.76c6.81-16.23,17.07-30.11,29.24-42.69a14.4,14.4,0,0,0,2.42-3.38c2.33-4.47,7.07-7.36,11.86-6.94A15.78,15.78,0,0,1,166.16,98c1.45,1.16,2.78,2.46,4.21,3.73,3-5.52,3-11.4,2.41-17.31-.93-9.07-3.79-17.64-7.22-26C164.29,55.26,162.87,52.2,161.4,48.87Z"/></g></g></svg>