<svg xmlns="http://www.w3.org/2000/svg" viewBox="0 0 200 200"><defs><style>.cls-1{fill:#fff;stroke:#fff;stroke-miterlimit:10;stroke-width:0.5px;fill-rule:evenodd;}</style></defs><title>Artboard 51 copy 13</title><g id="Layer_5" data-name="Layer 5"><g id="_7ud41E" data-name="7ud41E"><path class="cls-1" d="M165.23,92.2c0,.73-.09,1.34-.09,2,0,29.38,0,58.77.12,88.15,0,4.92-1,7-7,7-32.21-.2-64.44-.1-96.65-.1q-10.12,0-20.24,0c-3.74,0-5.13-1.41-5.13-5.16q0-44.35,0-88.71V91.82c-1.48.1-2.76.22-4.07.27a10.11,10.11,0,0,1-8.27-3.46C18.83,82.81,13.71,77,8.86,70.94a26.82,26.82,0,0,1-3.59-7,5.13,5.13,0,0,1,1.28-5.43c9.52-10.76,19-21.55,28.61-32.26,4-4.44,9.45-6.45,15-7.8,7.64-1.84,15.31-3.75,23.06-4.82A43.59,43.59,0,0,1,87,14.38a83.8,83.8,0,0,0,28.57.06A51.79,51.79,0,0,1,138,15.61c5.5,1.56,11.13,2.68,16.61,4.3a31.31,31.31,0,0,1,14.88,9.91c8.31,9.57,16.78,19,25.19,28.48,2.86,3.24,3.19,5.25.51,8.7-4.68,6-9.62,11.82-14.5,17.69-1.31,1.6-2.72,3.15-4.14,4.66a9.72,9.72,0,0,1-10,2.91,6.19,6.19,0,0,0-.75-.13A2.88,2.88,0,0,0,165.23,92.2ZM71,22.27,48.85,27.13c1,6.6,2.31,12.65,2.91,18.76a78,78,0,0,1-6.58,40.35,7.67,7.67,0,0,0-.71,3.06q-.06,44.92,0,89.84c0,.61.07,1.2.11,1.82H156.91c0-.46.08-.82.08-1.19q0-45.48,0-91a4.79,4.79,0,0,0-.43-2c-7.23-15.26-8.73-31.26-6.1-47.76.6-3.7,1.5-7.36,2.28-11.07a2,2,0,0,0-.49-.26Q142.1,25.12,132,22.52c-1.22-.32-1.48.43-1.77,1.34A34.68,34.68,0,0,1,120,39.94c-7.45,6.51-16,9.58-25.84,7.09C83.78,44.42,77.06,37.52,73,27.89,72.2,26.1,71.66,24.23,71,22.27ZM41.2,31.64,12.14,64.47c.66.5,1.2.84,1.67,1.26a115.33,115.33,0,0,1,14.88,16c3,3.93,8.39,3.06,10.24-1.48,5.39-13.19,6.31-26.83,3.91-40.76C42.42,37,41.81,34.53,41.2,31.64Zm119.44.5-.88.24c-.73,5-1.67,10-2.16,15.06a70.52,70.52,0,0,0,4.34,31.88c1.06,2.83,2.61,4.39,5.62,5a3.83,3.83,0,0,0,4.23-1.45c3.66-4.41,7.42-8.73,11.1-13.13,1.78-2.11,3.46-4.3,5.24-6.52Zm-38.52-10.2a110,110,0,0,1-42.71-.38c2.42,11.29,11,18.45,21.43,18.2C111,39.5,120.56,31.64,122.11,21.93Z"/></g></g></svg>