<svg xmlns="http://www.w3.org/2000/svg" viewBox="0 0 200 200"><defs><style>.cls-1{fill:#fff;}</style></defs><title>Artboard 51 copy 12</title><g id="Layer_5" data-name="Layer 5"><g id="EefPc5"><path class="cls-1" d="M142.62,32.72A47.79,47.79,0,0,1,189,68.91c3.51,14.49.59,27.77-8.08,39.79a75.12,75.12,0,0,1-7,8.11c-5.63,5.82-11.38,11.51-17.08,17.26l-18.33,18.52q-9,9.13-18.06,18.26c-2.67,2.7-5.23,5.51-8.42,7.64A19.42,19.42,0,0,1,87.51,177c-2.93-2.5-5.61-5.3-8.34-8-3.07-3.05-6.07-6.17-9.12-9.24l-23.73-24c-6.85-6.93-13.87-13.7-20.5-20.84-6-6.49-11.21-13.66-13.3-22.49-3.5-14.84-.88-28.56,8.31-40.8A45.94,45.94,0,0,1,49,33.76a46.79,46.79,0,0,1,37.22,7.57,5.95,5.95,0,1,1-6.58,9.9,38,38,0,0,0-12.88-5.7A35.8,35.8,0,0,0,24.36,70.92a33.57,33.57,0,0,0,1.27,23,45,45,0,0,0,6.42,9.93,58.22,58.22,0,0,0,4.06,4.63q13.71,13.9,27.48,27.73l19,19.18c3.66,3.69,7.3,7.41,11,11.07a17.44,17.44,0,0,0,3,2.36c3.14,2,6.11,1.92,9-.38a72.37,72.37,0,0,0,6-5.58c4.91-4.91,9.76-9.88,14.65-14.81l26-26.2c5.08-5.13,10.23-10.21,15.21-15.43,5.86-6.14,9.85-13.32,10.82-21.85a34.7,34.7,0,0,0-9.5-28.62,34,34,0,0,0-19.18-10.62c-12.18-2.22-22.95.87-31.87,9.47-8.16,7.86-16,16-24.05,24a6,6,0,0,1-9.16-7.65,12.06,12.06,0,0,1,1-1c7.31-7.31,14.67-14.58,21.91-22A53.21,53.21,0,0,1,118.92,39a46.81,46.81,0,0,1,22.67-6.28Z"/></g></g></svg>