<svg id="圖層_1" data-name="圖層 1" xmlns="http://www.w3.org/2000/svg" viewBox="0 0 650 174"><defs><style>.cls-1{fill:#ee5984;opacity:0.1;isolation:isolate;}.cls-2{fill:#ffe7ca;}.cls-3{fill:#fff;}.cls-4{fill:#fff3d7;}.cls-5{fill:#00678d;}.cls-6{fill:#0076a1;}.cls-7{fill:#717071;}.cls-8{fill:#dbdcdc;}.cls-9{fill:#148b86;}.cls-10{fill:#ccc;}.cls-11{fill:#514e4e;}.cls-12{fill:#dd567d;}.cls-13{fill:#babbbb;}.cls-14{fill:#1c5572;stroke:#fff;stroke-miterlimit:10;stroke-width:2px;}.cls-15{fill:#007bc6;}.cls-16{fill:#f9c75f;}</style></defs><title>contact_us</title><rect class="cls-1" width="650" height="174.43"/><path d="M300.89,121.75a24.37,24.37,0,0,1-8.87,1.9A19.71,19.71,0,0,1,276.61,91.5a19.14,19.14,0,0,1,2.7-2.7,19.74,19.74,0,0,1,12.8-4.54,24.77,24.77,0,0,1,8.78,1.89v11.7a11.57,11.57,0,0,0-2.81-2.55,10.73,10.73,0,0,0-5.63-1.58,10.13,10.13,0,0,0-6.61,2.3,10.63,10.63,0,0,0-.88,15,10.44,10.44,0,0,0,.88.88,10.19,10.19,0,0,0,6.61,2.29,10.73,10.73,0,0,0,5.63-1.58,11.57,11.57,0,0,0,2.81-2.55Z"/><path d="M336,109.86a13,13,0,0,1-3.5,9.11q-4.25,4.62-11.86,4.62T308.71,119a13.24,13.24,0,0,1-3.5-9.33,12.71,12.71,0,0,1,3.52-8.84q4.27-4.65,12.14-4.65,7.25,0,11.56,4.65A12.87,12.87,0,0,1,336,109.86Zm-9.42,0a5.92,5.92,0,0,0-5.84-6h-.1a5.65,5.65,0,0,0-4.55,2.1,5.92,5.92,0,0,0,0,7.72,5.65,5.65,0,0,0,4.55,2.1,5.89,5.89,0,0,0,5.94-5.84v-.08Z"/><path d="M368.05,122.63H359V109.71c0-2.25-.26-3.75-.77-4.48a3.81,3.81,0,0,0-3.36-1.62,4.7,4.7,0,0,0-3.45,1.39,5.39,5.39,0,0,0-1.26,4v13.68H341.1V97.08h9.06v3.22a11.77,11.77,0,0,1,2.89-2.56,10.84,10.84,0,0,1,5.36-1.21,9.93,9.93,0,0,1,6.7,2.23q2.94,2.53,2.94,7.6Z"/><path d="M389.47,104.49h-5.15v18.14h-9.05V104.49h-3V97.08h3V89.4h9.05v7.68h5.15Z"/><path d="M421.59,122.63h-9v-2.84a9.41,9.41,0,0,1-2.62,2.37,10.58,10.58,0,0,1-5.25,1.29,12.4,12.4,0,0,1-8.46-3.27,14.28,14.28,0,0,1-.48-20.2l.59-.59a12.34,12.34,0,0,1,8.27-3.11,11.87,11.87,0,0,1,5.11,1.13,10.25,10.25,0,0,1,2.84,2.18V97.08h9Zm-8.78-12.77a5.56,5.56,0,0,0-1.7-4.1,5.66,5.66,0,0,0-4.11-1.69,5.52,5.52,0,0,0-4.41,2,5.75,5.75,0,0,0,0,7.51,5.48,5.48,0,0,0,4.41,2,5.72,5.72,0,0,0,5.81-5.72Z"/><path d="M447,122.08a13.09,13.09,0,0,1-5.89,1.4,14,14,0,0,1-11.1-4.73A13.56,13.56,0,0,1,430,101a13.94,13.94,0,0,1,11.1-4.74,12.63,12.63,0,0,1,5.9,1.46v7.68a8.16,8.16,0,0,0-4.67-1.68,6,6,0,0,0-4.45,1.73,6.47,6.47,0,0,0,0,8.86,6,6,0,0,0,4.45,1.74A8.29,8.29,0,0,0,447,114.4Z"/><path d="M467.42,104.49h-5.14v18.14h-9.06V104.49h-3V97.08h3V89.4h9.06v7.68h5.14Z"/><path d="M520,106.72a26.1,26.1,0,0,1-.55,5.78,13.45,13.45,0,0,1-4.08,6.77q-4.56,4.32-12.22,4.32T491,119.19a12,12,0,0,1-3.17-5.81,29.76,29.76,0,0,1-.6-6.66V85.05H497v20.33c0,1.63,0,2.85.08,3.66a5.91,5.91,0,0,0,3.5,5.33,6.63,6.63,0,0,0,2.91.63,6.23,6.23,0,0,0,5.4-2.5q1.35-1.84,1.35-7.12V85.05H520Z"/><path d="M547.8,114a8.45,8.45,0,0,1-2.92,6.66q-3.27,2.93-9.22,2.92a19.79,19.79,0,0,1-10.21-2.94l3.28-6.39a13.25,13.25,0,0,0,7.19,2.53c1.88,0,2.82-.67,2.82-2a1.71,1.71,0,0,0-1-1.57,13.06,13.06,0,0,0-2.86-.85,28.07,28.07,0,0,1-3.27-.86,6.19,6.19,0,0,1-3.7-3.35,7.49,7.49,0,0,1-.53-3,8.42,8.42,0,0,1,2.29-5.85q2.94-3.21,9.08-3.22A21.64,21.64,0,0,1,547,97.74l-3,5.92a10.46,10.46,0,0,0-4.82-1.32c-1.81,0-2.72.63-2.72,1.89,0,.57.37,1,1.1,1.39a17.24,17.24,0,0,0,2.91.74,10.48,10.48,0,0,1,5.22,2.37A7,7,0,0,1,547.8,114Z"/><path class="cls-2" d="M211.26,134.5a8,8,0,0,0-.5-7.55c-1.91-2.68-5.84-3.08-8.69-1.72-1.59.77-4.1,2.9-4.13,4.81l1.1,18c3,3.66,9.6,5.06,11.9-.26,1.95-4.48-.13-9.46-4.87-10.62C208.24,136.74,210.13,136.69,211.26,134.5Z"/><rect class="cls-3" x="79.89" y="78.98" width="60.01" height="0.04"/><path class="cls-4" d="M110.52,100.76c-5.63,1.49-11.29,3-16.93,4.46-2.89.73-3.42.55-4.92,3.11a113,113,0,0,0-8.43,18.83l-.3.07v47.22h60V92C130.35,95.52,120.34,98.15,110.52,100.76Z"/><path class="cls-2" d="M201.5,109.1c-5.31-.39-11.79-3.43-16.84-6.28a45.54,45.54,0,0,1-13-11.13c-2-2.56-6.54-8.66-6.23-12.5V79h-1.12a20.56,20.56,0,0,1-2.73,2,102.64,102.64,0,0,1-21.69,11v82.48H201.5Z"/><path class="cls-5" d="M165.42,79.19c-.31,3.84,4.2,9.94,6.23,12.5a45.54,45.54,0,0,0,13,11.13c5,2.85,11.53,5.89,16.84,6.28V79H165.41Z"/><path class="cls-6" d="M79.89,79v48.2l.3-.07a113,113,0,0,1,8.43-18.83c1.5-2.56,2-2.38,4.92-3.11,5.64-1.42,11.3-3,16.93-4.46,9.82-2.61,19.83-5.24,29.37-8.81V79Z"/><path class="cls-5" d="M164.31,79.05H139.89V92a102.27,102.27,0,0,0,21.69-10.9A20.27,20.27,0,0,0,164.31,79.05Z"/><polygon class="cls-7" points="101.92 167.41 84.06 167.41 75.45 153.52 77.33 152.35 85.29 165.2 101.92 165.2 101.92 167.41"/><polygon class="cls-8" points="101.92 165.2 99.56 165.2 97.31 167.41 101.92 167.41 101.92 165.2"/><path class="cls-8" d="M75.81,154.06l3,.73-1.33-2.14A2.91,2.91,0,0,1,75.81,154.06Z"/><path class="cls-9" d="M108.89,166.46a2.64,2.64,0,0,1-2.63,2.65h-4.41a2.64,2.64,0,0,1-2.64-2.64h0a2.64,2.64,0,0,1,2.64-2.64h4.4A2.64,2.64,0,0,1,108.89,166.46Z"/><polygon class="cls-8" points="77.33 152.35 75.45 153.52 75.79 154.06 78.84 154.79 77.33 152.35"/><polygon class="cls-10" points="78.84 154.79 78.84 154.79 77.51 152.65 77.51 152.65 78.84 154.79"/><path class="cls-7" d="M69.49,122.2a5.9,5.9,0,0,0-6.17,5.6v18a5.91,5.91,0,0,0,6.17,5.61H76.2V122.2Z"/><path class="cls-8" d="M72.34,122.2l-3.73,29.11a6.51,6.51,0,0,0,.88.06H76.2V122.2Z"/><path class="cls-11" d="M80,150.86a4.2,4.2,0,0,1-4.32,4.06h0a4.2,4.2,0,0,1-4.32-4.06V122.71a4.19,4.19,0,0,1,4.32-4.06h0A4.19,4.19,0,0,1,80,122.71h0Z"/><path class="cls-3" d="M204.82,71.25c0-23.88-38.77-31.75-59.56-33.31a1.8,1.8,0,0,0-1.65-2.49h-5.72a1.79,1.79,0,0,0-1.79,1.79,1.61,1.61,0,0,0,.06.44c-21.12.56-61.63,9.15-61.63,33.57a8.54,8.54,0,0,0,.13,1.43H64.15a5.37,5.37,0,1,0,0,10.74h135.3a5.36,5.36,0,0,0,4.46-8.35A8.73,8.73,0,0,0,204.82,71.25Z"/><path class="cls-12" d="M142.45,71.34a2.3,2.3,0,0,1-1.52-.47,2.76,2.76,0,0,1-.83-1.51l-2.5-9.57h-.4l-2.36,9.36a3.1,3.1,0,0,1-.92,1.64,2.5,2.5,0,0,1-1.64.55,2.14,2.14,0,0,1-1.55-.52,3.73,3.73,0,0,1-.86-1.84l-2.78-12.12a1.22,1.22,0,0,1,0-.27v-.52a1.37,1.37,0,0,1,.47-1.1,1.76,1.76,0,0,1,1.26-.42,1.53,1.53,0,0,1,1.08.38,1.91,1.91,0,0,1,.56,1.12l2,10.66h.41L135.6,56a2,2,0,0,1,.67-1.1,2,2,0,0,1,1.25-.36,1.89,1.89,0,0,1,1.21.37,2,2,0,0,1,.66,1.13l2.74,10.65h.4l2-10.4a2.58,2.58,0,0,1,.59-1.35,1.53,1.53,0,0,1,1.14-.39,1.68,1.68,0,0,1,1.21.44,1.5,1.5,0,0,1,.47,1.13,4.34,4.34,0,0,1,0,.51,5,5,0,0,1-.11.56l-3,11.81a3.89,3.89,0,0,1-.87,1.91A2.28,2.28,0,0,1,142.45,71.34Z"/><path class="cls-12" d="M154.22,71.51a5.76,5.76,0,0,1-4.37-1.81,7.1,7.1,0,0,1,0-9.26,6.17,6.17,0,0,1,8.73,0,7.15,7.15,0,0,1,0,9.28A5.7,5.7,0,0,1,154.22,71.51Zm0-9.8a2.39,2.39,0,0,0-1.93.94,3.73,3.73,0,0,0-.73,2.37,3.81,3.81,0,0,0,.73,2.42,2.45,2.45,0,0,0,3.44.43,2.5,2.5,0,0,0,.43-.43,3.82,3.82,0,0,0,.72-2.42,3.74,3.74,0,0,0-.74-2.37A2.37,2.37,0,0,0,154.22,61.71Z"/><path class="cls-12" d="M167.9,71.51a5.76,5.76,0,0,1-4.37-1.81,7.1,7.1,0,0,1,0-9.26,6.17,6.17,0,0,1,8.73,0,7.17,7.17,0,0,1,0,9.28A5.77,5.77,0,0,1,167.9,71.51Zm0-9.8a2.32,2.32,0,0,0-1.93.94,3.67,3.67,0,0,0-.73,2.37,3.8,3.8,0,0,0,.72,2.42,2.45,2.45,0,0,0,3.44.43,2.5,2.5,0,0,0,.43-.43,3.81,3.81,0,0,0,.73-2.42,3.69,3.69,0,0,0-.75-2.37A2.35,2.35,0,0,0,167.9,61.71Z"/><path class="cls-12" d="M181.57,71.51a5.76,5.76,0,0,1-4.37-1.81,7.1,7.1,0,0,1,0-9.26,6.17,6.17,0,0,1,8.73,0,7.15,7.15,0,0,1,0,9.28A5.7,5.7,0,0,1,181.57,71.51Zm0-9.8a2.39,2.39,0,0,0-1.93.94,3.73,3.73,0,0,0-.73,2.37,3.81,3.81,0,0,0,.73,2.42,2.35,2.35,0,0,0,1.93,1,2.38,2.38,0,0,0,1.94-1,3.82,3.82,0,0,0,.72-2.42,3.74,3.74,0,0,0-.74-2.37A2.37,2.37,0,0,0,181.57,61.71Z"/><path class="cls-13" d="M109.09,71.34a1.42,1.42,0,0,1-1.27-.58,3.31,3.31,0,0,1-.44-1.92V64.37H100v4.47a3.31,3.31,0,0,1-.44,1.92,1.42,1.42,0,0,1-1.27.58A1.47,1.47,0,0,1,97,70.76a3.38,3.38,0,0,1-.43-1.92V57.08A3.43,3.43,0,0,1,97,55.15a1.45,1.45,0,0,1,1.27-.58,1.42,1.42,0,0,1,1.27.58,3.44,3.44,0,0,1,.44,1.93v4.16h7.43V57.08a3.44,3.44,0,0,1,.44-1.93,1.42,1.42,0,0,1,1.27-.58,1.45,1.45,0,0,1,1.27.58,3.43,3.43,0,0,1,.43,1.93V68.84a3.38,3.38,0,0,1-.43,1.92A1.43,1.43,0,0,1,109.09,71.34Z"/><path class="cls-13" d="M118.66,71.42a5,5,0,0,1-3.85-1.8,6.74,6.74,0,0,1-1.58-4.55,6.65,6.65,0,0,1,1.63-4.54,5.08,5.08,0,0,1,3.94-1.83,3.76,3.76,0,0,1,1.59.31,3.14,3.14,0,0,1,1.22.94l.2.23.14-.26a2.25,2.25,0,0,1,.71-.82,1.62,1.62,0,0,1,.88-.26,1.34,1.34,0,0,1,1.21.57,3.37,3.37,0,0,1,.42,1.92V68.8a3.47,3.47,0,0,1-.42,1.92,1.34,1.34,0,0,1-1.21.57,1.51,1.51,0,0,1-.92-.27,2.17,2.17,0,0,1-.66-.89l-.14-.31-.21.26a3.6,3.6,0,0,1-1.29,1A4,4,0,0,1,118.66,71.42Zm.61-9.58a2.36,2.36,0,0,0-1.89.9,3.47,3.47,0,0,0-.72,2.28,3.6,3.6,0,0,0,.71,2.33,2.35,2.35,0,0,0,1.9.92,2.26,2.26,0,0,0,1.88-.93,3.71,3.71,0,0,0,.71-2.32,3.5,3.5,0,0,0-.72-2.27A2.32,2.32,0,0,0,119.27,61.84Z"/><path class="cls-14" d="M171.29,154.05a3.23,3.23,0,0,1-2.37-.94,8.27,8.27,0,0,1-1.85-4.41L166,142.58l-.59.27a60.49,60.49,0,0,1-50,0l-.59-.27-1.08,6.12a8.24,8.24,0,0,1-1.85,4.41,3.19,3.19,0,0,1-2.37.94,4.7,4.7,0,0,1-.92-.09,3.46,3.46,0,0,1-2.79-1.92,8.32,8.32,0,0,1-.24-4.79l2.78-15.73a15.39,15.39,0,0,1,.38-1.63,6.44,6.44,0,0,1,1.48-2.8,3.16,3.16,0,0,1,2.38-1,4.56,4.56,0,0,1,.9.08,3.47,3.47,0,0,1,2.8,1.94,8.27,8.27,0,0,1,.23,4.8l-.41,2.32.33.17a53.46,53.46,0,0,0,47.92,0l.34-.17-.42-2.32a8.36,8.36,0,0,1,.24-4.8,3.45,3.45,0,0,1,2.79-1.94,4.6,4.6,0,0,1,.91-.08,3.2,3.2,0,0,1,2.38,1,6.52,6.52,0,0,1,1.47,2.8,12.86,12.86,0,0,1,.38,1.63l2.78,15.74A8.23,8.23,0,0,1,175,152a3.49,3.49,0,0,1-2.8,1.92A4.64,4.64,0,0,1,171.29,154.05Z"/><path class="cls-14" d="M124.67,126.35a4.7,4.7,0,0,1-3.91-1.92,8.39,8.39,0,0,1-1.55-5.28,8,8,0,0,1,1.56-5.15,4.91,4.91,0,0,1,6.89-.89,4.69,4.69,0,0,1,.89.89,8,8,0,0,1,1.59,5.14,8.4,8.4,0,0,1-1.55,5.27A4.7,4.7,0,0,1,124.67,126.35Z"/><path class="cls-14" d="M156.15,126.35a4.72,4.72,0,0,1-3.92-1.92,8.44,8.44,0,0,1-1.54-5.28,8,8,0,0,1,1.56-5.15,4.69,4.69,0,0,1,3.9-1.91A4.78,4.78,0,0,1,160,114a8,8,0,0,1,1.58,5.14,8.39,8.39,0,0,1-1.54,5.27A4.7,4.7,0,0,1,156.15,126.35Z"/><path class="cls-2" d="M285.88,125.29c-2.25-.33-4.4,1-6.31,2.2a20.29,20.29,0,0,0,6.47-6.27c.92-1.42,1.67-3.2,1-4.74-1.14-2.56-5.18-2.07-7.1,0s-2.68,4.91-4.36,7.16a19.09,19.09,0,0,0,1-10.2c-.36-2-1.73-4.39-3.73-4-1.6.3-2.3,2.19-2.56,3.8a27.14,27.14,0,0,0,.23,9.8,14,14,0,0,0-3.89-7.51c-1.43-1.41-4.21-2.3-5.13-.52a3.43,3.43,0,0,0,.14,2.72,27,27,0,0,0,5,8.52,8.14,8.14,0,0,0-3.72-2.83c-1.53-.41-3.5.47-3.61,2a3.84,3.84,0,0,0,1.59,2.85,25.15,25.15,0,0,0,6.32,4.23c-1.53,11.18-4.78,19.88-13.36,27-1.41,1.18-22,11.16-33.21,14.89h16.82c8.42-3.63,17-7.84,23.45-14.24a39.43,39.43,0,0,0,8.1-12.43c.61-1.37,4.42-14.53,4.72-14.55A79.89,79.89,0,0,0,286,131.38a4.59,4.59,0,0,0,2.52-1.16C290,128.57,288.14,125.63,285.88,125.29Z"/><path class="cls-15" d="M599.4,54h-.06a18.08,18.08,0,0,0-4.4-11c-6.16-7.49-18.14-12.57-32-12.57-20.1,0-36.39,10.75-36.39,24s16.29,24,36.39,24a52.71,52.71,0,0,0,14.51-2A89.75,89.75,0,0,1,564.84,87c14.83-4.51,23.29-10.86,28.14-16.78,6-7.37,6.43-14.08,6.43-15.83C599.41,54.13,599.4,54,599.4,54Z"/><path class="cls-3" d="M548,51.14a3.5,3.5,0,1,0,2.51,1A3.37,3.37,0,0,0,548,51.14Z"/><path class="cls-3" d="M563,51.14a3.42,3.42,0,0,0-2.49,1,3.56,3.56,0,0,0,0,5,3.5,3.5,0,0,0,2.49,1,3.42,3.42,0,0,0,3.49-3.49,3.5,3.5,0,0,0-1-2.49A3.38,3.38,0,0,0,563,51.14Z"/><path class="cls-3" d="M580.51,52.16a3.52,3.52,0,0,0-6,2.49,3.42,3.42,0,0,0,1,2.49,3.5,3.5,0,0,0,2.49,1,3.54,3.54,0,0,0,2.51-6Z"/><path class="cls-16" d="M473.68,30.39c-10.21,0-19.06,3.75-23.61,9.28a13.42,13.42,0,0,0-3.25,8.16h0v.32c0,1.29.3,6.25,4.74,11.69,3.58,4.37,9.83,9.06,20.78,12.4A67.94,67.94,0,0,1,463,64.4a38.9,38.9,0,0,0,10.72,1.48c14.84,0,26.87-7.95,26.87-17.75S488.52,30.39,473.68,30.39Z"/><path class="cls-3" d="M484.76,45.71a2.6,2.6,0,1,1-1.84,4.43,2.53,2.53,0,0,1-.75-1.84,2.59,2.59,0,0,1,2.57-2.59Z"/><path class="cls-3" d="M473.66,45.71a2.5,2.5,0,0,1,1.84.76,2.6,2.6,0,0,1-3.67,3.67,2.5,2.5,0,0,1-.76-1.84,2.59,2.59,0,0,1,2.59-2.59Z"/><path class="cls-3" d="M460.73,46.47a2.6,2.6,0,0,1,3.67,0,2.48,2.48,0,0,1,.76,1.83,2.53,2.53,0,0,1-.75,1.84,2.61,2.61,0,0,1-3.68,0A2.49,2.49,0,0,1,460,48.3,2.56,2.56,0,0,1,460.73,46.47Z"/></svg>