<?xml version="1.0" encoding="utf-8"?>
<!-- Generator: Adobe Illustrator 22.0.1, SVG Export Plug-In . SVG Version: 6.00 Build 0)  -->
<svg version="1.1" xmlns="http://www.w3.org/2000/svg" xmlns:xlink="http://www.w3.org/1999/xlink" x="0px" y="0px"
	 viewBox="0 0 150 150" style="enable-background:new 0 0 150 150;" xml:space="preserve">
<style type="text/css">
	.st0{fill:none;}
	.st1{fill:#FFFFFF;}
	.st2{fill:#6D6E71;}
	.st3{clip-path:url(#SVGID_2_);}
	.st4{fill:#3CC2D1;}
	.st5{fill:#BCBEC0;}
	.st6{fill:#F4868D;}
	.st7{fill:#BA3B67;}
	.st8{fill:#F1EA3D;}
	.st9{fill:#ECDB2C;}
	.st10{opacity:0.5;fill:#EEE2E2;}
	.st11{fill:#F3A1C2;}
	.st12{fill:#976F35;}
	.st13{fill:#58595B;}
	.st14{fill:#C5C7C6;}
	.st15{fill:#73B0A9;}
	.st16{fill:#23AFB4;}
	.st17{fill:#F47A49;}
	.st18{clip-path:url(#SVGID_12_);}
	.st19{fill:#DADDDD;}
	.st20{fill:#D5D7D7;}
	.st21{fill:#3A4959;}
	.st22{fill:#393C3F;}
	.st23{fill:#ECECEB;}
	.st24{fill:#4A4E51;}
	.st25{clip-path:url(#SVGID_18_);}
	.st26{clip-path:url(#SVGID_22_);fill:#F1F0EF;}
	.st27{fill:#9C9B91;}
	.st28{fill:#EE2A7B;}
	.st29{fill:none;stroke:#9C9B91;stroke-width:0.25;stroke-miterlimit:10;}
	.st30{fill:#77CEDA;}
	.st31{clip-path:url(#SVGID_24_);}
	.st32{clip-path:url(#SVGID_28_);fill:#F1F0EF;}
	.st33{clip-path:url(#SVGID_30_);}
	.st34{clip-path:url(#SVGID_34_);fill:#F1F0EF;}
	.st35{clip-path:url(#SVGID_36_);}
	.st36{clip-path:url(#SVGID_40_);fill:#F1F0EF;}
	.st37{clip-path:url(#SVGID_42_);}
	.st38{clip-path:url(#SVGID_46_);fill:#F1F0EF;}
	.st39{clip-path:url(#SVGID_48_);}
	.st40{clip-path:url(#SVGID_52_);fill:#F1F0EF;}
	.st41{clip-path:url(#SVGID_54_);}
	.st42{clip-path:url(#SVGID_58_);fill:#F1F0EF;}
	.st43{clip-path:url(#SVGID_60_);}
	.st44{clip-path:url(#SVGID_64_);fill:#F1F0EF;}
	.st45{display:none;}
	.st46{display:inline;fill:#C5C7C6;}
	.st47{fill:#F08587;}
	.st48{fill:#29A3D8;}
	.st49{clip-path:url(#SVGID_66_);fill:#F8BCCB;}
	.st50{clip-path:url(#SVGID_68_);fill:#9EC5C5;}
	.st51{clip-path:url(#SVGID_70_);}
	.st52{clip-path:url(#SVGID_74_);fill:#F1F0EF;}
	.st53{clip-path:url(#SVGID_76_);}
	.st54{clip-path:url(#SVGID_80_);fill:#F1F0EF;}
	.st55{clip-path:url(#SVGID_82_);}
	.st56{clip-path:url(#SVGID_86_);fill:#F1F0EF;}
	.st57{clip-path:url(#SVGID_88_);}
	.st58{clip-path:url(#SVGID_92_);fill:#F1F0EF;}
	.st59{clip-path:url(#SVGID_94_);}
	.st60{clip-path:url(#SVGID_98_);fill:#F1F0EF;}
	.st61{clip-path:url(#SVGID_100_);}
	.st62{clip-path:url(#SVGID_104_);fill:#F1F0EF;}
	.st63{clip-path:url(#SVGID_106_);}
	.st64{clip-path:url(#SVGID_110_);fill:#F1F0EF;}
	.st65{clip-path:url(#SVGID_112_);}
	.st66{clip-path:url(#SVGID_116_);fill:#F1F0EF;}
	.st67{clip-path:url(#SVGID_122_);}
	.st68{clip-path:url(#SVGID_126_);fill:#F1F0EF;}
	.st69{clip-path:url(#SVGID_128_);}
	.st70{clip-path:url(#SVGID_132_);fill:#F1F0EF;}
	.st71{clip-path:url(#SVGID_134_);}
	.st72{clip-path:url(#SVGID_138_);fill:#F1F0EF;}
	.st73{clip-path:url(#SVGID_140_);}
	.st74{clip-path:url(#SVGID_144_);fill:#F1F0EF;}
	.st75{clip-path:url(#SVGID_146_);}
	.st76{clip-path:url(#SVGID_150_);fill:#F1F0EF;}
	.st77{clip-path:url(#SVGID_152_);}
	.st78{clip-path:url(#SVGID_156_);fill:#F1F0EF;}
	.st79{clip-path:url(#SVGID_158_);}
	.st80{clip-path:url(#SVGID_162_);fill:#F1F0EF;}
	.st81{clip-path:url(#SVGID_164_);}
	.st82{clip-path:url(#SVGID_168_);fill:#F1F0EF;}
	.st83{display:inline;}
	.st84{fill:#86898A;}
	.st85{clip-path:url(#SVGID_172_);}
	.st86{clip-path:url(#SVGID_176_);fill:#F1F0EF;}
	.st87{clip-path:url(#SVGID_178_);}
	.st88{clip-path:url(#SVGID_182_);fill:#F1F0EF;}
	.st89{clip-path:url(#SVGID_184_);}
	.st90{clip-path:url(#SVGID_188_);fill:#F1F0EF;}
	.st91{clip-path:url(#SVGID_190_);}
	.st92{clip-path:url(#SVGID_194_);fill:#F1F0EF;}
	.st93{clip-path:url(#SVGID_196_);}
	.st94{clip-path:url(#SVGID_200_);fill:#F1F0EF;}
	.st95{fill:#A7A9AC;}
	.st96{fill:none;stroke:#E6E7E8;stroke-width:7;stroke-miterlimit:10;}
	.st97{clip-path:url(#SVGID_202_);}
	.st98{clip-path:url(#SVGID_206_);fill:#F1F0EF;}
	.st99{clip-path:url(#SVGID_208_);}
	.st100{clip-path:url(#SVGID_212_);fill:#F1F0EF;}
	.st101{clip-path:url(#SVGID_214_);}
	.st102{clip-path:url(#SVGID_218_);fill:#F1F0EF;}
	.st103{clip-path:url(#SVGID_220_);}
	.st104{clip-path:url(#SVGID_224_);fill:#F1F0EF;}
	.st105{clip-path:url(#SVGID_226_);}
	.st106{clip-path:url(#SVGID_230_);fill:#F1F0EF;}
	.st107{clip-path:url(#SVGID_232_);}
	.st108{clip-path:url(#SVGID_236_);fill:#F1F0EF;}
	.st109{clip-path:url(#SVGID_238_);}
	.st110{clip-path:url(#SVGID_242_);fill:#F1F0EF;}
	.st111{clip-path:url(#SVGID_244_);}
	.st112{clip-path:url(#SVGID_248_);fill:#F1F0EF;}
	.st113{clip-path:url(#SVGID_250_);}
	.st114{clip-path:url(#SVGID_254_);fill:#F1F0EF;}
	.st115{clip-path:url(#SVGID_256_);}
	.st116{clip-path:url(#SVGID_260_);fill:#F1F0EF;}
	.st117{opacity:0.6;}
	.st118{opacity:0.9;fill:#F4868D;}
	.st119{fill:#7E8691;}
	.st120{opacity:0.9;fill:#FFFFFF;}
	.st121{fill:#A49970;}
	.st122{fill:none;stroke:#A49970;stroke-miterlimit:10;}
	.st123{fill:none;stroke:#A49970;stroke-width:0.75;stroke-miterlimit:10;}
	.st124{fill:#F05575;}
	.st125{fill-rule:evenodd;clip-rule:evenodd;fill:#A7A9AC;}
	.st126{fill:#FBC926;}
	.st127{opacity:0.4;}
	.st128{fill:#EFBABA;}
	.st129{fill:#19161C;}
	.st130{fill:#A4DBDF;}
	.st131{fill:#EFBBB9;}
	.st132{fill:#FBC7B5;}
	.st133{fill:#2C3D42;}
	.st134{fill:#CBE9E4;}
	.st135{fill-rule:evenodd;clip-rule:evenodd;fill:#2C3D42;}
	.st136{fill:#E6E7E8;}
	.st137{fill:#F0512E;}
	.st138{fill:#FFDE17;}
	.st139{fill:#15557C;}
	.st140{fill:#C4C6C6;}
	.st141{fill:#3595D2;}
	.st142{fill:#2E82B4;}
	.st143{fill-rule:evenodd;clip-rule:evenodd;fill:#FFFFFF;}
	.st144{fill-rule:evenodd;clip-rule:evenodd;fill:#26C3EA;}
	.st145{fill-rule:evenodd;clip-rule:evenodd;fill:#22B789;}
	.st146{fill-rule:evenodd;clip-rule:evenodd;fill:#4D6FA2;}
	.st147{fill-rule:evenodd;clip-rule:evenodd;fill:#F4868D;}
	.st148{fill:none;stroke:#C3C3C3;stroke-width:0.5;stroke-miterlimit:10;}
	.st149{fill:#FFFFFF;stroke:#C3C3C3;stroke-width:0.5;stroke-miterlimit:10;}
	.st150{fill:none;stroke:#6D6E71;stroke-miterlimit:10;}
	.st151{fill:#EEC22D;}
	.st152{fill:#F69C2A;}
	.st153{fill:#E78130;}
	.st154{fill-rule:evenodd;clip-rule:evenodd;fill:#F0512E;}
	.st155{fill:#FFD429;}
	.st156{fill:#FBAC31;}
	.st157{clip-path:url(#SVGID_270_);}
	.st158{fill-rule:evenodd;clip-rule:evenodd;}
	.st159{fill:#2A7F77;}
	.st160{fill-rule:evenodd;clip-rule:evenodd;fill:#2A7F77;}
	.st161{fill-rule:evenodd;clip-rule:evenodd;fill:#7ACCCD;}
	.st162{fill:none;stroke:#2A7F77;stroke-miterlimit:10;}
	.st163{clip-path:url(#SVGID_272_);}
	.st164{fill-rule:evenodd;clip-rule:evenodd;fill:#BE1E2D;}
	.st165{fill:none;stroke:#BE1E2D;stroke-miterlimit:10;}
	.st166{fill-rule:evenodd;clip-rule:evenodd;fill:#FFD429;}
	.st167{clip-path:url(#SVGID_274_);}
	.st168{fill-rule:evenodd;clip-rule:evenodd;fill:#54632A;}
	.st169{fill-rule:evenodd;clip-rule:evenodd;fill:#CFDD35;}
	.st170{fill:none;stroke:#54632A;stroke-miterlimit:10;}
	.st171{clip-path:url(#SVGID_276_);}
	.st172{fill:#FDE0D6;}
	.st173{fill:#FBD6DF;}
	.st174{fill-rule:evenodd;clip-rule:evenodd;fill:#F06D8A;}
	.st175{fill:#DEF0E2;}
	.st176{fill:#F26636;}
	.st177{fill:#6BC5AB;}
	.st178{fill:#FEBE2E;}
	.st179{fill:#F89A32;}
	.st180{fill:#EF413F;}
	.st181{fill:#B42B2F;}
	.st182{fill:none;stroke:#EF413F;stroke-width:6;stroke-linecap:round;stroke-linejoin:round;stroke-miterlimit:10;}
	.st183{fill-rule:evenodd;clip-rule:evenodd;fill:#F3A1C2;}
	.st184{fill:#70B9C4;}
	.st185{clip-path:url(#SVGID_278_);}
	.st186{clip-path:url(#SVGID_280_);}
	.st187{fill:#C7465A;}
	.st188{fill:url(#SVGID_281_);}
	.st189{fill:url(#SVGID_282_);}
	.st190{fill:url(#SVGID_283_);}
	.st191{fill:url(#SVGID_284_);}
	.st192{fill:url(#SVGID_285_);}
	.st193{fill:url(#SVGID_286_);}
	.st194{fill:url(#SVGID_287_);}
	.st195{fill:url(#SVGID_288_);}
	.st196{fill:url(#SVGID_289_);}
	.st197{fill:#E5629E;}
	.st198{fill:#555859;}
	.st199{fill-rule:evenodd;clip-rule:evenodd;fill:#E5629E;}
	.st200{clip-path:url(#SVGID_291_);}
	.st201{fill:#FFFFFF;stroke:#000000;stroke-miterlimit:10;}
	.st202{fill:#2EBFEF;}
	.st203{fill-rule:evenodd;clip-rule:evenodd;fill:#2EBFEF;}
	.st204{fill:#F58224;}
	.st205{fill-rule:evenodd;clip-rule:evenodd;fill:#F58224;}
	.st206{clip-path:url(#SVGID_293_);}
	.st207{clip-path:url(#SVGID_295_);}
	.st208{fill:#F0506E;}
	.st209{fill:#563347;}
	.st210{fill:#121638;}
	.st211{fill:#434763;}
	.st212{fill:#ED678F;}
	.st213{fill:#DBD2D0;}
	.st214{fill:#BDB0B2;}
	.st215{fill:#EEE2DE;}
	.st216{fill:#38383B;}
	.st217{fill:#A5DCE0;}
	.st218{fill:#6A6E70;}
	.st219{fill-rule:evenodd;clip-rule:evenodd;fill:#ABAEAD;}
	.st220{fill-rule:evenodd;clip-rule:evenodd;fill:#ABAEAD;stroke:#FFFFFF;stroke-width:0.25;stroke-miterlimit:10;}
	.st221{fill:#ABAEAD;stroke:#FFFFFF;stroke-width:0.5;stroke-miterlimit:10;}
	.st222{fill-rule:evenodd;clip-rule:evenodd;fill:#ABAEAD;stroke:#ABAEAD;stroke-width:0.5;stroke-miterlimit:10;}
	.st223{fill:#ABAEAD;stroke:#ABAEAD;stroke-width:0.5;stroke-miterlimit:10;}
	.st224{fill:none;stroke:#E5547B;stroke-width:4;stroke-miterlimit:10;}
	.st225{fill:#27AAE1;}
	.st226{fill:none;stroke:#ABAEAD;stroke-width:1.5;stroke-miterlimit:10;}
	.st227{fill:#ABAEAD;}
	.st228{fill:#F38BAE;}
	.st229{fill:#FFD03A;}
</style>
<g id="Layer_1">
</g>
<g id="Layer_2">
</g>
<g id="Layer_4">
</g>
<g id="Layer_5">
	<g>
		<circle class="st229" cx="75" cy="75" r="75.2"/>
		<g>
			<g>
				<rect x="29.9" y="31.3" class="st0" width="90.9" height="90.9"/>
				<g id="_x34_HKkm7_6_">
					<g>
						<path class="st143" d="M84.5,42c1.4,1.2,1.7,2.7,1.7,4.5c-0.1,7.7,0,15.5,0,23.2c0,10.7-6.1,19.7-16.1,23.6
							c-1.2,0.5-1.6,1-1.6,2.3c0.1,3.5,0,7,0,10.5c0,3.8,1.4,5.4,5.2,6.1c0.9,0.2,1.7,0.3,2.6,0.3c1.8,0,3.2,0.5,3.9,2.3
							c0.6,1.8-0.6,2.7-1.7,3.8c-1.6,0-3.3,0-4.9,0c-1.2-0.4-2.5-0.7-3.7-1.1c-4.4-1.5-7.2-5.2-7.3-9.9c-0.1-5.2,0-10.5,0-15.7
							c0-1.9,1.1-2.8,2.8-3.2c6.9-1.8,11.5-6,13.8-12.7c0.6-1.8,1-3.8,1-5.7c0.1-7.1,0-14.2,0-21.4c0-0.2-0.1-0.4-0.1-0.7
							c-12.6,0-25.2,0-37.9,0c0,1.8,0,3.6,0,5.4c0,5.5,0,11,0,16.5c0,8.7,5.9,16.2,14.3,18.4c2.8,0.7,3.3,1.4,3.3,4.3
							c0,4.3,0,8.6,0,12.9c0,7-2.9,10.7-9.7,12.4c-0.4,0.1-0.8,0.3-1.1,0.4c-1.6,0-3.3,0-4.9,0c-1.5-0.9-2.4-2-1.9-3.8
							c0.6-1.8,2-2.2,3.7-2.2c0.8,0,1.6-0.1,2.4-0.2c4.1-0.7,5.4-2.3,5.5-6.5c0-3.4,0-6.9,0-10.3c0-1.2-0.3-1.7-1.4-2.1
							c-6.6-2.5-11.4-7-14.2-13.6c-0.9-2-1.4-4.2-2-6.3c0-10.5,0-20.9,0-31.5C52.3,42,68.4,42,84.5,42z"/>
						<path class="st143" d="M99.9,118.5c-1.6-0.9-2-2.3-2-4.1c0-11.1,0-22.2,0-33.3c0-2.7,0.8-3.5,3.4-3.9c3.2-0.4,5.3-2.7,5.3-5.9
							c0-8.3,0-16.6,0-24.9c0-1.8,0.5-3.3,1.9-4.4c1.4,0,2.7,0,4.1,0c0,10.6,0,21.2,0,31.9c-0.3,0.6-0.5,1.2-0.8,1.9
							c-1.2,3.1-3.3,5.3-6.4,6.5c-1.3,0.5-1.7,1.2-1.7,2.6c0.1,9.7,0,19.5,0.1,29.2c0,1.8-0.3,3.3-1.7,4.5
							C101.4,118.5,100.6,118.5,99.9,118.5z"/>
						<path class="st143" d="M93.1,42c1.4,1,1.9,2.2,1.9,4c-0.1,6.4,0,12.7,0,19.1c0,2.2-1.1,3.4-3.1,3.4c-1.7,0-2.9-1.3-2.9-3.4
							c0-6.6-0.1-13.1,0.1-19.7c0-1.2,1.2-2.3,1.8-3.4C91.6,42,92.4,42,93.1,42z"/>
						<path class="st143" d="M102.1,42c1.3,1.1,1.7,2.5,1.7,4.2c-0.1,6.4,0,12.7,0,19.1c0,1.6-0.7,2.6-2.2,3
							c-1.3,0.4-2.5-0.1-3.2-1.3c-0.3-0.6-0.5-1.3-0.5-1.9c0-6.6,0-13.2,0-19.8c0-1.6,0.8-2.5,2-3.3C100.6,42,101.4,42,102.1,42z"/>
					</g>
				</g>
			</g>
		</g>
	</g>
</g>
<g id="Layer_3" class="st45">
</g>
</svg>
