<svg xmlns="http://www.w3.org/2000/svg" viewBox="0 0 200 200"><defs><style>.cls-1{fill:#fff;stroke:#fff;stroke-miterlimit:10;stroke-width:1.5px;}</style></defs><title>Artboard 51 copy 14</title><g id="Layer_5" data-name="Layer 5"><g id="thoSAv"><path class="cls-1" d="M18.46,64.61c1.83-6.05,6.58-9.2,11.92-11.53,2-.88,2.64-1.88,2.57-4-.17-5.5,0-11-.09-16.52A10.43,10.43,0,0,1,38,23.07c4.31-2.84,9.18-4.19,14.16-5.11a85.45,85.45,0,0,1,34.6.56A33.61,33.61,0,0,1,98.06,22.9c3.48,2.29,5.49,5.27,5.34,9.68-.2,5.95,0,11.91-.08,17.86a1.91,1.91,0,0,0,1.39,2.1c4.14,1.71,8,3.83,10.86,7.46a11.17,11.17,0,0,1,2.37,7.13q0,13.35,0,26.71v1.91A25.92,25.92,0,0,1,135,100.83v-2q0-13.6,0-27.21c0-2.67,1.8-4.21,4.13-3.63,1.53.38,2.44,1.68,2.47,3.7s0,4.3,0,6.47a43.91,43.91,0,0,1,5.31-3.77c5.65-2.88,11.52-2.36,17.35-.54a3,3,0,0,1,2.08,3.72c-1.18,5.93-5.5,14.73-13.95,16.52-2.93.62-6.05.32-9.09.41a10.24,10.24,0,0,1-1.6-.22v6.1a70.54,70.54,0,0,1,6.88-3.27c7-2.46,13.8-1.47,20.47,1.23,8.13,3.28,14.61,8.39,18.09,16.73a31,31,0,0,1,1.77,18,72.32,72.32,0,0,1-27.3,44.6,25.59,25.59,0,0,1-14.47,5.82,16.28,16.28,0,0,1-8.08-1.61,1.81,1.81,0,0,0-1.36-.12c-6.31,3-12.37,2-18.17-1.26a80,80,0,0,1-7.82-5.35,1.7,1.7,0,0,0-2.19-.24c-7.78,4.54-16.39,6.35-25.17,7.58a119.37,119.37,0,0,1-26,.65c-10.29-.8-20.4-2.52-29.77-7.17-3.37-1.67-6.47-3.75-8.48-7a30.8,30.8,0,0,1-1.68-3.78ZM182.82,127c.08-7.44-2.56-13.31-8.22-18a30.61,30.61,0,0,0-11.7-5.82c-8-2.15-15-.46-20.48,6-3.62,4.23-4.72,4.23-8.37,0-4.68-5.47-10.61-7.73-17.72-6.48-6.92,1.22-13.08,4.09-17.66,9.57-5.32,6.37-5.89,13.84-4.26,21.61,2.3,10.95,7.51,20.49,14.58,29,4.17,5.05,8.89,9.52,14.93,12.33,4.19,1.94,8.37,2.56,12.42-.48,1.51-1.13,3-.67,4.45.38a9.15,9.15,0,0,0,7.28,1.54,22.68,22.68,0,0,0,9.87-4.58c8.64-6.49,14.82-15,19.47-24.62C180.53,141,182.74,134.28,182.82,127ZM25.09,77.19c0,4.72.17,9.51-.06,14.28-.15,3.15,1.23,5.17,3.62,6.8a38.72,38.72,0,0,0,11.71,5.09,101,101,0,0,0,26.7,3.38c3.21,0,4.44,1.28,4.45,4.46q0,21,0,42.06c0,3-1.26,4.34-4.26,4.18-5.21-.27-10.45-.43-15.62-1.09-8.9-1.14-17.6-3.11-25.43-7.82a7.41,7.41,0,0,0-1.1-.43c0,4.58.2,9-.07,13.36-.19,3.23,1.23,5.28,3.67,6.95a36.79,36.79,0,0,0,11.71,5.06,111.72,111.72,0,0,0,53.14.53,40.89,40.89,0,0,0,12.05-4.53c-2.22-3-4.52-5.76-6.51-8.76C92.8,151.2,88,141.08,87.22,129.48c-.86-12.62,4.07-22.28,15.07-28.63,2.81-1.62,5.9-2.76,8.89-4.14V76.81c-1.61.88-3,1.75-4.52,2.45-8,3.73-16.53,5.38-25.23,6.36a119.62,119.62,0,0,1-23.48.3,87.49,87.49,0,0,1-21.86-4.18C32.4,80.44,28.85,78.76,25.09,77.19Zm39.73,36.26c-13.86-.82-27.36-2.34-39.73-9.57v2c0,10.06.06,20.13,0,30.19a6,6,0,0,0,2.85,5.64,51.38,51.38,0,0,0,8.39,4.32c8.67,3.24,17.76,4.29,26.94,4.7.52,0,1.05,0,1.59,0Zm31.89-73c-19.14,7.26-38.09,7.28-57.16,0,0,5.14,0,10.36.05,15.57a2.62,2.62,0,0,0,1.13,1.9,39.92,39.92,0,0,0,7.39,3.66c10.93,3.37,22.1,3.47,33.31,1.68A36.44,36.44,0,0,0,94,59.13c1.83-1,2.91-2.35,2.73-4.66-.19-2.49,0-5,0-7.5C96.71,44.76,96.71,42.56,96.71,40.48ZM33.27,58.64a73.79,73.79,0,0,0-6.45,4.5c-2.34,2-2.33,4.14-.15,6.32a17.55,17.55,0,0,0,3.86,2.87C38,76.47,46.25,78,54.61,79a120.87,120.87,0,0,0,23.16.37,84.62,84.62,0,0,0,22-4.27c3.47-1.23,6.85-2.68,9.57-5.26,2.53-2.4,2.59-4.69-.07-6.94a65.8,65.8,0,0,0-6.26-4.2c-2.12,4.41-5.71,6.51-9.7,8.12a60.2,60.2,0,0,1-18,3.88c-9.84.78-19.56.23-29-2.72C41.09,66.33,36.08,64.29,33.27,58.64ZM68.37,22.85c-6.91.16-13.63.6-20.07,2.76a35.23,35.23,0,0,0-7.42,3.63C39,30.4,39,31.7,40.93,32.88a35.85,35.85,0,0,0,7.43,3.61A59.44,59.44,0,0,0,66.6,39.16c7.48.13,14.91-.44,22-2.91a33.31,33.31,0,0,0,7-3.63c1.52-1,1.44-2.07,0-3.23a18.59,18.59,0,0,0-4.09-2.5C84.09,23.7,76.18,23.08,68.37,22.85Zm75.7,65c6.93,1,11.92-.73,14.63-8.37A11.67,11.67,0,0,0,144.07,87.83Z"/></g></g></svg>