<svg xmlns="http://www.w3.org/2000/svg" viewBox="0 0 200 200"><defs><style>.cls-1{fill:none;}.cls-2{fill:#fff;fill-rule:evenodd;}</style></defs><title>Artboard 51 copy 15</title><g id="Layer_5" data-name="Layer 5"><rect class="cls-1" x="0.26" y="-3.67" width="199.49" height="199.48"/><g id="l3HJIf"><path class="cls-2" d="M174.84,47.66c-.32,1.44-.62,2.89-1,4.31a26.93,26.93,0,0,1-7.32,12.38c-4.15,4.12-8.26,8.25-12.38,12.38q-6.73,6.73-13.47,13.45t-13.54,13.53c-4.09,4.11-8.19,8.21-12.29,12.32q-6.88,6.88-13.77,13.79T87.49,143.33c-2.21,2.21-4.42,4.44-6.69,6.59A5.33,5.33,0,0,1,78.89,151q-14.27,4.42-28.55,8.77c-5.58,1.72-11.17,3.42-16.75,5.13a3.33,3.33,0,0,0-.5.26H31a6.26,6.26,0,0,1-3.53-3.53v-2.12c1.26-3.36,2.53-6.72,3.77-10.1q4.3-11.75,8.57-23.53c2.07-5.66,4.08-11.36,6.21-17a7.4,7.4,0,0,1,1.69-2.63Q60.77,93.09,74,80L93.46,60.61q11.35-11.27,22.69-22.52c4.12-4.08,8.21-8.19,12.32-12.26a26.92,26.92,0,0,1,15.14-7.73,11.44,11.44,0,0,0,1.33-.35h5.65c1.41.32,2.83.58,4.21,1q14.61,4.28,19,18.84c.45,1.45.71,3,1,4.44Zm-89.1,83.93.25.13a5.4,5.4,0,0,0,.64-.47q2.63-2.61,5.24-5.23Q104.46,113.41,117,100.8c8.2-8.21,16.43-16.38,24.61-24.62a17.66,17.66,0,0,0,1-24.29c-5.58-6.61-15.42-8.39-22.67-3.66-3.14,2.05-5.81,4.86-8.52,7.52-8,7.88-16,15.87-23.93,23.8L62.4,104.48a8.14,8.14,0,0,0-.62.85c2.38,0,4.53,0,6.68,0,3.24,0,5,1.7,5,4.93,0,2.64,0,5.27,0,7.9,0,.76.22,1,1,1,2.59,0,5.18,0,7.77,0,3.68,0,5.58,2.28,4.9,5.89C86.67,127.24,86.2,129.41,85.74,131.59ZM64.36,114.47c-3.32,0-6.49,0-9.67,0-.81,0-1.12.3-1.38,1q-3.49,9.76-7.11,19.44c-.33.91-.18,1.29.64,1.75a19.94,19.94,0,0,1,8.7,8.63c.44.91.84,1.83,1.26,2.77a4.19,4.19,0,0,0,.54-.09c5.32-1.63,10.64-3.27,16-5a1.47,1.47,0,0,0,.77-1c.87-3.82,1.67-7.65,2.5-11.48.17-.75.27-1.49.43-2.36-2.33,0-4.5-.13-6.63,0-4.27.28-6.26-1.83-6-6C64.49,119.78,64.36,117.23,64.36,114.47Zm91.87-52.9c.47-.44.89-.8,1.25-1.19a54,54,0,0,0,5.35-6,17.42,17.42,0,0,0-2-21.59,17.34,17.34,0,0,0-17.55-5.21c-4,.93-7.08,3.38-9.84,6.31-.77.82-1.59,1.62-2.47,2.51C145.64,38.59,154,46.93,156.23,61.57Z"/><path class="cls-2" d="M137.91,59.38a4.81,4.81,0,0,1-1.77,3.6c-6.6,6.55-13.15,13.13-19.74,19.7Q103.73,95.39,91,108.05c-2,2-4.68,2.36-6.54.85a4.62,4.62,0,0,1-.27-7c1.78-1.83,3.6-3.61,5.41-5.42q19.88-19.87,39.75-39.76a5.39,5.39,0,0,1,4.08-2A4.42,4.42,0,0,1,137.91,59.38Z"/></g></g></svg>