<?xml version="1.0" encoding="utf-8"?>
<!-- Generator: Adobe Illustrator 21.1.0, SVG Export Plug-In . SVG Version: 6.00 Build 0)  -->
<svg version="1.1" xmlns="http://www.w3.org/2000/svg" xmlns:xlink="http://www.w3.org/1999/xlink" x="0px" y="0px"
	 viewBox="0 0 100 100" style="enable-background:new 0 0 100 100;" xml:space="preserve">
<style type="text/css">
	.st0{fill:#FFFFFF;}
	.st1{fill:none;}
	.st2{fill-rule:evenodd;clip-rule:evenodd;fill:#999998;}
	.st3{fill-rule:evenodd;clip-rule:evenodd;fill:#BFC0BF;}
	.st4{fill:#999998;}
	.st5{fill-rule:evenodd;clip-rule:evenodd;fill:#999998;stroke:#999998;stroke-width:0.5;stroke-miterlimit:10;}
	.st6{fill-rule:evenodd;clip-rule:evenodd;fill:#D18091;}
	.st7{fill-rule:evenodd;clip-rule:evenodd;fill:#CB5280;stroke:#CB5280;stroke-width:0.5;stroke-miterlimit:10;}
	.st8{fill:none;stroke:#FFFFFF;stroke-miterlimit:10;}
	.st9{fill:none;stroke:#ADADAD;stroke-width:0.5;stroke-miterlimit:10;}
	.st10{fill:#949494;}
	.st11{fill-rule:evenodd;clip-rule:evenodd;fill:#D48094;}
	.st12{fill-rule:evenodd;clip-rule:evenodd;fill:#CE5280;stroke:#CE5280;stroke-width:0.5;stroke-miterlimit:10;}
	.st13{fill:none;stroke:#6F6F6E;stroke-width:0.25;stroke-miterlimit:10;}
	.st14{fill:none;stroke:#808080;stroke-width:0.25;stroke-miterlimit:10;}
	.st15{fill:#B7B6B5;}
	.st16{fill:#101010;}
	.st17{fill:#808080;}
	.st18{fill:#D75980;}
	.st19{fill:none;stroke:#80BBBE;stroke-miterlimit:10;}
	.st20{fill:#373A3C;}
	.st21{fill:#FFFFFF;stroke:#B5B5B5;stroke-width:0.75;stroke-miterlimit:10;}
	.st22{fill:#B5B5B5;stroke:#ADADAD;stroke-miterlimit:10;}
	.st23{fill:#B5B5B5;}
	.st24{opacity:0.59;fill:#D7D7D7;}
	.st25{fill:none;stroke:#DCDCDC;stroke-width:2;stroke-miterlimit:10;}
	.st26{fill:#0B283C;}
	.st27{fill:#80807E;}
	.st28{clip-path:url(#SVGID_6_);}
	.st29{fill:none;stroke:#80807E;stroke-miterlimit:10;}
	.st30{clip-path:url(#SVGID_8_);}
	.st31{clip-path:url(#SVGID_10_);}
	.st32{fill:#DDDDDD;}
	.st33{clip-path:url(#SVGID_16_);}
	.st34{clip-path:url(#SVGID_18_);}
	.st35{clip-path:url(#SVGID_20_);}
	.st36{fill:none;stroke:#C7C7C7;stroke-miterlimit:10;}
	.st37{fill:none;stroke:#A2A2A1;stroke-width:1.5;stroke-miterlimit:10;}
	.st38{fill-rule:evenodd;clip-rule:evenodd;fill:#A2A2A1;}
	.st39{fill-rule:evenodd;clip-rule:evenodd;fill:#A2A2A1;stroke:#FFFFFF;stroke-width:0.25;stroke-miterlimit:10;}
	.st40{fill:#A2A2A1;stroke:#FFFFFF;stroke-width:0.5;stroke-miterlimit:10;}
	.st41{fill-rule:evenodd;clip-rule:evenodd;fill:#A2A2A1;stroke:#A2A2A1;stroke-width:0.5;stroke-miterlimit:10;}
	.st42{fill:#54A5CB;}
	.st43{fill:#DFDFDF;}
	.st44{fill:none;stroke:#7F7F7F;stroke-width:0.75;stroke-miterlimit:10;}
	.st45{fill:none;stroke:#A4A4A3;stroke-width:1.5;stroke-miterlimit:10;}
	.st46{fill-rule:evenodd;clip-rule:evenodd;fill:#A4A4A3;stroke:#A4A4A3;stroke-width:0.5;stroke-miterlimit:10;}
	.st47{fill:none;stroke:#333333;stroke-width:1.5;stroke-miterlimit:10;}
	.st48{fill:#333333;}
	.st49{fill-rule:evenodd;clip-rule:evenodd;fill:#A4A4A3;}
	.st50{fill-rule:evenodd;clip-rule:evenodd;fill:#A4A4A3;stroke:#FFFFFF;stroke-width:0.25;stroke-miterlimit:10;}
	.st51{fill:#A4A4A3;stroke:#D5D4D5;stroke-width:0.5;stroke-miterlimit:10;}
	.st52{opacity:0.8;}
	.st53{fill:#CACBCA;}
	.st54{fill:#A4A4A3;}
	.st55{fill-rule:evenodd;clip-rule:evenodd;fill:#CACBCA;}
	.st56{fill-rule:evenodd;clip-rule:evenodd;fill:#DC809C;}
	.st57{fill-rule:evenodd;clip-rule:evenodd;fill:#D65280;stroke:#D65280;stroke-width:0.5;stroke-miterlimit:10;}
	.st58{fill:none;stroke:#A4A4A3;stroke-width:2;stroke-linecap:round;stroke-linejoin:round;stroke-miterlimit:10;}
	.st59{fill:none;stroke:#D75980;stroke-width:0.5;stroke-miterlimit:10;}
	.st60{fill:none;stroke:#DCDEDF;stroke-miterlimit:10;}
	.st61{fill:none;stroke:#D75980;stroke-miterlimit:10;}
	.st62{fill:#E0E0E0;}
	.st63{display:none;}
	.st64{display:inline;opacity:0.85;fill:#3F8AD6;}
	.st65{display:inline;}
	.st66{display:inline;opacity:0.8;fill:#3F8AD6;}
	.st67{fill:none;stroke:#DEDEDE;stroke-width:0.5;stroke-miterlimit:10;}
	.st68{fill:#E7E7E7;}
	.st69{fill:#FFFFFF;stroke:#B3B3B3;stroke-miterlimit:10;}
	.st70{fill:#B3B3B3;stroke:#B3B3B3;stroke-width:0.5;stroke-miterlimit:10;}
	.st71{fill:none;stroke:#949494;stroke-width:0.5;stroke-miterlimit:10;}
	.st72{fill:none;stroke:#DCDEDF;stroke-width:2;stroke-miterlimit:10;}
	.st73{fill:none;stroke:#808080;stroke-width:0.5;stroke-miterlimit:10;}
	.st74{fill:#FF497F;}
	.st75{fill-rule:evenodd;clip-rule:evenodd;fill:#DA809A;}
	.st76{fill-rule:evenodd;clip-rule:evenodd;fill:#FFFFFF;stroke:#FFFFFF;stroke-width:0.5;stroke-miterlimit:10;}
	.st77{fill:#54BBCB;}
	.st78{fill:#93C5CC;stroke:#FFFFFF;stroke-width:1.8;stroke-linecap:round;stroke-linejoin:round;stroke-miterlimit:10;}
	.st79{fill:#FF8059;}
	.st80{fill:#E54B81;}
	.st81{fill-rule:evenodd;clip-rule:evenodd;fill:#FFFFFF;}
	.st82{fill:#32BD84;}
	.st83{fill-rule:evenodd;clip-rule:evenodd;fill:#87D3B7;}
	.st84{fill:#E8AC2F;}
	.st85{fill-rule:evenodd;clip-rule:evenodd;fill:#DDCF21;}
	.st86{fill:#8061DB;}
	.st87{fill:#4C90EA;}
	.st88{opacity:0.4;}
	.st89{fill:#E2B2B2;}
	.st90{fill:#231E20;stroke:#231E20;stroke-width:0.5;stroke-miterlimit:18;}
	.st91{opacity:0.9;fill-rule:evenodd;clip-rule:evenodd;fill:#1A1A1A;}
	.st92{fill-rule:evenodd;clip-rule:evenodd;fill:#1A1A1A;stroke:#231E20;stroke-width:0.5;stroke-miterlimit:10;}
	.st93{fill:#231E20;}
	.st94{fill:#A3CDD3;}
	.st95{fill-rule:evenodd;clip-rule:evenodd;fill:#231E20;stroke:#231E20;stroke-width:0.5;stroke-miterlimit:10;}
	.st96{fill:none;stroke:#231E20;stroke-width:2.5;stroke-linecap:round;stroke-linejoin:round;stroke-miterlimit:10;}
	.st97{clip-path:url(#SVGID_34_);}
	.st98{clip-path:url(#SVGID_36_);}
	.st99{clip-path:url(#SVGID_38_);}
	.st100{opacity:0.5;}
	.st101{fill:none;stroke:#80807E;stroke-miterlimit:10;stroke-dasharray:2.027,2.027;}
	.st102{fill:#80807E;stroke:#80807E;stroke-miterlimit:10;}
	.st103{fill:#F17140;}
	.st104{fill:#FFFFFF;stroke:#808080;stroke-width:0.25;stroke-miterlimit:10;}
	.st105{fill:#D9D9D9;}
	.st106{fill:#E5E4F5;}
	.st107{fill:#E14469;}
	.st108{fill:#6C3C80;}
	.st109{fill:#FEF5E4;}
	.st110{fill:#C7C7C7;}
	.st111{fill:#FF7500;}
	.st112{clip-path:url(#SVGID_42_);}
	.st113{fill:none;stroke:#FF7500;stroke-width:3;stroke-miterlimit:10;}
	.st114{fill:#FF838A;}
	.st115{fill:none;stroke:#FF838A;stroke-miterlimit:10;}
	.st116{fill:#F1F1F1;}
	.st117{fill:#8B8C8B;}
	.st118{fill:#FF848A;}
	.st119{fill:none;stroke:#FF1D25;stroke-width:10;stroke-miterlimit:10;}
</style>
<g id="Layer_1">
	<g>
		<defs>
			<rect id="SVGID_21_" x="-341.7" y="-679" width="656.2" height="610.1"/>
		</defs>
		<clipPath id="SVGID_2_">
			<use xlink:href="#SVGID_21_"  style="overflow:visible;"/>
		</clipPath>
	</g>
	<g>
		<defs>
			<rect id="SVGID_25_" x="187.3" y="-1145" width="101" height="30"/>
		</defs>
		<clipPath id="SVGID_4_">
			<use xlink:href="#SVGID_25_"  style="overflow:visible;"/>
		</clipPath>
	</g>
	<g>
		<circle class="st84" cx="50" cy="50" r="45.4"/>
		<g>
			<polygon class="st85" points="39.7,59.1 34.1,58.8 32.1,59.9 30.2,62 29.4,64.1 29.6,66.3 30.3,67.3 48.5,67.9 51,67.4 53.8,59 
				58.6,52.4 61.1,51 63.8,51.8 65.7,51.2 66.1,46.9 64.3,38.2 61.8,36.5 59,39 50,49.6 44.4,55.5 41,58.5 39.1,58.8 			"/>
			<g>
				<g id="_x30_gVXng_10_">
					<g>
						<path class="st81" d="M61.2,53.2c-0.9,1-1.8,1.9-2.6,2.9c-2.1,2.5-3.9,5.2-4.9,8.3c-0.4,1.3-0.6,2.5-0.7,3.9
							c0,0.9-0.7,1.5-1.7,1.5c-2.5,0-5,0-7.5,0c-4.4,0-8.7,0-13.1,0c-1.2,0-2.4-0.7-2.8-1.8c-0.2-0.7-0.4-1.4-0.5-2.2
							c-0.3-4,2.2-7.5,6.1-8.5c1.5-0.4,3-0.3,4.4,0.2c1.9,0.6,3.4,0.1,4.7-1.4c1.8-2.1,3.6-4.1,5.4-6.2c4.3-5,8.7-9.9,13-14.9
							c0.9-1,2.2-0.9,2.9,0.3c1.6,2.9,2.9,5.8,3.7,9.1c0.4,1.5,0.6,2.9,0.5,4.4c-0.1,2.2-0.6,4.1-2.2,5.7c-0.1,0.1-0.1,0.3-0.1,0.5
							c0,4.4,0,8.7,0,13.1c0,0.8-0.5,1.6-1.3,1.8c-1.1,0.3-2.2-0.5-2.2-1.7c0-2.4,0-4.8,0-7.1c0-1.9,0-3.9,0-5.8
							c0-0.5-0.1-0.9-0.4-1.2C61.7,53.7,61.4,53.5,61.2,53.2z M62.1,39c-0.2,0.2-0.3,0.3-0.4,0.4c-5.5,6.4-11,12.7-16.6,19.1
							c-1.9,2.2-4.2,3.1-7.1,2.5c-0.8-0.2-1.5-0.5-2.3-0.5c-3.5-0.2-5.5,3.2-4.7,6c0.2,0,0.3,0,0.5,0c2.1,0,4.1,0,6.2,0
							c3.9,0,7.8,0,11.8,0c0.2,0,0.4,0,0.4-0.3c0.2-1.5,0.7-3,1.3-4.4c1.6-3.8,4-7,6.8-9.9c0.2-0.2,0.4-0.5,0.6-0.8
							c0.5-1,1.6-1.7,2.8-1.6c0.8,0.1,1.4,0.4,2,0.9c0.3,0.3,0.6,0.6,1,0.9c0.7-1.3,0.7-2.6,0.6-4c-0.2-2.1-0.9-4.1-1.7-6
							C62.7,40.5,62.4,39.7,62.1,39z"/>
					</g>
				</g>
			</g>
		</g>
	</g>
</g>
<g id="Layer_2">
</g>
</svg>
