<svg xmlns="http://www.w3.org/2000/svg" viewBox="0 0 200 200"><defs><style>.cls-1{fill:none;}.cls-2{fill:#fff;fill-rule:evenodd;}</style></defs><title>Artboard 51 copy 10</title><g id="Layer_5" data-name="Layer 5"><rect class="cls-1" x="1.26" y="1.59" width="199.48" height="199.48"/><g id="_4HKkm7" data-name="4HKkm7"><path class="cls-2" d="M121,24.95c3.06,2.59,3.74,5.92,3.71,9.83-.17,17-.08,34-.08,51,0,23.5-13.34,43.25-35.29,51.86-2.57,1-3.54,2.16-3.46,5,.21,7.66,0,15.34.09,23C86,173.9,89,177.48,97.3,179a27.81,27.81,0,0,0,5.7.55c3.92-.1,7,1,8.46,5s-1.34,6-3.66,8.24H97.11c-2.72-.81-5.48-1.53-8.15-2.45-9.64-3.3-15.82-11.47-16-21.65-.2-11.52,0-23-.06-34.54,0-4.12,2.36-6.1,6.1-7.08,15-3.9,25.34-13.16,30.34-27.86a40.89,40.89,0,0,0,2.15-12.46c.24-15.64.09-31.26.06-46.88a7.71,7.71,0,0,0-.32-1.44H28V50.25q0,18.08,0,36.17a41.89,41.89,0,0,0,31.34,40.4c6.22,1.63,7.31,3,7.33,9.43,0,9.45,0,18.92,0,28.37,0,15.43-6.34,23.5-21.34,27.21a20.89,20.89,0,0,0-2.51.92H32.12c-3.18-1.93-5.37-4.49-4.08-8.42s4.48-4.79,8.18-4.77a31.76,31.76,0,0,0,5.31-.49c9-1.55,11.94-5.05,12-14.15,0-7.53-.1-15.07.07-22.6.06-2.56-.66-3.71-3.17-4.68-14.52-5.5-25.06-15.39-31.11-29.73-1.9-4.45-3-9.24-4.44-13.88V24.95Z"/><path class="cls-2" d="M154.68,192.76c-3.51-2-4.49-5-4.46-8.89.1-24.39,0-48.78.06-73.15,0-6,1.65-7.77,7.55-8.48,7-.85,11.62-5.89,11.65-13,0-18.23.1-36.44-.06-54.67,0-4,1-7.16,4.19-9.59h9.05V94.87c-.57,1.36-1.15,2.7-1.69,4.08-2.65,6.7-7.16,11.7-13.95,14.22-2.93,1.07-3.82,2.54-3.8,5.64.13,21.37,0,42.76.15,64.13,0,3.95-.72,7.22-3.74,9.82Z"/><path class="cls-2" d="M139.88,24.95c3,2.1,4.25,4.85,4.2,8.69-.21,14-.08,27.94-.1,41.91,0,4.86-2.43,7.49-6.71,7.46-3.82,0-6.41-2.89-6.42-7.44-.06-14.39-.21-28.76.17-43.14.06-2.53,2.55-5,3.93-7.47Z"/><path class="cls-2" d="M159.62,24.95c2.95,2.43,3.81,5.5,3.74,9.32-.21,14-.1,27.93-.06,41.89,0,3.49-1.55,5.78-4.88,6.63a5.84,5.84,0,0,1-7-2.83,9.13,9.13,0,0,1-1.06-4.27c-.08-14.52,0-29-.09-43.52,0-3.49,1.78-5.56,4.45-7.23Z"/></g></g></svg>