<svg xmlns="http://www.w3.org/2000/svg" viewBox="0 0 200 200"><defs><style>.cls-1{fill:none;}.cls-2{fill:#fff;stroke:#fff;stroke-miterlimit:10;fill-rule:evenodd;}</style></defs><title>Artboard 51 copy 11</title><g id="Layer_5" data-name="Layer 5"><rect class="cls-1" x="0.26" y="1.59" width="199.48" height="199.48"/><g id="In87Vo"><path class="cls-2" d="M125,15.5c.61,2.42,1.68,4.82,1.75,7.25.25,7.28.07,14.55.1,21.83,0,4.93-1.06,9.9,5.09,13,1.88,1,2.45,5.84,2.49,8.94.21,19.24.14,38.49.07,57.73,0,3.55-.11,6.19,4.32,8.13,2.79,1.22,5.5,6,5.63,9.3.62,14.53.63,29.11,0,43.64-.15,3.59-3.5,7.06-5.37,10.58H71.47c-4.64-4.17-6-9.26-5.78-15.53.49-12,.45-24,0-35.92-.28-7.53,2.58-12.08,10.31-14q0-31.32,0-62.61c0-5.31-.06-10.42,6.07-13,.95-.39,1.74-2.78,1.54-4.08-2.29-14.66,7.26-21.88,17.86-28.08,5.15-3,11-4.85,16.51-7.22ZM105,188.89c8.69,0,17.37-.11,26,0,4.81.09,6.75-1.9,6.67-6.71-.16-12.43-.2-24.89,0-37.31.09-5.34-2.27-6.89-7.24-6.84q-25.35.26-50.69,0c-5.16,0-7.15,1.86-7.06,7,.21,12.19.26,24.4,0,36.6-.13,5.7,2.38,7.39,7.64,7.25C88.61,188.73,96.83,188.89,105,188.89Zm21.2-58.14V62.89h-42v67.86Zm-7.17-76V24.27C99,27.93,89.22,39,91.94,54.77Z"/></g></g></svg>