<svg xmlns="http://www.w3.org/2000/svg" width="12.333" height="12.333" viewBox="0 0 12.333 12.333"><defs><style>.a{fill:none;}.b{fill:#689b94;}</style></defs><g transform="translate(12.333) rotate(90)"><path class="a" d="M0,0H12.333V12.333H0Z"/><path class="b" d="M11.974,6.923,7.349,2.3A1.021,1.021,0,0,0,6.625,2h-3.6A1.031,1.031,0,0,0,2,3.028v3.6a1.026,1.026,0,0,0,.3.73l4.625,4.625a1.021,1.021,0,0,0,.725.3,1,1,0,0,0,.725-.3l3.6-3.6a1,1,0,0,0,.3-.725A1.038,1.038,0,0,0,11.974,6.923ZM7.653,11.255,3.028,6.625v-3.6h3.6V3.023L11.25,7.647Z" transform="translate(-0.972 -0.972)"/><circle class="b" cx="1" cy="1" r="1" transform="translate(2 2.333)"/><path class="b" d="M8.9,11.553a1.057,1.057,0,0,0,.308.745l1.8,1.8,1.8-1.8a1.054,1.054,0,0,0-1.49-1.49l-.308.308-.308-.3a1.041,1.041,0,0,0-.745-.313A1.055,1.055,0,0,0,8.9,11.553Z" transform="translate(-4.327 -5.104)"/></g></svg>