<?xml version="1.0" encoding="utf-8"?>
<!-- Generator: Adobe Illustrator 23.0.3, SVG Export Plug-In . SVG Version: 6.00 Build 0)  -->
<svg version="1.1" id="圖層_1" xmlns="http://www.w3.org/2000/svg" xmlns:xlink="http://www.w3.org/1999/xlink" x="0px" y="0px"
	 viewBox="0 0 18.8 22" style="enable-background:new 0 0 18.8 22;" xml:space="preserve">
<style type="text/css">
	.st0{fill:#689B94;}
</style>
<path class="st0" d="M18.2,5.3h-2c1.1-1,1.3-2.6,0.5-3.9C16.1,0.5,15.1,0,14,0c-0.6,0-1.2,0.2-1.7,0.5C11.1,1.2,9.9,3.8,9.4,5
	C8.9,3.8,7.7,1.2,6.5,0.5C6,0.2,5.4,0,4.8,0C3.7,0,2.7,0.5,2.1,1.4C1.3,2.7,1.5,4.3,2.6,5.3h-2C0.3,5.3,0,5.6,0,5.9v4.8
	c0,0.3,0.3,0.6,0.6,0.6h0.3v10.2c0,0.3,0.3,0.6,0.6,0.6c0,0,0,0,0,0h15.8c0.3,0,0.6-0.2,0.6-0.6c0,0,0,0,0,0V11.2h0.3
	c0.3,0,0.6-0.2,0.6-0.6c0,0,0,0,0,0V5.9C18.8,5.6,18.5,5.3,18.2,5.3C18.2,5.3,18.2,5.3,18.2,5.3z M17.6,10.1h-5.5V6.4h5.5V10.1z
	 M10.9,6.4v3.6H7.8V6.4H10.9z M12.9,1.4c0.3-0.2,0.7-0.3,1.1-0.3c0.7,0,1.4,0.3,1.7,0.9c0.6,0.9,0.3,2.1-0.6,2.7c0,0-0.1,0-0.1,0.1
	c-0.2,0.1-0.9,0.4-3.2,0.4c-0.5,0-0.9,0-1.2,0C11.2,3.7,12.2,1.8,12.9,1.4z M3.1,2c0.4-0.6,1-0.9,1.7-0.9c0.4,0,0.8,0.1,1.1,0.3
	c0.7,0.4,1.6,2.3,2.3,3.7c-0.4,0-0.8,0-1.3,0l0,0c-2.3,0-3-0.3-3.2-0.4C2.8,4.2,2.5,3,3.1,2C3,2.1,3,2.1,3.1,2L3.1,2z M1.2,6.4h5.5
	v3.6H1.2L1.2,6.4z M2.1,11.2h4.6v9.7H2.1L2.1,11.2z M7.8,20.9v-9.7h3.1v9.7L7.8,20.9z M16.7,20.9h-4.6v-9.7h4.6L16.7,20.9z"/>
</svg>
