<?xml version="1.0" encoding="utf-8"?>
<!-- Generator: Adobe Illustrator 23.0.3, SVG Export Plug-In . SVG Version: 6.00 Build 0)  -->
<svg version="1.1" id="圖層_1" xmlns="http://www.w3.org/2000/svg" xmlns:xlink="http://www.w3.org/1999/xlink" x="0px" y="0px"
	 viewBox="0 0 64 19" style="enable-background:new 0 0 64 19;" xml:space="preserve">
<style type="text/css">
	.st0{fill:#FFFFFF;}
	.st1{fill:#FCFCFC;}
</style>
<title>out_of_stock_txtleft</title>
<g>
	<g>
		<path class="st0" d="M3.1,4.8L2.6,4.5c0,0,0,0,0-0.1c0-0.1,0-0.2,0.1-0.2c0.1-0.1,0.2-0.1,0.2-0.1c0,0,0.1,0,0.1,0
			c0.1,0,0.1,0.1,0.2,0.1c0.1,0,0.2,0,0.2-0.3c0-0.1-0.1-0.2-0.2-0.3C3.2,3.6,3.1,3.6,3,3.6c0,0,0,0,0,0c-0.3,0-0.5,0.1-0.7,0.3
			C2.1,4,2,4.2,2,4.4c0,0.2,0.1,0.4,0.3,0.5c0.2,0.1,0.4,0.3,0.6,0.4C3,5.4,3,5.4,3,5.5c0,0.1,0,0.2-0.1,0.2
			C2.9,5.7,2.8,5.8,2.7,5.8c-0.1,0-0.3,0-0.4-0.1c0,0,0,0-0.1,0C2.2,5.6,2.1,5.7,2,5.8c0,0,0,0,0,0c0,0,0,0.1,0,0.1c0,0,0,0,0,0
			c0.2,0.2,0.4,0.3,0.6,0.3c0,0,0,0,0,0C3,6.3,3.2,6.2,3.3,6c0.2-0.2,0.3-0.4,0.3-0.6C3.6,5.3,3.5,5,3.1,4.8z"/>
		<path class="st0" d="M6,3.6c-0.2,0-0.3,0-0.4,0.1l-0.1,0c0,0,0,0,0,0c-0.1,0-0.1,0-0.1,0C5.1,4.1,5,4.5,5.1,4.8
			c0,0.4,0.1,0.7,0.2,1.1C5.4,6.1,5.7,6.3,6,6.3c0,0,0,0,0,0s0,0,0,0c0.3,0,0.6-0.2,0.7-0.5C6.9,5.6,7,5.3,7,5
			c0-0.3-0.1-0.6-0.2-0.9C6.6,3.8,6.3,3.6,6,3.6z M6.4,4.9c0,0.2,0,0.4-0.1,0.6C6.2,5.6,6.1,5.7,6,5.7c0,0,0,0,0,0
			c-0.2,0-0.4-0.1-0.4-0.8c0-0.8,0.3-0.8,0.4-0.8c0.1,0,0.3,0.1,0.3,0.2C6.4,4.5,6.4,4.7,6.4,4.9z"/>
		<path class="st0" d="M10,3.8c0,0-0.1,0-0.1,0C9.6,3.8,9.3,4,9,4.2C9,4.1,9,4,9,3.9c0-0.2-0.1-0.3-0.2-0.3c0,0-0.1-0.1-0.1-0.1
			c-0.1,0-0.1,0-0.2,0C8.3,3.6,8.3,3.8,8.3,3.9v0.4c0,0.1,0,0.2,0,0.3c0,0.1,0,0.2,0,0.3v0.7c0,0.2,0,0.7,0.3,0.7C9,6.3,9,6.2,9,5.9
			V5.3c0-0.2,0.1-0.4,0.2-0.5c0.2-0.2,0.4-0.4,0.6-0.4c0.3,0,0.4-0.2,0.4-0.3c0-0.1,0-0.2-0.1-0.2C10.1,3.8,10,3.8,10,3.8z"/>
		<path class="st0" d="M13.1,3.8C13.1,3.8,13.1,3.8,13.1,3.8c-0.4,0-0.7,0.2-1,0.4V3.9c0-0.2-0.2-0.3-0.3-0.3c0,0,0,0,0,0
			c-0.1,0-0.3,0.1-0.3,0.3v1.7c0,0.2,0,0.7,0.3,0.7c0.3,0,0.3-0.1,0.3-0.4V5.3c0-0.2,0.1-0.4,0.2-0.5c0.2-0.2,0.4-0.4,0.6-0.4
			c0.3,0,0.4-0.2,0.4-0.3c0-0.1,0-0.2-0.1-0.2C13.3,3.8,13.2,3.8,13.1,3.8z"/>
		<path class="st0" d="M16.6,3.6C16.6,3.6,16.6,3.6,16.6,3.6c-0.1,0-0.2,0.1-0.3,0.2l-0.2,0.3c-0.1,0.2-0.2,0.4-0.3,0.6
			c-0.2-0.3-0.3-0.6-0.5-0.9c-0.1-0.1-0.2-0.2-0.3-0.2c-0.2,0-0.3,0.1-0.3,0.3c0,0.1,0,0.2,0.1,0.2c0.3,0.4,0.5,0.8,0.7,1.2
			c-0.3,0.5-0.7,1-1,1.5c0,0.1-0.1,0.1-0.1,0.2c0,0.1,0.1,0.2,0.3,0.2c0.1,0,0.2-0.1,0.4-0.3c0.6-0.8,1.2-1.7,1.7-2.6
			c0.1-0.1,0.1-0.2,0.2-0.4C16.9,3.8,16.9,3.6,16.6,3.6z"/>
		<path class="st0" d="M22.2,3.6L22.2,3.6c-0.1,0-0.3,0.1-0.4,0.1c-0.1,0.1-0.2,0.2-0.2,0.3c0,0.1,0,0.2,0.1,0.3
			c0.1,0.1,0.2,0.2,0.3,0.2c0,0,0,0,0,0c0.1,0,0.3-0.1,0.3-0.2c0.1-0.1,0.1-0.2,0.1-0.3C22.6,3.7,22.4,3.6,22.2,3.6z"/>
		<path class="st0" d="M22.1,5.4C22.1,5.4,22.1,5.4,22.1,5.4c-0.1,0-0.3,0.1-0.3,0.2c-0.1,0.1-0.1,0.2-0.2,0.3c0,0.1,0,0.2,0.1,0.3
			c0.1,0.1,0.2,0.2,0.3,0.2c0,0,0,0,0.1,0c0,0,0,0,0,0c0.2,0,0.4-0.2,0.5-0.5C22.6,5.5,22.4,5.4,22.1,5.4z"/>
		<path class="st0" d="M26.7,6.7c-0.6-0.8-0.9-1.7-1-2.7c0,0,0,0,0,0c0-0.5,0.1-1,0.2-1.5c0.1-0.3,0.4-0.6,0.6-0.8
			c0.1-0.1,0.1-0.2,0.2-0.3c0-0.1-0.1-0.3-0.2-0.3c0,0,0,0,0,0c0,0-0.1,0-0.2,0.1c-0.4,0.3-0.7,0.8-0.9,1.2c-0.2,0.5-0.2,1-0.2,1.5
			c0,0.6,0.1,1.2,0.3,1.7c0.1,0.4,0.3,0.7,0.5,1c0.2,0.3,0.4,0.4,0.5,0.4c0.2,0,0.3-0.1,0.3-0.2C26.8,6.8,26.7,6.7,26.7,6.7z"/>
	</g>
	<path class="st1" d="M4.5,11.8c-1.5,0-2.5,1.2-2.5,3s1,3,2.5,3s2.4-1.2,2.4-3S6,11.8,4.5,11.8z M6.2,14.8c0,1.4-0.7,2.3-1.7,2.3
		s-1.7-0.9-1.7-2.3s0.6-2.3,1.7-2.3S6.2,13.4,6.2,14.8L6.2,14.8z"/>
	<path class="st1" d="M12.6,11.9h-0.7l0,0v3.4c0,1.2-0.4,1.8-1.3,1.8s-1.3-0.6-1.3-1.8V12l0,0H8.5l0,0v3.3c0,1.6,0.7,2.5,2.1,2.5
		s2.1-0.8,2.1-2.5L12.6,11.9C12.7,12,12.6,11.9,12.6,11.9z"/>
	<path class="st1" d="M18.1,11.9H14l0,0v0.6l0,0h1.7v5l0,0h0.8l0,0v-5h1.7l0,0L18.1,11.9L18.1,11.9z"/>
	<path class="st1" d="M23.8,11.8c-1.5,0-2.5,1.2-2.5,3s1,3,2.5,3s2.5-1.2,2.5-3S25.2,11.8,23.8,11.8z M23.8,17.1
		c-1,0-1.7-0.9-1.7-2.3s0.6-2.3,1.7-2.3s1.6,0.9,1.6,2.3S24.8,17.1,23.8,17.1z"/>
	<path class="st1" d="M31,11.9h-3.3l0,0v5.7l0,0h0.7l0,0v-2.5h2.1l0,0v-0.6l0,0h-2.1v-1.9H31l0,0V11.9L31,11.9z"/>
	<path class="st1" d="M36.9,14.6l-0.8-0.4c-0.4-0.2-0.9-0.4-0.9-0.9s0.4-0.8,1-0.8c0.5,0,1,0.2,1.3,0.5l0,0l0.4-0.5 M37.8,12.5
		c-0.4-0.5-1.1-0.7-1.7-0.7c-0.9-0.1-1.7,0.6-1.8,1.5c0,0,0,0,0,0.1c0,0.7,0.5,1.3,1.2,1.5l0.8,0.4c0.5,0.2,0.9,0.4,0.9,1
		s-0.4,0.9-1.2,0.9c-0.6,0-1.1-0.3-1.5-0.7l0,0l0,0l-0.4,0.5l0,0c0.5,0.5,1.2,0.9,2,0.9c1,0.1,1.8-0.5,2-1.5c0-0.1,0-0.1,0-0.2
		c0-0.7-0.5-1.3-1.2-1.5L37.8,12.5z"/>
	<path class="st1" d="M43,11.9h-4.2l0,0v0.6l0,0h1.7v5l0,0h0.7l0,0v-5h1.7l0,0L43,11.9L43,11.9z"/>
	<path class="st1" d="M46.3,11.8c-1.5,0-2.5,1.2-2.5,3s1,3,2.5,3s2.5-1.2,2.5-3S47.8,11.8,46.3,11.8z M47.9,14.8
		c0,1.4-0.7,2.3-1.7,2.3s-1.7-0.9-1.7-2.3s0.6-2.3,1.7-2.3S47.9,13.4,47.9,14.8L47.9,14.8z"/>
	<path class="st1" d="M53.8,16.5L53.8,16.5L53.8,16.5c-0.3,0.4-0.8,0.6-1.3,0.6c-1.1,0-1.7-0.9-1.7-2.3s0.7-2.3,1.7-2.3
		c0.4,0,0.9,0.2,1.1,0.5l0,0l0,0l0.4-0.5l0,0c-0.4-0.5-0.9-0.7-1.5-0.8c-1.5,0-2.5,1.2-2.5,3s1,3,2.5,3c0.7,0,1.3-0.3,1.8-0.8l0,0
		L53.8,16.5z"/>
	<path class="st1" d="M59.6,12L59.6,12L59.6,12h-0.8l-2.3,2.8V12l0,0h-0.7l0,0v5.7l0,0h0.7l0,0v-1.8l0.9-1.1l1.7,2.9l0,0h0.8l0,0
		l0,0l-2-3.5L59.6,12z"/>
	<path class="st1" d="M61.5,16.6c-0.3,0-0.5,0.3-0.5,0.7c0,0.3,0.2,0.5,0.5,0.5c0.3,0,0.5-0.2,0.5-0.5c0,0,0,0,0,0
		C62,16.9,61.8,16.6,61.5,16.6C61.5,16.6,61.5,16.6,61.5,16.6z"/>
	<path class="st1" d="M61.2,15.9L61.2,15.9h0.5l0,0l0.1-4.1l0,0H61l0,0v0.8L61.2,15.9z"/>
</g>
</svg>
