<?xml version="1.0" encoding="utf-8"?>
<!-- Generator: Adobe Illustrator 23.0.3, SVG Export Plug-In . SVG Version: 6.00 Build 0)  -->
<svg version="1.1" id="圖層_1" xmlns="http://www.w3.org/2000/svg" xmlns:xlink="http://www.w3.org/1999/xlink" x="0px" y="0px"
	 viewBox="0 0 10 10.1" style="enable-background:new 0 0 10 10.1;" xml:space="preserve">
<style type="text/css">
	.st0{fill:#689B94;}
</style>
<path class="st0" d="M10,1.9L7.7,0L7.1,0.8l2.3,1.9L10,1.9z M2.9,0.8L2.3,0L0,1.9l0.6,0.8L2.9,0.8z M5.3,3.1H4.5v3l2.4,1.4l0.4-0.6
	l-2-1.2V3.1z M5,1.1c-2.5,0-4.5,2-4.5,4.5s2,4.5,4.5,4.5s4.5-2,4.5-4.5S7.5,1.1,5,1.1C5,1.1,5,1.1,5,1.1z M5,9.1
	c-1.9,0-3.5-1.6-3.5-3.5S3.1,2.1,5,2.1s3.5,1.6,3.5,3.5S6.9,9.1,5,9.1z"/>
</svg>
