<svg id="Layer_1" data-name="Layer 1" xmlns="http://www.w3.org/2000/svg" viewBox="0 0 80 80"><defs><style>.cls-1{fill:#689b94;stroke:#689b94;stroke-miterlimit:10;}</style></defs><title>180621_9大類別 icon</title><path class="cls-1" d="M35.06,45.2a3.17,3.17,0,0,0-.47-.16c-5.31-.26-5.31-.26-8.48,3.94-1.29,1.71-6.4,2.87-8.1,1.69a2.16,2.16,0,0,1-.62-2,23.41,23.41,0,0,0,0-19.4c-.61-1.42.2-2.25,1.68-2.32a23.49,23.49,0,0,1,4.11,0,6.48,6.48,0,0,1,2.29,1.14,2.29,2.29,0,0,1,.71.93C28,32.72,31,33.7,35,32.63c-.24-.93-.5-2-.79-3-1.14-4-2.31-8-3.43-12-.54-1.91-.05-2.55,1.91-2.59,2.22,0,4.44,0,6.66,0a2.85,2.85,0,0,1,2.81,1.69c2.73,4.89,5.57,9.73,8.3,14.63A2.67,2.67,0,0,0,53.15,33a70.89,70.89,0,0,1,10.72.4,13.26,13.26,0,0,1,5.69,2.77c2.15,1.65,2,3.85.07,5.71A11.37,11.37,0,0,1,62,45c-3,.09-6,.08-9,0a2.35,2.35,0,0,0-2.45,1.4c-2.68,4.86-5.51,9.63-8.15,14.5A3.58,3.58,0,0,1,38.67,63c-2-.11-3.92,0-5.88,0s-2.56-.74-2-2.69C32.18,55.25,33.62,50.25,35.06,45.2ZM68.17,39a9.17,9.17,0,0,0-6.79-3c-3.39,0-6.78-.06-10.17,0a2.37,2.37,0,0,1-2.43-1.45C45.93,29.45,43,24.38,40.11,19.26A2.12,2.12,0,0,0,37.82,18c-1.21.1-2.44,0-3.84,0,1.75,6.1,3.43,12,5.16,18a38.11,38.11,0,0,0-5.68,0c-4.21.65-7.3-.64-9.19-4.56-.71-1.48-1.94-1.75-3.76-1.11a17.48,17.48,0,0,1,0,17.21c1.87.69,2.87.25,3.7-1A34.8,34.8,0,0,1,27,42.94c.34-.42.87-.95,1.33-1,3.54-.07,7.09,0,10.85,0L34,59.94a22.34,22.34,0,0,1,3.09,0c1.76.27,2.66-.51,3.47-2,2.68-4.92,5.55-9.74,8.27-14.64a2.39,2.39,0,0,1,2.46-1.42c3.45.08,6.91,0,10.37,0A8.23,8.23,0,0,0,68.17,39Z"/></svg>