<svg id="Layer_1" data-name="Layer 1" xmlns="http://www.w3.org/2000/svg" viewBox="0 0 80 80"><defs><style>.cls-1{fill:#689b94;stroke:#689b94;stroke-miterlimit:10;}</style></defs><title>180621_9大類別 icon</title><path class="cls-1" d="M54.41,28.38c-.66-.94-1.34-1.89-2-2.8-1-1.38-2-2.81-3-4.25a13.75,13.75,0,0,1-2.5-7.58,1.91,1.91,0,0,0-1.08-1.91l-.11-.06H45l-.12.08-.22.14c-.17.11-.35.22-.52.35a27,27,0,0,0-5.92,6.18,25.17,25.17,0,0,0-4.32,9.86,53,53,0,0,0-.78,8.85,5,5,0,0,1-2.41-1.92,12.85,12.85,0,0,1-2-4.83,2.36,2.36,0,0,0-.77-1.27,1.28,1.28,0,0,0-.79-.27,2.1,2.1,0,0,0-1.15.44,11.21,11.21,0,0,0-3.84,4.84,24,24,0,0,0-1.57,13.85,19,19,0,0,0,6.26,11.1,19.27,19.27,0,0,0,12.49,5l.75,0A19.09,19.09,0,0,0,52,60.12a19.45,19.45,0,0,0,7.65-13.67A23.79,23.79,0,0,0,59,38.17,28,28,0,0,0,54.41,28.38Zm-6.1,30.07A10.9,10.9,0,0,0,48.13,50a17.27,17.27,0,0,0-1.4-2.62l-.16-.27c-.35-.57-.72-1.13-1.09-1.67s-.55-.82-.81-1.24a5.26,5.26,0,0,1-.88-2.77,1.6,1.6,0,0,0-1.57-1.74,1.88,1.88,0,0,0-1.23.53A12.72,12.72,0,0,0,36.4,49c0-.15-.09-.3-.13-.44a1.63,1.63,0,0,0-1.53-1.41,1.86,1.86,0,0,0-1.14.44,6.18,6.18,0,0,0-2.21,3.6A12.56,12.56,0,0,0,31,55.9,9.59,9.59,0,0,0,32,59a16.9,16.9,0,0,1-5.19-4.42,17.13,17.13,0,0,1-3.16-7.21,21.5,21.5,0,0,1,.05-7.13,15.27,15.27,0,0,1,2-5.94c.18-.29.38-.57.61-.88l0,.08a11.34,11.34,0,0,0,4.05,5.8,7.14,7.14,0,0,0,4.09,1.32h0a1.56,1.56,0,0,0,1.72-1.68c0-.65.05-1.32.07-2,.06-1.58.11-3.21.22-4.8a22.63,22.63,0,0,1,4.84-12.6c.64-.83,1.39-1.61,2.1-2.37l.7-.74c.07.34.14.66.22,1A22.55,22.55,0,0,0,48,24.86c.51.72,1,1.45,1.54,2.15,1.11,1.54,2.26,3.13,3.31,4.73a22.55,22.55,0,0,1,3.73,11.69,17.15,17.15,0,0,1-2,9.17A17.66,17.66,0,0,1,48,59Q48.19,58.74,48.31,58.45ZM34.39,52.08a6.76,6.76,0,0,0,.54.66,3.75,3.75,0,0,0,2.42,1.2,2,2,0,0,0,.34,0,1.61,1.61,0,0,0,1.68-1.76l0-.86c0-.7,0-1.42.1-2.12a9.23,9.23,0,0,1,1.8-4.78,4.74,4.74,0,0,0,.24.51c.53.91,1.1,1.88,1.73,2.8l0,0A14.74,14.74,0,0,1,45.52,52c.74,2.63.53,4.67-.66,6.43a5.53,5.53,0,0,1-4.73,2.7l-.61,0a5.7,5.7,0,0,1-5-3.88A7.82,7.82,0,0,1,34.39,52.08Z"/></svg>