<svg id="Layer_1" data-name="Layer 1" xmlns="http://www.w3.org/2000/svg" viewBox="0 0 80 80"><defs><style>.cls-1{fill:#689b94;}</style></defs><title>180621_9大類別 icon</title><path class="cls-1" d="M58.06,30.37c1.44,0,2.67,0,3.9,0,2.95.11,4.92,1.85,5.07,4.78.16,3.31.06,6.64.06,10,0,2.12-1.52,2.22-3.39,2.21,0,3.35,0,6.64,0,9.93,0,5.41-1.53,6.93-7,6.93H23c-5.15,0-6.8-1.63-6.8-6.72,0-3.31,0-6.62,0-9.91-3.32-.63-3.33-.63-3.33-4,0-2.51-.05-5,0-7.53.11-4,1.8-5.6,5.76-5.65,1,0,2,0,2.62,0-.23-2.34-.84-4.54-.56-6.62a7.71,7.71,0,0,1,12.86-5c2.51,2.17,4.36,5.12,6.48,7.69a76.7,76.7,0,0,1,4.66-6.21c3.34-3.69,7.51-4.44,10.86-2.26,3.58,2.34,4.73,6.69,3,11.22ZM43.18,60.65V33.77H36.73V60.65ZM33,60.76V47.45H19.72c0,3.86,0,7.55,0,11.24,0,1.35.61,2.07,2,2.07Zm13.9,0c3.94,0,7.76.07,11.57-.07a2.3,2.3,0,0,0,1.66-1.52c.15-3.88.08-7.76.08-11.72H46.92ZM33.05,33.64c-5,0-9.81-.08-14.58.08a2.8,2.8,0,0,0-2.11,1.7c-.23,2.75-.1,5.53-.1,8.19H33.05Zm30.62,10c0-2.75.14-5.4-.09-8a2.77,2.77,0,0,0-1.87-1.93c-4.91-.17-9.82-.09-14.73-.09v10ZM38.38,30.3C36,27.07,34,24.17,31.72,21.55c-1.42-1.64-3.47-1.82-5.46-.72A5.12,5.12,0,0,0,24,26.17c.4,2.25,1.87,4,4,4.08C31.21,30.43,34.42,30.3,38.38,30.3Zm3.28.05c3.73,0,6.75.08,9.77,0A4.69,4.69,0,0,0,56,26.25a5.07,5.07,0,0,0-2.6-5.59,4.57,4.57,0,0,0-5.74,1.42C45.64,24.58,43.87,27.27,41.66,30.35Z"/></svg>