<svg id="Layer_1" data-name="Layer 1" xmlns="http://www.w3.org/2000/svg" viewBox="0 0 80 80"><defs><style>.cls-1,.cls-2{fill:#689b94;}.cls-1{stroke:#689b94;stroke-miterlimit:10;stroke-width:1.5px;}</style></defs><title>180621_9大類別 icon</title><path class="cls-1" d="M64.14,37.84l0-.16-.06-.31-.18-1.27a25.88,25.88,0,0,0-.45-2.73,23.49,23.49,0,0,0-3.12-7.3,23.85,23.85,0,0,0-5.22-5.76A24.28,24.28,0,0,0,40.42,15H40.3a1.54,1.54,0,0,0-1.19.39,1.74,1.74,0,0,0-.34,1.23v9.74a3.39,3.39,0,0,0,0,.44A1.19,1.19,0,0,0,40,27.94h0a1.18,1.18,0,0,0,1.21-1.17,3.62,3.62,0,0,0,0-.46V17.5a20.86,20.86,0,0,1,9.73,3,22.59,22.59,0,0,1,7.47,7.22,22.29,22.29,0,0,1,3.16,9.89,20,20,0,0,1-2.16,11.08,22.6,22.6,0,0,1-7.28,8.45,22.31,22.31,0,0,1-10.56,3.6c-.66.06-1.32.09-2,.09a19.78,19.78,0,0,1-9.16-2.24A22.6,22.6,0,0,1,22,51.28a22.35,22.35,0,0,1-3.6-10.57,20.64,20.64,0,0,1,2.12-11.09,21.58,21.58,0,0,1,4-5.67,1.42,1.42,0,0,0,.47-1,1.18,1.18,0,0,0-.4-.84,1.19,1.19,0,0,0-.8-.33,1.45,1.45,0,0,0-1,.49,23.87,23.87,0,0,0-6.65,13.39c-.07.5-.13,1-.19,1.48l-.09.68v2.61l.09.69c.06.49.12,1,.19,1.51A24.2,24.2,0,0,0,36.21,63c.58.1,1.17.16,1.74.22l.79.1h2.52l.69-.08L43.46,63a23.53,23.53,0,0,0,12.08-5.44,23.8,23.8,0,0,0,8.07-13.49c.15-.71.23-1.44.32-2.14l.12-1,.06-.34,0-.18V37.84Z"/><path class="cls-2" d="M31.32,32.25l.16.23L36.92,40l.41.57c.44.61.89,1.24,1.38,1.82a3.1,3.1,0,0,0,2.41,1.13,3.26,3.26,0,0,0,3.26-3.64,3.18,3.18,0,0,0-1.53-2.4L36.67,33l-3.59-2.6L33,30.36a.91.91,0,0,0-.58-.27h0a2.07,2.07,0,0,0-1.08.24A1.08,1.08,0,0,0,31,31.75,2.69,2.69,0,0,0,31.32,32.25Zm6.3,4.5,2.87,2.08,1,.71a.79.79,0,0,1,.41.91.77.77,0,0,1-.75.6.79.79,0,0,1-.53-.21l-.19-.21Z"/></svg>