<?xml version="1.0" encoding="utf-8"?>
<!-- Generator: Adobe Illustrator 23.0.3, SVG Export Plug-In . SVG Version: 6.00 Build 0)  -->
<svg version="1.1" id="Layer_1" xmlns="http://www.w3.org/2000/svg" xmlns:xlink="http://www.w3.org/1999/xlink" x="0px" y="0px"
	 viewBox="0 0 80 80" style="enable-background:new 0 0 80 80;" xml:space="preserve">
<style type="text/css">
	.st0{opacity:0.7;fill:#EE5984;stroke:#EE5984;stroke-width:0.5;stroke-miterlimit:10;enable-background:new    ;}
</style>
<title>180621_9大類別 icon</title>
<path class="st0" d="M66.7,29c-2.8-4.4-5.5-8.9-8.2-13.4c-0.6-1.1-1.8-1.8-3-1.7C50.3,14,45.2,14,40,14s-10.3,0-15.5,0
	c-1.1-0.1-2.2,0.5-2.7,1.5c-2.8,4.6-5.6,9.2-8.5,13.7c-0.7,0.8-0.7,2.1,0.1,2.8c8.4,9.9,16.8,19.7,25.2,29.7
	c1.1,1.3,1.9,1.1,2.9-0.1c8.3-9.9,16.7-19.7,25-29.6C67.4,31.2,67.5,29.9,66.7,29z M50.8,29.2H29.2c0.7-1.5,1.4-2.9,2.1-4.3l4.1-7.2
	c0.2-0.1,0.4-0.2,0.5-0.2h8.8c0.2,0.1,0.3,0.1,0.5,0.2l3.6,6.9C49.4,26.1,50.1,27.6,50.8,29.2L50.8,29.2z M24.3,18.1
	c0.3-0.4,0.7-0.6,1.1-0.6c1.7-0.1,3.4,0,5.4,0c-1.8,3.9-3.4,7.6-5.1,11.1c-0.3,0.4-0.8,0.6-1.3,0.6c-2.1,0.1-4.2,0-6.8,0
	C20,25.3,22.1,21.7,24.3,18.1z M18.5,32.3c6.8-0.4,6.8-0.4,9.2,5.3c1.6,3.8,3.2,7.6,4.5,11.7L18.5,32.3z M40,57.3L29.1,32.2h21.7
	C47.3,40.5,43.8,48.7,40,57.3z M47.9,49.2l-0.3-0.1c0.1-0.4,0.2-0.7,0.3-1.1c2-4.8,4.1-9.6,6.1-14.4c0.4-1,0.9-1.5,2-1.4
	c1.7,0.1,3.3,0,5.5,0L47.9,49.2z M55.3,29.2c-0.4,0-0.7-0.2-0.9-0.5c-1.7-3.7-3.3-7.4-5.1-11.3c2,0,3.7,0,5.3,0c0.5,0,1,0.2,1.3,0.6
	c2.2,3.6,4.3,7.2,6.7,11.2C59.8,29.3,57.5,29.3,55.3,29.2L55.3,29.2z"/>
</svg>
