<svg id="Layer_1" data-name="Layer 1" xmlns="http://www.w3.org/2000/svg" viewBox="0 0 80 80"><defs><style>.cls-1{fill:#747474;}</style></defs><title>180621_9大類別 icon</title><path class="cls-1" d="M66.68,29c-2.79-4.42-5.54-8.87-8.21-13.36a3.09,3.09,0,0,0-3-1.68c-5.16.06-10.32,0-15.48,0s-10.33,0-15.49,0a2.77,2.77,0,0,0-2.73,1.49C19,20.08,16.15,24.64,13.3,29.18a2,2,0,0,0,.14,2.8Q26.07,46.77,38.63,61.63c1.07,1.28,1.9,1.09,2.87-.06Q54,46.78,66.5,32A2.14,2.14,0,0,0,66.68,29Zm-15.85.18H29.24c.67-1.49,1.41-2.9,2.07-4.31l4.06-7.18a4.38,4.38,0,0,1,.54-.23h8.75a2.31,2.31,0,0,1,.45.21l3.6,6.9C49.39,26.08,50.07,27.58,50.83,29.22ZM24.28,18.07a1.56,1.56,0,0,1,1.09-.62c1.69-.07,3.4,0,5.4,0C29,21.32,27.38,25,25.67,28.59a1.69,1.69,0,0,1-1.27.64c-2.11.06-4.22,0-6.78,0C20,25.29,22.1,21.67,24.28,18.07ZM18.54,32.28c6.78-.35,6.78-.35,9.16,5.28,1.61,3.81,3.21,7.62,4.46,11.65ZM40,57.31,29.13,32.24h21.7C47.26,40.54,43.75,48.67,40,57.31Zm7.91-8.15-.26-.09A8.08,8.08,0,0,1,48,48c2-4.8,4.07-9.59,6.07-14.4.4-1,.87-1.49,2-1.41,1.65.11,3.31,0,5.52,0Zm7.34-19.93a1.23,1.23,0,0,1-.92-.51C52.64,25,51,21.33,49.19,17.42c2,0,3.65,0,5.29,0a1.77,1.77,0,0,1,1.29.61c2.21,3.58,4.34,7.21,6.72,11.19C59.83,29.25,57.55,29.27,55.28,29.23Z"/></svg>