<?xml version="1.0" encoding="utf-8"?>
<!-- Generator: Adobe Illustrator 16.0.0, SVG Export Plug-In . SVG Version: 6.00 Build 0)  -->
<!DOCTYPE svg PUBLIC "-//W3C//DTD SVG 1.1//EN" "http://www.w3.org/Graphics/SVG/1.1/DTD/svg11.dtd">
<svg xmlns="http://www.w3.org/2000/svg" xmlns:xlink="http://www.w3.org/1999/xlink" version="1.1" id="Alpaca" x="0px" y="0px" width="512" height="512" viewBox="0 0 144.083 144" enable-background="new 0 0 144.083 144" xml:space="preserve">
<path d="M87.286,67.747c-0.348,0-0.693,0.01-1.035,0.026V45.641c0-7.714-13.016-11.75-25.873-11.75  c-12.857,0-25.873,4.036-25.873,11.75v40h0.022c0.478,7.433,13.235,11.32,25.851,11.32c2.165,0,4.329-0.125,6.44-0.354  c2.968,8.447,11.018,14.521,20.467,14.521c11.959,0,21.689-9.73,21.689-21.691C108.975,77.478,99.245,67.747,87.286,67.747z   M60.378,39.891c12.908,0,19.873,4.081,19.873,5.75s-6.965,5.75-19.873,5.75c-12.909,0-19.873-4.081-19.873-5.75  S47.469,39.891,60.378,39.891z M40.505,53.428c4.993,2.617,12.457,3.963,19.873,3.963s14.878-1.346,19.873-3.963v5.62  c0,1.669-6.965,5.75-19.873,5.75c-12.909,0-19.873-4.081-19.873-5.75V53.428z M65.635,90.709c-1.628,0.155-3.368,0.252-5.257,0.252  c-12.909,0-19.873-4.081-19.873-5.75V79.61c4.993,2.616,12.457,3.962,19.873,3.962c2.057,0,4.11-0.115,6.12-0.321  c-0.585,1.962-0.903,4.037-0.903,6.187C65.595,89.864,65.61,90.288,65.635,90.709z M60.378,77.572  c-12.909,0-19.873-4.081-19.873-5.749v-4.988c4.993,2.617,12.457,3.963,19.873,3.963s14.878-1.346,19.873-3.963v2.09  c-4.275,1.471-7.95,4.239-10.55,7.837C67.06,77.252,63.957,77.572,60.378,77.572z M87.286,105.129  c-8.652,0-15.691-7.039-15.691-15.691c0-8.651,7.039-15.69,15.691-15.69c8.65,0,15.689,7.039,15.689,15.69  C102.975,98.09,95.936,105.129,87.286,105.129z"/>
<path d="M86.915,86.879c-2.525-0.3-3.807-0.66-3.807-1.797c0-1.696,2.283-1.949,3.643-1.949c1.613,0,3.398,0.78,3.979,1.739  l0.23,0.383l3.686-1.705l-0.225-0.459c-1.297-2.649-3.596-3.449-5.371-3.775v-2.343h-4.309v2.33  c-3.797,0.591-6.047,2.729-6.047,5.779c0,5.019,4.705,5.544,7.816,5.891c2.828,0.336,4.146,1.015,4.146,2.137  c0,2.171-3.068,2.34-4.01,2.34c-2.109,0-4.141-1.045-4.725-2.431l-0.195-0.462l-3.998,1.694l0.197,0.461  c1.125,2.636,3.535,4.296,6.814,4.71v2.527h4.309v-2.654c3.146-0.388,6.178-2.399,6.178-6.186  C95.227,87.902,90.225,87.286,86.915,86.879z"/>
</svg>
