<?xml version="1.0" encoding="utf-8"?>
<!-- Generator: Adobe Illustrator 23.0.2, SVG Export Plug-In . SVG Version: 6.00 Build 0)  -->
<svg version="1.1" id="Layer_1" xmlns="http://www.w3.org/2000/svg" xmlns:xlink="http://www.w3.org/1999/xlink" x="0px" y="0px"
	 viewBox="0 0 106 106" style="enable-background:new 0 0 106 106;" xml:space="preserve">
<style type="text/css">
	.st0{fill:#6D6D6D;}
</style>
<g>
	<path class="st0" d="M86.2,17.9h-7.3v-1.8c0-2.1-1.7-3.8-3.8-3.8H63.8C62.5,7.4,58.1,4,53,4c-5.1,0-9.5,3.4-10.8,8.3H30.8
		c-2.1,0-3.8,1.7-3.8,3.8v1.8h-7.3c-2.1,0-3.8,1.7-3.8,3.8v76.5c0,2.1,1.7,3.8,3.8,3.8h66.5c2.1,0,3.8-1.7,3.8-3.8V21.7
		C90,19.6,88.3,17.9,86.2,17.9z M49.4,16.1v-0.9c0-2,1.6-3.6,3.6-3.6c2,0,3.6,1.6,3.6,3.6v0.9c0,2.1,1.7,3.8,3.8,3.8h11v3.5H34.6
		v-3.5h11C47.7,19.8,49.4,18.2,49.4,16.1z M30.8,30.9h44.3c2.1,0,3.8-1.7,3.8-3.8v-1.7h3.5l0,69H23.5v-69h3.5v1.7
		C27.1,29.2,28.8,30.9,30.8,30.9z"/>
	<path class="st0" d="M42.4,72.7l9.2,4.6c0.5,0.2,1,0.3,1.5,0.3s1-0.1,1.5-0.3l9.2-4.6c3.3-1.7,6.1-4.2,8.1-7.4c2-3.2,3-6.8,3-10.6
		c0-6.9-5.6-12.5-12.5-12.5c-3.5,0-6.9,1.5-9.2,4.1c-2.4-2.6-5.7-4.1-9.2-4.1c-6.9,0-12.5,5.6-12.5,12.5c0,3.7,1,7.4,3,10.6
		C36.2,68.5,39,71,42.4,72.7z M56.3,54.8c0-3.3,2.7-6,6-6s6,2.7,6,6c0,5.2-2.9,9.8-7.5,12.1L53,70.7l-7.7-3.9
		c-4.6-2.3-7.5-6.9-7.5-12.1c0-3.3,2.7-6,6-6c3.3,0,6,2.7,6,6c0,1.8,1.5,3.3,3.3,3.3S56.3,56.6,56.3,54.8z"/>
</g>
</svg>
