<?xml version="1.0" encoding="utf-8"?>
<!-- Generator: Adobe Illustrator 23.0.2, SVG Export Plug-In . SVG Version: 6.00 Build 0)  -->
<svg version="1.1" id="Layer_1" xmlns="http://www.w3.org/2000/svg" xmlns:xlink="http://www.w3.org/1999/xlink" x="0px" y="0px"
	 viewBox="0 0 106 106" style="enable-background:new 0 0 106 106;" xml:space="preserve">
<style type="text/css">
	.st0{fill:#6D6D6D;}
</style>
<g>
	<path class="st0" d="M71.4,49.4c-0.4,0-0.8,0-1.2,0V23.3c0-9.1-15.4-13.9-30.6-13.9S9,14.2,9,23.3v47.2h0
		c0.6,8.8,15.6,13.4,30.5,13.4c2.6,0,5.1-0.1,7.6-0.4c3.5,10,13,17.1,24.2,17.1C85.5,100.6,97,89.1,97,75
		C97,60.9,85.5,49.4,71.4,49.4z M39.6,16.5c15.2,0,23.5,4.8,23.5,6.8s-8.2,6.8-23.5,6.8c-15.2,0-23.5-4.8-23.5-6.8
		S24.3,16.5,39.6,16.5z M16.1,32.5c5.9,3.1,14.7,4.7,23.5,4.7s17.6-1.6,23.5-4.7v6.6c0,2-8.2,6.8-23.5,6.8
		c-15.2,0-23.5-4.8-23.5-6.8L16.1,32.5L16.1,32.5z M45.8,76.5c-1.9,0.2-4,0.3-6.2,0.3c-15.2,0-23.5-4.8-23.5-6.8v-6.6
		c5.9,3.1,14.7,4.7,23.5,4.7c2.4,0,4.9-0.1,7.2-0.4c-0.7,2.3-1.1,4.8-1.1,7.3C45.7,75.5,45.8,76,45.8,76.5z M39.6,61
		c-15.2,0-23.5-4.8-23.5-6.8v-5.9C22,51.4,30.8,53,39.6,53s17.6-1.6,23.5-4.7v2.5c-5,1.7-9.4,5-12.5,9.3C47.5,60.6,43.8,61,39.6,61z
		 M71.4,93.5c-10.2,0-18.5-8.3-18.5-18.5c0-10.2,8.3-18.5,18.5-18.5c10.2,0,18.5,8.3,18.5,18.5C89.9,85.2,81.6,93.5,71.4,93.5z"/>
	<path class="st0" d="M70.9,72c-3-0.4-4.5-0.8-4.5-2.1c0-2,2.7-2.3,4.3-2.3c1.9,0,4,0.9,4.7,2.1l0.3,0.5l4.4-2l-0.3-0.5
		c-1.5-3.1-4.2-4.1-6.3-4.5v-2.8h-5.1V63c-4.5,0.7-7.1,3.2-7.1,6.8c0,5.9,5.6,6.5,9.2,7c3.3,0.4,4.9,1.2,4.9,2.5
		c0,2.6-3.6,2.8-4.7,2.8c-2.5,0-4.9-1.2-5.6-2.9l-0.2-0.5l-4.7,2l0.2,0.5c1.3,3.1,4.2,5.1,8,5.6v3h5.1v-3.1c3.7-0.5,7.3-2.8,7.3-7.3
		C80.7,73.2,74.8,72.5,70.9,72z"/>
</g>
</svg>
