<?xml version="1.0" encoding="utf-8"?>
<!-- Generator: Adobe Illustrator 23.0.3, SVG Export Plug-In . SVG Version: 6.00 Build 0)  -->
<svg version="1.1" id="圖層_1" xmlns="http://www.w3.org/2000/svg" xmlns:xlink="http://www.w3.org/1999/xlink" x="0px" y="0px"
	 viewBox="0 0 337.8 43.2" style="enable-background:new 0 0 337.8 43.2;" xml:space="preserve">
<style type="text/css">
	.st0{clip-path:url(#SVGID_2_);}
	.st1{fill:#FFFFFF;}
</style>
<g>
	<defs>
		<rect id="SVGID_1_" x="0.3" y="0" width="337.3" height="43.3"/>
	</defs>
	<clipPath id="SVGID_2_">
		<use xlink:href="#SVGID_1_"  style="overflow:visible;"/>
	</clipPath>
	<g class="st0">
		<path class="st1" d="M-13.4,0v3.4v1.4v33.7v1.4v3.4h365v-3.4v-1.4V4.8V3.4V0C351.6,0-13.4,0-13.4,0z M329.1,32.8
			c-6.3,1.9-12.9-1.7-14.8-8h-55.6c-1.1,3.8-4.1,6.8-8,8c-6.3,1.9-12.9-1.7-14.7-8h-55.6c-1.1,3.8-4.1,6.8-7.9,7.9
			c-6.3,1.9-12.9-1.7-14.8-7.9h-55.6c-1.1,3.8-4.1,6.8-8,8c-6.3,1.9-12.9-1.7-14.7-8H23.7c-1.1,3.8-4.1,6.8-8,8
			c-6.3,1.9-12.9-1.7-14.8-8s1.7-12.9,8-14.8s12.9,1.7,14.8,8h55.6c1.1-3.8,4.1-6.8,8-8c6.3-1.9,12.9,1.7,14.7,8h55.6
			c1.1-3.8,4.1-6.8,7.9-7.9c6.3-1.9,12.9,1.7,14.8,7.9h55.6c1.1-3.8,4.1-6.8,8-8c6.3-1.9,12.9,1.7,14.7,8h55.6
			c1.5-5,6.1-8.4,11.3-8.5c5.2,0,9.9,3.4,11.4,8.5C339,24.3,335.3,30.9,329.1,32.8z"/>
		<circle class="st1" cx="12.5" cy="21.4" r="5.5"/>
		<circle class="st1" cx="90.8" cy="21.5" r="5.5"/>
		<path class="st1" d="M169.1,15.9c-3,0-5.5,2.4-5.5,5.5c0,3,2.4,5.5,5.5,5.5c3,0,5.5-2.5,5.5-5.5C174.6,18.4,172.1,15.9,169.1,15.9
			z"/>
		<circle class="st1" cx="247.3" cy="21.5" r="5.5"/>
		<path class="st1" d="M325.7,15.9c-3,0-5.5,2.5-5.5,5.5s2.5,5.5,5.5,5.5s5.5-2.5,5.5-5.5C331.1,18.4,328.7,15.9,325.7,15.9z"/>
	</g>
</g>
</svg>
