<svg xmlns="http://www.w3.org/2000/svg" width="130.334" height="130.333" viewBox="0 0 130.334 130.333">
  <g id="Group_125" data-name="Group 125" transform="translate(-248.561 -378.452)">
    <path id="Path_133" data-name="Path 133" d="M313.945,378.453c-35.729-.2-65.039,28.848-65.381,64.787s29.25,65.66,65.293,65.545a65.166,65.166,0,0,0,.088-130.332Zm-.431,121.717c-31.517-.013-56.349-25.037-56.335-56.772.014-31.463,25.1-56.345,56.794-56.33,31.505.015,56.319,25.021,56.308,56.743C370.268,475.279,345.185,500.182,313.514,500.17Z" transform="translate(0 0)" fill="#f0648f"/>
    <path id="Path_134" data-name="Path 134" d="M306.453,399.111c12.585.07,22.941,10.343,21.216,24.188-.79,6.345-4.906,10.045-9.655,13.334-4.5,3.111-9.121,5.774-10.36,11.976-.736,3.687-4.354,3.472-7.377,2.787-3.366-.762-3.241-3.3-2.708-5.953,1.3-6.493,5.374-10.77,10.779-14.257,4.878-3.144,10.905-6,8.659-13.608-1.7-5.75-8.014-8.487-16.542-7.824a16.945,16.945,0,0,0-11.976,5.8c-3.01,3.466-5.58,2.692-8.638-.035-3.671-3.272-.673-5.123,1.164-7.254C286.807,401.54,294.479,399.268,306.453,399.111Z" transform="translate(11.045 7.721)" fill="#f0648f"/>
    <path id="Path_135" data-name="Path 135" d="M290.782,449.193c.507-4.712,3.21-7.4,7.585-7.1,4.3.3,6.94,3.1,6.617,7.819-.3,4.393-3.061,6.663-7.121,6.616C293.343,456.47,291,453.612,290.782,449.193Z" transform="translate(15.78 23.775)" fill="#f0648f"/>
  </g>
</svg>
