<svg id="Layer_1" data-name="Layer 1" xmlns="http://www.w3.org/2000/svg" viewBox="0 0 106 106"><defs><style>.cls-1{fill:#6d6d6d;}</style></defs><title>180621_9大類別 icon</title><path class="cls-1" d="M52.73,95.38c-10.53,0-21.07,0-31.6,0C14,95.34,10.71,92.1,10.69,85q-.06-32,0-64c0-6.89,3.55-10.39,10.46-10.4q31.8,0,63.59,0c7,0,10.53,3.48,10.55,10.42q.09,32,0,64c0,7-3.5,10.31-10.57,10.34C74.06,95.42,63.39,95.38,52.73,95.38ZM86.06,53.13c0-9.88-.06-19.76,0-29.64,0-2.55-.43-3.81-3.41-3.8q-29.82.16-59.67,0c-2.6,0-3.4.95-3.39,3.48q.11,29.83,0,59.67c0,2.81.95,3.59,3.67,3.58q29.64-.14,59.27,0c2.84,0,3.58-1,3.55-3.68C86,72.89,86.06,63,86.06,53.13Z"/><path class="cls-1" d="M52.75,64.25c-2.08-.71-5.56-1.06-5.79-2.12-.52-2.45-.29-5.83,1.11-7.76,2-2.73,5.23-4.6,8.08-6.65,2.23-1.61,5.17-2.79,4.15-6.29S56,37,53,37.41a13.18,13.18,0,0,0-7.42,3.65c-2.67,3-4.63,2.79-7.17.34-.75-.72-2-1.15-2.39-2-.53-1.08-1.07-2.8-.57-3.65,7.41-12.66,26.76-13.28,35-1.23,4.67,6.8,3.23,14.61-3.47,19.36-3.19,2.27-7.4,3.43-8.21,8.41C58.68,63.21,55,63.55,52.75,64.25Z"/><path class="cls-1" d="M52.91,66.51a7.62,7.62,0,0,1,7.82,7.63,7.94,7.94,0,0,1-7.61,7.94A8.15,8.15,0,0,1,45,74.15,7.88,7.88,0,0,1,52.91,66.51Z"/></svg>