<?xml version="1.0" encoding="utf-8"?>
<!-- Generator: Adobe Illustrator 23.0.2, SVG Export Plug-In . SVG Version: 6.00 Build 0)  -->
<svg version="1.1" id="Layer_1" xmlns="http://www.w3.org/2000/svg" xmlns:xlink="http://www.w3.org/1999/xlink" x="0px" y="0px"
	 viewBox="0 0 106 106" style="enable-background:new 0 0 106 106;" xml:space="preserve">
<style type="text/css">
	.st0{fill:#6D6D6D;}
</style>
<g>
	<path class="st0" d="M84.3,49.9V17c0-2.2-1.8-4.1-4.1-4.1H13c-2.2,0-4.1,1.8-4.1,4.1v67.2c0,2.2,1.8,4.1,4.1,4.1h33
		c5,9.2,14.4,14.8,24.9,14.8c15.6,0,28.3-12.7,28.3-28.3C99.1,64.3,93.4,54.9,84.3,49.9z M52.2,27.2l-3.7-1.9
		c-1.1-0.6-2.5-0.6-3.7,0L41,27.2V21h11.1V27.2z M43,80.2H17V21h15.9l0,12.8c0,1.4,0.7,2.7,1.9,3.4c1.2,0.7,2.7,0.8,3.9,0.2l7.8-4
		l7.6,3.8c1.3,0.7,2.9,0.7,4.1,0c1.2-0.7,2-2.1,2-3.5V21h15.9v26c-9.1-1.8-18.7,1.1-25.3,7.8C44.2,61.5,41.3,71,43,80.2z M91,74.8
		c0,5.4-2.1,10.4-5.9,14.3S76.2,95,70.8,95s-10.5-2.1-14.3-5.9c-7.9-7.9-7.9-20.7,0-28.5c3.9-3.9,9.1-5.9,14.3-5.9
		c5.2,0,10.3,2,14.3,5.9C88.9,64.4,91,69.4,91,74.8z"/>
	<path class="st0" d="M74.6,65.9h-6.5l1.1-1.1c1.3-1.3,0.9-3,0-3.9c-0.5-0.5-1.2-0.8-1.8-0.9c-0.8,0-1.5,0.2-2.1,0.8l-5.9,5.9
		c-0.5,0.5-0.8,1.2-0.8,2s0.3,1.4,0.8,2l5.9,5.9c1.3,1.3,2.9,0.9,3.9,0c0.5-0.5,0.8-1.2,0.9-1.8c0-0.8-0.2-1.5-0.8-2.1l-1.1-1.1h6.5
		c2.6,0,4.5,2,4.5,4.7c0,2.5-2,4.5-4.5,4.5H62.7c-1.5,0-2.8,1.3-2.8,2.8s1.3,2.8,2.8,2.8h11.9c2.7,0,5.2-1.1,7.2-3
		c1.9-1.9,3-4.5,3-7.3C84.7,70.5,80.2,65.9,74.6,65.9z"/>
</g>
</svg>
