<?xml version="1.0" encoding="utf-8"?>
<!-- Generator: Adobe Illustrator 23.0.2, SVG Export Plug-In . SVG Version: 6.00 Build 0)  -->
<svg version="1.1" id="Layer_1" xmlns="http://www.w3.org/2000/svg" xmlns:xlink="http://www.w3.org/1999/xlink" x="0px" y="0px"
	 viewBox="0 0 106 106" style="enable-background:new 0 0 106 106;" xml:space="preserve">
<style type="text/css">
	.st0{fill:#6D6D6D;}
</style>
<title>service</title>
<path class="st0" d="M52.9,98.8H23.3c-7.5,0-10-3-10.4-10.5C12,73.2,22.5,62.5,35,61.8c2.6-0.1,5.2,0.2,7.7,0.9
	c6.7,1.9,13.3,2.3,19.9,0.1c15.2-5.1,33.2,7.2,30.3,28.7c-0.6,4.8-3.9,7.3-9.3,7.3C73.3,98.8,63.1,98.8,52.9,98.8z M83.9,90.1
	c2-13.8-7.1-22.2-20-18.7c-7.6,2.1-15.7,2-23.2-0.4c-5.8-1.8-10.6-0.1-14.7,3.9c-4.3,4.2-5.2,9.4-4.2,15.2H83.9z"/>
<path class="st0" d="M52.8,58.5c-14.2-0.1-25.6-11.7-25.5-25.8C27.4,18.5,39,7.1,53.1,7.2l0,0l0,0C67.2,7.4,79,19.2,78.8,33
	C78.5,47.2,67,58.6,52.8,58.5z M70.1,33.2c0.2-9.4-7.3-17.2-16.8-17.4l0,0c-9.5-0.1-17.4,7.5-17.5,17v0.1C36,42.3,43.6,49.9,53,50
	C62.3,49.9,69.9,42.5,70.1,33.2z"/>
<circle class="st0" cx="60.1" cy="42.7" r="6.2"/>
<path class="st0" d="M74.5,41.8c-2.9,1.6-6.1,2.5-9.4,2.5c-1.7-0.1-3-1.4-2.9-3.1s1.4-3,3.1-2.9c0.3,0,7.1,0.1,9.9-5.8
	c0.7-1.5,2.5-2.1,4-1.4c1.5,0.7,2.1,2.5,1.4,4l0,0C79.3,37.9,77.2,40.3,74.5,41.8z"/>
<path class="st0" d="M86.3,32.4c-0.4,4.4-2,8.5-4.5,12.1c-1.3,1.8-3.8,2.1-5.6,0.8c-1.8-1.3-2.1-3.8-0.8-5.6
	c0.3-0.3,5.5-7.6,1.3-15.2c-1.1-1.9-0.5-4.4,1.5-5.5s4.4-0.5,5.5,1.5c0,0,0,0.1,0.1,0.1C85.8,24.2,86.7,28.3,86.3,32.4z"/>
<path class="st0" d="M21,32.4c0.4,4.4,2,8.5,4.5,12.1c1.3,1.8,3.8,2.1,5.6,0.8c1.8-1.3,2.1-3.8,0.8-5.6c-0.3-0.3-5.5-7.6-1.3-15.2
	c1.1-1.9,0.5-4.4-1.5-5.5s-4.4-0.5-5.5,1.5c0,0,0,0.1-0.1,0.1C21.5,24.2,20.7,28.3,21,32.4z"/>
</svg>
