<?xml version="1.0" encoding="utf-8"?>
<!-- Generator: Adobe Illustrator 23.0.2, SVG Export Plug-In . SVG Version: 6.00 Build 0)  -->
<svg version="1.1" id="Layer_1" xmlns="http://www.w3.org/2000/svg" xmlns:xlink="http://www.w3.org/1999/xlink" x="0px" y="0px"
	 viewBox="0 0 106 106" style="enable-background:new 0 0 106 106;" xml:space="preserve">
<style type="text/css">
	.st0{fill:#6D6D6D;}
</style>
<path class="st0" d="M93.6,47.2h-0.9V32.1c0-6-4.9-10.9-10.9-10.9h-3.6l-4.6-8.3c-1.4-2.5-4-4-6.8-4c-1.3,0-2.6,0.3-3.8,1L42.9,21.2
	H20.2c-6,0-10.9,4.9-10.9,10.9v54.1c0,6,4.9,10.9,10.9,10.9h61.6c6,0,10.9-4.9,10.9-10.9V73.3h0.9c1.7,0,3-1.3,3-3V50.2
	C96.6,48.5,95.3,47.2,93.6,47.2z M20.2,87.9c-1,0-1.7-0.8-1.7-1.7V36.8c0.8,0.6,1.7,0.9,2.7,0.9h62.3v9.5H75
	c-7,0-12.7,5.7-12.7,12.7v0.7c0,7,5.7,12.7,12.7,12.7h8.5v12.9c0,1-0.8,1.7-1.7,1.7H20.2z M71.5,60.6v-0.7c0-2,1.6-3.6,3.6-3.6h12.5
	v7.8H75C73.1,64.1,71.5,62.5,71.5,60.6z M66.3,18.6l5.5,9.9H48.5L66.3,18.6z"/>
</svg>
