<svg id="Layer_1" data-name="Layer 1" xmlns="http://www.w3.org/2000/svg" viewBox="0 0 106 106"><defs><style>.cls-1{fill:#6d6d6d;}</style></defs><title>180621_9大類別 icon</title><path class="cls-1" d="M52.85,98.78c-9.86,0-19.72,0-29.58,0-7.45,0-10-3-10.42-10.51C12,73.22,22.46,62.5,35,61.79a24,24,0,0,1,7.72.94c6.67,1.88,13.3,2.26,19.9.06C77.87,57.72,95.78,70,92.88,91.47c-.63,4.75-3.93,7.25-9.34,7.29C73.31,98.84,63.08,98.78,52.85,98.78Zm31.07-8.67c2-13.83-7.1-22.18-20.05-18.69A40.69,40.69,0,0,1,40.65,71C34.84,69.2,30.07,70.87,26,74.9c-4.28,4.18-5.16,9.37-4.18,15.21Z"/><path class="cls-1" d="M52.78,58.54A25.67,25.67,0,1,1,53.13,7.2c14.06.16,25.83,12,25.68,25.85A26,26,0,0,1,52.78,58.54ZM70.06,33.19A17.09,17.09,0,0,0,53.25,15.78,17.28,17.28,0,0,0,35.73,32.94,17.41,17.41,0,0,0,53,50,17.16,17.16,0,0,0,70.06,33.19Z"/></svg>