<?xml version="1.0" encoding="utf-8"?>
<!-- Generator: Adobe Illustrator 23.0.2, SVG Export Plug-In . SVG Version: 6.00 Build 0)  -->
<svg version="1.1" id="Layer_1" xmlns="http://www.w3.org/2000/svg" xmlns:xlink="http://www.w3.org/1999/xlink" x="0px" y="0px"
	 viewBox="0 0 106 106" style="enable-background:new 0 0 106 106;" xml:space="preserve">
<style type="text/css">
	.st0{fill:#FFFFFF;stroke:#6D6D6D;stroke-width:8;stroke-linecap:round;stroke-linejoin:round;stroke-miterlimit:10;}
	.st1{fill:#606060;stroke:#6D6D6D;stroke-width:3;stroke-linecap:round;stroke-linejoin:round;stroke-miterlimit:10;}
</style>
<circle class="st0" cx="53" cy="53" r="42.5"/>
<g>
	<path class="st1" d="M30.6,38.2H33v12.6h15.1V38.2h2.4v29.1h-2.4V52.9H33v14.4h-2.4V38.2z"/>
	<path class="st1" d="M59.5,62c0-4.7,4.2-7,13.6-8c0.1-3.2-0.8-6.4-4.9-6.4c-2.8,0-5.2,1.3-6.7,2.4l-1-1.7c1.6-1.1,4.6-2.8,8.1-2.8
		c5.1,0,6.9,3.6,6.9,8.4v13.5h-2l-0.2-2.7h-0.1c-2.2,1.8-4.7,3.2-7.4,3.2C62.3,67.8,59.5,65.9,59.5,62z M73.1,62.6v-6.9
		c-8.4,1-11.3,2.9-11.3,6.2c0,2.9,2,4,4.4,4C68.6,65.9,70.6,64.8,73.1,62.6z"/>
</g>
</svg>
