<?xml version="1.0" encoding="utf-8"?>
<!-- Generator: Adobe Illustrator 23.0.1, SVG Export Plug-In . SVG Version: 6.00 Build 0)  -->
<svg version="1.1" baseProfile="basic" xmlns="http://www.w3.org/2000/svg" xmlns:xlink="http://www.w3.org/1999/xlink" x="0px"
	 y="0px" viewBox="0 0 140.83 140.83" xml:space="preserve">
<style type="text/css">
	.st0{fill:#0C152B;}
	.st1{fill:#DEDEE0;}
	.st2{fill:url(#SVGID_1_);}
	.st3{fill:#E7E6E9;}
	.st4{fill:#E6E5E8;}
	.st5{fill:#E5E3E7;}
	.st6{fill:#E4E2E6;}
	.st7{fill:#E3E1E5;}
	.st8{fill:#E2E0E4;}
	.st9{fill:#E1DFE3;}
	.st10{fill:#E0DEE3;}
	.st11{fill:#DFDDE2;}
	.st12{fill:#DEDCE1;}
	.st13{fill:#DDDBE0;}
	.st14{fill:#DCDADF;}
	.st15{fill:#DBD9DE;}
	.st16{fill:#DAD8DD;}
	.st17{fill:#D9D7DC;}
	.st18{fill:#D8D6DB;}
	.st19{fill:#D8D5DB;}
	.st20{fill:#D7D4DA;}
	.st21{fill:#D6D3D9;}
	.st22{fill:#D5D2D8;}
	.st23{fill:#D4D1D7;}
	.st24{fill:#D3D0D6;}
	.st25{fill:#D2CFD5;}
	.st26{fill:#D1CED4;}
	.st27{fill:#D0CDD3;}
	.st28{fill:#CFCCD3;}
	.st29{fill:#CECBD2;}
	.st30{fill:#CDCAD1;}
	.st31{fill:#CCC9D0;}
	.st32{fill:#CBC8CF;}
	.st33{fill:#CAC8CE;}
	.st34{fill:#CAC7CD;}
	.st35{fill:#C9C7CC;}
	.st36{fill:#C8C6CB;}
	.st37{fill:#C7C6CA;}
	.st38{fill:#C7C5C8;}
	.st39{fill:#C6C5C7;}
	.st40{fill:#C5C4C6;}
	.st41{fill:#C4C4C5;}
	.st42{fill:#C4C3C4;}
	.st43{fill:#C3C3C3;}
	.st44{fill:#C2C2C3;}
	.st45{fill:#C1C1C2;}
	.st46{fill:#C0C1C2;}
	.st47{fill:#BFC0C1;}
	.st48{fill:#BEBFC1;}
	.st49{fill:#BDBEC0;}
	.st50{fill:#BCBEC0;}
	.st51{fill:#BBBDBF;}
	.st52{fill:#BABCBF;}
	.st53{fill:#B9BBBE;}
	.st54{fill:#B8BBBE;}
	.st55{fill:#B7BABD;}
	.st56{fill:#B5B9BD;}
	.st57{fill:#B4B8BD;}
	.st58{fill:#B3B7BC;}
	.st59{fill:#B2B7BC;}
	.st60{fill:#B1B6BB;}
	.st61{fill:#B0B5BB;}
	.st62{fill:#AFB4BA;}
	.st63{fill:#AEB4BA;}
	.st64{fill:#ADB3B9;}
	.st65{fill:#ACB2B9;}
	.st66{fill:#ABB1B8;}
	.st67{fill:#AAB1B8;}
	.st68{fill:#A9B0B7;}
	.st69{fill:#A8AFB7;}
	.st70{fill:none;stroke:#A8AFB7;stroke-width:0;stroke-linecap:round;stroke-linejoin:round;}
	.st71{fill:#E4E4E4;}
	.st72{fill:#D1CFD0;}
	.st73{fill:#FFFFFF;}
	.st74{fill:none;stroke:#FFFFFF;stroke-width:7;stroke-linecap:round;stroke-linejoin:round;stroke-miterlimit:10;}
	.st75{opacity:0.5;fill:url(#SVGID_2_);}
	.st76{opacity:0.5;fill:url(#SVGID_3_);}
	.st77{fill:#FFFFFF;stroke:#272525;stroke-miterlimit:10;}
	.st78{fill:url(#SVGID_4_);}
	.st79{fill:url(#SVGID_5_);}
	.st80{fill:url(#SVGID_6_);}
	.st81{fill:url(#SVGID_7_);}
	.st82{fill:url(#SVGID_8_);}
	.st83{fill:url(#SVGID_9_);}
	.st84{fill:url(#SVGID_10_);}
	.st85{fill:url(#SVGID_11_);}
	.st86{fill:url(#SVGID_12_);}
	.st87{fill:url(#SVGID_13_);}
	.st88{fill:url(#SVGID_14_);}
	.st89{fill:url(#SVGID_15_);}
	.st90{fill:url(#SVGID_16_);}
	.st91{fill:url(#SVGID_17_);}
	.st92{fill:url(#SVGID_18_);}
	.st93{fill:url(#SVGID_19_);}
	.st94{fill:url(#SVGID_20_);}
	.st95{fill:url(#SVGID_21_);}
	.st96{fill:url(#SVGID_22_);}
	.st97{fill:url(#SVGID_23_);}
	.st98{fill:url(#SVGID_24_);}
	.st99{fill:url(#SVGID_25_);}
	.st100{fill:url(#SVGID_26_);}
	.st101{fill:url(#SVGID_27_);}
	.st102{fill:url(#SVGID_28_);}
	.st103{fill:url(#SVGID_29_);}
	.st104{fill:url(#SVGID_30_);}
	.st105{fill:url(#SVGID_31_);}
	.st106{fill:url(#SVGID_32_);}
	.st107{fill:url(#SVGID_33_);}
	.st108{fill:url(#SVGID_34_);}
	.st109{fill:url(#SVGID_35_);}
	.st110{fill:url(#SVGID_36_);}
	.st111{fill:url(#SVGID_37_);}
	.st112{fill:url(#SVGID_38_);}
	.st113{fill:url(#SVGID_39_);}
	.st114{fill:url(#SVGID_40_);}
	.st115{fill:url(#SVGID_41_);}
	.st116{fill:url(#SVGID_42_);}
	.st117{fill:url(#SVGID_43_);}
	.st118{fill:url(#SVGID_44_);}
	.st119{fill:url(#SVGID_45_);}
	.st120{fill:url(#SVGID_46_);}
	.st121{fill:url(#SVGID_47_);}
	.st122{fill:url(#SVGID_48_);}
	.st123{fill:url(#SVGID_49_);}
	.st124{fill:url(#SVGID_50_);}
	.st125{fill:url(#SVGID_51_);}
	.st126{fill:url(#SVGID_52_);}
	.st127{fill:url(#SVGID_53_);}
	.st128{fill:url(#SVGID_54_);}
	.st129{fill:url(#SVGID_55_);}
	.st130{fill:url(#SVGID_56_);}
	.st131{fill:url(#SVGID_57_);}
	.st132{fill:url(#SVGID_58_);}
	.st133{fill:url(#SVGID_59_);}
	.st134{fill:url(#SVGID_60_);}
	.st135{fill:url(#SVGID_61_);}
	.st136{fill:url(#SVGID_62_);}
	.st137{fill:url(#SVGID_63_);}
	.st138{fill:url(#SVGID_64_);}
	.st139{fill:url(#SVGID_65_);}
	.st140{fill:url(#SVGID_66_);}
	.st141{fill:url(#SVGID_67_);}
	.st142{fill:url(#SVGID_68_);}
	.st143{fill:url(#SVGID_69_);}
	.st144{fill:url(#SVGID_70_);}
	.st145{fill:url(#SVGID_71_);}
	.st146{fill:url(#SVGID_72_);}
	.st147{fill:url(#SVGID_73_);}
	.st148{fill:url(#SVGID_74_);}
	.st149{fill:url(#SVGID_75_);}
	.st150{fill:url(#SVGID_76_);}
	.st151{fill:url(#SVGID_77_);}
	.st152{fill:url(#SVGID_78_);}
	.st153{fill:url(#SVGID_79_);}
	.st154{fill:url(#SVGID_80_);}
	.st155{fill:url(#SVGID_81_);}
	.st156{fill:url(#SVGID_82_);}
	.st157{fill:url(#SVGID_83_);}
	.st158{fill:url(#SVGID_84_);}
	.st159{fill:url(#SVGID_85_);}
	.st160{fill:url(#SVGID_86_);}
	.st161{fill:url(#SVGID_87_);}
	.st162{fill:url(#SVGID_88_);}
	.st163{fill:url(#SVGID_89_);}
	.st164{fill:url(#SVGID_90_);}
	.st165{fill:url(#SVGID_91_);}
	.st166{fill:url(#SVGID_92_);}
	.st167{fill:url(#SVGID_93_);}
	.st168{fill:url(#SVGID_94_);}
	.st169{fill:url(#SVGID_95_);}
	.st170{fill:url(#SVGID_96_);}
	.st171{fill:url(#SVGID_97_);}
	.st172{fill:url(#SVGID_98_);}
	.st173{fill:url(#SVGID_99_);}
	.st174{fill:url(#SVGID_100_);}
	.st175{fill:url(#SVGID_101_);}
	.st176{fill:#FFDA93;}
	.st177{fill:#F5C519;}
	.st178{fill:#F1B11A;}
	.st179{fill:#FFF5C2;}
	.st180{fill:#FCE875;}
	.st181{opacity:0.5;fill:url(#SVGID_102_);}
	.st182{opacity:0.5;fill:url(#SVGID_103_);}
	.st183{fill:url(#SVGID_104_);}
	.st184{fill:url(#SVGID_105_);}
	.st185{fill:url(#SVGID_106_);}
	.st186{fill:url(#SVGID_107_);}
	.st187{opacity:0.5;fill:url(#SVGID_108_);}
	.st188{fill:#BCBCBC;}
	.st189{fill:#979797;}
	.st190{opacity:0.5;fill:url(#SVGID_109_);}
	.st191{fill:#FF8597;}
	.st192{fill:#EE5984;}
	.st193{fill:#E42A6B;}
	.st194{opacity:0.5;fill:url(#SVGID_110_);}
	.st195{fill:url(#SVGID_111_);}
	.st196{fill:url(#SVGID_112_);}
	.st197{fill:url(#SVGID_113_);}
	.st198{fill:url(#SVGID_114_);}
	.st199{fill:url(#SVGID_115_);}
	.st200{fill:url(#SVGID_116_);}
	.st201{fill:#272525;}
	.st202{opacity:0.5;fill:url(#SVGID_117_);}
	.st203{opacity:0.5;fill:url(#SVGID_118_);}
	.st204{fill:#404040;}
	.st205{fill:url(#SVGID_119_);}
	.st206{fill:#171717;}
	.st207{fill:url(#SVGID_120_);}
	.st208{opacity:0.5;fill:url(#SVGID_121_);}
	.st209{opacity:0.5;fill:url(#SVGID_122_);}
	.st210{fill:#111111;}
	.st211{fill:#6C6C6E;}
	.st212{fill:url(#SVGID_123_);}
	.st213{fill:url(#SVGID_124_);}
	.st214{opacity:0.5;fill:url(#SVGID_125_);}
</style>
<g id="BG">
</g>
<g id="Object">
	<g>
		<linearGradient id="SVGID_1_" gradientUnits="userSpaceOnUse" x1="131.7234" y1="6.1854" x2="51.794" y2="89.9209">
			<stop  offset="0" style="stop-color:#FBED21"/>
			<stop  offset="1" style="stop-color:#FEB70A"/>
		</linearGradient>
		<path class="st2" d="M71.38,7.42c-0.33-0.01-0.65-0.01-0.98-0.01v9l0.84,0.01c14.42,0.22,27.89,6.05,37.94,16.4
			c10.04,10.35,15.45,24,15.23,38.42c-0.45,29.32-24.66,53.17-53.97,53.17l-0.85-0.01c-29.77-0.46-53.62-25.05-53.16-54.82
			c0.45-29.32,24.66-53.17,53.98-53.17l0.01-9c0,0-0.01,0-0.01,0c-34.34,0-62.44,27.57-62.97,62.03
			c-0.53,34.79,27.23,63.43,62.02,63.96c0.33,0.01,0.66,0.01,0.99,0.01c34.34,0,62.44-27.57,62.97-62.03
			C133.94,36.59,106.17,7.96,71.38,7.42z"/>
		<linearGradient id="SVGID_2_" gradientUnits="userSpaceOnUse" x1="133.4533" y1="7.7942" x2="53.524" y2="91.5297">
			<stop  offset="0" style="stop-color:#FBED21"/>
			<stop  offset="1" style="stop-color:#FEB70A"/>
		</linearGradient>
		<path style="fill:url(#SVGID_2_);" d="M51.36,49.57c-2.55,2.48-4.51,5.5-5.85,9.09c-1.35,3.59-2.06,7.55-2.13,11.89
			c-0.07,4.42,0.54,8.43,1.81,12.03c1.28,3.6,3.14,6.67,5.59,9.23s5.43,4.51,8.94,5.89c3.51,1.37,7.41,2.09,11.7,2.16
			c3.68,0.06,7.09-0.31,10.22-1.1c3.13-0.79,6.4-2.07,9.81-3.85c1.18-0.62,2.15-1.26,2.91-1.94s1.29-1.43,1.58-2.28
			c0.29-0.84,0.45-1.98,0.47-3.4l0.17-10.7c0.03-1.93-0.29-3.38-0.95-4.36c-0.66-0.97-1.53-1.61-2.62-1.91
			c-1.09-0.3-2.42-0.46-3.99-0.48l-12.83-0.2c-1.55-0.02-2.78,0.36-3.69,1.16c-0.91,0.8-1.38,1.82-1.4,3.06
			c-0.02,1.52,0.5,2.61,1.57,3.26c1.07,0.65,2.66,0.99,4.76,1.03l8.76,0.13l-0.14,9.06c-2.38,1.23-4.73,2.17-7.03,2.82
			c-2.31,0.65-4.77,0.96-7.39,0.92c-5.38-0.08-9.55-1.91-12.5-5.48c-2.96-3.58-4.38-8.64-4.28-15.19c0.04-3.02,0.47-5.77,1.29-8.24
			c0.81-2.48,1.96-4.56,3.45-6.25c1.49-1.69,3.26-2.97,5.33-3.84c2.07-0.87,4.41-1.29,7.03-1.25c2.54,0.04,4.62,0.45,6.25,1.24
			c1.63,0.79,2.91,1.75,3.86,2.88s2.1,2.8,3.47,5.01c0.5,0.69,1.12,1.24,1.86,1.63c0.74,0.39,1.52,0.59,2.33,0.61
			c1.47,0.02,2.74-0.46,3.81-1.44c1.07-0.99,1.62-2.19,1.64-3.62c0.02-1.32-0.42-2.84-1.3-4.55s-2.22-3.35-4-4.9
			c-1.78-1.55-4.11-2.85-6.99-3.9c-2.88-1.05-6.2-1.6-9.96-1.66c-4.57-0.07-8.67,0.53-12.29,1.81
			C56.99,45.22,53.91,47.1,51.36,49.57z"/>
	</g>
</g>
</svg>
