<?xml version="1.0" encoding="utf-8"?>
<!-- Generator: Adobe Illustrator 23.0.2, SVG Export Plug-In . SVG Version: 6.00 Build 0)  -->
<svg version="1.1" id="Layer_1" xmlns="http://www.w3.org/2000/svg" xmlns:xlink="http://www.w3.org/1999/xlink" x="0px" y="0px"
	 viewBox="0 0 106 106" style="enable-background:new 0 0 106 106;" xml:space="preserve">
<style type="text/css">
	.st0{fill:#6D6D6D;}
</style>
<g>
	<path class="st0" d="M81.9,78.8c-0.2,0-0.5,0-0.7-0.1c0,0-68.8-12.5-69.6-12.7C7,65.2,5.1,59.8,5.2,48.6C5.4,29,9.8,28.2,11.5,27.9
		c0.2,0,69.6-12.7,69.6-12.7c1.2-0.2,2.4,0.1,3.3,0.9s1.4,1.9,1.4,3.1v55.7c0,1.2-0.5,2.3-1.4,3.1C83.7,78.5,82.8,78.8,81.9,78.8z
		 M14.1,58.5c7.4,1.3,49.5,9,63.8,11.6V24c-14,2.5-54.6,9.9-63.3,11.5C13.2,40.1,12.6,54.4,14.1,58.5z"/>
	<path class="st0" d="M35.9,90.8h-4.6c-0.2,0-0.4,0-0.6,0c-6.5-1-11.2-6.4-11.2-13V29.9c0-2.2,1.8-4,4-4s4,1.8,4,4v47.9
		c0,2.5,1.7,4.5,4.1,5h4.2c2.2,0,4,1.8,4,4S38.1,90.8,35.9,90.8z"/>
	<path class="st0" d="M93.8,63.7c-0.5,0-1.1-0.1-1.6-0.3c-2-0.9-2.9-3.2-2.1-5.3c3.5-7.9,3.5-11.9,0-19.5c-0.9-2,0-4.4,2-5.3
		c2-0.9,4.4,0,5.3,2c4.4,9.6,4.4,16,0,26C96.9,62.8,95.4,63.7,93.8,63.7z"/>
</g>
</svg>
