<?xml version="1.0" encoding="utf-8"?>
<!-- Generator: Adobe Illustrator 23.0.2, SVG Export Plug-In . SVG Version: 6.00 Build 0)  -->
<svg version="1.1" id="圖層_1" xmlns="http://www.w3.org/2000/svg" xmlns:xlink="http://www.w3.org/1999/xlink" x="0px" y="0px"
	 viewBox="0 0 364.9 43.2" style="enable-background:new 0 0 364.9 43.2;" xml:space="preserve">
<style type="text/css">
	.st0{fill:#FFFFFF;}
</style>
<g>
	<path class="st0" d="M-0.1-0.1v3.4v1.4v33.7v1.4v3.4h365v-3.4v-1.4V4.7V3.3v-3.4H-0.1z M342.4,32.8c-6.3,1.9-12.9-1.7-14.8-8H272
		c-1.1,3.8-4.1,6.8-8,8c-6.3,1.9-12.9-1.7-14.7-8h-55.6c-1.1,3.8-4.1,6.8-7.9,7.9c-6.3,1.9-12.9-1.7-14.8-7.9h-55.6
		c-1.1,3.8-4.1,6.8-8,8c-6.3,1.9-12.9-1.7-14.7-8H37c-1.1,3.8-4.1,6.8-8,8c-6.3,1.9-12.9-1.7-14.8-8s1.7-12.9,8-14.8
		s12.9,1.7,14.8,8h55.6c1.1-3.8,4.1-6.8,8-8c6.3-1.9,12.9,1.7,14.7,8h55.6c1.1-3.8,4.1-6.8,7.9-7.9c6.3-1.9,12.9,1.7,14.8,7.9h55.6
		c1.1-3.8,4.1-6.8,8-8c6.3-1.9,12.9,1.7,14.7,8h55.6c1.5-5,6.1-8.4,11.3-8.5c5.2,0,9.9,3.4,11.4,8.5
		C352.3,24.2,348.6,30.8,342.4,32.8z"/>
	<circle class="st0" cx="25.8" cy="21.3" r="5.5"/>
	<circle class="st0" cx="104.1" cy="21.4" r="5.5"/>
	<path class="st0" d="M182.4,15.9c-3,0-5.5,2.4-5.5,5.5c0,3,2.4,5.5,5.5,5.5c3,0,5.5-2.5,5.5-5.5C187.9,18.3,185.4,15.9,182.4,15.9z
		"/>
	<circle class="st0" cx="260.6" cy="21.4" r="5.5"/>
	<path class="st0" d="M339,15.9c-3,0-5.5,2.5-5.5,5.5s2.5,5.5,5.5,5.5s5.5-2.5,5.5-5.5C344.4,18.3,342,15.9,339,15.9z"/>
</g>
</svg>
