<?xml version="1.0" encoding="utf-8"?>
<!-- Generator: Adobe Illustrator 23.0.3, SVG Export Plug-In . SVG Version: 6.00 Build 0)  -->
<svg version="1.1" id="圖層_1" xmlns="http://www.w3.org/2000/svg" xmlns:xlink="http://www.w3.org/1999/xlink" x="0px" y="0px"
	 viewBox="0 0 200 200" style="enable-background:new 0 0 200 200;" xml:space="preserve">
<style type="text/css">
	.st0{fill:none;stroke:#747474;stroke-width:7;stroke-miterlimit:10;}
	.st1{fill:#747474;stroke:#747474;stroke-width:2;stroke-miterlimit:10;}
</style>
<path class="st0" d="M67.6,33.2c0,0,3.2,34.4-15.8,42.1l8,34.1h77l7.7-34.8c0,0-13.5,0-16.3-41.3h-10.9l-0.8,16.6
	c0,0-14.1,22.7-38.9,1.6V33.2H67.6z"/>
<g>
	<path class="st1" d="M100.7,118.8c10.6,0.4,23.2,0.9,35.9,1.5c7,0.3,7,0.5,7.5,7.3c0.2,3.2,0.8,6.3,0.9,9.5
		c0.1,0.8-0.3,1.9-0.9,2.5c-12.4,12.5-24.9,24.7-37.1,37.4c-3.3,3.4-7,4.2-11.1,3.6c-1.2-0.2-2.4-1-3.3-1.7
		c-8.9-8.6-17.8-17.3-26.7-26c-4.4-4.2-8.5-8.5-12.6-13c-0.5-0.7-1.1-1.6-1-2.5c0.3-4.7,0.8-9.5,1.5-14.1c0.1-0.8,1.1-1.6,1.7-1.7
		c3.8-0.5,7.7-1.2,11.7-1.3C77.6,119.5,88.2,119.2,100.7,118.8L100.7,118.8z M54.7,123.7c-0.4,3.9-0.8,8.1-1.2,12.1
		c-0.2,1.5,0.3,2.1,1.6,2.5c9.2,3.5,17.1,8.8,24.2,15.8c5.9,5.8,9.6,12.9,12.7,20.3c1.3,3.2,2.9,4.8,6.5,4.8c3,0,4.1-0.2,5.4-2.9
		c2.2-4.5,4.1-9.1,6.8-13.3c7.2-11.5,17.8-19.1,30.1-24.2c2.5-1.1,3.2-2.1,2.7-4.5c-0.5-3.6-0.8-7.3-1.2-10.6
		C113.2,126,84.2,126.1,54.7,123.7L54.7,123.7z M140.9,122.2c-28.1-2.5-56.2-2.6-84.4,0C84.7,124.8,112.8,124.8,140.9,122.2z
		 M106.5,175c11.6-11.6,23.1-23.2,35-35.1C125,147.2,112.5,158,106.5,175L106.5,175z M56,140.1c11.7,11.8,23.4,23.5,34.9,35.2
		C84.8,158,72.3,147.2,56,140.1z"/>
	<path class="st1" d="M96.8,129.8c1.2,0.8,2.4,0.3,3.8,0c1.2-0.2,2.2,0.5,2.8,1.5c0.5,1.2,0.5,2.3-0.3,3.3c-1.2,1.4-2.5,2.5-3.9,3.8
		c-0.2,0.2-0.9,0.2-1.2,0.1c-1.5-1.4-2.9-2.7-4.2-4.2c-0.8-0.9-0.8-2-0.2-3C94.2,130.3,95.2,129.7,96.8,129.8L96.8,129.8z
		 M98.3,137.7c1.5-1.5,2.5-2.5,3.6-3.6c0.8-0.8,0.8-1.6,0-2.5s-1.5-0.8-2.3-0.2c-0.8,0.7-1.3,0.5-2.1,0c-0.8-0.7-1.7-0.7-2.4,0.2
		c-0.8,0.9-0.5,1.6,0.2,2.5C96.2,135.2,97.2,136.4,98.3,137.7z"/>
</g>
</svg>
