<?xml version="1.0" encoding="utf-8"?>
<!-- Generator: Adobe Illustrator 23.0.3, SVG Export Plug-In . SVG Version: 6.00 Build 0)  -->
<svg version="1.1" id="圖層_1" xmlns="http://www.w3.org/2000/svg" xmlns:xlink="http://www.w3.org/1999/xlink" x="0px" y="0px"
	 viewBox="0 0 200 200" style="enable-background:new 0 0 200 200;" xml:space="preserve">
<style type="text/css">
	.st0{fill:#747474;stroke:#747474;stroke-miterlimit:10;}
	.st1{fill:#747474;stroke:#747474;stroke-width:5;stroke-miterlimit:10;}
</style>
<path class="st0" d="M119.7,123.8c-0.5,3.7-1,7.5-1.4,11.2c-1.2,9.3-2.3,18.7-3.5,27.9c-0.3,2.7-2.2,4.5-4.7,4.4
	c-2.3-0.1-4.2-2.1-4.2-4.8c0.2-6.8,0.5-13.5,0.7-20.3c0.2-8.5-0.1-17-2.5-25.3c-0.5-1.7-0.9-3.4-1.8-4.8c-2.3-4.1-2.5-8.3-1.2-12.5
	c1-3.7,2.5-7.2,4.2-10.6c1.7-3.4,3.5-3.9,7.2-3.4c1.2,0.2,2.2,0.3,3.5,0.6c7.8,1.2,13.2,5.9,16.5,12.6c3.4,6.9,6.2,14.2,9.3,21.2
	c1.6,3.5,3.2,7.1,5,10.5c0.7,1.2,1.7,2.5,2.7,3.5c1.7,1.8,3.7,2.2,6.1,1.3c3.8-1.5,7.8-2.2,11.8-1.2c6.6,1.7,9.7,6.6,11.1,12.9
	c1.2,5.5,0.9,11.1-0.2,16.5c-0.2,1.3-1,2.6-1.6,3.8c-0.2,0.3-0.8,0.4-1.3,0.4c-7.8,0.1-15.5,0.2-23.4,0.2c-5.8,0-10.5-2.6-14.2-6.9
	c-3.7-4.4-5.9-9.5-7.9-14.7c-2.2-5.9-4.5-11.6-6.9-17.5c-0.8-1.8-1.8-3.5-2.8-5.2C120,123.7,119.9,123.8,119.7,123.8z M115.3,111.2
	c5.2,3.1,9.3,7,11.7,12.3c2.5,5.5,4.6,11.2,7,16.8c2.2,5,4.2,10.2,6.9,14.9c2.7,4.8,7.1,7.3,12.9,7c5.8-0.2,11.6-0.2,17.4-0.2
	c0.3,0,0.8-0.1,1.2-0.2c0.2-2.2,0.5-4.5,0.5-6.7c0.1-3.5-0.2-7-1.8-10.3c-1.7-3.5-4.4-5.1-8.2-4.8c-2.1,0.2-4.2,0.8-6.3,1.5
	c-3.2,1-6.5,1.2-9.4-0.8c-1.8-1.3-3.7-2.9-4.8-4.8c-2.3-3.9-4.4-8-6.3-12.2c-3-6.8-5.7-13.6-8.7-20.4c-3-6.7-8-10.7-15.5-11.4
	c-1.2-0.1-1.8,0-2.2,1.1c-1.2,3.2-2.5,6.3-3.2,9.5c-0.4,1.8-0.1,3.9,0.4,5.8c1,3.2,2.8,6.3,3.6,9.5c1.1,4.2,1.5,8.6,2.2,13
	C113.6,124.3,114.4,117.9,115.3,111.2z"/>
<path class="st1" d="M150.4,70c-6.7-6.6-13.4-13.4-20.2-20c-0.8-0.8-2.1-1.2-3.2-1.2c-23.9-0.1-48-0.1-72,0c-1,0-2.2,0.5-2.9,1.2
	C45.4,56.6,38.7,63.4,32,70c-1.3,1.3-1.2,2.2,0.1,3.5c4.6,4.5,9.1,9.1,13.6,13.5c3.2,3.2,3.2,3.2,7,0.2v2.7c0,19.4,0,38.9,0,58.3
	c0,2.9,0,2.9,3,2.9c19,0,38,0,57.1,0v-2.2H54.9c0-0.9,0-1.8,0-2.5c0-23.8,0-47.6-0.1-71.4c0-1.1,0.6-2.9-1.1-2.9
	c-1.8,0-0.9,1.9-1,2.9c-0.1,2,0,4.1,0,5.9c-4.8-4.6-9.5-9.3-14.5-14.4c1.2-1.1,3-2.6,4.6-4.2c3.4-3.2,6.7-6.6,9.9-9.9
	c1.1-1.2,2.2-1.5,3.8-1.5c4.4,0.1,8.6,0,13.2,0c0.7,7,3.7,12.6,9.4,16.5c3.7,2.6,7.9,3.8,12.5,3.8c8.3-0.1,19.4-5.5,21.3-20.3
	c4.8,0,9.8,0,14.6,0c0.3,0,0.8,0.2,1.1,0.5c5.3,5.2,10.5,10.4,15.4,15.3c-4.8,4.8-9.5,9.5-14.3,14.3c0-2.2,0.1-4.8-0.1-7.2
	c0-0.6-0.6-1.2-0.9-1.8c-0.4,0.7-1.2,1.2-1.2,1.9c-0.1,5-0.1,10.2-0.1,15.2c0,2.2,0,4.4,0,6.5c0.8-0.1,1.4-0.2,2.2-0.2
	c0-1.9,0-3.8,0-5.7V87c0.7,0.6,1,0.9,1.2,1.2c2.2,2.2,2.2,2.2,4.5,0c5-5,9.9-9.9,15-14.9C151.6,72.1,151.6,71.2,150.4,70z
	 M51.6,84.5c-0.8,0.9-1.6,1.8-2.2,2.7C44.1,81.9,39,76.8,33.7,71.5c0.9-0.7,1.9-1.4,2.8-2.2C41.3,74.2,46.5,79.4,51.6,84.5z
	 M87.8,50.9h6.7V56h-6.7V50.9z M91.2,69.1c-10.1,0-19-8.5-19.1-18.2h13.4c0,1.8,0.1,3.5,0,5.2c-0.1,1.7,0.5,2.5,2.3,2.5
	c2.2-0.1,4.5-0.1,6.9,0c1.7,0.1,2.3-0.5,2.2-2.2c-0.1-1.8,0-3.5,0-5.4h13.4C110.3,60.6,101.2,69,91.2,69.1z M141,79.4
	c-2.5,2.6-5.1,5.1-7.8,7.9c-0.9-1.2-1.8-2.2-2.5-3c4.9-4.9,10.2-10.2,15.4-15.4c0.8,0.8,1.6,1.7,2.6,2.8
	C146.3,74.3,143.7,76.9,141,79.4z"/>
<path class="st1" d="M64.2,87.8c0-7.5,0-7.5,6.5-7.5c2.9,0,5.9,0.1,8.7,0c1.6-0.1,2.2,0.7,2.2,2.2c0,2.8,0,5.7,0,8.5
	c0,3.5-2.2,5.5-4.8,7.3c-3.9,2.6-3.8,2.5-7.9,0.1C64.5,95.8,63.6,91.7,64.2,87.8z M79.5,82.8c-4.5,0-8.7,0-13.1,0
	c0,2.2,0.2,4.5-0.1,6.5c-0.4,3.5,1.2,5.7,3.9,7.4c0.8,0.6,1.8,1.3,2.8,1.3c2.2,0,6.2-4.2,6.3-6.5C79.5,88.6,79.5,85.8,79.5,82.8z"/>
</svg>
