<?xml version="1.0" encoding="utf-8"?>
<!-- Generator: Adobe Illustrator 23.0.3, SVG Export Plug-In . SVG Version: 6.00 Build 0)  -->
<svg version="1.1" id="圖層_1" xmlns="http://www.w3.org/2000/svg" xmlns:xlink="http://www.w3.org/1999/xlink" x="0px" y="0px"
	 viewBox="0 0 1060.2 289.1" style="enable-background:new 0 0 1060.2 289.1;" xml:space="preserve">
<style type="text/css">
	.st0{fill:#FFFFFF;}
</style>
<g>
	<rect x="257.6" y="158.9" class="st0" width="47.9" height="129.7"/>
	<polygon class="st0" points="46.5,146 243.1,146 196.7,99.1 0,99.1 	"/>
	<polygon class="st0" points="305.4,146 257.6,146 304,99.1 351.9,99.1 	"/>
	<path class="st0" d="M708.8,285.9c-5,0-8.9-1.2-11.8-3.7c-2.9-2.5-5.1-6.4-6.4-11.8l-19.4-74.4l-3.1,0l-18.3,72.8
		c-1.4,5.5-3.8,9.8-7.2,12.7c-3.3,2.9-7.6,4.3-12.7,4.3c-5.2,0-9.3-1.4-12.1-4c-2.9-2.8-5.1-7.6-6.7-14.3l-21.6-94.3
		c-0.1-0.6-0.2-1.3-0.2-2.1c-0.1-0.8-0.1-2.2-0.1-4c0-3.6,1.2-6.4,3.6-8.6c2.5-2.2,5.7-3.3,9.8-3.3c3.4,0,6.2,1,8.4,3
		c2.2,2,3.7,5,4.3,8.7l15.6,82.8l3.1,0.1l21.7-83.1c1-3.8,2.7-6.7,5.2-8.5c2.5-1.9,5.8-2.8,9.7-2.8c3.8,0,7,1,9.4,2.9
		c2.4,1.9,4.1,4.9,5.1,8.8l21.3,82.8l3.1-0.1l15.6-80.8c0.9-4.9,2.5-8.5,4.6-10.5c2.1-2,5-3,8.8-3c3.9,0,7,1.1,9.5,3.5
		c2.4,2.3,3.6,5.2,3.6,8.7c0,1.2-0.1,2.6-0.3,4c-0.2,1.5-0.5,2.9-0.8,4.4l-22.7,91.4c-1.8,7.5-4.1,12.5-6.8,14.9
		C718.4,284.7,714.3,285.9,708.8,285.9z"/>
	<path class="st0" d="M800.4,287.2c-13.7,0-25.1-4.7-33.9-14.1c-8.9-9.4-13.4-21.5-13.4-36c0-14.5,4.5-26.6,13.4-36
		c8.9-9.3,20.3-14,34-14c13.7,0,25.1,4.7,33.9,14c8.8,9.3,13.3,21.4,13.3,36c0,14.6-4.5,26.7-13.3,36.1
		C825.5,282.5,814.1,287.2,800.4,287.2z M800.4,211c-6.1,0-11.1,2.5-15,7.3c-3.8,4.8-5.7,10.9-5.7,18.4c0,7.7,1.9,14.1,5.6,18.8
		c3.8,4.9,8.9,7.4,15,7.4c6.2,0,11.2-2.5,15.1-7.4c3.7-4.8,5.6-11.1,5.6-18.8c0-7.4-1.9-13.6-5.8-18.4
		C811.3,213.4,806.3,211,800.4,211z"/>
	<path class="st0" d="M906.7,287.2c-13.7,0-25.1-4.7-34-14.1c-8.9-9.4-13.4-21.5-13.4-36c0-14.5,4.5-26.6,13.4-36
		c8.9-9.3,20.3-14,34-14c13.7,0,25.1,4.7,33.9,14c8.8,9.3,13.3,21.4,13.3,36c0,14.6-4.5,26.7-13.3,36.1
		C931.8,282.5,920.4,287.2,906.7,287.2z M906.7,211c-6.1,0-11.2,2.5-15,7.3c-3.8,4.7-5.7,10.9-5.7,18.4c0,7.7,1.9,14.1,5.6,18.8
		c3.8,4.9,8.9,7.4,15.1,7.4c6.2,0,11.2-2.5,15-7.4c3.7-4.8,5.6-11.1,5.6-18.8c0-7.4-1.9-13.6-5.8-18.4
		C917.7,213.4,912.7,211,906.7,211z"/>
	<path class="st0" d="M1013,287.2c-13.7,0-25.1-4.7-34-14.1c-8.9-9.4-13.4-21.5-13.4-36c0-14.5,4.5-26.6,13.4-36
		c8.9-9.3,20.3-14,34-14c13.7,0,25.1,4.7,33.9,14c8.8,9.3,13.2,21.4,13.2,36c0,14.6-4.5,26.7-13.3,36.1
		C1038.1,282.5,1026.7,287.2,1013,287.2z M1013,211c-6.1,0-11.1,2.5-15,7.3c-3.8,4.8-5.7,10.9-5.7,18.4c0,7.7,1.9,14.1,5.6,18.8
		c3.8,4.9,8.9,7.4,15,7.4c6.2,0,11.2-2.5,15.1-7.4c3.7-4.8,5.6-11.1,5.6-18.8c0-7.4-1.9-13.6-5.8-18.4C1024,213.4,1019,211,1013,211
		z"/>
	<path class="st0" d="M46.5,158.9v129.7h196.7V158.9H46.5z M170.3,182.7c2.2-2.8,5-4.1,8.4-4.1c3.4,0,6.1,1.4,8.4,4.2
		c2.3,2.8,3.4,6.6,3.4,11.1c0,4.7-1.1,8.5-3.3,11.4c-2.2,2.8-4.9,4.2-8.5,4.2c-3.5,0-6.3-1.4-8.4-4.1c-2.2-2.8-3.3-6.7-3.3-11.4
		C167,189.2,168.1,185.5,170.3,182.7z M102.4,182.7c2.2-2.8,5-4.1,8.4-4.1c3.4,0,6.1,1.4,8.4,4.2c2.3,2.8,3.4,6.6,3.4,11.1
		c0,4.7-1.1,8.5-3.3,11.4c-2.2,2.8-4.9,4.2-8.4,4.2c-3.5,0-6.3-1.4-8.5-4.1c-2.2-2.8-3.3-6.7-3.3-11.4
		C99.1,189.2,100.2,185.5,102.4,182.7z M219.5,264.7c-1.1,2.3-3,3.6-6,4.2c-0.7,0.1-1.3,0.2-2,0.2c-2.1,0-3.7-0.7-5.1-2
		c-1.9-1.8-3.2-5-4-9.5l-2.3-13.2l-1.3,0.6c-17.1,7.7-35.2,11.7-53.9,11.7c-18.7,0-36.9-3.9-53.9-11.7l-1.3-0.6l-2.3,13.2
		c-0.8,4.5-2.1,7.7-4,9.5c-1.4,1.4-3,2-5.1,2c-0.6,0-1.3-0.1-2-0.2c-3-0.5-5-1.9-6-4.2c-1.1-2.4-1.3-5.8-0.5-10.3l6-33.9
		c0.2-1.2,0.5-2.3,0.8-3.5c0.8-2.7,1.9-4.7,3.2-6c1.4-1.4,3.1-2,5.2-2c0.6,0,1.3,0.1,1.9,0.2c3,0.5,5,1.9,6,4.2
		c1.1,2.4,1.3,5.9,0.5,10.3l-0.9,5l0.7,0.4c16.2,8.1,33.6,12.2,51.7,12.2c18.1,0,35.5-4.1,51.7-12.2l0.7-0.4l-0.9-5
		c-0.8-4.5-0.6-8,0.5-10.3c1.1-2.3,3-3.7,6-4.2c0.7-0.1,1.3-0.2,2-0.2c2.1,0,3.8,0.7,5.1,2c1.3,1.3,2.4,3.3,3.2,6
		c0.3,1.2,0.6,2.3,0.8,3.5l6,34C220.7,258.9,220.6,262.4,219.5,264.7z"/>
	<path class="st0" d="M187.5,54.9c-10.2,0-18.4-8.2-18.4-18.4h0c0,10.2-8.3,18.4-18.4,18.4c10.2,0,18.4,8.2,18.4,18.4
		c0,0.1,0,0.1,0,0.2h0c0-0.1,0-0.1,0-0.2C169.1,63.1,177.3,54.9,187.5,54.9z"/>
	<path class="st0" d="M235.6,24.8c-13.7,0-24.8-11.1-24.8-24.8h0c0,13.7-11.1,24.8-24.8,24.8c13.7,0,24.8,11.1,24.8,24.8
		c0,0.1,0,0.2,0,0.3h0c0-0.1,0-0.2,0-0.3C210.8,35.9,221.9,24.8,235.6,24.8z"/>
	<path class="st0" d="M281,84.5c-17.5,0-31.7-14.2-31.7-31.7h0c0,17.5-14.2,31.7-31.7,31.7c17.5,0,31.7,14.2,31.7,31.7
		c0,0.1,0,0.2,0,0.3h0.1c0-0.1,0-0.2,0-0.3C249.2,98.8,263.4,84.5,281,84.5z"/>
	<path class="st0" d="M449.4,285.9c-4.5,0-7.7-1.5-9.9-4.5c-2.2-3.2-3.4-8.2-3.4-14.9v-34.8h-57.8v34.8c0,6.7-1.1,11.8-3.4,14.9
		c-2.1,3-5.4,4.5-9.9,4.5c-4.5,0-7.7-1.5-9.9-4.5c-2.2-3.2-3.4-8.2-3.4-14.9V175c0-6.7,1.1-11.8,3.4-15c2.1-3.1,5.4-4.5,9.9-4.5
		c4.5,0,7.7,1.5,9.9,4.5c2.2,3.2,3.4,8.2,3.4,15v32.4h57.8V175c0-6.7,1.1-11.8,3.4-15c2.1-3.1,5.4-4.5,9.9-4.5
		c4.5,0,7.7,1.5,9.9,4.6c2.2,3.2,3.4,8.2,3.4,15v91.5c0,6.7-1.1,11.7-3.4,14.9C457.2,284.4,453.9,285.9,449.4,285.9z"/>
	<path class="st0" d="M523.9,286.5c-11.8,0-21.9-4.7-30-14c-8.1-9.4-12.3-21.3-12.3-35.4c0-13.9,4.3-25.8,12.7-35.3
		c8.3-9.4,18.7-14.2,30.6-14.2c4.7,0,8.8,0.8,12.4,2.4c3.5,1.6,6.7,4,9.5,7.3l1.5,1.8l1.1-2.1c1.5-2.8,3.4-4.9,5.5-6.3
		c2.1-1.4,4.3-2.1,6.9-2.1c4.3,0,7.4,1.4,9.4,4.4c2.1,3.1,3.2,8.1,3.2,14.9v58.1c0,6.7-1.1,11.8-3.3,14.9c-2.1,3-5.1,4.5-9.4,4.5
		c-2.9,0-5.3-0.7-7.2-2.1c-2-1.4-3.7-3.8-5.1-7l-1.1-2.4l-1.7,2c-2.8,3.4-6.1,6-10,7.7C532.9,285.6,528.5,286.5,523.9,286.5z
		 M528.6,212c-6,0-10.9,2.4-14.7,7c-3.7,4.5-5.6,10.5-5.6,17.7c0,7.4,1.9,13.5,5.5,18.1c3.8,4.7,8.7,7.1,14.8,7.1
		c5.9,0,10.8-2.4,14.6-7.2c3.7-4.7,5.5-10.7,5.5-18c0-7.1-1.9-13.1-5.6-17.7C539.4,214.4,534.5,212,528.6,212z"/>
	<g>
		<path class="st0" d="M775,128.6l7.8,0c0.7-2.3,1.5-4.8,2.3-7.3l5.5,0.1c-0.9,2.6-1.8,5-2.5,7.2l8.9,0l0,5.1l-1.5,0
			c-0.3,9.3-2.1,16.9-5.7,22.8c2,1.3,4.2,2.7,6.7,4.3l0,7.1c-3.5-2.6-6.8-5-9.7-7.2c-3.1,3.7-7,6.5-11.7,8.5l0-5.5
			c3-1.6,5.6-3.7,7.7-6.2c-4.3-3.1-6.5-5.7-6.5-7.9c0-0.6,1.5-5.8,4.6-15.8l-6.2,0L775,128.6z M785.8,153.4c3-5.3,4.7-11.9,5.1-19.8
			l-4.6,0c-3.1,9.2-4.7,14.2-4.7,15.1C781.6,149.7,783,151.2,785.8,153.4z M797.5,140.7l12.6-0.1l0-4.4c1.1-1.5,2-3,2.8-4.4
			c1.3-2.1,1.9-3.5,1.9-4c0-0.3-0.1-0.5-0.3-0.6l-16.3,0.1l0-4.9l19.5-0.1c1.9,0.4,2.8,1.8,2.8,4.2c0,2.8-1.7,6.4-5.1,10.8l0,3.1
			l5.6,0l0,5.2l-5.6,0l0.1,13.9c-0.1,5-2.6,7.8-7.4,8.3c-3.8,0-6.5-0.1-8.3-0.4l0-5.3c1.4,0.5,3.6,0.7,6.4,0.7c2.7-0.2,4-1.3,4-3.3
			l-0.1-13.9l-12.6,0.1L797.5,140.7z"/>
		<path class="st0" d="M856.3,131.1c-1,5.6-3,10-6,13.2v-8.2c1.5-3.6,2.3-8.4,2.3-14.4l4.6,0c0,1.5-0.1,3-0.2,4.4l2.1,0l0-5.6l5.1,0
			l0,5.6l4.3,0l0,5.1l-4.3,0l0.1,16c1.4-0.5,2.6-1.1,3.8-1.7l0,5.6c-1.1,0.6-2.3,1.2-3.8,1.8l0.1,15.7l-5.1,0l-0.1-13.9
			c-2.6,0.8-5.5,1.7-8.7,2.6l0-5.3c3-0.8,5.9-1.7,8.7-2.7l-0.1-18L856.3,131.1z M873.5,120.2l5,0c-0.1,1.3-0.3,2.5-0.5,3.7l7.1,0
			c3,0,5.4,0.8,7.1,2.5c1.6,1.6,2.5,3.4,2.8,5.5c0.5,4.3,0.8,8.3,0.8,12.1c0,7.3-0.1,12-0.6,14.1c-0.2,5.9-3.2,9.1-9.1,9.7
			c-3.6,0-6.6-0.1-9-0.4l0-5.2c1.7,0.4,4.2,0.6,7.7,0.5c3,0,4.8-1.8,5.4-5.2c0.3-3.1,0.4-6.3,0.4-9.7c-4.6,7.9-11.7,13.3-21.2,16
			l0-5.8c9.8-2.4,16.8-9.4,21-21c0-1.9-0.2-3.3-0.3-4.1c-0.4-2-1.5-3.3-3.4-3.8c-1.4,10.7-7.1,18.5-17.4,23.4l0-5.6
			c6.9-4,11-10.1,12.4-18l-5.1,0c-1.8,4.8-4.6,8.6-8.5,11.3l-0.1-6.4C871.5,130.2,873.3,125.7,873.5,120.2z"/>
		<path class="st0" d="M942.3,128.9l0,4.9c-1.5,0.2-3,0.4-4.6,0.5l0,6.7l7,0l-0.1-12.8l5,0l0.1,12.8l1.4,0c3,0,5.3,0.5,6.8,1.6
			c1.6,0.9,2.5,2.5,2.7,4.8v0.1c2.4-1.4,5-2.2,7.7-2.4l0,4.7c-2.4,0.2-4.9,0.9-7.4,2.1c0,0.1,0,0.1,0.1,0.2c3.2,0.3,5.7,0.7,7.5,1.3
			l0,5c-1.6-0.7-3.8-1.3-6.6-1.8c1.1,3.2,2.9,4.8,5.5,4.9c0.9-0.1,2-0.2,3.1-0.3l0.1,4.7c-1.5,0.2-2.9,0.2-4.1,0.2
			c-6.6,0-10.1-5.6-10.6-17c-0.3-2.2-1.6-3.3-4-3.3l-2.1,0l0.1,21.5l-5.1,0l-0.1-21.5l-7,0l0,0.6c-0.3,10.6-4,17.5-11.1,20.8
			l-0.1-5.8c4.1-2.2,6.1-7.3,6.2-15.5l-7.6,0l0-4.7l7.5-0.1l0-6.3c-1.9,0.1-3.9,0.2-5.9,0.4l0-4.9
			C931.3,130.2,936.4,129.8,942.3,128.9z M927.4,121.6l24.1-0.2c2.9,0,5.1,0.5,6.7,1.6c0.8,0.5,1.4,1.2,1.8,2.1
			c2.6-1.1,5.3-2.3,8.2-3.3l0,5c-2.4,0.8-4.8,1.7-7.3,2.7v0.2c3.2,0.3,5.7,0.6,7.5,1.1l0,4.7c-1.6-0.6-3.8-1.1-6.6-1.5
			c1.1,3,2.9,4.6,5.7,4.6c1-0.1,2-0.2,3.1-0.2l0.1,4.5c-1.5,0.1-2.9,0.2-4,0.2c-6.5,0-10-4.5-10.5-13.6c-0.2-2.2-1.5-3.3-3.9-3.3
			l-24.8,0.2L927.4,121.6z"/>
		<path class="st0" d="M1010.7,119.3l5.5,0c-3.5,7.7-8.9,13.1-16.2,16.3l0-5.5C1004.2,127.6,1007.8,124,1010.7,119.3z M1007,144.2
			c-2.1,1.6-4.4,3-6.9,4l0-5.8c5.3-3.2,9.9-7.9,13.5-14l5.5,0c-1.9,4.2-4.2,7.8-6.9,10.9l0.2,27.6l-5.3,0L1007,144.2z M1018.8,133
			l27.3-0.2l0,5l-5.8,0c0.1,3.2,0.2,8,0.2,14.5c0,4.1-0.2,6.9-0.7,8.5c-0.9,3.3-3.6,5-8.2,5.3c-4.7,0-8.4-0.4-11-0.9l0-4.8
			c3.8,0.5,7.1,0.8,10.1,0.7c1.9-0.1,3.2-0.8,3.9-2.2c0.4-0.8,0.6-3,0.5-6.5c-0.1-6.6-0.2-11.4-0.2-14.5l-16.2,0.1L1018.8,133z
			 M1020.2,120.8l24.4-0.1l0,4.9l-24.4,0.1L1020.2,120.8z"/>
	</g>
</g>
</svg>
