<?xml version="1.0" encoding="utf-8"?>
<!-- Generator: Adobe Illustrator 16.0.0, SVG Export Plug-In . SVG Version: 6.00 Build 0)  -->
<!DOCTYPE svg PUBLIC "-//W3C//DTD SVG 1.1//EN" "http://www.w3.org/Graphics/SVG/1.1/DTD/svg11.dtd">
<svg version="1.1" id="Layer_3" xmlns="http://www.w3.org/2000/svg" xmlns:xlink="http://www.w3.org/1999/xlink" x="0px" y="0px"
	 width="374.372px" height="101.945px" viewBox="17.814 11.028 374.372 101.945"
	 enable-background="new 17.814 11.028 374.372 101.945" xml:space="preserve">
<g>
	<path fill="#8F908F" d="M84.02,30.406c-3.59,0-6.502-2.911-6.502-6.503h-0.01c0,3.592-2.912,6.503-6.5,6.503
		c3.588,0,6.5,2.911,6.5,6.506c0,0.021-0.002,0.044-0.002,0.064h0.016c0-0.021-0.004-0.043-0.004-0.064
		C77.518,33.317,80.43,30.406,84.02,30.406z"/>
	<path fill="#8F908F" d="M101.002,19.776c-4.83,0-8.744-3.916-8.744-8.748h-0.012c0,4.832-3.916,8.748-8.746,8.748
		c4.83,0,8.746,3.912,8.746,8.743c0,0.032-0.004,0.058-0.004,0.089h0.018c0-0.031-0.002-0.058-0.002-0.089
		C92.258,23.688,96.172,19.776,101.002,19.776z"/>
	<path fill="#8F908F" d="M117.025,40.876c-6.189,0-11.211-5.018-11.211-11.209H105.8c0,6.191-5.018,11.209-11.209,11.209
		c6.191,0,11.209,5.022,11.209,11.211c0,0.041-0.002,0.076-0.002,0.112h0.021c0-0.036-0.006-0.072-0.006-0.112
		C105.814,45.899,110.836,40.876,117.025,40.876z"/>
	<rect x="34.227" y="67.156" fill="#FF888E" width="69.447" height="45.816"/>
	<rect x="108.768" y="67.156" fill="#FF888E" width="16.898" height="45.816"/>
	<polygon fill="#FF888E" points="34.227,62.577 103.674,62.577 87.262,46.037 17.814,46.037 	"/>
	<polygon fill="#FF888E" points="125.666,62.577 108.768,62.577 125.176,46.037 142.074,46.037 	"/>
	<path fill="#8F908F" d="M176.521,111.977c-1.588,0-2.725-0.521-3.484-1.592c-0.789-1.121-1.193-2.892-1.193-5.266V92.827h-20.412
		v12.293c0,2.374-0.402,4.149-1.191,5.266c-0.76,1.07-1.9,1.593-3.486,1.593s-2.736-0.521-3.488-1.593
		c-0.791-1.12-1.191-2.892-1.191-5.266V72.818c0-2.373,0.4-4.153,1.195-5.285c0.754-1.077,1.898-1.605,3.484-1.605
		s2.727,0.528,3.482,1.605c0.793,1.132,1.195,2.906,1.195,5.285v11.438h20.412V72.818c0-2.373,0.404-4.153,1.193-5.285
		c0.76-1.077,1.9-1.605,3.484-1.605c1.588,0,2.73,0.528,3.488,1.608c0.789,1.129,1.193,2.909,1.193,5.282v32.302
		c0,2.374-0.404,4.146-1.193,5.266C179.252,111.456,178.113,111.977,176.521,111.977z"/>
	<path fill="#8F908F" d="M202.816,112.201c-4.168,0-7.729-1.669-10.58-4.958c-2.877-3.312-4.332-7.515-4.332-12.491
		c0-4.911,1.504-9.102,4.473-12.456c2.945-3.333,6.59-5.021,10.818-5.021c1.645,0,3.11,0.281,4.374,0.836
		c1.25,0.554,2.373,1.423,3.348,2.592l0.533,0.645l0.398-0.732c0.543-0.986,1.19-1.741,1.936-2.231
		c0.736-0.491,1.533-0.729,2.432-0.729c1.523,0,2.611,0.509,3.324,1.556c0.756,1.099,1.139,2.873,1.139,5.271v20.515
		c0,2.375-0.389,4.149-1.152,5.274c-0.725,1.063-1.807,1.582-3.311,1.582c-1.008,0-1.859-0.25-2.537-0.746
		c-0.697-0.506-1.305-1.334-1.807-2.459l-0.377-0.84l-0.582,0.713c-0.975,1.188-2.166,2.109-3.541,2.736
		C205.988,111.879,204.459,112.201,202.816,112.201z M204.494,85.904c-2.107,0-3.859,0.832-5.197,2.47
		c-1.314,1.603-1.971,3.705-1.971,6.251c0,2.628,0.654,4.783,1.951,6.407c1.33,1.661,3.088,2.503,5.217,2.503
		c2.094,0,3.824-0.852,5.154-2.538c1.297-1.644,1.953-3.789,1.953-6.372c0-2.521-0.664-4.622-1.978-6.238
		C208.287,86.74,206.559,85.904,204.494,85.904z"/>
	<path fill="#FF888E" d="M268.113,111.977c-1.752,0-3.158-0.433-4.172-1.289c-1.031-0.865-1.789-2.263-2.262-4.158l-6.863-26.269
		l-1.096,0.005l-6.48,25.692c-0.496,1.958-1.348,3.472-2.537,4.498c-1.176,1.008-2.686,1.521-4.494,1.521
		c-1.844,0-3.279-0.478-4.275-1.422c-1.018-0.973-1.807-2.671-2.352-5.056l-7.643-33.282c-0.037-0.201-0.068-0.464-0.086-0.75
		c-0.023-0.294-0.027-0.773-0.027-1.428c0-1.275,0.416-2.264,1.273-3.021c0.883-0.775,2.02-1.15,3.467-1.15
		c1.213,0,2.186,0.344,2.971,1.052c0.781,0.71,1.295,1.75,1.527,3.088l5.5,29.245l1.106,0.035l7.647-29.355
		c0.349-1.348,0.959-2.355,1.828-3.013c0.875-0.653,2.035-0.991,3.438-0.991c1.354,0,2.478,0.342,3.328,1.016
		c0.856,0.678,1.463,1.723,1.808,3.106l7.522,29.237l1.11-0.035l5.496-28.535c0.334-1.73,0.885-2.984,1.629-3.721
		c0.728-0.719,1.75-1.068,3.123-1.068c1.381,0,2.474,0.398,3.34,1.221c0.854,0.812,1.273,1.82,1.273,3.084
		c0,0.43-0.035,0.91-0.102,1.42c-0.076,0.518-0.17,1.037-0.289,1.541l-8.029,32.293c-0.641,2.658-1.443,4.423-2.385,5.26
		C271.492,111.563,270.045,111.977,268.113,111.977z"/>
	<path fill="#FF888E" d="M300.441,112.45c-4.828,0-8.859-1.673-11.988-4.972c-3.139-3.313-4.732-7.59-4.732-12.728
		c0-5.133,1.594-9.41,4.728-12.706c3.135-3.292,7.165-4.961,11.994-4.961c4.85,0,8.879,1.659,11.977,4.943
		c3.105,3.287,4.682,7.567,4.682,12.724s-1.575,9.444-4.682,12.742C309.32,110.781,305.291,112.45,300.441,112.45z M300.441,85.523
		c-2.156,0-3.938,0.871-5.295,2.586c-1.332,1.678-2.004,3.865-2.004,6.516c0,2.73,0.668,4.968,1.983,6.652
		c1.353,1.728,3.137,2.605,5.314,2.605c2.177,0,3.967-0.881,5.315-2.623c1.314-1.691,1.984-3.927,1.984-6.635
		c0-2.628-0.685-4.814-2.035-6.501C304.322,86.396,302.551,85.523,300.441,85.523z"/>
	<path fill="#FF888E" d="M337.99,112.45c-4.832,0-8.867-1.673-11.994-4.972c-3.139-3.313-4.729-7.59-4.729-12.728
		c0-5.133,1.591-9.41,4.729-12.706c3.127-3.292,7.162-4.961,11.994-4.961c4.85,0,8.877,1.659,11.973,4.943
		c3.104,3.287,4.68,7.567,4.68,12.724s-1.575,9.444-4.68,12.742C346.867,110.781,342.84,112.45,337.99,112.45z M337.99,85.523
		c-2.156,0-3.939,0.871-5.297,2.586c-1.33,1.677-2.009,3.865-2.009,6.516c0,2.73,0.668,4.968,1.986,6.652
		c1.354,1.728,3.141,2.605,5.318,2.605c2.172,0,3.961-0.881,5.311-2.623c1.314-1.693,1.986-3.927,1.986-6.635
		c0-2.626-0.685-4.814-2.037-6.501C341.867,86.396,340.102,85.523,337.99,85.523z"/>
	<path fill="#FF888E" d="M375.533,112.45c-4.828,0-8.865-1.673-11.994-4.972c-3.137-3.313-4.725-7.59-4.725-12.728
		c0-5.133,1.588-9.41,4.725-12.706c3.129-3.292,7.166-4.961,11.994-4.961c4.852,0,8.879,1.659,11.975,4.943
		c3.104,3.287,4.678,7.567,4.678,12.724s-1.573,9.44-4.68,12.742C384.412,110.781,380.385,112.45,375.533,112.45z M375.533,85.523
		c-2.15,0-3.937,0.871-5.297,2.586c-1.328,1.678-2.002,3.865-2.002,6.516c0,2.73,0.67,4.968,1.983,6.652
		c1.349,1.728,3.138,2.605,5.314,2.605c2.174,0,3.961-0.881,5.319-2.623c1.312-1.693,1.978-3.927,1.978-6.635
		c0-2.626-0.685-4.813-2.035-6.501C379.416,86.396,377.645,85.523,375.533,85.523z"/>
	<g>
		<path fill="#FFFFFF" d="M92.48,106.047c-0.73,0-1.322-0.234-1.807-0.713c-0.656-0.652-1.131-1.783-1.408-3.363l-0.826-4.66
			l-0.451,0.205c-6.021,2.73-12.424,4.114-19.039,4.114c-6.607,0-13.016-1.384-19.037-4.114l-0.449-0.203l-0.824,4.658
			c-0.275,1.58-0.756,2.711-1.41,3.363c-0.486,0.479-1.076,0.713-1.809,0.713c-0.221,0-0.453-0.021-0.699-0.064
			c-1.055-0.186-1.754-0.668-2.127-1.467c-0.396-0.838-0.455-2.065-0.18-3.645l2.115-11.988c0.074-0.421,0.17-0.826,0.293-1.242
			c0.281-0.951,0.66-1.671,1.123-2.135c0.484-0.482,1.078-0.721,1.818-0.721c0.209,0,0.447,0.018,0.686,0.06
			c1.059,0.187,1.756,0.675,2.133,1.482c0.395,0.841,0.449,2.073,0.17,3.651l-0.311,1.771l0.254,0.129
			c5.717,2.865,11.857,4.321,18.254,4.321c6.398,0,12.539-1.456,18.258-4.321l0.254-0.129l-0.312-1.771
			c-0.279-1.578-0.217-2.809,0.176-3.651c0.375-0.808,1.072-1.296,2.131-1.482c0.236-0.042,0.471-0.06,0.689-0.06
			c0.732,0,1.324,0.236,1.814,0.721c0.461,0.464,0.84,1.184,1.123,2.135c0.119,0.411,0.217,0.817,0.289,1.242l2.115,11.99
			c0.279,1.577,0.223,2.805-0.174,3.643c-0.379,0.799-1.076,1.281-2.135,1.467C92.934,106.027,92.703,106.047,92.48,106.047z"/>
		<path fill="#FFFFFF" d="M56.959,84.943c-1.236,0-2.211-0.478-2.984-1.463c-0.781-1-1.176-2.354-1.176-4.022
			c0-1.606,0.395-2.931,1.186-3.925c0.775-0.979,1.75-1.451,2.975-1.451c1.197,0,2.166,0.479,2.957,1.466
			c0.803,0.999,1.207,2.318,1.207,3.91c0,1.656-0.395,3.008-1.18,4.017C59.174,84.464,58.197,84.943,56.959,84.943z"/>
		<path fill="#FFFFFF" d="M80.941,84.943c-1.238,0-2.211-0.478-2.984-1.463c-0.781-1-1.176-2.354-1.176-4.022
			c0-1.606,0.396-2.931,1.186-3.925c0.775-0.979,1.75-1.451,2.975-1.451c1.199,0,2.164,0.479,2.957,1.466
			c0.805,0.999,1.203,2.318,1.203,3.91c0,1.658-0.393,3.008-1.178,4.017C83.154,84.464,82.18,84.943,80.941,84.943z"/>
	</g>
	<path fill="#8F908F" d="M291.477,56.433l2.762-0.015c0.261-0.814,0.531-1.68,0.813-2.594l1.953,0.027
		c-0.332,0.925-0.627,1.78-0.885,2.556l3.154-0.018l0.012,1.803l-0.525,0.004c-0.096,3.296-0.758,5.975-2,8.05
		c0.693,0.46,1.486,0.968,2.375,1.525l0.012,2.498c-1.252-0.904-2.391-1.758-3.412-2.552c-1.094,1.294-2.467,2.291-4.112,2.99
		l-0.017-1.933c1.078-0.57,1.982-1.303,2.713-2.195c-1.521-1.082-2.28-2.007-2.286-2.789c-0.007-0.196,0.543-2.053,1.637-5.564
		l-2.178,0.014L291.477,56.433z M295.311,65.202c1.076-1.856,1.674-4.193,1.795-6.998l-1.616,0.01
		c-1.105,3.249-1.66,5.024-1.656,5.325C293.832,63.878,294.324,64.432,295.311,65.202z M299.434,60.726l4.447-0.026l-0.008-1.54
		c0.385-0.528,0.721-1.044,1.006-1.546c0.449-0.754,0.672-1.225,0.672-1.412c-0.004-0.101-0.035-0.169-0.098-0.206l-5.771,0.031
		l-0.01-1.727l6.877-0.04c0.664,0.134,1,0.634,1.002,1.495c0.006,0.977-0.592,2.254-1.801,3.824l0.01,1.111l1.972-0.014l0.014,1.842
		l-1.977,0.012l0.03,4.902c-0.049,1.766-0.922,2.75-2.608,2.945c-1.33,0.008-2.308-0.036-2.935-0.134l-0.008-1.879
		c0.5,0.161,1.258,0.237,2.271,0.231c0.948-0.054,1.422-0.441,1.422-1.152l-0.05-4.905l-4.45,0.028L299.434,60.726z"/>
	<path fill="#8F908F" d="M320.213,57.32c-0.365,1.992-1.076,3.545-2.133,4.651V59.08c0.545-1.267,0.809-2.965,0.795-5.096
		l1.619-0.009c0,0.54-0.021,1.052-0.066,1.542l0.748-0.008l-0.014-1.988l1.785-0.011l0.014,1.991l1.504-0.009l0.014,1.803
		l-1.508,0.01l0.035,5.652c0.478-0.191,0.92-0.393,1.334-0.608l0.01,1.992c-0.375,0.214-0.815,0.425-1.329,0.627l0.03,5.542
		l-1.783,0.01l-0.028-4.922c-0.916,0.293-1.937,0.596-3.076,0.9l-0.012-1.879c1.067-0.27,2.09-0.586,3.076-0.955l-0.035-6.349
		L320.213,57.32z M326.258,53.491l1.765-0.011c-0.052,0.463-0.107,0.892-0.179,1.296l2.498-0.015
		c1.049-0.007,1.894,0.286,2.521,0.87c0.555,0.558,0.879,1.209,0.975,1.948c0.182,1.515,0.281,2.937,0.283,4.262
		c0.016,2.578-0.051,4.239-0.195,4.978c-0.057,2.078-1.133,3.227-3.207,3.438c-1.256,0.008-2.319-0.035-3.194-0.126l-0.015-1.844
		c0.59,0.135,1.492,0.196,2.709,0.19c1.049-0.008,1.685-0.619,1.906-1.832c0.094-1.078,0.143-2.22,0.146-3.42
		c-1.639,2.801-4.129,4.689-7.479,5.661l0.008-2.05c3.463-0.834,5.941-3.304,7.432-7.407c-0.02-0.678-0.059-1.155-0.12-1.445
		c-0.132-0.712-0.527-1.16-1.193-1.348c-0.48,3.789-2.523,6.542-6.131,8.267l-0.012-1.975c2.432-1.425,3.895-3.552,4.377-6.372
		l-1.804,0.011c-0.621,1.693-1.608,3.028-2.983,4l-0.027-2.254C325.563,57.013,326.207,55.408,326.258,53.491z"/>
	<path fill="#8F908F" d="M350.574,56.561l0.012,1.724c-0.516,0.07-1.053,0.131-1.615,0.184l0.013,2.382l2.479-0.014l-0.021-4.524
		l1.776-0.014l0.029,4.527l0.492-0.003c1.059-0.006,1.867,0.175,2.403,0.552c0.552,0.33,0.869,0.895,0.949,1.684v0.019
		c0.853-0.482,1.754-0.763,2.724-0.843l0.004,1.655c-0.863,0.079-1.734,0.326-2.625,0.746c0,0.026,0.012,0.051,0.024,0.076
		c1.135,0.102,2.021,0.256,2.646,0.453l0.014,1.781c-0.553-0.232-1.332-0.441-2.334-0.62c0.396,1.134,1.039,1.704,1.928,1.716
		c0.324-0.042,0.695-0.073,1.105-0.104l0.031,1.653c-0.539,0.054-1.021,0.08-1.443,0.083c-2.332,0.016-3.584-1.986-3.76-6.009
		c-0.107-0.786-0.578-1.175-1.414-1.174l-0.73,0.004l0.045,7.59l-1.787,0.009l-0.045-7.59l-2.479,0.018l0.004,0.205
		c-0.096,3.746-1.398,6.188-3.904,7.332l-0.03-2.047c1.436-0.76,2.163-2.587,2.188-5.479l-2.672,0.014l0.012-1.671l2.646-0.018
		l-0.017-2.231c-0.678,0.041-1.377,0.083-2.1,0.125l-0.01-1.73C346.674,57.016,348.498,56.862,350.574,56.561z M345.318,53.961
		l8.508-0.054c1.024-0.003,1.811,0.179,2.35,0.552c0.291,0.185,0.506,0.428,0.646,0.729c0.901-0.406,1.858-0.802,2.883-1.182
		l0.012,1.767c-0.852,0.282-1.711,0.599-2.584,0.951v0.081c1.139,0.094,2.014,0.225,2.635,0.397l0.004,1.671
		c-0.551-0.199-1.329-0.376-2.331-0.531c0.372,1.073,1.036,1.617,2.002,1.621c0.338-0.026,0.709-0.053,1.108-0.08l0.027,1.575
		c-0.539,0.043-1.015,0.063-1.426,0.067c-2.291,0.011-3.529-1.582-3.709-4.788c-0.086-0.776-0.535-1.16-1.361-1.155l-8.773,0.054
		L345.318,53.961z"/>
	<path fill="#8F908F" d="M374.725,53.172l1.951-0.013c-1.25,2.713-3.158,4.632-5.729,5.747l-0.015-1.955
		C372.43,56.09,373.695,54.83,374.725,53.172z M373.4,61.951c-0.744,0.568-1.56,1.042-2.429,1.421l-0.016-2.043
		c1.885-1.129,3.479-2.775,4.783-4.954l1.946-0.008c-0.664,1.481-1.475,2.762-2.43,3.846l0.06,9.748l-1.863,0.012L373.4,61.951z
		 M377.572,58l9.651-0.058l0.011,1.767l-2.047,0.014c0.047,1.138,0.071,2.839,0.088,5.107c0.008,1.455-0.08,2.447-0.265,2.986
		c-0.315,1.156-1.285,1.775-2.899,1.858c-1.666-0.017-2.957-0.127-3.873-0.333l-0.006-1.691c1.325,0.18,2.518,0.267,3.565,0.263
		c0.666-0.04,1.123-0.297,1.39-0.761c0.131-0.291,0.198-1.055,0.186-2.293c-0.018-2.329-0.055-4.042-0.084-5.125l-5.711,0.033
		L377.572,58z M378.072,53.697l8.621-0.052l0.008,1.744l-8.619,0.052L378.072,53.697z"/>
</g>
</svg>
