<?xml version="1.0" encoding="utf-8"?>
<!-- Generator: Adobe Illustrator 23.0.3, SVG Export Plug-In . SVG Version: 6.00 Build 0)  -->
<svg version="1.1" id="Layer_1" xmlns="http://www.w3.org/2000/svg" xmlns:xlink="http://www.w3.org/1999/xlink" x="0px" y="0px"
	 viewBox="0 0 106 106" style="enable-background:new 0 0 106 106;" xml:space="preserve">
<style type="text/css">
	.st0{fill:#FFC711;}
</style>
<title>180621_9大類別 icon</title>
<path class="st0" d="M39.3,49.3c0,3.4-0.1,6.7,0,10.1s1.7,6.1,4.9,6.6c2.7,0.4,5.5-0.2,7.8-1.7c2.7-1.9,3.2-5.3,1.7-8.4
	c-2.6-5.3-5.6-10.5-8.2-15.8c-6-12.2-3.3-23.6,3.6-34.4c0.8-1.3,3.4-2.4,4.7-2c1.5,0.4,3.7,2.6,3.7,4c0.2,8.6,6,13.7,11.3,19.2
	c4.3,4.5,9,8.6,12.9,13.4c11.5,13.9,11,36-0.8,49.2c-11.9,13.7-32,16.7-47.4,7.2c-22-13.5-23.7-45.2-3.2-60.7c1.6-1.2,4.6-2,6.1-1.3
	s2.4,3.6,2.7,5.7c0.4,2.9,0.1,5.9,0.1,8.9H39.3z M51.5,20.3c-1.8,6.3,0,11.8,2.7,17.1s5.8,10.1,8.1,15.3c2.7,5.5,1.8,12.1-2.2,16.7
	c-4.8,6-11.9,8-18.8,5.7s-11-7.9-11.5-16c-0.2-3,0-5.9,0-9.9c-11.3,17.4-0.1,41.1,19.2,43.4c11.4,1.4,20.9-2.4,27.1-12.2
	c6.4-10.1,6.8-21.2,0-30.9C68.9,39.2,60,30.1,51.5,20.3L51.5,20.3z"/>
</svg>
