<?xml version="1.0" encoding="utf-8"?>
<!-- Generator: Adobe Illustrator 21.0.2, SVG Export Plug-In . SVG Version: 6.00 Build 0)  -->
<svg version="1.1" id="Layer_3" xmlns="http://www.w3.org/2000/svg" xmlns:xlink="http://www.w3.org/1999/xlink" x="0px" y="0px"
	 viewBox="0 0 2551.2 765.4" style="enable-background:new 0 0 2551.2 765.4;" xml:space="preserve">
<style type="text/css">
	.st0{fill:#EE5984;}
	.st1{fill:#FFFFFF;}
	.st2{fill:#BBBCBC;}
</style>
<g>
	<rect x="141.6" y="403.8" class="st0" width="456.9" height="301.4"/>
	<rect x="632" y="403.8" class="st0" width="111.2" height="301.4"/>
	<polygon class="st0" points="141.6,373.7 598.5,373.7 490.5,264.8 33.6,264.8 	"/>
	<polygon class="st0" points="743.2,373.7 632,373.7 740,264.8 851.1,264.8 	"/>
	<path class="st0" d="M1680.4,698.7c-11.5,0-20.8-2.8-27.5-8.5c-6.8-5.7-11.8-14.9-14.9-27.4L1592.9,490l-7.2,0l-42.6,169
		c-3.3,12.9-8.9,22.8-16.7,29.6c-7.7,6.6-17.7,10-29.6,10c-12.1,0-21.6-3.1-28.1-9.4c-6.7-6.4-11.9-17.6-15.5-33.3l-50.3-219
		c-0.2-1.3-0.5-3.1-0.6-4.9c-0.1-1.9-0.2-5.1-0.2-9.4c0-8.4,2.7-14.9,8.4-19.9c5.8-5.1,13.3-7.6,22.8-7.6c8,0,14.4,2.3,19.5,6.9
		c5.2,4.7,8.5,11.5,10.1,20.3l36.2,192.4l7.3,0.2l50.3-193.1c2.3-8.9,6.3-15.5,12-19.8c5.8-4.3,13.4-6.5,22.6-6.5
		c8.9,0,16.3,2.3,21.9,6.7c5.6,4.5,9.6,11.3,11.9,20.4l49.5,192.4l7.3-0.2l36.2-187.7c2.2-11.4,5.8-19.6,10.7-24.5
		c4.8-4.7,11.5-7,20.6-7c9.1,0,16.3,2.6,22,8c5.6,5.3,8.4,12,8.4,20.3c0,2.8-0.2,6-0.7,9.3c-0.5,3.4-1.1,6.8-1.9,10.1L1724.3,656
		c-4.2,17.5-9.5,29.1-15.7,34.6C1702.6,695.9,1693.1,698.7,1680.4,698.7z"/>
	<path class="st0" d="M1893.1,701.8c-31.8,0-58.3-11-78.9-32.7c-20.6-21.8-31.1-49.9-31.1-83.7c0-33.8,10.5-61.9,31.1-83.6
		c20.6-21.7,47.1-32.6,78.9-32.6c31.9,0,58.4,10.9,78.8,32.5c20.4,21.6,30.8,49.8,30.8,83.7c0,33.9-10.4,62.1-30.8,83.8
		C1951.5,690.8,1925,701.8,1893.1,701.8z M1893.1,524.6c-14.2,0-25.9,5.7-34.8,17c-8.8,11-13.2,25.4-13.2,42.9
		c0,18,4.4,32.7,13.1,43.8c8.9,11.4,20.6,17.1,35,17.1c14.3,0,26.1-5.8,35-17.3c8.6-11.1,13.1-25.8,13.1-43.7
		c0-17.3-4.5-31.7-13.4-42.8C1918.6,530.4,1906.9,524.6,1893.1,524.6z"/>
	<path class="st0" d="M2140.1,701.8c-31.8,0-58.3-11-78.9-32.7c-20.6-21.8-31.1-49.9-31.1-83.7c0-33.8,10.5-61.9,31.1-83.6
		c20.6-21.7,47.1-32.6,78.9-32.6c31.9,0,58.4,10.9,78.8,32.5c20.4,21.6,30.8,49.8,30.8,83.7c0,33.9-10.4,62.1-30.8,83.8
		C2198.5,690.8,2172,701.8,2140.1,701.8z M2140.1,524.6c-14.2,0-25.9,5.7-34.8,17c-8.7,11-13.2,25.4-13.2,42.9
		c0,18,4.4,32.7,13.1,43.8c8.9,11.4,20.7,17.1,35,17.1c14.3,0,26.1-5.8,34.9-17.3c8.7-11.1,13.1-25.8,13.1-43.7
		c0-17.3-4.5-31.7-13.4-42.8C2165.6,530.4,2154,524.6,2140.1,524.6z"/>
	<path class="st0" d="M2387.1,701.8c-31.8,0-58.3-11-78.9-32.7c-20.6-21.8-31.1-49.9-31.1-83.7c0-33.8,10.4-61.9,31.1-83.6
		c20.6-21.7,47.1-32.6,78.9-32.6c31.9,0,58.4,10.9,78.8,32.5c20.4,21.6,30.8,49.8,30.8,83.7c0,33.9-10.4,62.1-30.8,83.8
		C2445.5,690.8,2419,701.8,2387.1,701.8z M2387.1,524.6c-14.1,0-25.9,5.7-34.8,17c-8.7,11-13.2,25.4-13.2,42.9
		c0,18,4.4,32.7,13.1,43.8c8.9,11.4,20.6,17.1,35,17.1c14.3,0,26.1-5.8,35-17.3c8.6-11.1,13-25.8,13-43.7c0-17.3-4.5-31.7-13.4-42.8
		C2412.6,530.4,2401,524.6,2387.1,524.6z"/>
	<g>
		<path class="st1" d="M524.9,659.6c-4.8,0-8.7-1.5-11.9-4.7c-4.3-4.3-7.5-11.7-9.3-22.1l-5.4-30.7l-3,1.4
			c-39.6,18-81.7,27.1-125.3,27.1c-43.5,0-85.6-9.1-125.3-27.1l-3-1.3l-5.4,30.7c-1.8,10.4-5,17.8-9.3,22.1
			c-3.2,3.2-7.1,4.7-11.9,4.7c-1.5,0-3-0.1-4.6-0.4c-6.9-1.2-11.5-4.4-14-9.6c-2.6-5.5-3-13.6-1.2-24l13.9-78.9
			c0.5-2.8,1.1-5.4,1.9-8.2c1.9-6.3,4.4-11,7.4-14c3.2-3.2,7.1-4.7,12-4.7c1.4,0,2.9,0.1,4.5,0.4c7,1.2,11.5,4.4,14,9.7
			c2.6,5.5,3,13.6,1.1,24l-2,11.7l1.7,0.9c37.6,18.8,78,28.4,120.1,28.4c42.1,0,82.5-9.6,120.1-28.4l1.7-0.9l-2.1-11.7
			c-1.8-10.4-1.4-18.5,1.2-24c2.5-5.3,7.1-8.5,14-9.7c1.6-0.3,3.1-0.4,4.5-0.4c4.8,0,8.7,1.6,11.9,4.7c3,3.1,5.5,7.8,7.4,14
			c0.8,2.7,1.4,5.4,1.9,8.2l13.9,78.9c1.8,10.4,1.5,18.5-1.1,24c-2.5,5.3-7.1,8.4-14,9.6C527.8,659.5,526.3,659.6,524.9,659.6z"/>
		<path class="st1" d="M291.2,520.8c-8.1,0-14.6-3.1-19.6-9.6c-5.1-6.6-7.7-15.5-7.7-26.5c0-10.6,2.6-19.3,7.8-25.8
			c5.1-6.4,11.5-9.6,19.6-9.6c7.9,0,14.2,3.2,19.5,9.6c5.3,6.6,7.9,15.3,7.9,25.7c0,10.9-2.6,19.8-7.8,26.4
			C305.7,517.7,299.3,520.8,291.2,520.8z"/>
		<path class="st1" d="M448.9,520.8c-8.1,0-14.5-3.1-19.6-9.6c-5.1-6.6-7.7-15.5-7.7-26.5c0-10.6,2.6-19.3,7.8-25.8
			c5.1-6.4,11.5-9.6,19.6-9.6c7.9,0,14.2,3.2,19.5,9.6c5.3,6.6,7.9,15.3,7.9,25.7c0,10.9-2.6,19.8-7.7,26.4
			C463.5,517.7,457.1,520.8,448.9,520.8z"/>
	</g>
	<g>
		<path class="st2" d="M469.2,162c-23.6,0-42.8-19.2-42.8-42.8h-0.1c0,23.6-19.2,42.8-42.8,42.8c23.6,0,42.8,19.2,42.8,42.8
			c0,0.1,0,0.3,0,0.4h0.1c0-0.1,0-0.3,0-0.4C426.4,181.1,445.6,162,469.2,162z"/>
		<path class="st2" d="M580.9,92.1c-31.8,0-57.5-25.8-57.5-57.6h-0.1c0,31.8-25.8,57.6-57.5,57.6c31.8,0,57.5,25.7,57.5,57.5
			c0,0.2,0,0.4,0,0.6h0.1c0-0.2,0-0.4,0-0.6C523.4,117.8,549.1,92.1,580.9,92.1z"/>
		<path class="st2" d="M686.3,230.9c-40.7,0-73.8-33-73.8-73.7h-0.1c0,40.7-33,73.7-73.7,73.7c40.7,0,73.7,33,73.7,73.8
			c0,0.3,0,0.5,0,0.7h0.1c0-0.2,0-0.5,0-0.7C612.6,263.9,645.6,230.9,686.3,230.9z"/>
		<path class="st2" d="M1077.8,698.7c-10.4,0-17.9-3.4-22.9-10.5c-5.2-7.4-7.9-19-7.9-34.6v-80.9H912.7v80.9
			c0,15.6-2.6,27.3-7.8,34.6c-5,7-12.5,10.5-22.9,10.5c-10.4,0-18-3.4-22.9-10.5c-5.2-7.4-7.8-19-7.8-34.6V441
			c0-15.6,2.6-27.3,7.9-34.8c5-7.1,12.5-10.6,22.9-10.6c10.4,0,17.9,3.5,22.9,10.6c5.2,7.4,7.9,19.1,7.9,34.8v75.3H1047V441
			c0-15.6,2.7-27.3,7.9-34.8c5-7.1,12.5-10.6,22.9-10.6c10.5,0,18,3.5,23,10.6c5.2,7.4,7.9,19.1,7.9,34.8v212.5
			c0,15.6-2.7,27.3-7.9,34.6C1095.7,695.2,1088.2,698.7,1077.8,698.7z"/>
		<path class="st2" d="M1250.8,700.1c-27.4,0-50.8-11-69.6-32.6c-18.9-21.8-28.5-49.4-28.5-82.2c0-32.3,9.9-59.9,29.4-81.9
			c19.4-21.9,43.4-33,71.2-33c10.8,0,20.5,1.9,28.8,5.5c8.2,3.6,15.6,9.4,22,17.1l3.5,4.2l2.6-4.8c3.6-6.5,7.8-11.5,12.7-14.7
			c4.8-3.2,10.1-4.8,16-4.8c10,0,17.2,3.3,21.9,10.2c5,7.2,7.5,18.9,7.5,34.7v135c0,15.6-2.6,27.3-7.6,34.7
			c-4.8,7-11.9,10.4-21.8,10.4c-6.6,0-12.2-1.6-16.7-4.9c-4.6-3.3-8.6-8.8-11.9-16.2l-2.5-5.5l-3.8,4.7c-6.4,7.8-14.2,13.9-23.3,18
			C1271.6,698,1261.6,700.1,1250.8,700.1z M1261.8,527.1c-13.9,0-25.4,5.5-34.2,16.2c-8.6,10.5-13,24.4-13,41.1
			c0,17.3,4.3,31.5,12.9,42.2c8.7,10.9,20.3,16.5,34.3,16.5c13.8,0,25.2-5.6,33.9-16.7c8.5-10.8,12.9-24.9,12.9-41.9
			c0-16.6-4.4-30.4-13-41C1286.8,532.6,1275.4,527.1,1261.8,527.1z"/>
		<path class="st2" d="M1834.1,333.2l18.2-0.1c1.7-5.4,3.5-11,5.3-17.1l12.9,0.2c-2.2,6.1-4.1,11.7-5.8,16.8l20.7-0.1l0.1,11.9
			l-3.5,0c-0.6,21.7-5,39.3-13.2,53c4.6,3,9.8,6.4,15.6,10l0.1,16.4c-8.2-6-15.7-11.6-22.4-16.8c-7.2,8.5-16.2,15.1-27.1,19.7
			l-0.1-12.7c7.1-3.8,13-8.6,17.8-14.4c-10-7.1-15-13.2-15.1-18.3c0-1.3,3.6-13.5,10.8-36.6l-14.3,0.1L1834.1,333.2z M1859.3,390.9
			c7.1-12.2,11-27.6,11.8-46l-10.6,0.1c-7.3,21.4-10.9,33.1-10.9,35C1849.6,382.2,1852.8,385.9,1859.3,390.9z M1886.4,361.5
			l29.3-0.2l-0.1-10.1c2.5-3.5,4.8-6.9,6.6-10.2c3-5,4.4-8.1,4.4-9.3c0-0.7-0.2-1.1-0.6-1.3l-38,0.2l-0.1-11.4l45.2-0.3
			c4.4,0.9,6.6,4.2,6.6,9.8c0,6.4-3.9,14.8-11.9,25.2l0.1,7.3l13-0.1l0.1,12.1l-13,0.1l0.2,32.3c-0.3,11.6-6.1,18.1-17.2,19.4
			c-8.8,0.1-15.2-0.2-19.3-0.9l-0.1-12.4c3.3,1.1,8.3,1.6,14.9,1.5c6.3-0.4,9.4-2.9,9.4-7.6l-0.3-32.3l-29.3,0.2L1886.4,361.5z"/>
		<path class="st2" d="M2023.1,339.1c-2.4,13.1-7.1,23.3-14,30.6v-19c3.6-8.3,5.3-19.5,5.2-33.5l10.7-0.1c0,3.5-0.1,6.9-0.4,10.1
			l4.9,0l-0.1-13.1l11.7-0.1l0.1,13.1l9.9-0.1l0.1,11.9l-9.9,0.1l0.2,37.2c3.1-1.3,6-2.6,8.8-4l0.1,13.1c-2.5,1.4-5.4,2.8-8.7,4.1
			l0.2,36.5l-11.7,0.1l-0.2-32.4c-6,1.9-12.7,3.9-20.2,5.9l-0.1-12.4c7-1.8,13.8-3.9,20.2-6.3l-0.2-41.8L2023.1,339.1z
			 M2062.9,313.9l11.6-0.1c-0.3,3.1-0.7,5.9-1.2,8.5l16.4-0.1c6.9,0,12.5,1.9,16.6,5.7c3.7,3.7,5.8,8,6.4,12.8
			c1.2,10,1.8,19.3,1.9,28c0.1,17-0.3,27.9-1.3,32.7c-0.4,13.7-7.5,21.2-21.1,22.6c-8.3,0-15.3-0.2-21-0.8l-0.1-12.1
			c3.9,0.9,9.8,1.3,17.8,1.2c6.9,0,11.1-4.1,12.5-12c0.6-7.1,0.9-14.6,1-22.5c-10.8,18.4-27.2,30.9-49.2,37.3l0.1-13.5
			c22.8-5.5,39.1-21.7,48.9-48.7c-0.1-4.5-0.4-7.6-0.8-9.5c-0.9-4.7-3.5-7.6-7.9-8.9c-3.2,24.9-16.6,43-40.3,54.4l-0.1-13
			c16-9.4,25.6-23.4,28.8-41.9l-11.9,0.1c-4.1,11.1-10.6,19.9-19.6,26.3l-0.2-14.8C2058.3,337,2062.6,326.5,2062.9,313.9z"/>
		<path class="st2" d="M2222.9,334.1l0.1,11.3c-3.4,0.5-6.9,0.9-10.6,1.2l0.1,15.7l16.3-0.1l-0.1-29.8l11.7-0.1l0.2,29.8l3.2,0
			c7,0,12.3,1.1,15.8,3.6c3.6,2.2,5.7,5.9,6.3,11.1v0.1c5.6-3.2,11.5-5,17.9-5.5l0,10.9c-5.7,0.5-11.4,2.2-17.3,4.9
			c0,0.2,0.1,0.3,0.2,0.5c7.5,0.7,13.3,1.7,17.4,3l0.1,11.7c-3.6-1.5-8.8-2.9-15.4-4.1c2.6,7.5,6.8,11.2,12.7,11.3
			c2.1-0.3,4.6-0.5,7.3-0.7l0.2,10.9c-3.6,0.4-6.7,0.5-9.5,0.5c-15.3,0.1-23.6-13.1-24.7-39.5c-0.7-5.2-3.8-7.7-9.3-7.7l-4.8,0
			l0.3,49.9l-11.8,0.1l-0.3-49.9l-16.3,0.1l0,1.4c-0.6,24.6-9.2,40.7-25.7,48.2l-0.2-13.5c9.4-5,14.2-17,14.4-36.1l-17.6,0.1l0.1-11
			l17.4-0.1l-0.1-14.7c-4.5,0.3-9.1,0.5-13.8,0.8l-0.1-11.4C2197.2,337.1,2209.2,336,2222.9,334.1z M2188.3,317l56-0.4
			c6.8,0,11.9,1.2,15.5,3.6c1.9,1.2,3.3,2.8,4.2,4.8c5.9-2.7,12.2-5.3,19-7.8l0.1,11.6c-5.6,1.9-11.3,3.9-17,6.3v0.5
			c7.5,0.6,13.2,1.5,17.3,2.6l0,11c-3.6-1.3-8.8-2.5-15.3-3.5c2.5,7.1,6.8,10.6,13.2,10.7c2.2-0.2,4.7-0.4,7.3-0.5l0.2,10.4
			c-3.6,0.3-6.7,0.4-9.4,0.4c-15.1,0.1-23.2-10.4-24.4-31.5c-0.6-5.1-3.5-7.6-9-7.6l-57.7,0.4L2188.3,317z"/>
		<path class="st2" d="M2381.8,311.8l12.8-0.1c-8.2,17.8-20.8,30.5-37.7,37.8l-0.1-12.9C2366.7,331,2375,322.7,2381.8,311.8z
			 M2373.1,369.5c-4.9,3.7-10.3,6.9-16,9.4l-0.1-13.4c12.4-7.4,22.9-18.3,31.5-32.6l12.8-0.1c-4.4,9.7-9.7,18.2-16,25.3l0.4,64.1
			l-12.3,0.1L2373.1,369.5z M2400.5,343.5l63.5-0.4l0.1,11.6l-13.5,0.1c0.3,7.5,0.5,18.7,0.6,33.6c0.1,9.6-0.5,16.1-1.7,19.7
			c-2.1,7.6-8.5,11.7-19.1,12.2c-10.9-0.1-19.5-0.8-25.5-2.2l0-11.1c8.7,1.2,16.6,1.7,23.5,1.7c4.4-0.3,7.4-2,9.1-5
			c0.9-1.9,1.3-6.9,1.2-15.1c-0.1-15.3-0.4-26.6-0.6-33.7l-37.6,0.2L2400.5,343.5z M2403.8,315.2l56.7-0.3l0.1,11.5l-56.7,0.3
			L2403.8,315.2z"/>
	</g>
</g>
</svg>
