<?xml version="1.0" encoding="utf-8"?>
<!-- Generator: Adobe Illustrator 23.0.3, SVG Export Plug-In . SVG Version: 6.00 Build 0)  -->
<svg version="1.1" id="Layer_1" xmlns="http://www.w3.org/2000/svg" xmlns:xlink="http://www.w3.org/1999/xlink" x="0px" y="0px"
	 viewBox="0 0 111 105.4" style="enable-background:new 0 0 111 105.4;" xml:space="preserve">
<style type="text/css">
	.st0{fill:#689B94;}
</style>
<g>
	<path class="st0" d="M104.7,35.3c-7.8-4.5-16.5-2.2-22.4,0.5l-15.9,7.4l-27.7-14c-0.2-0.1-0.5-0.2-0.8-0.2l-17.1,0.9
		c-0.6,0-1.2,0.4-1.4,1.1c-0.2,0.6-0.1,1.3,0.3,1.7l22,22.2l-12.2,5.8l-15-5.7c-0.4-0.1-0.9-0.1-1.3,0L2.7,59.9
		c-0.4,0.2-0.8,0.6-0.9,1.1s0,1,0.3,1.4l8.7,10.7c-1.4,2.3-1.1,4-0.5,5.3c1.4,2.9,5,4.4,10.9,4.4c1.1,0,2.3,0,3.6-0.1
		c5.8-0.4,12.3-1.9,16.3-3.9l59.3-27.6c5.7-2.7,8.6-5.6,8.8-9.1C109.2,40.6,108.7,37.7,104.7,35.3z M19.9,72.5l-7.1-9l1.3-0.6
		L29,68.6c0.4,0.1,0.9,0.1,1.3,0l22.1-10.5c0.4-0.2,0.9-0.6,0.9-1.2c0.1-0.5-0.1-1.1-0.4-1.4L34.4,36.9l2.1-0.1l29,14.6
		c0.4,0.2,1,0.2,1.4,0l18.5-8.7c6.3-2.9,11.4-3.2,15.4-0.9c0.1,0,0.2,0.1,0.2,0.1c-0.5,0.5-1.7,1.3-3.9,2.4L37.9,72
		c-3.1,1.5-8.3,2.7-13.2,3.1c-2.4,0.2-4.1,0.2-5.4,0.1l0.5-0.4C20.3,74.3,20.4,73.2,19.9,72.5z"/>
	<path class="st0" d="M40.1,85.1c-0.6-1.4-2.3-1.9-3.7-1.3L13.3,94.6c-1.4,0.6-1.9,2.3-1.3,3.7c0.4,1,1.4,1.6,2.5,1.6
		c0.4,0,0.8-0.1,1.2-0.2l23.2-10.8C40.1,88.1,40.8,86.5,40.1,85.1z"/>
	<path class="st0" d="M53.4,86.3L30.2,97.1c-1.4,0.6-1.9,2.3-1.3,3.7c0.4,1,1.4,1.6,2.5,1.6c0.4,0,0.8-0.1,1.2-0.2l23.2-10.8
		c1.4-0.6,1.9-2.3,1.3-3.7C56.3,86.2,54.7,85.6,53.4,86.3z"/>
</g>
</svg>
