<?xml version="1.0" encoding="utf-8"?>
<!-- Generator: Adobe Illustrator 23.0.3, SVG Export Plug-In . SVG Version: 6.00 Build 0)  -->
<svg version="1.1" id="Layer_1" xmlns="http://www.w3.org/2000/svg" xmlns:xlink="http://www.w3.org/1999/xlink" x="0px" y="0px"
	 viewBox="0 0 106 106" style="enable-background:new 0 0 106 106;" xml:space="preserve">
<style type="text/css">
	.st0{fill:#689B94;stroke:#FFFFFF;stroke-miterlimit:10;}
</style>
<g>
	<path class="st0" d="M97.3,33.4c0-1.1-0.3-2.2-1-3L79.2,8.7c-0.9-1.1-2.3-1.8-3.7-1.8h-45c-1.5,0-2.8,0.7-3.7,1.8L9.7,30.4
		c-0.7,0.8-1,1.9-1,3v61c0,2.6,2.1,4.7,4.7,4.7h79.2c2.6,0,4.7-2.1,4.7-4.7L97.3,33.4z M18.2,89.6V38.5h69.7v51.2L18.2,89.6
		L18.2,89.6z M48.3,16.4V29H22.9l9.9-12.6H48.3z M57.7,29V16.4h15.4l10,12.6H57.7z"/>
	<path class="st0" d="M65.3,50.8c-1.3,0-2.5,0.5-3.4,1.4L48.6,65.5L44.2,61c-0.9-0.9-2.1-1.4-3.4-1.4c-1.3,0-2.5,0.5-3.4,1.4
		S36,63.1,36,64.4s0.5,2.5,1.4,3.4l7.8,7.8c0.9,0.9,2.1,1.4,3.4,1.4c1.2,0,2.4-0.5,3.4-1.4L68.6,59c1.8-1.8,1.8-4.9,0-6.7
		C67.7,51.4,66.5,50.8,65.3,50.8z"/>
</g>
</svg>
