<?xml version="1.0" encoding="utf-8"?>
<!-- Generator: Adobe Illustrator 23.0.3, SVG Export Plug-In . SVG Version: 6.00 Build 0)  -->
<svg version="1.1" xmlns="http://www.w3.org/2000/svg" xmlns:xlink="http://www.w3.org/1999/xlink" x="0px" y="0px"
	 viewBox="0 0 200 195" style="enable-background:new 0 0 200 195;" xml:space="preserve">
<style type="text/css">
	.st0{fill:#F1B11A;}
	.st1{fill:#FFFFFF;}
	.st2{fill:#F5C519;}
</style>
<g id="圖層_2">
	<path class="st0" d="M37.7,110.7c0,30.4,34.4,55.1,76.7,55.1c11.2,0,22-1.7,32.1-5.1l1.8-0.6l1.5,1.1c3.5,2.7,7.4,3.8,11.9,5.2
		l0.7,0.2c4.7,1.4,9.3,2.2,13.7,2.2c0,0,0,0,0,0c5.4,0,8.6-1.1,8.6-1.2c0.4-0.2,0.7-0.6,0.7-1c0-0.4-0.3-0.8-0.7-1
		c-7.7-2.4-12.3-8.5-14.9-13.2l-1.4-2.7l2.4-1.9c13.1-10.2,20.3-23.4,20.3-37.3c0-30.4-34.4-55.1-76.7-55.1
		C72.1,55.6,37.7,80.3,37.7,110.7z"/>
</g>
<g id="圖層_1">
	<g>
		<g>
			<path class="st1" d="M24.4,160.8c-7.3,0-11.7-1.6-12.2-1.8c-3.6-1.4-6-4.9-5.9-8.7c0.1-3.9,2.7-7.2,6.4-8.3
				c4.5-1.4,7.8-4.7,10-7.9C8.1,121.7,0.1,105.9,0.1,89.2C0.1,51.6,41.3,21,92,21s91.9,30.6,91.9,68.2s-41.2,68.2-91.9,68.2
				c-12.4,0-24.4-1.8-35.7-5.3c-4.5,2.9-9.2,4.4-13.8,5.8l-0.8,0.2C35.8,159.9,30,160.8,24.4,160.8
				C24.4,160.8,24.4,160.8,24.4,160.8z"/>
			<path class="st2" d="M30.5,155.2c-6.7,0-10.8-1.5-11.3-1.6c-3.3-1.2-5.5-4.5-5.4-8c0.1-3.6,2.5-6.7,5.9-7.7
				c4.2-1.3,7.2-4.3,9.2-7.3c-13.4-11.4-20.8-26-20.8-41.4c0-34.7,38-62.9,84.8-62.9s84.8,28.2,84.8,62.9s-38,62.9-84.8,62.9
				c-11.5,0-22.5-1.6-33-4.9c-4.1,2.7-8.5,4-12.7,5.3l-0.7,0.2C41,154.3,35.7,155.2,30.5,155.2C30.5,155.2,30.5,155.2,30.5,155.2z"
				/>
			<path class="st1" d="M92.9,33.5c-42.7,0-77.5,25-77.5,55.6c0,14.1,7.3,27.4,20.5,37.7l2.4,1.9l-1.4,2.7c-2.5,4.8-7.2,11-15,13.4
				c-0.4,0.1-0.7,0.5-0.7,1s0.3,0.8,0.7,1c0,0,3.2,1.2,8.7,1.2c0,0,0,0,0,0c4.4,0,9.1-0.7,13.8-2.2l0.7-0.2c4.6-1.4,8.5-2.6,12-5.3
				l1.5-1.2l1.8,0.6c10.2,3.4,21.1,5.1,32.4,5.1c42.7,0,77.5-25,77.5-55.6S135.6,33.5,92.9,33.5z"/>
		</g>
		<g>
			<path class="st2" d="M126.4,108.1c-1,0-1.9-0.3-2.5-1c-0.9-0.9-1.6-2.5-2-4.7l-1.2-6.6l-0.6,0.3c-8.5,3.9-17.5,5.8-26.9,5.8
				c-9.3,0-18.4-2-26.9-5.8l-0.6-0.3l-1.2,6.6c-0.4,2.2-1.1,3.8-2,4.7c-0.7,0.7-1.5,1-2.6,1c-0.3,0-0.6,0-1-0.1
				c-1.5-0.3-2.5-0.9-3-2.1c-0.6-1.2-0.6-2.9-0.3-5.1l3-16.9c0.1-0.6,0.2-1.2,0.4-1.8c0.4-1.3,0.9-2.4,1.6-3c0.7-0.7,1.5-1,2.6-1
				c0.3,0,0.6,0,1,0.1c1.5,0.3,2.5,1,3,2.1c0.6,1.2,0.6,2.9,0.2,5.2l-0.4,2.5l0.4,0.2c8.1,4,16.7,6.1,25.7,6.1
				c9,0,17.7-2.1,25.8-6.1l0.4-0.2l-0.4-2.5c-0.4-2.2-0.3-4,0.2-5.2c0.5-1.1,1.5-1.8,3-2.1c0.3-0.1,0.7-0.1,1-0.1c1,0,1.9,0.3,2.6,1
				c0.7,0.7,1.2,1.7,1.6,3c0.2,0.6,0.3,1.2,0.4,1.8l3,16.9c0.4,2.2,0.3,4-0.2,5.1c-0.5,1.1-1.5,1.8-3,2.1
				C127,108.1,126.7,108.1,126.4,108.1z"/>
			<path class="st2" d="M76.3,78.3c-1.7,0-3.1-0.7-4.2-2.1c-1.1-1.4-1.7-3.3-1.7-5.7c0-2.3,0.6-4.1,1.7-5.5c1.1-1.4,2.5-2,4.2-2
				c1.7,0,3.1,0.7,4.2,2.1c1.1,1.4,1.7,3.3,1.7,5.5c0,2.3-0.6,4.2-1.7,5.7C79.4,77.7,78,78.3,76.3,78.3z"/>
			<path class="st2" d="M110.1,78.3c-1.7,0-3.1-0.7-4.2-2.1c-1.1-1.4-1.7-3.3-1.7-5.7c0-2.3,0.6-4.1,1.7-5.5c1.1-1.4,2.5-2,4.2-2
				c1.7,0,3.1,0.7,4.2,2.1c1.1,1.4,1.7,3.3,1.7,5.5c0,2.3-0.6,4.2-1.7,5.7C113.2,77.7,111.8,78.3,110.1,78.3z"/>
		</g>
	</g>
</g>
<g id="圖層_3">
	<g>
		<path class="st0" d="M149.8,21.4L149.8,21.4l-2.9,1.1l-0.2-2.3l3.9-1.4l2.3,0.3l-2,15.5l-2.7-0.4L149.8,21.4z"/>
		<path class="st0" d="M160.2,24l1.2,6.2c0.2,1.1,0.4,2,0.5,3l0.1,0c0.3-0.9,0.7-1.7,1.2-2.7l2.7-5.7l3,0.4l-6.1,11l-2.9-0.4
			l-2.8-12.2L160.2,24z"/>
		<path class="st0" d="M174.8,24.7L174.8,24.7l-2.9,1.1l-0.2-2.3l3.9-1.4l2.3,0.3l-2,15.5l-2.7-0.4L174.8,24.7z"/>
	</g>
</g>
</svg>
