<?xml version="1.0" encoding="utf-8"?>
<!-- Generator: Adobe Illustrator 23.0.3, SVG Export Plug-In . SVG Version: 6.00 Build 0)  -->
<svg version="1.1" xmlns="http://www.w3.org/2000/svg" xmlns:xlink="http://www.w3.org/1999/xlink" x="0px" y="0px"
	 viewBox="0 0 200 195" style="enable-background:new 0 0 200 195;" xml:space="preserve">
<style type="text/css">
	.st0{fill:#F1B11A;}
	.st1{fill:#F5C519;}
	.st2{display:none;}
	.st3{display:inline;}
	.st4{fill:none;stroke:#797979;stroke-width:8;stroke-linecap:round;stroke-linejoin:round;}
</style>
<g id="圖層_1">
	<g>
		<path class="st0" d="M176.9,158.9l-2-3.8l3.4-2.7c14.1-11.1,21.8-25.4,21.8-40.4c0-9.4-3.1-18.2-8.5-26.1c0,0.8,0.1,1.6,0.1,2.5
			c0,40.4-44.4,73.3-98.9,73.3c-10.1,0-19.9-1.1-29.3-3.3c14.4,8.5,32.8,13.6,52.9,13.6c0.2,0,0.4,0,0.6,0c12.2-0.1,24-2,35-5.7
			l2.6-0.9l2.2,1.6c3.7,2.8,7.9,4.1,12.8,5.5l0.8,0.2c5.1,1.5,10.1,2.3,14.8,2.3c5.7,0,9.1-1.2,9.1-1.3
			C185.1,171.3,179.8,164.3,176.9,158.9z"/>
		<path class="st1" d="M24.5,160.8c-7.3,0-11.8-1.6-12.3-1.8c-3.6-1.4-6-4.9-5.9-8.8c0.1-3.9,2.7-7.3,6.4-8.4c4.6-1.4,7.8-4.7,10-8
			C8,121.3,0,105.4,0,88.6c0-37.9,41.5-68.8,92.6-68.8s92.6,30.8,92.6,68.8s-41.5,68.8-92.6,68.8c-12.5,0-24.6-1.8-36-5.4
			c-4.5,2.9-9.3,4.4-13.9,5.8l-0.8,0.2C36,159.8,30.1,160.8,24.5,160.8C24.5,160.8,24.5,160.8,24.5,160.8z M92.6,27.8
			C45.9,27.8,8,55,8,88.6c0,15.4,8,30,22.4,41.2l2.6,2.1l-1.6,3c-2.8,5.2-7.9,12-16.4,14.6c-0.5,0.1-0.8,0.6-0.8,1.1
			s0.3,0.9,0.7,1.1c0,0,3.5,1.3,9.5,1.3c0,0,0,0,0,0c4.8,0,9.9-0.8,15.1-2.4l0.8-0.2c5-1.5,9.3-2.8,13.1-5.8l1.7-1.3l2,0.7
			c11.1,3.7,23.1,5.6,35.4,5.6c46.7,0,84.7-27.3,84.7-60.8S139.3,27.8,92.6,27.8z"/>
		<g>
			<path class="st1" d="M129.2,109.3c-1.1,0-2-0.4-2.8-1.1c-1-1-1.7-2.7-2.2-5.2l-1.3-7.2l-0.7,0.3c-9.3,4.2-19.2,6.3-29.3,6.3
				c-10.2,0-20.1-2.1-29.3-6.3l-0.7-0.3l-1.3,7.2c-0.4,2.4-1.2,4.2-2.2,5.2c-0.7,0.7-1.7,1.1-2.8,1.1c-0.3,0-0.7,0-1.1-0.1
				c-1.6-0.3-2.7-1-3.3-2.3c-0.6-1.3-0.7-3.2-0.3-5.6l3.3-18.5c0.1-0.6,0.3-1.3,0.5-1.9c0.4-1.5,1-2.6,1.7-3.3
				c0.7-0.7,1.7-1.1,2.8-1.1c0.3,0,0.7,0,1.1,0.1c1.6,0.3,2.7,1,3.3,2.3c0.6,1.3,0.7,3.2,0.3,5.6l-0.5,2.7l0.4,0.2
				c8.8,4.4,18.3,6.7,28.1,6.7c9.9,0,19.3-2.2,28.1-6.7l0.4-0.2l-0.5-2.7c-0.4-2.4-0.3-4.3,0.3-5.6c0.6-1.2,1.7-2,3.3-2.3
				c0.4-0.1,0.7-0.1,1.1-0.1c1.1,0,2,0.4,2.8,1.1c0.7,0.7,1.3,1.8,1.7,3.3c0.2,0.6,0.3,1.3,0.4,1.9l3.3,18.5
				c0.4,2.4,0.3,4.3-0.3,5.6c-0.6,1.2-1.7,2-3.3,2.3C129.9,109.3,129.6,109.3,129.2,109.3z"/>
			<path class="st1" d="M74.5,76.8c-1.9,0-3.4-0.7-4.6-2.3c-1.2-1.5-1.8-3.6-1.8-6.2c0-2.5,0.6-4.5,1.8-6c1.2-1.5,2.7-2.2,4.6-2.2
				c1.8,0,3.3,0.7,4.6,2.3c1.2,1.5,1.9,3.6,1.9,6c0,2.6-0.6,4.6-1.8,6.2C77.9,76.1,76.4,76.8,74.5,76.8z"/>
			<path class="st1" d="M111.4,76.8c-1.9,0-3.4-0.7-4.6-2.3c-1.2-1.5-1.8-3.6-1.8-6.2c0-2.5,0.6-4.5,1.8-6c1.2-1.5,2.7-2.2,4.6-2.2
				c1.8,0,3.3,0.7,4.6,2.3c1.2,1.5,1.9,3.6,1.9,6c0,2.6-0.6,4.6-1.8,6.2C114.8,76.1,113.3,76.8,111.4,76.8z"/>
		</g>
	</g>
</g>
<g id="圖層_2" class="st2">
	<g class="st3">
		<polyline class="st4" points="9,85 100,97 191,85 		"/>
		<polyline class="st4" points="100,173 58.2,90.9 46,36 		"/>
		<polyline class="st4" points="100,173 141.8,90.9 154,36 		"/>
		<polyline class="st4" points="58,91 100,34 142,91 		"/>
	</g>
</g>
</svg>
