<?xml version="1.0" encoding="utf-8"?>
<!-- Generator: Adobe Illustrator 23.0.2, SVG Export Plug-In . SVG Version: 6.00 Build 0)  -->
<svg version="1.1" id="Layer_1" xmlns="http://www.w3.org/2000/svg" xmlns:xlink="http://www.w3.org/1999/xlink" x="0px" y="0px"
	 viewBox="0 0 106 106" style="enable-background:new 0 0 106 106;" xml:space="preserve">
<style type="text/css">
	.st0{fill:#6D6D6D;}
</style>
<g>
	<path class="st0" d="M97.7,39.6l4.7,0.1V20.6H3.6v64.7h98.9V66.2l-4.7,0.1l-0.1,0c-1.3,0-2.4-1.1-2.4-2.4c0-1.3,1.1-2.4,2.4-2.4
		l4.8,0.1V44.4l-4.7,0.1c-1.3,0-2.4-1.1-2.4-2.4C95.3,40.7,96.4,39.6,97.7,39.6z M93.4,53.3c-4.3,1.7-7.1,5.9-7.1,10.6
		s2.9,8.9,7.1,10.6v1.7H12.6V29.7h80.8v1.7c-4.3,1.7-7.1,5.9-7.1,10.6s2.9,8.9,7.1,10.6V53.3z"/>
	<rect x="67.5" y="48" class="st0" width="6.7" height="10"/>
	<rect x="67.5" y="33.1" class="st0" width="6.7" height="10"/>
	<rect x="67.5" y="62.9" class="st0" width="6.7" height="10"/>
	<path class="st0" d="M46.5,51.3c-4.4,0-7.4,3.1-7.4,7.7c0,4.6,3,7.7,7.4,7.7s7.4-3.1,7.4-7.7C53.9,54.4,50.9,51.3,46.5,51.3z
		 M47.5,59.1c0,1.6-0.4,2.6-1,2.6c-0.6,0-1-1-1-2.6c0-1.6,0.4-2.6,1-2.6C47.2,56.4,47.5,57.4,47.5,59.1z"/>
	<path class="st0" d="M40.1,40.7L35,48.2c0-0.4,0.1-0.8,0.1-1.2c0-4.6-3-7.7-7.4-7.7c-4.4,0-7.4,3.1-7.4,7.7c0,4.6,3,7.7,7.4,7.7
		c1.2,0,2.4-0.3,3.4-0.7l-6.9,10.1h6.8l15.9-23.3H40.1z M28.7,46.9c0,1.6-0.4,2.6-1,2.6c-0.6,0-1-1-1-2.6c0-1.6,0.4-2.6,1-2.6
		C28.3,44.3,28.7,45.3,28.7,46.9z"/>
</g>
</svg>
