<?xml version="1.0" encoding="utf-8"?>
<!-- Generator: Adobe Illustrator 23.0.3, SVG Export Plug-In . SVG Version: 6.00 Build 0)  -->
<svg version="1.1" id="圖層_1" xmlns="http://www.w3.org/2000/svg" xmlns:xlink="http://www.w3.org/1999/xlink" x="0px" y="0px"
	 viewBox="0 0 106 106" style="enable-background:new 0 0 106 106;" xml:space="preserve">
<style type="text/css">
	.st0{fill:#6F6F6F;}
</style>
<path id="路径_158" class="st0" d="M68.6,54.9c-10.8,0-19.5,8.7-19.5,19.5S57.8,94,68.6,94s19.5-8.7,19.5-19.5
	S79.5,54.9,68.6,54.9z M75.1,83.7l-8.5-8.5V62.7h3.9v10.9l7.3,7.3L75.1,83.7z M72.5,19.7H60.1c-2.1-6.1-8.8-9.3-14.9-7.2
	c-3.4,1.2-6,3.8-7.2,7.2H25.6c-4.3,0-7.8,3.5-7.8,7.8v58.6c0,4.3,3.5,7.8,7.8,7.8h23.9c-2.3-2.3-4.2-4.9-5.5-7.8H25.6V27.5h7.8v11.7
	h31.3V27.5h7.8v19.8c2.7,0.4,5.4,1.2,7.8,2.4V27.5C80.4,23.3,76.8,19.8,72.5,19.7z M49.1,27.5c-2.2,0-3.9-1.7-3.9-3.9
	s1.7-3.9,3.9-3.9s3.9,1.7,3.9,3.9S51.3,27.5,49.1,27.5z"/>
</svg>
