<?xml version="1.0" encoding="utf-8"?>
<!-- Generator: Adobe Illustrator 23.0.3, SVG Export Plug-In . SVG Version: 6.00 Build 0)  -->
<svg version="1.1" id="Layer_1" xmlns="http://www.w3.org/2000/svg" xmlns:xlink="http://www.w3.org/1999/xlink" x="0px" y="0px"
	 viewBox="0 0 106 106" style="enable-background:new 0 0 106 106;" xml:space="preserve">
<style type="text/css">
	.st0{fill:#689B94;}
</style>
<path class="st0" d="M91.8,9.9H14.2c-2.4,0-4.3,1.9-4.3,4.3v77.6c0,2.4,1.9,4.3,4.3,4.3h77.6c2.4,0,4.3-1.9,4.3-4.3V14.2
	C96.1,11.8,94.2,9.9,91.8,9.9z M87.5,18.5v69.1h-69V18.5H87.5z"/>
<path class="st0" d="M32.6,40.6c0.8,0.8,1.9,1.3,3,1.3s2.2-0.4,3-1.3l9.4-9.4c1.7-1.7,1.7-4.4,0-6.1c-0.8-0.8-1.9-1.3-3-1.3
	s-2.2,0.4-3,1.3l-6.3,6.3L34.3,30c-1.7-1.7-4.4-1.7-6.1,0c-0.8,0.8-1.3,1.9-1.3,3c0,1.1,0.4,2.2,1.3,3L32.6,40.6z"/>
<path class="st0" d="M31.7,77.4h42.7c3.8,0,7-1.9,7-4.3s-3.1-4.3-7-4.3H31.7c-3.8,0-7,1.9-7,4.3S27.8,77.4,31.7,77.4z"/>
<path class="st0" d="M31.7,58.3h42.7c3.8,0,7-1.9,7-4.3c0-2.4-3.1-4.3-7-4.3H31.7c-3.8,0-7,1.9-7,4.3C24.7,56.4,27.8,58.3,31.7,58.3
	z"/>
</svg>
