<?xml version="1.0" encoding="utf-8"?>
<!-- Generator: Adobe Illustrator 23.0.2, SVG Export Plug-In . SVG Version: 6.00 Build 0)  -->
<svg version="1.1" id="圖層_1" xmlns="http://www.w3.org/2000/svg" xmlns:xlink="http://www.w3.org/1999/xlink" x="0px" y="0px"
	 viewBox="0 0 261.5 42.3" style="enable-background:new 0 0 261.5 42.3;" xml:space="preserve">
<style type="text/css">
	.st0{fill:#FFFFFF;}
</style>
<circle class="st0" cx="14.6" cy="20.6" r="5.4"/>
<g>
	<ellipse transform="matrix(0.9871 -0.1602 0.1602 0.9871 -2.1189 15.0126)" class="st0" cx="92.1" cy="20.6" rx="5.4" ry="5.4"/>
	<circle class="st0" cx="169.6" cy="20.6" r="5.4"/>
	<ellipse transform="matrix(0.9871 -0.1602 0.1602 0.9871 -0.1187 39.826)" class="st0" cx="247" cy="20.6" rx="5.4" ry="5.4"/>
</g>
<path class="st0" d="M259.2,0H259H2.6h0h-3v42.4h3v0L259,42.2v0.1h3V0H259.2z M259,22c-0.7,5.9-5.7,10.7-11.9,10.7
	c-5.4,0-10-3.6-11.5-8.5h-54.6c-1.1,3.8-4.1,6.7-7.8,7.8c-6.2,1.9-12.8-1.7-14.6-7.8h-55c-1.1,3.8-4.1,6.7-7.9,7.9
	c-6.2,1.9-12.8-1.7-14.6-7.9H25.8c-1.1,3.8-4.1,6.7-7.9,7.9c-6.2,1.9-12.8-1.7-14.6-7.9S5,11.3,11.2,9.5s12.8,1.7,14.6,7.9h55
	c1.1-3.8,4.1-6.7,7.9-7.9c6.2-1.9,12.8,1.7,14.6,7.9h55c1.1-3.8,4.1-6.7,7.8-7.8c6.2-1.9,12.8,1.7,14.6,7.8h54.7
	c1.4-5,6-8.7,11.5-8.7c6.2,0,11.2,4.6,11.9,10.6V22z"/>
</svg>
