<?xml version="1.0" encoding="utf-8"?>
<!-- Generator: Adobe Illustrator 22.0.1, SVG Export Plug-In . SVG Version: 6.00 Build 0)  -->
<svg version="1.1" id="Layer_3" xmlns="http://www.w3.org/2000/svg" xmlns:xlink="http://www.w3.org/1999/xlink" x="0px" y="0px"
	 viewBox="0 0 374.4 101.9" style="enable-background:new 0 0 374.4 101.9;" xml:space="preserve">
<style type="text/css">
	.st0{fill:#8F908F;}
	.st1{fill:#FF888E;}
	.st2{fill:#F1594B;}
	.st3{opacity:0.2;fill:#650E81;}
	.st4{fill:#F5F5EE;}
	.st5{fill:#FFFFFF;}
	.st6{fill:#2D5115;}
	.st7{fill:#191819;}
	.st8{fill:#3F3D3F;}
	.st9{fill:#AB1C15;}
	.st10{fill:#81180F;}
	.st11{fill:#FDD326;}
	.st12{fill:#F7D2C4;}
	.st13{opacity:0.4;fill:#F0B4A8;}
	.st14{fill:#173906;}
	.st15{fill:#851F18;}
	.st16{fill:none;stroke:#3F3D3F;stroke-width:0.9691;stroke-linecap:round;stroke-linejoin:round;stroke-miterlimit:10;}
	.st17{fill:#3D3506;}
	.st18{fill:#ED551F;}
	.st19{fill:#FDD020;}
	.st20{fill:#F7B922;}
	.st21{fill:#EC2129;}
	.st22{fill:#6E8B33;}
	.st23{fill:#D2B884;}
	.st24{fill:#F9F3EA;}
</style>
<g>
	<path class="st0" d="M158.7,100.9c-1.6,0-2.7-0.5-3.5-1.6c-0.8-1.1-1.2-2.9-1.2-5.3V81.8h-20.4v12.3c0,2.4-0.4,4.1-1.2,5.3
		c-0.8,1.1-1.9,1.6-3.5,1.6s-2.7-0.5-3.5-1.6c-0.8-1.1-1.2-2.9-1.2-5.3V61.8c0-2.4,0.4-4.2,1.2-5.3c0.8-1.1,1.9-1.6,3.5-1.6
		s2.7,0.5,3.5,1.6c0.8,1.1,1.2,2.9,1.2,5.3v11.4H154V61.8c0-2.4,0.4-4.2,1.2-5.3c0.8-1.1,1.9-1.6,3.5-1.6c1.6,0,2.7,0.5,3.5,1.6
		c0.8,1.1,1.2,2.9,1.2,5.3v32.3c0,2.4-0.4,4.1-1.2,5.3C161.4,100.4,160.3,100.9,158.7,100.9z"/>
	<path class="st0" d="M185,101.2c-4.2,0-7.7-1.7-10.6-5c-2.9-3.3-4.3-7.5-4.3-12.5c0-4.9,1.5-9.1,4.5-12.5c2.9-3.3,6.6-5,10.8-5
		c1.6,0,3.1,0.3,4.4,0.8c1.2,0.6,2.4,1.4,3.3,2.6l0.5,0.6l0.4-0.7c0.5-1,1.2-1.7,1.9-2.2c0.7-0.5,1.5-0.7,2.4-0.7
		c1.5,0,2.6,0.5,3.3,1.6c0.8,1.1,1.1,2.9,1.1,5.3V94c0,2.4-0.4,4.1-1.2,5.3c-0.7,1.1-1.8,1.6-3.3,1.6c-1,0-1.9-0.2-2.5-0.7
		c-0.7-0.5-1.3-1.3-1.8-2.5l-0.4-0.8l-0.6,0.7c-1,1.2-2.2,2.1-3.5,2.7C188.2,100.9,186.6,101.2,185,101.2z M186.7,74.9
		c-2.1,0-3.9,0.8-5.2,2.5c-1.3,1.6-2,3.7-2,6.3c0,2.6,0.7,4.8,2,6.4c1.3,1.7,3.1,2.5,5.2,2.5c2.1,0,3.8-0.9,5.2-2.5
		c1.3-1.6,2-3.8,2-6.4c0-2.5-0.7-4.6-2-6.2C190.5,75.7,188.7,74.9,186.7,74.9z"/>
	<path class="st1" d="M250.3,100.9c-1.8,0-3.2-0.4-4.2-1.3c-1-0.9-1.8-2.3-2.3-4.2L237,69.2l-1.1,0l-6.5,25.7
		c-0.5,2-1.3,3.5-2.5,4.5c-1.2,1-2.7,1.5-4.5,1.5c-1.8,0-3.3-0.5-4.3-1.4c-1-1-1.8-2.7-2.4-5.1l-7.6-33.3c0-0.2-0.1-0.5-0.1-0.8
		c0-0.3,0-0.8,0-1.4c0-1.3,0.4-2.3,1.3-3c0.9-0.8,2-1.2,3.5-1.2c1.2,0,2.2,0.3,3,1.1c0.8,0.7,1.3,1.8,1.5,3.1l5.5,29.2l1.1,0
		l7.6-29.4c0.3-1.3,1-2.4,1.8-3c0.9-0.7,2-1,3.4-1c1.4,0,2.5,0.3,3.3,1c0.9,0.7,1.5,1.7,1.8,3.1l7.5,29.2l1.1,0l5.5-28.5
		c0.3-1.7,0.9-3,1.6-3.7c0.7-0.7,1.8-1.1,3.1-1.1c1.4,0,2.5,0.4,3.3,1.2c0.9,0.8,1.3,1.8,1.3,3.1c0,0.4,0,0.9-0.1,1.4
		c-0.1,0.5-0.2,1-0.3,1.5l-8,32.3c-0.6,2.7-1.4,4.4-2.4,5.3C253.7,100.5,252.2,100.9,250.3,100.9z"/>
	<path class="st2" d="M282.6,101.4c-4.8,0-8.9-1.7-12-5c-3.1-3.3-4.7-7.6-4.7-12.7c0-5.1,1.6-9.4,4.7-12.7c3.1-3.3,7.2-5,12-5
		c4.9,0,8.9,1.7,12,4.9c3.1,3.3,4.7,7.6,4.7,12.7s-1.6,9.4-4.7,12.7C291.5,99.8,287.5,101.4,282.6,101.4z M282.6,74.5
		c-2.2,0-3.9,0.9-5.3,2.6c-1.3,1.7-2,3.9-2,6.5c0,2.7,0.7,5,2,6.7c1.4,1.7,3.1,2.6,5.3,2.6s4-0.9,5.3-2.6c1.3-1.7,2-3.9,2-6.6
		c0-2.6-0.7-4.8-2-6.5C286.5,75.4,284.7,74.5,282.6,74.5z"/>
	<path class="st1" d="M320.2,101.4c-4.8,0-8.9-1.7-12-5c-3.1-3.3-4.7-7.6-4.7-12.7c0-5.1,1.6-9.4,4.7-12.7c3.1-3.3,7.2-5,12-5
		c4.9,0,8.9,1.7,12,4.9c3.1,3.3,4.7,7.6,4.7,12.7s-1.6,9.4-4.7,12.7C329.1,99.8,325,101.4,320.2,101.4z M320.2,74.5
		c-2.2,0-3.9,0.9-5.3,2.6c-1.3,1.7-2,3.9-2,6.5c0,2.7,0.7,5,2,6.7c1.4,1.7,3.1,2.6,5.3,2.6c2.2,0,4-0.9,5.3-2.6c1.3-1.7,2-3.9,2-6.6
		c0-2.6-0.7-4.8-2-6.5C324.1,75.4,322.3,74.5,320.2,74.5z"/>
	<path class="st2" d="M357.7,101.4c-4.8,0-8.9-1.7-12-5c-3.1-3.3-4.7-7.6-4.7-12.7c0-5.1,1.6-9.4,4.7-12.7c3.1-3.3,7.2-5,12-5
		c4.9,0,8.9,1.7,12,4.9c3.1,3.3,4.7,7.6,4.7,12.7s-1.6,9.4-4.7,12.7C366.6,99.8,362.6,101.4,357.7,101.4z M357.7,74.5
		c-2.1,0-3.9,0.9-5.3,2.6c-1.3,1.7-2,3.9-2,6.5c0,2.7,0.7,5,2,6.7c1.3,1.7,3.1,2.6,5.3,2.6c2.2,0,4-0.9,5.3-2.6c1.3-1.7,2-3.9,2-6.6
		c0-2.6-0.7-4.8-2-6.5C361.6,75.4,359.8,74.5,357.7,74.5z"/>
	<path class="st0" d="M273.7,45.4l2.8,0c0.3-0.8,0.5-1.7,0.8-2.6l2,0c-0.3,0.9-0.6,1.8-0.9,2.6l3.2,0l0,1.8l-0.5,0
		c-0.1,3.3-0.8,6-2,8.1c0.7,0.5,1.5,1,2.4,1.5l0,2.5c-1.3-0.9-2.4-1.8-3.4-2.6c-1.1,1.3-2.5,2.3-4.1,3l0-1.9c1.1-0.6,2-1.3,2.7-2.2
		c-1.5-1.1-2.3-2-2.3-2.8c0-0.2,0.5-2.1,1.6-5.6l-2.2,0L273.7,45.4z M277.5,54.2c1.1-1.9,1.7-4.2,1.8-7l-1.6,0
		c-1.1,3.2-1.7,5-1.7,5.3C276,52.8,276.5,53.4,277.5,54.2z M281.6,49.7l4.4,0l0-1.5c0.4-0.5,0.7-1,1-1.5c0.4-0.8,0.7-1.2,0.7-1.4
		c0-0.1,0-0.2-0.1-0.2l-5.8,0l0-1.7l6.9,0c0.7,0.1,1,0.6,1,1.5c0,1-0.6,2.3-1.8,3.8l0,1.1l2,0l0,1.8l-2,0l0,4.9
		c0,1.8-0.9,2.8-2.6,2.9c-1.3,0-2.3,0-2.9-0.1l0-1.9c0.5,0.2,1.3,0.2,2.3,0.2c0.9-0.1,1.4-0.4,1.4-1.2l0-4.9l-4.5,0L281.6,49.7z"/>
	<path class="st0" d="M302.4,46.3c-0.4,2-1.1,3.5-2.1,4.7v-2.9c0.5-1.3,0.8-3,0.8-5.1l1.6,0c0,0.5,0,1.1-0.1,1.5l0.7,0l0-2l1.8,0
		l0,2l1.5,0l0,1.8l-1.5,0l0,5.7c0.5-0.2,0.9-0.4,1.3-0.6l0,2c-0.4,0.2-0.8,0.4-1.3,0.6l0,5.5l-1.8,0l0-4.9c-0.9,0.3-1.9,0.6-3.1,0.9
		l0-1.9c1.1-0.3,2.1-0.6,3.1-1l0-6.3L302.4,46.3z M308.4,42.5l1.8,0c-0.1,0.5-0.1,0.9-0.2,1.3l2.5,0c1,0,1.9,0.3,2.5,0.9
		c0.6,0.6,0.9,1.2,1,1.9c0.2,1.5,0.3,2.9,0.3,4.3c0,2.6-0.1,4.2-0.2,5c-0.1,2.1-1.1,3.2-3.2,3.4c-1.3,0-2.3,0-3.2-0.1l0-1.8
		c0.6,0.1,1.5,0.2,2.7,0.2c1,0,1.7-0.6,1.9-1.8c0.1-1.1,0.1-2.2,0.1-3.4c-1.6,2.8-4.1,4.7-7.5,5.7l0-2.1c3.5-0.8,5.9-3.3,7.4-7.4
		c0-0.7-0.1-1.2-0.1-1.4c-0.1-0.7-0.5-1.2-1.2-1.3c-0.5,3.8-2.5,6.5-6.1,8.3l0-2c2.4-1.4,3.9-3.6,4.4-6.4l-1.8,0c-0.6,1.7-1.6,3-3,4
		l0-2.3C307.7,46,308.4,44.4,308.4,42.5z"/>
	<path class="st0" d="M332.8,45.5l0,1.7c-0.5,0.1-1.1,0.1-1.6,0.2l0,2.4l2.5,0l0-4.5l1.8,0l0,4.5l0.5,0c1.1,0,1.9,0.2,2.4,0.6
		c0.6,0.3,0.9,0.9,0.9,1.7v0c0.9-0.5,1.8-0.8,2.7-0.8l0,1.7c-0.9,0.1-1.7,0.3-2.6,0.7c0,0,0,0.1,0,0.1c1.1,0.1,2,0.3,2.6,0.5l0,1.8
		c-0.6-0.2-1.3-0.4-2.3-0.6c0.4,1.1,1,1.7,1.9,1.7c0.3,0,0.7-0.1,1.1-0.1l0,1.7c-0.5,0.1-1,0.1-1.4,0.1c-2.3,0-3.6-2-3.8-6
		c-0.1-0.8-0.6-1.2-1.4-1.2l-0.7,0l0,7.6l-1.8,0l0-7.6l-2.5,0l0,0.2c-0.1,3.7-1.4,6.2-3.9,7.3l0-2c1.4-0.8,2.2-2.6,2.2-5.5l-2.7,0
		l0-1.7l2.6,0l0-2.2c-0.7,0-1.4,0.1-2.1,0.1l0-1.7C328.9,46,330.7,45.8,332.8,45.5z M327.5,42.9l8.5-0.1c1,0,1.8,0.2,2.4,0.6
		c0.3,0.2,0.5,0.4,0.6,0.7c0.9-0.4,1.9-0.8,2.9-1.2l0,1.8c-0.9,0.3-1.7,0.6-2.6,1v0.1c1.1,0.1,2,0.2,2.6,0.4l0,1.7
		c-0.6-0.2-1.3-0.4-2.3-0.5c0.4,1.1,1,1.6,2,1.6c0.3,0,0.7-0.1,1.1-0.1l0,1.6c-0.5,0-1,0.1-1.4,0.1c-2.3,0-3.5-1.6-3.7-4.8
		c-0.1-0.8-0.5-1.2-1.4-1.2l-8.8,0.1L327.5,42.9z"/>
	<path class="st0" d="M356.9,42.1l2,0c-1.2,2.7-3.2,4.6-5.7,5.7l0-2C354.6,45.1,355.9,43.8,356.9,42.1z M355.6,50.9
		c-0.7,0.6-1.6,1-2.4,1.4l0-2c1.9-1.1,3.5-2.8,4.8-5l1.9,0c-0.7,1.5-1.5,2.8-2.4,3.8l0.1,9.7l-1.9,0L355.6,50.9z M359.8,47l9.7-0.1
		l0,1.8l-2,0c0,1.1,0.1,2.8,0.1,5.1c0,1.5-0.1,2.4-0.3,3c-0.3,1.2-1.3,1.8-2.9,1.9c-1.7,0-3-0.1-3.9-0.3l0-1.7
		c1.3,0.2,2.5,0.3,3.6,0.3c0.7,0,1.1-0.3,1.4-0.8c0.1-0.3,0.2-1.1,0.2-2.3c0-2.3-0.1-4-0.1-5.1l-5.7,0L359.8,47z M360.3,42.7
		l8.6-0.1l0,1.7l-8.6,0.1L360.3,42.7z"/>
	<g>
		<path class="st3" d="M72.2,42.7c-0.7,0.3-0.7,2.7,0.5,2.6C73.9,45.1,73.7,42.1,72.2,42.7z"/>
		<path class="st3" d="M65.5,40.6c-0.7,0.3-0.7,2.7,0.5,2.6C67.2,43,66.9,40,65.5,40.6z"/>
		<path class="st3" d="M68.8,37.7c-0.7,0.3-0.7,2.7,0.5,2.6C70.5,40.1,70.2,37.1,68.8,37.7z"/>
	</g>
	<g>
		<rect x="85.3" y="63.1" class="st1" width="16.9" height="37.8"/>
		<polygon class="st1" points="102.2,58.6 85.3,58.6 101.7,42 118.6,42 		"/>
	</g>
	<g>
		<rect x="26.1" y="51.5" class="st1" width="56.2" height="49.5"/>
		<g>
			<g>
				<g>
					<path class="st4" d="M85.5,67.1C85.5,67.1,85.5,67.1,85.5,67.1c-3.4-0.7-6.5-1.3-9.5-1.8c-22.8-4.2-34.8-5.3-41.5-5.7
						c-4.1-0.2-6.3-0.2-7.7-0.4c-0.3,0-0.5-0.1-0.7-0.2c-3.3-0.9,0.1-10.7,2.7-11.6c0.6-0.2,1.3-0.4,2.3-0.5
						c11.8-1.4,49.2,4,55.1,8.6C88.4,57.3,88.2,67.6,85.5,67.1z"/>
					<path class="st2" d="M103.8,11.2l1.4,0.4c0,0-0.5,6.6-7.8,12.4c-15,12-12.9,26.8-11.3,31.4c-5.9-4.6-43.3-10-55.1-8.6
						c0,0,10.7-18.4,27.4-23.4C78.6,17.4,95.3,21,103.8,11.2z"/>
					<path class="st3" d="M85.5,67.1C85.5,67.1,85.5,67.1,85.5,67.1c-3.4-0.7-6.5-1.3-9.5-1.8c-22.8-4.2-34.8-5.3-41.5-5.7
						c-4.1-0.2-6.3-0.2-7.7-0.4c-0.2,0.3-0.9,1-1.8,2.1c3,0.1,5.9,0.3,8.9,0.5c14.1,1,28.1,3,42.1,5c3.5,0.5,7,1,10.4,1.5
						C86.1,67.8,85.8,67.4,85.5,67.1z"/>
				</g>
			</g>
			<path class="st4" d="M108.7,15c-0.2,2.7-2.4,4.7-5,4.5c-2.6-0.2-4.5-2.5-4.3-5.1s2.4-4.7,5-4.5C106.9,10.1,108.8,12.4,108.7,15z"
				/>
		</g>
		<g>
			<path class="st5" d="M69,89.3c-0.5,0-0.9-0.2-1.2-0.5c-0.5-0.4-0.8-1.2-1-2.3l-0.6-3.2L66,83.5c-4.1,1.9-8.5,2.8-13.1,2.8
				c-4.5,0-8.9-1-13.1-2.8l-0.3-0.1l-0.6,3.2c-0.2,1.1-0.5,1.9-1,2.3c-0.3,0.3-0.7,0.5-1.2,0.5c-0.2,0-0.3,0-0.5,0
				c-0.7-0.1-1.2-0.5-1.5-1c-0.3-0.6-0.3-1.4-0.1-2.5l1.5-8.2c0.1-0.3,0.1-0.6,0.2-0.9c0.2-0.7,0.5-1.1,0.8-1.5
				c0.3-0.3,0.7-0.5,1.2-0.5c0.1,0,0.3,0,0.5,0c0.7,0.1,1.2,0.5,1.5,1c0.3,0.6,0.3,1.4,0.1,2.5l-0.2,1.2l0.2,0.1c3.9,2,8.2,3,12.5,3
				c4.4,0,8.6-1,12.6-3l0.2-0.1l-0.2-1.2c-0.2-1.1-0.1-1.9,0.1-2.5c0.3-0.6,0.7-0.9,1.5-1c0.2,0,0.3,0,0.5,0c0.5,0,0.9,0.2,1.2,0.5
				c0.3,0.3,0.6,0.8,0.8,1.5c0.1,0.3,0.1,0.6,0.2,0.9l1.5,8.2c0.2,1.1,0.2,1.9-0.1,2.5c-0.3,0.5-0.7,0.9-1.5,1
				C69.4,89.3,69.2,89.3,69,89.3z"/>
			<path class="st5" d="M44.6,74.8c-0.8,0-1.5-0.3-2.1-1c-0.5-0.7-0.8-1.6-0.8-2.8c0-1.1,0.3-2,0.8-2.7c0.5-0.7,1.2-1,2-1
				c0.8,0,1.5,0.3,2,1c0.6,0.7,0.8,1.6,0.8,2.7c0,1.1-0.3,2.1-0.8,2.8C46.1,74.5,45.5,74.8,44.6,74.8z"/>
			<path class="st5" d="M61.1,74.8c-0.9,0-1.5-0.3-2.1-1c-0.5-0.7-0.8-1.6-0.8-2.8c0-1.1,0.3-2,0.8-2.7c0.5-0.7,1.2-1,2-1
				c0.8,0,1.5,0.3,2,1c0.6,0.7,0.8,1.6,0.8,2.7c0,1.1-0.3,2.1-0.8,2.8C62.6,74.5,62,74.8,61.1,74.8z"/>
		</g>
	</g>
</g>
</svg>
